<svg width="960" height="1080" viewBox="0 0 960 1080" fill="none" xmlns="http://www.w3.org/2000/svg">
<g opacity="0.64" clip-path="url(#clip0_926_190)">
<path d="M698.118 -51H411.8C271.84 -51 158 62.8735 158 202.875C158 249.604 195.832 285.12 242.6 285.12C289.368 285.12 327.2 247.25 327.2 202.875C327.2 156.225 365.111 118.25 411.8 118.25H698.118C773.465 118.25 834.8 179.577 834.8 255.21C834.8 307.36 805.798 354.301 754.166 380.376L495.871 531.828C467.583 547.167 454.1 574.934 454.1 604.817V710.599C454.1 757.327 491.932 795.197 538.7 795.197C585.468 795.197 623.3 757.327 623.3 710.599V653.212L834.8 528.919C939.149 476.69 1004 371.781 1004 255.21C1004 86.357 866.789 -51 698.118 -51ZM538.7 922.161C480.3 922.161 432.95 969.525 432.95 1027.94C432.95 1086.36 480.3 1131.34 538.7 1131.34C597.1 1131.34 644.45 1084.01 644.45 1027.94C644.45 971.878 597.127 922.161 538.7 922.161Z" fill="url(#paint0_linear_926_190)"/>
</g>
<defs>
<linearGradient id="paint0_linear_926_190" x1="158" y1="-51" x2="1307.96" y2="534.866" gradientUnits="userSpaceOnUse">
<stop stop-color="#D9304C"/>
<stop offset="1" stop-color="#BE82FA"/>
</linearGradient>
<clipPath id="clip0_926_190">
<rect width="960" height="1080" fill="white"/>
</clipPath>
</defs>
</svg>
