<svg width="960" height="1080" viewBox="0 0 960 1080" fill="none" xmlns="http://www.w3.org/2000/svg">
<g clip-path="url(#clip0_926_186)">
<path opacity="0.64" d="M426.242 196.1C442.301 210.635 443.612 235.493 429.028 251.651L311.109 382.81C303.882 390.676 293.69 395.428 282.907 394.281C272.125 396.083 261.703 391.823 254.067 382.81L188.518 317.263C173.161 303.334 173.161 278.427 188.518 263.072C203.874 247.718 228.782 247.718 244.136 263.072L280.367 299.238L370.691 199.016C385.111 182.876 410.019 181.565 426.242 196.1ZM426.242 458.353C442.301 472.773 443.612 497.681 429.028 513.904L311.109 644.997C303.882 652.863 293.69 657.615 282.907 656.468C272.125 658.271 261.703 654.01 254.067 644.997L188.518 579.451C173.161 565.522 173.161 540.614 188.518 525.21C203.874 509.971 228.782 509.971 244.136 525.21L280.367 561.425L370.691 461.138C385.111 445.079 410.019 443.768 426.242 458.353ZM544.062 290.88C544.062 261.925 567.496 238.443 596.5 238.443H963.562C992.567 238.443 1016 261.925 1016 290.88C1016 319.885 992.567 343.318 963.562 343.318H596.5C567.496 343.318 544.062 319.885 544.062 290.88ZM544.062 553.068C544.062 524.063 567.496 500.63 596.5 500.63H963.562C992.567 500.63 1016 524.063 1016 553.068C1016 582.072 992.567 605.505 963.562 605.505H596.5C567.496 605.505 544.062 582.072 544.062 553.068ZM439.188 815.255C439.188 786.251 462.621 762.818 491.625 762.818H963.562C992.567 762.818 1016 786.251 1016 815.255C1016 844.26 992.567 867.693 963.562 867.693H491.625C462.621 867.693 439.188 844.26 439.188 815.255ZM177 815.255C177 771.831 212.215 736.599 255.656 736.599C299.097 736.599 334.312 771.831 334.312 815.255C334.312 858.68 299.097 893.912 255.656 893.912C212.215 893.912 177 858.68 177 815.255Z" fill="url(#paint0_linear_926_186)"/>
</g>
<defs>
<linearGradient id="paint0_linear_926_186" x1="177" y1="186" x2="1016" y2="894" gradientUnits="userSpaceOnUse">
<stop stop-color="#D9304C"/>
<stop offset="1" stop-color="#BE82FA"/>
</linearGradient>
<clipPath id="clip0_926_186">
<rect width="960" height="1080" fill="white"/>
</clipPath>
</defs>
</svg>
