<svg width="1920" height="1080" viewBox="0 0 1920 1080" fill="none" xmlns="http://www.w3.org/2000/svg">
<g clip-path="url(#clip0_701_1018)">
<rect x="557" y="314" width="174" height="101" rx="11" fill="url(#paint0_linear_701_1018)"/>
<rect x="557" y="314" width="174" height="101" rx="11" stroke="white" stroke-width="2"/>
<path d="M642.557 360.875H637.58C637.489 360.231 637.303 359.659 637.023 359.159C636.742 358.652 636.383 358.22 635.943 357.864C635.504 357.508 634.996 357.235 634.42 357.045C633.852 356.856 633.235 356.761 632.568 356.761C631.364 356.761 630.314 357.061 629.42 357.659C628.527 358.25 627.833 359.114 627.341 360.25C626.848 361.379 626.602 362.75 626.602 364.364C626.602 366.023 626.848 367.417 627.341 368.545C627.841 369.674 628.538 370.527 629.432 371.102C630.326 371.678 631.36 371.966 632.534 371.966C633.193 371.966 633.803 371.879 634.364 371.705C634.932 371.53 635.436 371.277 635.875 370.943C636.314 370.602 636.678 370.189 636.966 369.705C637.261 369.22 637.466 368.667 637.58 368.045L642.557 368.068C642.428 369.136 642.106 370.167 641.591 371.159C641.083 372.144 640.398 373.027 639.534 373.807C638.678 374.58 637.655 375.193 636.466 375.648C635.284 376.095 633.947 376.318 632.455 376.318C630.379 376.318 628.523 375.848 626.886 374.909C625.258 373.97 623.97 372.61 623.023 370.83C622.083 369.049 621.614 366.894 621.614 364.364C621.614 361.826 622.091 359.667 623.045 357.886C624 356.106 625.295 354.75 626.932 353.818C628.568 352.879 630.409 352.409 632.455 352.409C633.803 352.409 635.053 352.598 636.205 352.977C637.364 353.356 638.39 353.909 639.284 354.636C640.178 355.356 640.905 356.239 641.466 357.284C642.034 358.33 642.398 359.527 642.557 360.875ZM654.335 376H646.085V352.727H654.403C656.744 352.727 658.759 353.193 660.449 354.125C662.138 355.049 663.438 356.379 664.347 358.114C665.263 359.848 665.722 361.924 665.722 364.341C665.722 366.765 665.263 368.848 664.347 370.591C663.438 372.333 662.131 373.67 660.426 374.602C658.729 375.534 656.699 376 654.335 376ZM651.006 371.784H654.131C655.585 371.784 656.809 371.527 657.801 371.011C658.801 370.489 659.551 369.682 660.051 368.591C660.559 367.492 660.812 366.076 660.812 364.341C660.812 362.621 660.559 361.216 660.051 360.125C659.551 359.034 658.805 358.231 657.812 357.716C656.82 357.201 655.597 356.943 654.142 356.943H651.006V371.784Z" fill="white"/>
<rect x="437" y="481" width="174" height="101" rx="11" fill="white" fill-opacity="0.8"/>
<rect x="437" y="481" width="174" height="101" rx="11" stroke="white" stroke-width="2"/>
<rect x="667" y="481" width="174" height="101" rx="11" fill="url(#paint1_linear_701_1018)"/>
<rect x="667" y="481" width="174" height="101" rx="11" stroke="white" stroke-width="2"/>
<path d="M752.557 527.875H747.58C747.489 527.231 747.303 526.659 747.023 526.159C746.742 525.652 746.383 525.22 745.943 524.864C745.504 524.508 744.996 524.235 744.42 524.045C743.852 523.856 743.235 523.761 742.568 523.761C741.364 523.761 740.314 524.061 739.42 524.659C738.527 525.25 737.833 526.114 737.341 527.25C736.848 528.379 736.602 529.75 736.602 531.364C736.602 533.023 736.848 534.417 737.341 535.545C737.841 536.674 738.538 537.527 739.432 538.102C740.326 538.678 741.36 538.966 742.534 538.966C743.193 538.966 743.803 538.879 744.364 538.705C744.932 538.53 745.436 538.277 745.875 537.943C746.314 537.602 746.678 537.189 746.966 536.705C747.261 536.22 747.466 535.667 747.58 535.045L752.557 535.068C752.428 536.136 752.106 537.167 751.591 538.159C751.083 539.144 750.398 540.027 749.534 540.807C748.678 541.58 747.655 542.193 746.466 542.648C745.284 543.095 743.947 543.318 742.455 543.318C740.379 543.318 738.523 542.848 736.886 541.909C735.258 540.97 733.97 539.61 733.023 537.83C732.083 536.049 731.614 533.894 731.614 531.364C731.614 528.826 732.091 526.667 733.045 524.886C734 523.106 735.295 521.75 736.932 520.818C738.568 519.879 740.409 519.409 742.455 519.409C743.803 519.409 745.053 519.598 746.205 519.977C747.364 520.356 748.39 520.909 749.284 521.636C750.178 522.356 750.905 523.239 751.466 524.284C752.034 525.33 752.398 526.527 752.557 527.875ZM764.335 543H756.085V519.727H764.403C766.744 519.727 768.759 520.193 770.449 521.125C772.138 522.049 773.438 523.379 774.347 525.114C775.263 526.848 775.722 528.924 775.722 531.341C775.722 533.765 775.263 535.848 774.347 537.591C773.438 539.333 772.131 540.67 770.426 541.602C768.729 542.534 766.699 543 764.335 543ZM761.006 538.784H764.131C765.585 538.784 766.809 538.527 767.801 538.011C768.801 537.489 769.551 536.682 770.051 535.591C770.559 534.492 770.812 533.076 770.812 531.341C770.812 529.621 770.559 528.216 770.051 527.125C769.551 526.034 768.805 525.231 767.812 524.716C766.82 524.201 765.597 523.943 764.142 523.943H761.006V538.784Z" fill="white"/>
<rect x="150" y="648" width="174" height="101" rx="11" fill="white" fill-opacity="0.8"/>
<rect x="150" y="648" width="174" height="101" rx="11" stroke="white" stroke-width="2"/>
<rect x="390" y="648" width="174" height="101" rx="11" fill="white" fill-opacity="0.8"/>
<rect x="390" y="648" width="174" height="101" rx="11" stroke="white" stroke-width="2"/>
<rect x="150" y="815" width="174" height="101" rx="11" fill="white" fill-opacity="0.8"/>
<rect x="150" y="815" width="174" height="101" rx="11" stroke="white" stroke-width="2"/>
<rect x="390" y="815" width="174" height="101" rx="11" fill="white" fill-opacity="0.8"/>
<rect x="390" y="815" width="174" height="101" rx="11" stroke="white" stroke-width="2"/>
<rect x="692" y="648" width="174" height="101" rx="11" fill="url(#paint2_linear_701_1018)"/>
<rect x="692" y="648" width="174" height="101" rx="11" stroke="white" stroke-width="2"/>
<path d="M777.557 694.875H772.58C772.489 694.231 772.303 693.659 772.023 693.159C771.742 692.652 771.383 692.22 770.943 691.864C770.504 691.508 769.996 691.235 769.42 691.045C768.852 690.856 768.235 690.761 767.568 690.761C766.364 690.761 765.314 691.061 764.42 691.659C763.527 692.25 762.833 693.114 762.341 694.25C761.848 695.379 761.602 696.75 761.602 698.364C761.602 700.023 761.848 701.417 762.341 702.545C762.841 703.674 763.538 704.527 764.432 705.102C765.326 705.678 766.36 705.966 767.534 705.966C768.193 705.966 768.803 705.879 769.364 705.705C769.932 705.53 770.436 705.277 770.875 704.943C771.314 704.602 771.678 704.189 771.966 703.705C772.261 703.22 772.466 702.667 772.58 702.045L777.557 702.068C777.428 703.136 777.106 704.167 776.591 705.159C776.083 706.144 775.398 707.027 774.534 707.807C773.678 708.58 772.655 709.193 771.466 709.648C770.284 710.095 768.947 710.318 767.455 710.318C765.379 710.318 763.523 709.848 761.886 708.909C760.258 707.97 758.97 706.61 758.023 704.83C757.083 703.049 756.614 700.894 756.614 698.364C756.614 695.826 757.091 693.667 758.045 691.886C759 690.106 760.295 688.75 761.932 687.818C763.568 686.879 765.409 686.409 767.455 686.409C768.803 686.409 770.053 686.598 771.205 686.977C772.364 687.356 773.39 687.909 774.284 688.636C775.178 689.356 775.905 690.239 776.466 691.284C777.034 692.33 777.398 693.527 777.557 694.875ZM789.335 710H781.085V686.727H789.403C791.744 686.727 793.759 687.193 795.449 688.125C797.138 689.049 798.438 690.379 799.347 692.114C800.263 693.848 800.722 695.924 800.722 698.341C800.722 700.765 800.263 702.848 799.347 704.591C798.438 706.333 797.131 707.67 795.426 708.602C793.729 709.534 791.699 710 789.335 710ZM786.006 705.784H789.131C790.585 705.784 791.809 705.527 792.801 705.011C793.801 704.489 794.551 703.682 795.051 702.591C795.559 701.492 795.812 700.076 795.812 698.341C795.812 696.621 795.559 695.216 795.051 694.125C794.551 693.034 793.805 692.231 792.812 691.716C791.82 691.201 790.597 690.943 789.142 690.943H786.006V705.784Z" fill="white"/>
<rect x="932" y="648" width="174" height="101" rx="11" fill="white" fill-opacity="0.8"/>
<rect x="932" y="648" width="174" height="101" rx="11" stroke="white" stroke-width="2"/>
<rect x="692" y="815" width="174" height="101" rx="11" fill="url(#paint3_linear_701_1018)"/>
<rect x="692" y="815" width="174" height="101" rx="11" stroke="white" stroke-width="2"/>
<path d="M777.557 861.875H772.58C772.489 861.231 772.303 860.659 772.023 860.159C771.742 859.652 771.383 859.22 770.943 858.864C770.504 858.508 769.996 858.235 769.42 858.045C768.852 857.856 768.235 857.761 767.568 857.761C766.364 857.761 765.314 858.061 764.42 858.659C763.527 859.25 762.833 860.114 762.341 861.25C761.848 862.379 761.602 863.75 761.602 865.364C761.602 867.023 761.848 868.417 762.341 869.545C762.841 870.674 763.538 871.527 764.432 872.102C765.326 872.678 766.36 872.966 767.534 872.966C768.193 872.966 768.803 872.879 769.364 872.705C769.932 872.53 770.436 872.277 770.875 871.943C771.314 871.602 771.678 871.189 771.966 870.705C772.261 870.22 772.466 869.667 772.58 869.045L777.557 869.068C777.428 870.136 777.106 871.167 776.591 872.159C776.083 873.144 775.398 874.027 774.534 874.807C773.678 875.58 772.655 876.193 771.466 876.648C770.284 877.095 768.947 877.318 767.455 877.318C765.379 877.318 763.523 876.848 761.886 875.909C760.258 874.97 758.97 873.61 758.023 871.83C757.083 870.049 756.614 867.894 756.614 865.364C756.614 862.826 757.091 860.667 758.045 858.886C759 857.106 760.295 855.75 761.932 854.818C763.568 853.879 765.409 853.409 767.455 853.409C768.803 853.409 770.053 853.598 771.205 853.977C772.364 854.356 773.39 854.909 774.284 855.636C775.178 856.356 775.905 857.239 776.466 858.284C777.034 859.33 777.398 860.527 777.557 861.875ZM789.335 877H781.085V853.727H789.403C791.744 853.727 793.759 854.193 795.449 855.125C797.138 856.049 798.438 857.379 799.347 859.114C800.263 860.848 800.722 862.924 800.722 865.341C800.722 867.765 800.263 869.848 799.347 871.591C798.438 873.333 797.131 874.67 795.426 875.602C793.729 876.534 791.699 877 789.335 877ZM786.006 872.784H789.131C790.585 872.784 791.809 872.527 792.801 872.011C793.801 871.489 794.551 870.682 795.051 869.591C795.559 868.492 795.812 867.076 795.812 865.341C795.812 863.621 795.559 862.216 795.051 861.125C794.551 860.034 793.805 859.231 792.812 858.716C791.82 858.201 790.597 857.943 789.142 857.943H786.006V872.784Z" fill="white"/>
<rect x="932" y="815" width="174" height="101" rx="11" fill="white" fill-opacity="0.8"/>
<rect x="932" y="815" width="174" height="101" rx="11" stroke="white" stroke-width="2"/>
<line x1="646" y1="415.414" x2="580.414" y2="481" stroke="white" stroke-width="2" stroke-linecap="round"/>
<line x1="711.586" y1="481" x2="646" y2="415.414" stroke="white" stroke-width="2" stroke-linecap="round"/>
<line x1="765.359" y1="582.392" x2="801.392" y2="647.641" stroke="white" stroke-width="2" stroke-linecap="round"/>
<line x1="1017.78" y1="647.716" x2="765.716" y2="582.219" stroke="white" stroke-width="2" stroke-linecap="round"/>
<line x1="521.247" y1="583.197" x2="238.197" y2="647.753" stroke="white" stroke-width="2" stroke-linecap="round"/>
<line x1="473.787" y1="648.602" x2="522.602" y2="582.213" stroke="white" stroke-width="2" stroke-linecap="round"/>
<line x1="476" y1="815" x2="476" y2="749" stroke="white" stroke-width="2" stroke-linecap="round"/>
<line x1="1038" y1="815" x2="1038" y2="749" stroke="white" stroke-width="2" stroke-linecap="round"/>
<line x1="783" y1="815" x2="783" y2="749" stroke="white" stroke-width="2" stroke-linecap="round"/>
<line x1="236" y1="815" x2="236" y2="749" stroke="white" stroke-width="2" stroke-linecap="round"/>
<path d="M1254.02 641V617.727H1263.2C1264.97 617.727 1266.47 618.064 1267.72 618.739C1268.96 619.405 1269.91 620.333 1270.56 621.523C1271.22 622.705 1271.55 624.068 1271.55 625.614C1271.55 627.159 1271.21 628.523 1270.55 629.705C1269.88 630.886 1268.91 631.807 1267.65 632.466C1266.39 633.125 1264.87 633.455 1263.08 633.455H1257.23V629.511H1262.28C1263.23 629.511 1264.01 629.348 1264.62 629.023C1265.25 628.689 1265.71 628.231 1266.01 627.648C1266.32 627.057 1266.48 626.379 1266.48 625.614C1266.48 624.841 1266.32 624.167 1266.01 623.591C1265.71 623.008 1265.25 622.557 1264.62 622.239C1264 621.913 1263.22 621.75 1262.26 621.75H1258.94V641H1254.02ZM1282.32 641.341C1280.53 641.341 1278.98 640.977 1277.69 640.25C1276.4 639.515 1275.41 638.477 1274.71 637.136C1274.01 635.788 1273.66 634.193 1273.66 632.352C1273.66 630.557 1274.01 628.981 1274.71 627.625C1275.41 626.269 1276.39 625.212 1277.65 624.455C1278.93 623.697 1280.42 623.318 1282.13 623.318C1283.28 623.318 1284.35 623.504 1285.35 623.875C1286.35 624.239 1287.22 624.788 1287.96 625.523C1288.71 626.258 1289.29 627.182 1289.71 628.295C1290.13 629.402 1290.34 630.697 1290.34 632.182V633.511H1275.6V630.511H1285.78C1285.78 629.814 1285.63 629.197 1285.32 628.659C1285.02 628.121 1284.6 627.701 1284.06 627.398C1283.53 627.087 1282.91 626.932 1282.21 626.932C1281.48 626.932 1280.82 627.102 1280.26 627.443C1279.7 627.777 1279.26 628.227 1278.94 628.795C1278.62 629.356 1278.46 629.981 1278.45 630.67V633.523C1278.45 634.386 1278.61 635.133 1278.93 635.761C1279.25 636.39 1279.71 636.875 1280.3 637.216C1280.89 637.557 1281.59 637.727 1282.4 637.727C1282.94 637.727 1283.43 637.652 1283.88 637.5C1284.33 637.348 1284.71 637.121 1285.03 636.818C1285.35 636.515 1285.59 636.144 1285.76 635.705L1290.23 636C1290.01 637.076 1289.54 638.015 1288.84 638.818C1288.14 639.614 1287.24 640.235 1286.13 640.682C1285.03 641.121 1283.76 641.341 1282.32 641.341ZM1293.49 641V623.545H1298.19V626.591H1298.37C1298.69 625.508 1299.22 624.689 1299.97 624.136C1300.72 623.576 1301.59 623.295 1302.56 623.295C1302.8 623.295 1303.07 623.311 1303.35 623.341C1303.63 623.371 1303.87 623.413 1304.09 623.466V627.761C1303.86 627.693 1303.54 627.633 1303.14 627.58C1302.74 627.527 1302.37 627.5 1302.04 627.5C1301.33 627.5 1300.69 627.655 1300.13 627.966C1299.58 628.269 1299.14 628.693 1298.81 629.239C1298.49 629.784 1298.34 630.413 1298.34 631.125V641H1293.49ZM1316.85 623.545V627.182H1306.08V623.545H1316.85ZM1308.54 641V622.284C1308.54 621.019 1308.79 619.97 1309.28 619.136C1309.78 618.303 1310.46 617.678 1311.33 617.261C1312.19 616.845 1313.17 616.636 1314.27 616.636C1315.01 616.636 1315.69 616.693 1316.3 616.807C1316.93 616.92 1317.39 617.023 1317.69 617.114L1316.83 620.75C1316.64 620.689 1316.4 620.633 1316.12 620.58C1315.85 620.527 1315.57 620.5 1315.28 620.5C1314.57 620.5 1314.07 620.667 1313.79 621C1313.51 621.326 1313.37 621.784 1313.37 622.375V641H1308.54ZM1327.07 641.341C1325.3 641.341 1323.78 640.966 1322.49 640.216C1321.21 639.458 1320.22 638.405 1319.52 637.057C1318.83 635.701 1318.48 634.129 1318.48 632.341C1318.48 630.538 1318.83 628.962 1319.52 627.614C1320.22 626.258 1321.21 625.205 1322.49 624.455C1323.78 623.697 1325.3 623.318 1327.07 623.318C1328.83 623.318 1330.36 623.697 1331.64 624.455C1332.92 625.205 1333.92 626.258 1334.61 627.614C1335.31 628.962 1335.66 630.538 1335.66 632.341C1335.66 634.129 1335.31 635.701 1334.61 637.057C1333.92 638.405 1332.92 639.458 1331.64 640.216C1330.36 640.966 1328.83 641.341 1327.07 641.341ZM1327.09 637.591C1327.89 637.591 1328.56 637.364 1329.1 636.909C1329.64 636.447 1330.05 635.818 1330.32 635.023C1330.6 634.227 1330.74 633.322 1330.74 632.307C1330.74 631.292 1330.6 630.386 1330.32 629.591C1330.05 628.795 1329.64 628.167 1329.1 627.705C1328.56 627.242 1327.89 627.011 1327.09 627.011C1326.28 627.011 1325.6 627.242 1325.05 627.705C1324.5 628.167 1324.09 628.795 1323.81 629.591C1323.53 630.386 1323.4 631.292 1323.4 632.307C1323.4 633.322 1323.53 634.227 1323.81 635.023C1324.09 635.818 1324.5 636.447 1325.05 636.909C1325.6 637.364 1326.28 637.591 1327.09 637.591ZM1338.81 641V623.545H1343.5V626.591H1343.68C1344 625.508 1344.53 624.689 1345.28 624.136C1346.03 623.576 1346.9 623.295 1347.88 623.295C1348.12 623.295 1348.38 623.311 1348.66 623.341C1348.94 623.371 1349.19 623.413 1349.4 623.466V627.761C1349.17 627.693 1348.86 627.633 1348.45 627.58C1348.05 627.527 1347.69 627.5 1347.35 627.5C1346.64 627.5 1346 627.655 1345.44 627.966C1344.89 628.269 1344.45 628.693 1344.12 629.239C1343.81 629.784 1343.65 630.413 1343.65 631.125V641H1338.81ZM1351.9 641V623.545H1356.51V626.625H1356.72C1357.08 625.602 1357.69 624.795 1358.54 624.205C1359.39 623.614 1360.4 623.318 1361.58 623.318C1362.78 623.318 1363.8 623.617 1364.64 624.216C1365.48 624.807 1366.04 625.61 1366.32 626.625H1366.5C1366.86 625.625 1367.5 624.826 1368.43 624.227C1369.37 623.621 1370.48 623.318 1371.76 623.318C1373.39 623.318 1374.71 623.837 1375.73 624.875C1376.75 625.905 1377.26 627.367 1377.26 629.261V641H1372.43V630.216C1372.43 629.246 1372.18 628.519 1371.66 628.034C1371.15 627.549 1370.5 627.307 1369.73 627.307C1368.85 627.307 1368.17 627.587 1367.67 628.148C1367.18 628.701 1366.93 629.432 1366.93 630.341V641H1362.24V630.114C1362.24 629.258 1362 628.576 1361.5 628.068C1361.02 627.561 1360.38 627.307 1359.58 627.307C1359.04 627.307 1358.56 627.443 1358.13 627.716C1357.7 627.981 1357.37 628.356 1357.12 628.841C1356.87 629.318 1356.74 629.879 1356.74 630.523V641H1351.9ZM1396.38 641.341C1394.59 641.341 1393.05 640.962 1391.77 640.205C1390.49 639.439 1389.5 638.379 1388.81 637.023C1388.13 635.667 1387.79 634.106 1387.79 632.341C1387.79 630.553 1388.13 628.985 1388.82 627.636C1389.52 626.28 1390.51 625.223 1391.79 624.466C1393.07 623.701 1394.59 623.318 1396.36 623.318C1397.88 623.318 1399.21 623.595 1400.36 624.148C1401.5 624.701 1402.41 625.477 1403.07 626.477C1403.74 627.477 1404.11 628.652 1404.18 630H1399.61C1399.48 629.129 1399.14 628.428 1398.59 627.898C1398.04 627.36 1397.32 627.091 1396.44 627.091C1395.69 627.091 1395.03 627.295 1394.47 627.705C1393.92 628.106 1393.49 628.693 1393.18 629.466C1392.87 630.239 1392.71 631.174 1392.71 632.273C1392.71 633.386 1392.86 634.333 1393.16 635.114C1393.48 635.894 1393.91 636.489 1394.47 636.898C1395.03 637.307 1395.69 637.511 1396.44 637.511C1396.99 637.511 1397.49 637.398 1397.93 637.17C1398.37 636.943 1398.74 636.614 1399.03 636.182C1399.32 635.742 1399.52 635.216 1399.61 634.602H1404.18C1404.1 635.936 1403.74 637.11 1403.09 638.125C1402.44 639.133 1401.55 639.92 1400.41 640.489C1399.28 641.057 1397.93 641.341 1396.38 641.341ZM1412.12 630.909V641H1407.28V617.727H1411.98V626.625H1412.18C1412.58 625.595 1413.21 624.788 1414.09 624.205C1414.97 623.614 1416.07 623.318 1417.4 623.318C1418.61 623.318 1419.67 623.583 1420.57 624.114C1421.48 624.636 1422.18 625.39 1422.68 626.375C1423.19 627.352 1423.44 628.523 1423.43 629.886V641H1418.59V630.75C1418.6 629.674 1418.33 628.837 1417.78 628.239C1417.23 627.64 1416.46 627.341 1415.48 627.341C1414.82 627.341 1414.24 627.481 1413.73 627.761C1413.23 628.042 1412.84 628.451 1412.55 628.989C1412.27 629.519 1412.12 630.159 1412.12 630.909ZM1432.22 641.33C1431.11 641.33 1430.12 641.136 1429.24 640.75C1428.37 640.356 1427.68 639.777 1427.18 639.011C1426.68 638.239 1426.43 637.277 1426.43 636.125C1426.43 635.155 1426.6 634.341 1426.96 633.682C1427.32 633.023 1427.8 632.492 1428.41 632.091C1429.03 631.689 1429.73 631.386 1430.51 631.182C1431.29 630.977 1432.12 630.833 1432.98 630.75C1434 630.644 1434.82 630.545 1435.44 630.455C1436.06 630.356 1436.51 630.212 1436.79 630.023C1437.07 629.833 1437.21 629.553 1437.21 629.182V629.114C1437.21 628.394 1436.98 627.837 1436.53 627.443C1436.08 627.049 1435.45 626.852 1434.62 626.852C1433.75 626.852 1433.05 627.045 1432.54 627.432C1432.02 627.811 1431.68 628.288 1431.52 628.864L1427.04 628.5C1427.27 627.439 1427.71 626.523 1428.38 625.75C1429.05 624.97 1429.91 624.371 1430.96 623.955C1432.02 623.53 1433.25 623.318 1434.64 623.318C1435.61 623.318 1436.54 623.432 1437.43 623.659C1438.32 623.886 1439.11 624.239 1439.8 624.716C1440.5 625.193 1441.05 625.807 1441.45 626.557C1441.85 627.299 1442.05 628.189 1442.05 629.227V641H1437.46V638.58H1437.32C1437.04 639.125 1436.67 639.606 1436.2 640.023C1435.73 640.432 1435.16 640.754 1434.51 640.989C1433.85 641.216 1433.09 641.33 1432.22 641.33ZM1433.61 637.989C1434.32 637.989 1434.95 637.848 1435.49 637.568C1436.04 637.28 1436.47 636.894 1436.78 636.409C1437.09 635.924 1437.24 635.375 1437.24 634.761V632.909C1437.09 633.008 1436.88 633.098 1436.62 633.182C1436.36 633.258 1436.07 633.33 1435.74 633.398C1435.42 633.458 1435.09 633.515 1434.77 633.568C1434.44 633.614 1434.15 633.655 1433.88 633.693C1433.31 633.777 1432.82 633.909 1432.39 634.091C1431.97 634.273 1431.64 634.519 1431.4 634.83C1431.17 635.133 1431.05 635.511 1431.05 635.966C1431.05 636.625 1431.29 637.129 1431.77 637.477C1432.25 637.818 1432.87 637.989 1433.61 637.989ZM1450.65 630.909V641H1445.81V623.545H1450.42V626.625H1450.62C1451.01 625.61 1451.66 624.807 1452.57 624.216C1453.48 623.617 1454.58 623.318 1455.88 623.318C1457.09 623.318 1458.14 623.583 1459.05 624.114C1459.95 624.644 1460.65 625.402 1461.15 626.386C1461.65 627.364 1461.9 628.53 1461.9 629.886V641H1457.06V630.75C1457.06 629.682 1456.79 628.848 1456.24 628.25C1455.69 627.644 1454.92 627.341 1453.95 627.341C1453.3 627.341 1452.73 627.481 1452.23 627.761C1451.73 628.042 1451.35 628.451 1451.07 628.989C1450.8 629.519 1450.66 630.159 1450.65 630.909ZM1473.58 647.909C1472.01 647.909 1470.66 647.693 1469.54 647.261C1468.43 646.837 1467.54 646.258 1466.88 645.523C1466.22 644.788 1465.8 643.962 1465.6 643.045L1470.08 642.443C1470.21 642.792 1470.43 643.117 1470.72 643.42C1471.02 643.723 1471.41 643.966 1471.89 644.148C1472.39 644.337 1472.99 644.432 1473.69 644.432C1474.74 644.432 1475.61 644.174 1476.29 643.659C1476.98 643.152 1477.33 642.299 1477.33 641.102V637.909H1477.12C1476.91 638.394 1476.59 638.852 1476.17 639.284C1475.74 639.716 1475.2 640.068 1474.53 640.341C1473.86 640.614 1473.07 640.75 1472.14 640.75C1470.83 640.75 1469.64 640.447 1468.57 639.841C1467.5 639.227 1466.64 638.292 1466.01 637.034C1465.38 635.769 1465.07 634.17 1465.07 632.239C1465.07 630.261 1465.39 628.61 1466.03 627.284C1466.68 625.958 1467.53 624.966 1468.6 624.307C1469.68 623.648 1470.85 623.318 1472.13 623.318C1473.11 623.318 1473.93 623.485 1474.59 623.818C1475.25 624.144 1475.78 624.553 1476.18 625.045C1476.59 625.53 1476.9 626.008 1477.12 626.477H1477.3V623.545H1482.11V641.17C1482.11 642.655 1481.75 643.898 1481.02 644.898C1480.29 645.898 1479.29 646.648 1478 647.148C1476.72 647.655 1475.24 647.909 1473.58 647.909ZM1473.68 637.114C1474.46 637.114 1475.12 636.92 1475.66 636.534C1476.2 636.14 1476.62 635.58 1476.91 634.852C1477.2 634.117 1477.35 633.239 1477.35 632.216C1477.35 631.193 1477.21 630.307 1476.92 629.557C1476.63 628.799 1476.21 628.212 1475.67 627.795C1475.12 627.379 1474.46 627.17 1473.68 627.17C1472.88 627.17 1472.21 627.386 1471.67 627.818C1471.12 628.242 1470.71 628.833 1470.43 629.591C1470.15 630.348 1470.01 631.223 1470.01 632.216C1470.01 633.223 1470.15 634.095 1470.43 634.83C1470.72 635.557 1471.13 636.121 1471.67 636.523C1472.21 636.917 1472.88 637.114 1473.68 637.114ZM1493.92 641.341C1492.12 641.341 1490.58 640.977 1489.28 640.25C1487.99 639.515 1487 638.477 1486.3 637.136C1485.61 635.788 1485.26 634.193 1485.26 632.352C1485.26 630.557 1485.61 628.981 1486.3 627.625C1487 626.269 1487.98 625.212 1489.25 624.455C1490.52 623.697 1492.01 623.318 1493.72 623.318C1494.88 623.318 1495.95 623.504 1496.94 623.875C1497.94 624.239 1498.81 624.788 1499.55 625.523C1500.3 626.258 1500.89 627.182 1501.3 628.295C1501.72 629.402 1501.93 630.697 1501.93 632.182V633.511H1487.19V630.511H1497.37C1497.37 629.814 1497.22 629.197 1496.92 628.659C1496.61 628.121 1496.19 627.701 1495.66 627.398C1495.13 627.087 1494.51 626.932 1493.8 626.932C1493.07 626.932 1492.42 627.102 1491.85 627.443C1491.29 627.777 1490.85 628.227 1490.53 628.795C1490.21 629.356 1490.05 629.981 1490.04 630.67V633.523C1490.04 634.386 1490.2 635.133 1490.52 635.761C1490.85 636.39 1491.3 636.875 1491.89 637.216C1492.49 637.557 1493.19 637.727 1494 637.727C1494.54 637.727 1495.03 637.652 1495.47 637.5C1495.92 637.348 1496.3 637.121 1496.62 636.818C1496.94 636.515 1497.18 636.144 1497.35 635.705L1501.83 636C1501.6 637.076 1501.13 638.015 1500.43 638.818C1499.73 639.614 1498.83 640.235 1497.72 640.682C1496.63 641.121 1495.36 641.341 1493.92 641.341ZM1518.93 641.284C1517.6 641.284 1516.4 640.943 1515.32 640.261C1514.26 639.572 1513.41 638.561 1512.78 637.227C1512.16 635.886 1511.85 634.242 1511.85 632.295C1511.85 630.295 1512.17 628.633 1512.81 627.307C1513.46 625.973 1514.31 624.977 1515.38 624.318C1516.46 623.652 1517.63 623.318 1518.91 623.318C1519.89 623.318 1520.71 623.485 1521.36 623.818C1522.02 624.144 1522.55 624.553 1522.95 625.045C1523.36 625.53 1523.67 626.008 1523.88 626.477H1524.03V617.727H1528.86V641H1524.09V638.205H1523.88C1523.65 638.689 1523.33 639.17 1522.91 639.648C1522.51 640.117 1521.97 640.508 1521.31 640.818C1520.66 641.129 1519.87 641.284 1518.93 641.284ZM1520.46 637.432C1521.24 637.432 1521.9 637.22 1522.44 636.795C1522.98 636.364 1523.4 635.761 1523.69 634.989C1523.98 634.216 1524.13 633.311 1524.13 632.273C1524.13 631.235 1523.99 630.333 1523.7 629.568C1523.41 628.803 1522.99 628.212 1522.45 627.795C1521.9 627.379 1521.24 627.17 1520.46 627.17C1519.66 627.17 1518.99 627.386 1518.45 627.818C1517.9 628.25 1517.49 628.848 1517.21 629.614C1516.93 630.379 1516.79 631.265 1516.79 632.273C1516.79 633.288 1516.93 634.186 1517.21 634.966C1517.5 635.739 1517.91 636.345 1518.45 636.784C1518.99 637.216 1519.66 637.432 1520.46 637.432ZM1540.79 641.341C1539 641.341 1537.45 640.977 1536.16 640.25C1534.87 639.515 1533.88 638.477 1533.18 637.136C1532.48 635.788 1532.13 634.193 1532.13 632.352C1532.13 630.557 1532.48 628.981 1533.18 627.625C1533.88 626.269 1534.86 625.212 1536.12 624.455C1537.39 623.697 1538.89 623.318 1540.6 623.318C1541.75 623.318 1542.82 623.504 1543.82 623.875C1544.82 624.239 1545.69 624.788 1546.43 625.523C1547.18 626.258 1547.76 627.182 1548.18 628.295C1548.6 629.402 1548.8 630.697 1548.8 632.182V633.511H1534.07V630.511H1544.25C1544.25 629.814 1544.1 629.197 1543.79 628.659C1543.49 628.121 1543.07 627.701 1542.53 627.398C1542 627.087 1541.38 626.932 1540.68 626.932C1539.94 626.932 1539.29 627.102 1538.72 627.443C1538.16 627.777 1537.72 628.227 1537.41 628.795C1537.09 629.356 1536.93 629.981 1536.92 630.67V633.523C1536.92 634.386 1537.08 635.133 1537.39 635.761C1537.72 636.39 1538.18 636.875 1538.77 637.216C1539.36 637.557 1540.06 637.727 1540.87 637.727C1541.41 637.727 1541.9 637.652 1542.35 637.5C1542.8 637.348 1543.18 637.121 1543.5 636.818C1543.82 636.515 1544.06 636.144 1544.22 635.705L1548.7 636C1548.47 637.076 1548.01 638.015 1547.3 638.818C1546.61 639.614 1545.71 640.235 1544.6 640.682C1543.5 641.121 1542.23 641.341 1540.79 641.341ZM1561.25 623.545V627.182H1550.74V623.545H1561.25ZM1553.12 619.364H1557.96V635.636C1557.96 636.083 1558.03 636.432 1558.17 636.682C1558.3 636.924 1558.49 637.095 1558.74 637.193C1558.99 637.292 1559.27 637.341 1559.6 637.341C1559.83 637.341 1560.05 637.322 1560.28 637.284C1560.51 637.239 1560.68 637.205 1560.8 637.182L1561.57 640.784C1561.32 640.86 1560.98 640.947 1560.54 641.045C1560.1 641.152 1559.57 641.216 1558.94 641.239C1557.77 641.284 1556.75 641.129 1555.87 640.773C1555 640.417 1554.32 639.864 1553.84 639.114C1553.35 638.364 1553.11 637.417 1553.12 636.273V619.364ZM1572.17 641.341C1570.37 641.341 1568.83 640.977 1567.53 640.25C1566.24 639.515 1565.25 638.477 1564.55 637.136C1563.86 635.788 1563.51 634.193 1563.51 632.352C1563.51 630.557 1563.86 628.981 1564.55 627.625C1565.25 626.269 1566.23 625.212 1567.5 624.455C1568.77 623.697 1570.26 623.318 1571.97 623.318C1573.13 623.318 1574.2 623.504 1575.19 623.875C1576.19 624.239 1577.06 624.788 1577.8 625.523C1578.55 626.258 1579.14 627.182 1579.55 628.295C1579.97 629.402 1580.18 630.697 1580.18 632.182V633.511H1565.44V630.511H1575.62C1575.62 629.814 1575.47 629.197 1575.17 628.659C1574.86 628.121 1574.44 627.701 1573.91 627.398C1573.38 627.087 1572.76 626.932 1572.05 626.932C1571.32 626.932 1570.67 627.102 1570.1 627.443C1569.54 627.777 1569.1 628.227 1568.78 628.795C1568.46 629.356 1568.3 629.981 1568.29 630.67V633.523C1568.29 634.386 1568.45 635.133 1568.77 635.761C1569.1 636.39 1569.55 636.875 1570.14 637.216C1570.74 637.557 1571.44 637.727 1572.25 637.727C1572.79 637.727 1573.28 637.652 1573.72 637.5C1574.17 637.348 1574.55 637.121 1574.87 636.818C1575.19 636.515 1575.43 636.144 1575.6 635.705L1580.08 636C1579.85 637.076 1579.38 638.015 1578.68 638.818C1577.98 639.614 1577.08 640.235 1575.97 640.682C1574.88 641.121 1573.61 641.341 1572.17 641.341ZM1591.22 641.341C1589.44 641.341 1587.9 640.962 1586.61 640.205C1585.33 639.439 1584.35 638.379 1583.66 637.023C1582.97 635.667 1582.63 634.106 1582.63 632.341C1582.63 630.553 1582.98 628.985 1583.67 627.636C1584.36 626.28 1585.35 625.223 1586.63 624.466C1587.91 623.701 1589.44 623.318 1591.2 623.318C1592.72 623.318 1594.06 623.595 1595.2 624.148C1596.35 624.701 1597.25 625.477 1597.92 626.477C1598.58 627.477 1598.95 628.652 1599.02 630H1594.45C1594.32 629.129 1593.98 628.428 1593.43 627.898C1592.88 627.36 1592.17 627.091 1591.28 627.091C1590.53 627.091 1589.88 627.295 1589.32 627.705C1588.76 628.106 1588.33 628.693 1588.02 629.466C1587.71 630.239 1587.55 631.174 1587.55 632.273C1587.55 633.386 1587.71 634.333 1588.01 635.114C1588.32 635.894 1588.75 636.489 1589.32 636.898C1589.88 637.307 1590.53 637.511 1591.28 637.511C1591.83 637.511 1592.33 637.398 1592.77 637.17C1593.22 636.943 1593.58 636.614 1593.87 636.182C1594.17 635.742 1594.36 635.216 1594.45 634.602H1599.02C1598.94 635.936 1598.58 637.11 1597.93 638.125C1597.29 639.133 1596.39 639.92 1595.26 640.489C1594.12 641.057 1592.78 641.341 1591.22 641.341ZM1611.4 623.545V627.182H1600.89V623.545H1611.4ZM1603.28 619.364H1608.12V635.636C1608.12 636.083 1608.19 636.432 1608.32 636.682C1608.46 636.924 1608.65 637.095 1608.89 637.193C1609.14 637.292 1609.43 637.341 1609.76 637.341C1609.98 637.341 1610.21 637.322 1610.44 637.284C1610.66 637.239 1610.84 637.205 1610.96 637.182L1611.72 640.784C1611.48 640.86 1611.14 640.947 1610.7 641.045C1610.26 641.152 1609.73 641.216 1609.1 641.239C1607.93 641.284 1606.91 641.129 1606.03 640.773C1605.16 640.417 1604.48 639.864 1603.99 639.114C1603.51 638.364 1603.27 637.417 1603.28 636.273V619.364ZM1614.56 641V623.545H1619.4V641H1614.56ZM1616.99 621.295C1616.27 621.295 1615.65 621.057 1615.14 620.58C1614.63 620.095 1614.38 619.515 1614.38 618.841C1614.38 618.174 1614.63 617.602 1615.14 617.125C1615.65 616.64 1616.27 616.398 1616.99 616.398C1617.71 616.398 1618.32 616.64 1618.83 617.125C1619.34 617.602 1619.6 618.174 1619.6 618.841C1619.6 619.515 1619.34 620.095 1618.83 620.58C1618.32 621.057 1617.71 621.295 1616.99 621.295ZM1631.16 641.341C1629.4 641.341 1627.87 640.966 1626.58 640.216C1625.3 639.458 1624.31 638.405 1623.62 637.057C1622.92 635.701 1622.57 634.129 1622.57 632.341C1622.57 630.538 1622.92 628.962 1623.62 627.614C1624.31 626.258 1625.3 625.205 1626.58 624.455C1627.87 623.697 1629.4 623.318 1631.16 623.318C1632.93 623.318 1634.45 623.697 1635.73 624.455C1637.02 625.205 1638.01 626.258 1638.71 627.614C1639.4 628.962 1639.75 630.538 1639.75 632.341C1639.75 634.129 1639.4 635.701 1638.71 637.057C1638.01 638.405 1637.02 639.458 1635.73 640.216C1634.45 640.966 1632.93 641.341 1631.16 641.341ZM1631.18 637.591C1631.99 637.591 1632.66 637.364 1633.2 636.909C1633.73 636.447 1634.14 635.818 1634.41 635.023C1634.69 634.227 1634.83 633.322 1634.83 632.307C1634.83 631.292 1634.69 630.386 1634.41 629.591C1634.14 628.795 1633.73 628.167 1633.2 627.705C1632.66 627.242 1631.99 627.011 1631.18 627.011C1630.37 627.011 1629.69 627.242 1629.14 627.705C1628.59 628.167 1628.18 628.795 1627.9 629.591C1627.63 630.386 1627.49 631.292 1627.49 632.307C1627.49 633.322 1627.63 634.227 1627.9 635.023C1628.18 635.818 1628.59 636.447 1629.14 636.909C1629.69 637.364 1630.37 637.591 1631.18 637.591ZM1647.74 630.909V641H1642.9V623.545H1647.51V626.625H1647.72C1648.11 625.61 1648.75 624.807 1649.66 624.216C1650.57 623.617 1651.67 623.318 1652.97 623.318C1654.18 623.318 1655.24 623.583 1656.14 624.114C1657.04 624.644 1657.74 625.402 1658.24 626.386C1658.74 627.364 1658.99 628.53 1658.99 629.886V641H1654.15V630.75C1654.16 629.682 1653.89 628.848 1653.33 628.25C1652.78 627.644 1652.02 627.341 1651.05 627.341C1650.4 627.341 1649.82 627.481 1649.32 627.761C1648.83 628.042 1648.44 628.451 1648.16 628.989C1647.89 629.519 1647.75 630.159 1647.74 630.909ZM1675.19 641.33C1674.08 641.33 1673.08 641.136 1672.21 640.75C1671.34 640.356 1670.65 639.777 1670.14 639.011C1669.64 638.239 1669.39 637.277 1669.39 636.125C1669.39 635.155 1669.57 634.341 1669.93 633.682C1670.29 633.023 1670.77 632.492 1671.38 632.091C1672 631.689 1672.69 631.386 1673.47 631.182C1674.26 630.977 1675.09 630.833 1675.95 630.75C1676.97 630.644 1677.79 630.545 1678.41 630.455C1679.03 630.356 1679.48 630.212 1679.76 630.023C1680.04 629.833 1680.18 629.553 1680.18 629.182V629.114C1680.18 628.394 1679.95 627.837 1679.5 627.443C1679.05 627.049 1678.41 626.852 1677.59 626.852C1676.72 626.852 1676.02 627.045 1675.51 627.432C1674.99 627.811 1674.65 628.288 1674.49 628.864L1670.01 628.5C1670.24 627.439 1670.68 626.523 1671.35 625.75C1672.02 624.97 1672.88 624.371 1673.93 623.955C1674.99 623.53 1676.22 623.318 1677.61 623.318C1678.58 623.318 1679.51 623.432 1680.39 623.659C1681.29 623.886 1682.08 624.239 1682.77 624.716C1683.47 625.193 1684.02 625.807 1684.42 626.557C1684.82 627.299 1685.02 628.189 1685.02 629.227V641H1680.43V638.58H1680.29C1680.01 639.125 1679.64 639.606 1679.17 640.023C1678.7 640.432 1678.13 640.754 1677.47 640.989C1676.82 641.216 1676.05 641.33 1675.19 641.33ZM1676.58 637.989C1677.29 637.989 1677.92 637.848 1678.46 637.568C1679.01 637.28 1679.44 636.894 1679.75 636.409C1680.06 635.924 1680.21 635.375 1680.21 634.761V632.909C1680.06 633.008 1679.85 633.098 1679.59 633.182C1679.33 633.258 1679.04 633.33 1678.71 633.398C1678.39 633.458 1678.06 633.515 1677.74 633.568C1677.41 633.614 1677.11 633.655 1676.85 633.693C1676.28 633.777 1675.79 633.909 1675.36 634.091C1674.94 634.273 1674.61 634.519 1674.37 634.83C1674.14 635.133 1674.02 635.511 1674.02 635.966C1674.02 636.625 1674.26 637.129 1674.74 637.477C1675.22 637.818 1675.83 637.989 1676.58 637.989ZM1703.3 628.523L1698.87 628.795C1698.79 628.417 1698.63 628.076 1698.38 627.773C1698.13 627.462 1697.8 627.216 1697.39 627.034C1696.99 626.845 1696.51 626.75 1695.95 626.75C1695.2 626.75 1694.56 626.909 1694.05 627.227C1693.53 627.538 1693.28 627.955 1693.28 628.477C1693.28 628.894 1693.44 629.246 1693.78 629.534C1694.11 629.822 1694.68 630.053 1695.49 630.227L1698.65 630.864C1700.35 631.212 1701.61 631.773 1702.45 632.545C1703.28 633.318 1703.7 634.333 1703.7 635.591C1703.7 636.735 1703.36 637.739 1702.68 638.602C1702.02 639.466 1701.1 640.14 1699.93 640.625C1698.78 641.102 1697.44 641.341 1695.92 641.341C1693.61 641.341 1691.77 640.86 1690.4 639.898C1689.04 638.928 1688.24 637.61 1688 635.943L1692.76 635.693C1692.91 636.398 1693.26 636.936 1693.81 637.307C1694.36 637.67 1695.07 637.852 1695.93 637.852C1696.78 637.852 1697.46 637.689 1697.98 637.364C1698.5 637.03 1698.77 636.602 1698.78 636.08C1698.77 635.64 1698.58 635.28 1698.22 635C1697.86 634.712 1697.29 634.492 1696.54 634.341L1693.51 633.739C1691.81 633.398 1690.54 632.807 1689.71 631.966C1688.88 631.125 1688.47 630.053 1688.47 628.75C1688.47 627.629 1688.77 626.663 1689.38 625.852C1689.99 625.042 1690.85 624.417 1691.96 623.977C1693.07 623.538 1694.37 623.318 1695.87 623.318C1698.07 623.318 1699.81 623.784 1701.07 624.716C1702.34 625.648 1703.09 626.917 1703.3 628.523ZM1265.12 672.568V662.545H1269.97V680H1265.32V676.83H1265.14C1264.74 677.852 1264.09 678.674 1263.17 679.295C1262.26 679.917 1261.15 680.227 1259.84 680.227C1258.67 680.227 1257.65 679.962 1256.76 679.432C1255.88 678.902 1255.18 678.148 1254.68 677.17C1254.19 676.193 1253.94 675.023 1253.93 673.659V662.545H1258.77V672.795C1258.78 673.826 1259.06 674.64 1259.6 675.239C1260.15 675.837 1260.88 676.136 1261.8 676.136C1262.38 676.136 1262.92 676.004 1263.43 675.739C1263.94 675.466 1264.35 675.064 1264.66 674.534C1264.98 674.004 1265.13 673.348 1265.12 672.568ZM1288.36 667.523L1283.93 667.795C1283.85 667.417 1283.69 667.076 1283.44 666.773C1283.19 666.462 1282.86 666.216 1282.45 666.034C1282.05 665.845 1281.57 665.75 1281.01 665.75C1280.26 665.75 1279.63 665.909 1279.11 666.227C1278.6 666.538 1278.34 666.955 1278.34 667.477C1278.34 667.894 1278.5 668.246 1278.84 668.534C1279.17 668.822 1279.74 669.053 1280.55 669.227L1283.71 669.864C1285.41 670.212 1286.68 670.773 1287.51 671.545C1288.34 672.318 1288.76 673.333 1288.76 674.591C1288.76 675.735 1288.42 676.739 1287.75 677.602C1287.08 678.466 1286.16 679.14 1285 679.625C1283.84 680.102 1282.5 680.341 1280.99 680.341C1278.68 680.341 1276.83 679.86 1275.46 678.898C1274.1 677.928 1273.3 676.61 1273.07 674.943L1277.83 674.693C1277.97 675.398 1278.32 675.936 1278.87 676.307C1279.43 676.67 1280.13 676.852 1281 676.852C1281.85 676.852 1282.53 676.689 1283.04 676.364C1283.57 676.03 1283.83 675.602 1283.84 675.08C1283.83 674.64 1283.64 674.28 1283.28 674C1282.92 673.712 1282.36 673.492 1281.6 673.341L1278.58 672.739C1276.87 672.398 1275.6 671.807 1274.77 670.966C1273.94 670.125 1273.53 669.053 1273.53 667.75C1273.53 666.629 1273.83 665.663 1274.44 664.852C1275.05 664.042 1275.91 663.417 1277.02 662.977C1278.13 662.538 1279.44 662.318 1280.93 662.318C1283.13 662.318 1284.87 662.784 1286.13 663.716C1287.41 664.648 1288.15 665.917 1288.36 667.523ZM1303 672.568V662.545H1307.84V680H1303.19V676.83H1303.01C1302.62 677.852 1301.96 678.674 1301.05 679.295C1300.14 679.917 1299.03 680.227 1297.72 680.227C1296.55 680.227 1295.52 679.962 1294.64 679.432C1293.75 678.902 1293.06 678.148 1292.56 677.17C1292.06 676.193 1291.81 675.023 1291.81 673.659V662.545H1296.65V672.795C1296.66 673.826 1296.93 674.64 1297.48 675.239C1298.02 675.837 1298.75 676.136 1299.67 676.136C1300.25 676.136 1300.8 676.004 1301.31 675.739C1301.81 675.466 1302.22 675.064 1302.53 674.534C1302.85 674.004 1303.01 673.348 1303 672.568ZM1316.69 680.33C1315.58 680.33 1314.58 680.136 1313.71 679.75C1312.84 679.356 1312.15 678.777 1311.64 678.011C1311.14 677.239 1310.89 676.277 1310.89 675.125C1310.89 674.155 1311.07 673.341 1311.43 672.682C1311.79 672.023 1312.27 671.492 1312.88 671.091C1313.5 670.689 1314.19 670.386 1314.97 670.182C1315.76 669.977 1316.59 669.833 1317.45 669.75C1318.47 669.644 1319.29 669.545 1319.91 669.455C1320.53 669.356 1320.98 669.212 1321.26 669.023C1321.54 668.833 1321.68 668.553 1321.68 668.182V668.114C1321.68 667.394 1321.45 666.837 1321 666.443C1320.55 666.049 1319.91 665.852 1319.09 665.852C1318.22 665.852 1317.52 666.045 1317.01 666.432C1316.49 666.811 1316.15 667.288 1315.99 667.864L1311.51 667.5C1311.74 666.439 1312.18 665.523 1312.85 664.75C1313.52 663.97 1314.38 663.371 1315.43 662.955C1316.49 662.53 1317.72 662.318 1319.11 662.318C1320.08 662.318 1321.01 662.432 1321.89 662.659C1322.79 662.886 1323.58 663.239 1324.27 663.716C1324.97 664.193 1325.52 664.807 1325.92 665.557C1326.32 666.299 1326.52 667.189 1326.52 668.227V680H1321.93V677.58H1321.79C1321.51 678.125 1321.14 678.606 1320.67 679.023C1320.2 679.432 1319.63 679.754 1318.97 679.989C1318.32 680.216 1317.55 680.33 1316.69 680.33ZM1318.08 676.989C1318.79 676.989 1319.42 676.848 1319.96 676.568C1320.51 676.28 1320.94 675.894 1321.25 675.409C1321.56 674.924 1321.71 674.375 1321.71 673.761V671.909C1321.56 672.008 1321.35 672.098 1321.09 672.182C1320.83 672.258 1320.54 672.33 1320.21 672.398C1319.89 672.458 1319.56 672.515 1319.24 672.568C1318.91 672.614 1318.61 672.655 1318.35 672.693C1317.78 672.777 1317.29 672.909 1316.86 673.091C1316.44 673.273 1316.11 673.519 1315.87 673.83C1315.64 674.133 1315.52 674.511 1315.52 674.966C1315.52 675.625 1315.76 676.129 1316.24 676.477C1316.72 676.818 1317.33 676.989 1318.08 676.989ZM1335.12 656.727V680H1330.28V656.727H1335.12Z" fill="white"/>
</g>
<defs>
<linearGradient id="paint0_linear_701_1018" x1="556" y1="364.145" x2="732" y2="364.145" gradientUnits="userSpaceOnUse">
<stop stop-color="#DD0032"/>
<stop offset="1" stop-color="#C3012F"/>
</linearGradient>
<linearGradient id="paint1_linear_701_1018" x1="666" y1="531.145" x2="842" y2="531.145" gradientUnits="userSpaceOnUse">
<stop stop-color="#DD0032"/>
<stop offset="1" stop-color="#C3012F"/>
</linearGradient>
<linearGradient id="paint2_linear_701_1018" x1="691" y1="698.145" x2="867" y2="698.145" gradientUnits="userSpaceOnUse">
<stop stop-color="#DD0032"/>
<stop offset="1" stop-color="#C3012F"/>
</linearGradient>
<linearGradient id="paint3_linear_701_1018" x1="691" y1="865.145" x2="867" y2="865.145" gradientUnits="userSpaceOnUse">
<stop stop-color="#DD0032"/>
<stop offset="1" stop-color="#C3012F"/>
</linearGradient>
<clipPath id="clip0_701_1018">
<rect width="1920" height="1080" fill="white"/>
</clipPath>
</defs>
</svg>
