<svg width="1920" height="1080" viewBox="0 0 1920 1080" fill="none" xmlns="http://www.w3.org/2000/svg">
<g clip-path="url(#clip0_701_982)">
<rect x="543" y="343" width="174" height="101" rx="11" fill="#E61010"/>
<rect x="543" y="343" width="174" height="101" rx="11" stroke="white" stroke-width="2"/>
<path d="M628.557 389.875H623.58C623.489 389.231 623.303 388.659 623.023 388.159C622.742 387.652 622.383 387.22 621.943 386.864C621.504 386.508 620.996 386.235 620.42 386.045C619.852 385.856 619.235 385.761 618.568 385.761C617.364 385.761 616.314 386.061 615.42 386.659C614.527 387.25 613.833 388.114 613.341 389.25C612.848 390.379 612.602 391.75 612.602 393.364C612.602 395.023 612.848 396.417 613.341 397.545C613.841 398.674 614.538 399.527 615.432 400.102C616.326 400.678 617.36 400.966 618.534 400.966C619.193 400.966 619.803 400.879 620.364 400.705C620.932 400.53 621.436 400.277 621.875 399.943C622.314 399.602 622.678 399.189 622.966 398.705C623.261 398.22 623.466 397.667 623.58 397.045L628.557 397.068C628.428 398.136 628.106 399.167 627.591 400.159C627.083 401.144 626.398 402.027 625.534 402.807C624.678 403.58 623.655 404.193 622.466 404.648C621.284 405.095 619.947 405.318 618.455 405.318C616.379 405.318 614.523 404.848 612.886 403.909C611.258 402.97 609.97 401.61 609.023 399.83C608.083 398.049 607.614 395.894 607.614 393.364C607.614 390.826 608.091 388.667 609.045 386.886C610 385.106 611.295 383.75 612.932 382.818C614.568 381.879 616.409 381.409 618.455 381.409C619.803 381.409 621.053 381.598 622.205 381.977C623.364 382.356 624.39 382.909 625.284 383.636C626.178 384.356 626.905 385.239 627.466 386.284C628.034 387.33 628.398 388.527 628.557 389.875ZM640.335 405H632.085V381.727H640.403C642.744 381.727 644.759 382.193 646.449 383.125C648.138 384.049 649.438 385.379 650.347 387.114C651.263 388.848 651.722 390.924 651.722 393.341C651.722 395.765 651.263 397.848 650.347 399.591C649.438 401.333 648.131 402.67 646.426 403.602C644.729 404.534 642.699 405 640.335 405ZM637.006 400.784H640.131C641.585 400.784 642.809 400.527 643.801 400.011C644.801 399.489 645.551 398.682 646.051 397.591C646.559 396.492 646.812 395.076 646.812 393.341C646.812 391.621 646.559 390.216 646.051 389.125C645.551 388.034 644.805 387.231 643.812 386.716C642.82 386.201 641.597 385.943 640.142 385.943H637.006V400.784Z" fill="white"/>
<rect x="543" y="343" width="174" height="101" rx="11" fill="url(#paint0_linear_701_982)"/>
<rect x="543" y="343" width="174" height="101" rx="11" stroke="white" stroke-width="2"/>
<path d="M628.557 389.875H623.58C623.489 389.231 623.303 388.659 623.023 388.159C622.742 387.652 622.383 387.22 621.943 386.864C621.504 386.508 620.996 386.235 620.42 386.045C619.852 385.856 619.235 385.761 618.568 385.761C617.364 385.761 616.314 386.061 615.42 386.659C614.527 387.25 613.833 388.114 613.341 389.25C612.848 390.379 612.602 391.75 612.602 393.364C612.602 395.023 612.848 396.417 613.341 397.545C613.841 398.674 614.538 399.527 615.432 400.102C616.326 400.678 617.36 400.966 618.534 400.966C619.193 400.966 619.803 400.879 620.364 400.705C620.932 400.53 621.436 400.277 621.875 399.943C622.314 399.602 622.678 399.189 622.966 398.705C623.261 398.22 623.466 397.667 623.58 397.045L628.557 397.068C628.428 398.136 628.106 399.167 627.591 400.159C627.083 401.144 626.398 402.027 625.534 402.807C624.678 403.58 623.655 404.193 622.466 404.648C621.284 405.095 619.947 405.318 618.455 405.318C616.379 405.318 614.523 404.848 612.886 403.909C611.258 402.97 609.97 401.61 609.023 399.83C608.083 398.049 607.614 395.894 607.614 393.364C607.614 390.826 608.091 388.667 609.045 386.886C610 385.106 611.295 383.75 612.932 382.818C614.568 381.879 616.409 381.409 618.455 381.409C619.803 381.409 621.053 381.598 622.205 381.977C623.364 382.356 624.39 382.909 625.284 383.636C626.178 384.356 626.905 385.239 627.466 386.284C628.034 387.33 628.398 388.527 628.557 389.875ZM640.335 405H632.085V381.727H640.403C642.744 381.727 644.759 382.193 646.449 383.125C648.138 384.049 649.438 385.379 650.347 387.114C651.263 388.848 651.722 390.924 651.722 393.341C651.722 395.765 651.263 397.848 650.347 399.591C649.438 401.333 648.131 402.67 646.426 403.602C644.729 404.534 642.699 405 640.335 405ZM637.006 400.784H640.131C641.585 400.784 642.809 400.527 643.801 400.011C644.801 399.489 645.551 398.682 646.051 397.591C646.559 396.492 646.812 395.076 646.812 393.341C646.812 391.621 646.559 390.216 646.051 389.125C645.551 388.034 644.805 387.231 643.812 386.716C642.82 386.201 641.597 385.943 640.142 385.943H637.006V400.784Z" fill="white"/>
<rect x="423" y="510" width="250" height="101" rx="11" fill="#EEEEEE"/>
<rect x="423" y="510" width="250" height="101" rx="11" stroke="white" stroke-width="2"/>
<path d="M509.409 560.364C509.409 562.902 508.928 565.061 507.966 566.841C507.011 568.621 505.708 569.981 504.057 570.92C502.413 571.852 500.564 572.318 498.511 572.318C496.443 572.318 494.587 571.848 492.943 570.909C491.299 569.97 490 568.61 489.045 566.83C488.091 565.049 487.614 562.894 487.614 560.364C487.614 557.826 488.091 555.667 489.045 553.886C490 552.106 491.299 550.75 492.943 549.818C494.587 548.879 496.443 548.409 498.511 548.409C500.564 548.409 502.413 548.879 504.057 549.818C505.708 550.75 507.011 552.106 507.966 553.886C508.928 555.667 509.409 557.826 509.409 560.364ZM504.42 560.364C504.42 558.72 504.174 557.333 503.682 556.205C503.197 555.076 502.511 554.22 501.625 553.636C500.739 553.053 499.701 552.761 498.511 552.761C497.322 552.761 496.284 553.053 495.398 553.636C494.511 554.22 493.822 555.076 493.33 556.205C492.845 557.333 492.602 558.72 492.602 560.364C492.602 562.008 492.845 563.394 493.33 564.523C493.822 565.652 494.511 566.508 495.398 567.091C496.284 567.674 497.322 567.966 498.511 567.966C499.701 567.966 500.739 567.674 501.625 567.091C502.511 566.508 503.197 565.652 503.682 564.523C504.174 563.394 504.42 562.008 504.42 560.364ZM517.804 561.909V572H512.963V554.545H517.577V557.625H517.781C518.168 556.61 518.815 555.807 519.724 555.216C520.634 554.617 521.736 554.318 523.031 554.318C524.243 554.318 525.3 554.583 526.202 555.114C527.103 555.644 527.804 556.402 528.304 557.386C528.804 558.364 529.054 559.53 529.054 560.886V572H524.213V561.75C524.221 560.682 523.948 559.848 523.395 559.25C522.842 558.644 522.08 558.341 521.111 558.341C520.459 558.341 519.884 558.481 519.384 558.761C518.891 559.042 518.505 559.451 518.224 559.989C517.952 560.519 517.812 561.159 517.804 561.909ZM532.96 572V548.727H542.142C543.907 548.727 545.411 549.064 546.653 549.739C547.896 550.405 548.843 551.333 549.494 552.523C550.153 553.705 550.483 555.068 550.483 556.614C550.483 558.159 550.15 559.523 549.483 560.705C548.816 561.886 547.85 562.807 546.585 563.466C545.328 564.125 543.805 564.455 542.017 564.455H536.165V560.511H541.222C542.169 560.511 542.949 560.348 543.562 560.023C544.184 559.689 544.646 559.231 544.949 558.648C545.259 558.057 545.415 557.379 545.415 556.614C545.415 555.841 545.259 555.167 544.949 554.591C544.646 554.008 544.184 553.557 543.562 553.239C542.941 552.913 542.153 552.75 541.199 552.75H537.881V572H532.96ZM564.781 564.568V554.545H569.622V572H564.974V568.83H564.793C564.399 569.852 563.743 570.674 562.827 571.295C561.918 571.917 560.808 572.227 559.497 572.227C558.33 572.227 557.304 571.962 556.418 571.432C555.531 570.902 554.838 570.148 554.338 569.17C553.846 568.193 553.596 567.023 553.588 565.659V554.545H558.429V564.795C558.437 565.826 558.713 566.64 559.259 567.239C559.804 567.837 560.535 568.136 561.452 568.136C562.035 568.136 562.58 568.004 563.088 567.739C563.596 567.466 564.005 567.064 564.315 566.534C564.634 566.004 564.789 565.348 564.781 564.568ZM588.017 559.523L583.585 559.795C583.509 559.417 583.347 559.076 583.097 558.773C582.847 558.462 582.517 558.216 582.108 558.034C581.706 557.845 581.225 557.75 580.665 557.75C579.915 557.75 579.282 557.909 578.767 558.227C578.252 558.538 577.994 558.955 577.994 559.477C577.994 559.894 578.161 560.246 578.494 560.534C578.828 560.822 579.4 561.053 580.21 561.227L583.369 561.864C585.066 562.212 586.331 562.773 587.165 563.545C587.998 564.318 588.415 565.333 588.415 566.591C588.415 567.735 588.078 568.739 587.403 569.602C586.737 570.466 585.82 571.14 584.653 571.625C583.494 572.102 582.157 572.341 580.642 572.341C578.331 572.341 576.491 571.86 575.119 570.898C573.756 569.928 572.956 568.61 572.722 566.943L577.483 566.693C577.627 567.398 577.975 567.936 578.528 568.307C579.081 568.67 579.79 568.852 580.653 568.852C581.502 568.852 582.184 568.689 582.699 568.364C583.222 568.03 583.487 567.602 583.494 567.08C583.487 566.64 583.301 566.28 582.938 566C582.574 565.712 582.013 565.492 581.256 565.341L578.233 564.739C576.528 564.398 575.259 563.807 574.426 562.966C573.6 562.125 573.188 561.053 573.188 559.75C573.188 558.629 573.491 557.663 574.097 556.852C574.71 556.042 575.57 555.417 576.676 554.977C577.79 554.538 579.093 554.318 580.585 554.318C582.79 554.318 584.525 554.784 585.79 555.716C587.063 556.648 587.805 557.917 588.017 559.523ZM596.304 561.909V572H591.463V548.727H596.168V557.625H596.372C596.766 556.595 597.402 555.788 598.281 555.205C599.16 554.614 600.262 554.318 601.588 554.318C602.8 554.318 603.857 554.583 604.759 555.114C605.668 555.636 606.372 556.39 606.872 557.375C607.38 558.352 607.63 559.523 607.622 560.886V572H602.781V561.75C602.789 560.674 602.516 559.837 601.963 559.239C601.418 558.64 600.652 558.341 599.668 558.341C599.009 558.341 598.425 558.481 597.918 558.761C597.418 559.042 597.024 559.451 596.736 559.989C596.455 560.519 596.312 561.159 596.304 561.909Z" fill="#808080"/>
<rect x="739" y="510" width="174" height="101" rx="11" fill="url(#paint1_linear_701_982)"/>
<rect x="739" y="510" width="174" height="101" rx="11" stroke="white" stroke-width="2"/>
<path d="M824.557 556.875H819.58C819.489 556.231 819.303 555.659 819.023 555.159C818.742 554.652 818.383 554.22 817.943 553.864C817.504 553.508 816.996 553.235 816.42 553.045C815.852 552.856 815.235 552.761 814.568 552.761C813.364 552.761 812.314 553.061 811.42 553.659C810.527 554.25 809.833 555.114 809.341 556.25C808.848 557.379 808.602 558.75 808.602 560.364C808.602 562.023 808.848 563.417 809.341 564.545C809.841 565.674 810.538 566.527 811.432 567.102C812.326 567.678 813.36 567.966 814.534 567.966C815.193 567.966 815.803 567.879 816.364 567.705C816.932 567.53 817.436 567.277 817.875 566.943C818.314 566.602 818.678 566.189 818.966 565.705C819.261 565.22 819.466 564.667 819.58 564.045L824.557 564.068C824.428 565.136 824.106 566.167 823.591 567.159C823.083 568.144 822.398 569.027 821.534 569.807C820.678 570.58 819.655 571.193 818.466 571.648C817.284 572.095 815.947 572.318 814.455 572.318C812.379 572.318 810.523 571.848 808.886 570.909C807.258 569.97 805.97 568.61 805.023 566.83C804.083 565.049 803.614 562.894 803.614 560.364C803.614 557.826 804.091 555.667 805.045 553.886C806 552.106 807.295 550.75 808.932 549.818C810.568 548.879 812.409 548.409 814.455 548.409C815.803 548.409 817.053 548.598 818.205 548.977C819.364 549.356 820.39 549.909 821.284 550.636C822.178 551.356 822.905 552.239 823.466 553.284C824.034 554.33 824.398 555.527 824.557 556.875ZM836.335 572H828.085V548.727H836.403C838.744 548.727 840.759 549.193 842.449 550.125C844.138 551.049 845.438 552.379 846.347 554.114C847.263 555.848 847.722 557.924 847.722 560.341C847.722 562.765 847.263 564.848 846.347 566.591C845.438 568.333 844.131 569.67 842.426 570.602C840.729 571.534 838.699 572 836.335 572ZM833.006 567.784H836.131C837.585 567.784 838.809 567.527 839.801 567.011C840.801 566.489 841.551 565.682 842.051 564.591C842.559 563.492 842.812 562.076 842.812 560.341C842.812 558.621 842.559 557.216 842.051 556.125C841.551 555.034 840.805 554.231 839.812 553.716C838.82 553.201 837.597 552.943 836.142 552.943H833.006V567.784Z" fill="white"/>
<rect x="136" y="677" width="174" height="101" rx="11" fill="#EEEEEE"/>
<rect x="136" y="677" width="174" height="101" rx="11" stroke="white" stroke-width="2"/>
<rect x="376" y="677" width="174" height="101" rx="11" fill="#EEEEEE"/>
<rect x="376" y="677" width="174" height="101" rx="11" stroke="white" stroke-width="2"/>
<rect x="136" y="844" width="174" height="101" rx="11" fill="#EEEEEE"/>
<rect x="136" y="844" width="174" height="101" rx="11" stroke="white" stroke-width="2"/>
<rect x="376" y="844" width="174" height="101" rx="11" fill="#EEEEEE"/>
<rect x="376" y="844" width="174" height="101" rx="11" stroke="white" stroke-width="2"/>
<rect x="678" y="677" width="174" height="101" rx="11" fill="url(#paint2_linear_701_982)"/>
<rect x="678" y="677" width="174" height="101" rx="11" stroke="white" stroke-width="2"/>
<path d="M763.557 723.875H758.58C758.489 723.231 758.303 722.659 758.023 722.159C757.742 721.652 757.383 721.22 756.943 720.864C756.504 720.508 755.996 720.235 755.42 720.045C754.852 719.856 754.235 719.761 753.568 719.761C752.364 719.761 751.314 720.061 750.42 720.659C749.527 721.25 748.833 722.114 748.341 723.25C747.848 724.379 747.602 725.75 747.602 727.364C747.602 729.023 747.848 730.417 748.341 731.545C748.841 732.674 749.538 733.527 750.432 734.102C751.326 734.678 752.36 734.966 753.534 734.966C754.193 734.966 754.803 734.879 755.364 734.705C755.932 734.53 756.436 734.277 756.875 733.943C757.314 733.602 757.678 733.189 757.966 732.705C758.261 732.22 758.466 731.667 758.58 731.045L763.557 731.068C763.428 732.136 763.106 733.167 762.591 734.159C762.083 735.144 761.398 736.027 760.534 736.807C759.678 737.58 758.655 738.193 757.466 738.648C756.284 739.095 754.947 739.318 753.455 739.318C751.379 739.318 749.523 738.848 747.886 737.909C746.258 736.97 744.97 735.61 744.023 733.83C743.083 732.049 742.614 729.894 742.614 727.364C742.614 724.826 743.091 722.667 744.045 720.886C745 719.106 746.295 717.75 747.932 716.818C749.568 715.879 751.409 715.409 753.455 715.409C754.803 715.409 756.053 715.598 757.205 715.977C758.364 716.356 759.39 716.909 760.284 717.636C761.178 718.356 761.905 719.239 762.466 720.284C763.034 721.33 763.398 722.527 763.557 723.875ZM775.335 739H767.085V715.727H775.403C777.744 715.727 779.759 716.193 781.449 717.125C783.138 718.049 784.438 719.379 785.347 721.114C786.263 722.848 786.722 724.924 786.722 727.341C786.722 729.765 786.263 731.848 785.347 733.591C784.438 735.333 783.131 736.67 781.426 737.602C779.729 738.534 777.699 739 775.335 739ZM772.006 734.784H775.131C776.585 734.784 777.809 734.527 778.801 734.011C779.801 733.489 780.551 732.682 781.051 731.591C781.559 730.492 781.812 729.076 781.812 727.341C781.812 725.621 781.559 724.216 781.051 723.125C780.551 722.034 779.805 721.231 778.812 720.716C777.82 720.201 776.597 719.943 775.142 719.943H772.006V734.784Z" fill="white"/>
<rect x="918" y="677" width="174" height="101" rx="11" fill="url(#paint3_linear_701_982)"/>
<rect x="918" y="677" width="174" height="101" rx="11" stroke="white" stroke-width="2"/>
<path d="M1003.56 723.875H998.58C998.489 723.231 998.303 722.659 998.023 722.159C997.742 721.652 997.383 721.22 996.943 720.864C996.504 720.508 995.996 720.235 995.42 720.045C994.852 719.856 994.235 719.761 993.568 719.761C992.364 719.761 991.314 720.061 990.42 720.659C989.527 721.25 988.833 722.114 988.341 723.25C987.848 724.379 987.602 725.75 987.602 727.364C987.602 729.023 987.848 730.417 988.341 731.545C988.841 732.674 989.538 733.527 990.432 734.102C991.326 734.678 992.36 734.966 993.534 734.966C994.193 734.966 994.803 734.879 995.364 734.705C995.932 734.53 996.436 734.277 996.875 733.943C997.314 733.602 997.678 733.189 997.966 732.705C998.261 732.22 998.466 731.667 998.58 731.045L1003.56 731.068C1003.43 732.136 1003.11 733.167 1002.59 734.159C1002.08 735.144 1001.4 736.027 1000.53 736.807C999.678 737.58 998.655 738.193 997.466 738.648C996.284 739.095 994.947 739.318 993.455 739.318C991.379 739.318 989.523 738.848 987.886 737.909C986.258 736.97 984.97 735.61 984.023 733.83C983.083 732.049 982.614 729.894 982.614 727.364C982.614 724.826 983.091 722.667 984.045 720.886C985 719.106 986.295 717.75 987.932 716.818C989.568 715.879 991.409 715.409 993.455 715.409C994.803 715.409 996.053 715.598 997.205 715.977C998.364 716.356 999.39 716.909 1000.28 717.636C1001.18 718.356 1001.91 719.239 1002.47 720.284C1003.03 721.33 1003.4 722.527 1003.56 723.875ZM1015.34 739H1007.09V715.727H1015.4C1017.74 715.727 1019.76 716.193 1021.45 717.125C1023.14 718.049 1024.44 719.379 1025.35 721.114C1026.26 722.848 1026.72 724.924 1026.72 727.341C1026.72 729.765 1026.26 731.848 1025.35 733.591C1024.44 735.333 1023.13 736.67 1021.43 737.602C1019.73 738.534 1017.7 739 1015.34 739ZM1012.01 734.784H1015.13C1016.59 734.784 1017.81 734.527 1018.8 734.011C1019.8 733.489 1020.55 732.682 1021.05 731.591C1021.56 730.492 1021.81 729.076 1021.81 727.341C1021.81 725.621 1021.56 724.216 1021.05 723.125C1020.55 722.034 1019.8 721.231 1018.81 720.716C1017.82 720.201 1016.6 719.943 1015.14 719.943H1012.01V734.784Z" fill="white"/>
<rect x="678" y="844" width="174" height="101" rx="11" fill="url(#paint4_linear_701_982)"/>
<rect x="678" y="844" width="174" height="101" rx="11" stroke="white" stroke-width="2"/>
<path d="M763.557 890.875H758.58C758.489 890.231 758.303 889.659 758.023 889.159C757.742 888.652 757.383 888.22 756.943 887.864C756.504 887.508 755.996 887.235 755.42 887.045C754.852 886.856 754.235 886.761 753.568 886.761C752.364 886.761 751.314 887.061 750.42 887.659C749.527 888.25 748.833 889.114 748.341 890.25C747.848 891.379 747.602 892.75 747.602 894.364C747.602 896.023 747.848 897.417 748.341 898.545C748.841 899.674 749.538 900.527 750.432 901.102C751.326 901.678 752.36 901.966 753.534 901.966C754.193 901.966 754.803 901.879 755.364 901.705C755.932 901.53 756.436 901.277 756.875 900.943C757.314 900.602 757.678 900.189 757.966 899.705C758.261 899.22 758.466 898.667 758.58 898.045L763.557 898.068C763.428 899.136 763.106 900.167 762.591 901.159C762.083 902.144 761.398 903.027 760.534 903.807C759.678 904.58 758.655 905.193 757.466 905.648C756.284 906.095 754.947 906.318 753.455 906.318C751.379 906.318 749.523 905.848 747.886 904.909C746.258 903.97 744.97 902.61 744.023 900.83C743.083 899.049 742.614 896.894 742.614 894.364C742.614 891.826 743.091 889.667 744.045 887.886C745 886.106 746.295 884.75 747.932 883.818C749.568 882.879 751.409 882.409 753.455 882.409C754.803 882.409 756.053 882.598 757.205 882.977C758.364 883.356 759.39 883.909 760.284 884.636C761.178 885.356 761.905 886.239 762.466 887.284C763.034 888.33 763.398 889.527 763.557 890.875ZM775.335 906H767.085V882.727H775.403C777.744 882.727 779.759 883.193 781.449 884.125C783.138 885.049 784.438 886.379 785.347 888.114C786.263 889.848 786.722 891.924 786.722 894.341C786.722 896.765 786.263 898.848 785.347 900.591C784.438 902.333 783.131 903.67 781.426 904.602C779.729 905.534 777.699 906 775.335 906ZM772.006 901.784H775.131C776.585 901.784 777.809 901.527 778.801 901.011C779.801 900.489 780.551 899.682 781.051 898.591C781.559 897.492 781.812 896.076 781.812 894.341C781.812 892.621 781.559 891.216 781.051 890.125C780.551 889.034 779.805 888.231 778.812 887.716C777.82 887.201 776.597 886.943 775.142 886.943H772.006V901.784Z" fill="white"/>
<rect x="918" y="844" width="174" height="101" rx="11" fill="url(#paint5_linear_701_982)"/>
<rect x="918" y="844" width="174" height="101" rx="11" stroke="white" stroke-width="2"/>
<path d="M1003.56 890.875H998.58C998.489 890.231 998.303 889.659 998.023 889.159C997.742 888.652 997.383 888.22 996.943 887.864C996.504 887.508 995.996 887.235 995.42 887.045C994.852 886.856 994.235 886.761 993.568 886.761C992.364 886.761 991.314 887.061 990.42 887.659C989.527 888.25 988.833 889.114 988.341 890.25C987.848 891.379 987.602 892.75 987.602 894.364C987.602 896.023 987.848 897.417 988.341 898.545C988.841 899.674 989.538 900.527 990.432 901.102C991.326 901.678 992.36 901.966 993.534 901.966C994.193 901.966 994.803 901.879 995.364 901.705C995.932 901.53 996.436 901.277 996.875 900.943C997.314 900.602 997.678 900.189 997.966 899.705C998.261 899.22 998.466 898.667 998.58 898.045L1003.56 898.068C1003.43 899.136 1003.11 900.167 1002.59 901.159C1002.08 902.144 1001.4 903.027 1000.53 903.807C999.678 904.58 998.655 905.193 997.466 905.648C996.284 906.095 994.947 906.318 993.455 906.318C991.379 906.318 989.523 905.848 987.886 904.909C986.258 903.97 984.97 902.61 984.023 900.83C983.083 899.049 982.614 896.894 982.614 894.364C982.614 891.826 983.091 889.667 984.045 887.886C985 886.106 986.295 884.75 987.932 883.818C989.568 882.879 991.409 882.409 993.455 882.409C994.803 882.409 996.053 882.598 997.205 882.977C998.364 883.356 999.39 883.909 1000.28 884.636C1001.18 885.356 1001.91 886.239 1002.47 887.284C1003.03 888.33 1003.4 889.527 1003.56 890.875ZM1015.34 906H1007.09V882.727H1015.4C1017.74 882.727 1019.76 883.193 1021.45 884.125C1023.14 885.049 1024.44 886.379 1025.35 888.114C1026.26 889.848 1026.72 891.924 1026.72 894.341C1026.72 896.765 1026.26 898.848 1025.35 900.591C1024.44 902.333 1023.13 903.67 1021.43 904.602C1019.73 905.534 1017.7 906 1015.34 906ZM1012.01 901.784H1015.13C1016.59 901.784 1017.81 901.527 1018.8 901.011C1019.8 900.489 1020.55 899.682 1021.05 898.591C1021.56 897.492 1021.81 896.076 1021.81 894.341C1021.81 892.621 1021.56 891.216 1021.05 890.125C1020.55 889.034 1019.8 888.231 1018.81 887.716C1017.82 887.201 1016.6 886.943 1015.14 886.943H1012.01V901.784Z" fill="white"/>
<line x1="632" y1="444.414" x2="566.414" y2="510" stroke="white" stroke-width="2" stroke-linecap="round"/>
<path d="M814 510L806.55 501.178L802.635 512.041L814 510ZM632.339 443.473C631.82 443.286 631.247 443.556 631.059 444.075C630.872 444.595 631.142 445.168 631.661 445.355L632.339 443.473ZM805.872 506.008L632.339 443.473L631.661 445.355L805.194 507.89L805.872 506.008Z" fill="white"/>
<path d="M802.926 612.548C803.134 612.036 802.889 611.453 802.377 611.244C801.866 611.036 801.282 611.282 801.074 611.793L802.926 612.548ZM776 676L785.119 668.917L774.425 664.561L776 676ZM801.074 611.793L778.469 667.288L780.321 668.042L802.926 612.548L801.074 611.793Z" fill="white"/>
<path d="M1003.78 676.716L995.448 668.008L993.073 679.308L1003.78 676.716ZM802.492 611.021C801.966 610.852 801.447 611.154 801.334 611.694C801.22 612.235 801.554 612.81 802.08 612.979L802.492 611.021ZM995.418 672.986L802.492 611.021L802.08 612.979L995.007 674.943L995.418 672.986Z" fill="white"/>
<line x1="507.247" y1="612.197" x2="224.197" y2="676.753" stroke="white" stroke-width="2" stroke-linecap="round"/>
<line x1="459.787" y1="677.602" x2="508.602" y2="611.213" stroke="white" stroke-width="2" stroke-linecap="round"/>
<line x1="462" y1="844" x2="462" y2="778" stroke="white" stroke-width="2" stroke-linecap="round"/>
<path d="M1024 844L1029.77 834H1018.23L1024 844ZM1025 778C1025 777.448 1024.55 777 1024 777C1023.45 777 1023 777.448 1023 778H1025ZM1025 835V778H1023V835H1025Z" fill="white"/>
<path d="M769 844L774.774 834H763.226L769 844ZM770 778C770 777.448 769.552 777 769 777C768.448 777 768 777.448 768 778H770ZM770 835V778H768V835H770Z" fill="white"/>
<line x1="222" y1="844" x2="222" y2="778" stroke="white" stroke-width="2" stroke-linecap="round"/>
</g>
<defs>
<linearGradient id="paint0_linear_701_982" x1="542" y1="393.145" x2="718" y2="393.145" gradientUnits="userSpaceOnUse">
<stop stop-color="#DD0032"/>
<stop offset="1" stop-color="#C3012F"/>
</linearGradient>
<linearGradient id="paint1_linear_701_982" x1="738" y1="560.145" x2="914" y2="560.145" gradientUnits="userSpaceOnUse">
<stop stop-color="#DD0032"/>
<stop offset="1" stop-color="#C3012F"/>
</linearGradient>
<linearGradient id="paint2_linear_701_982" x1="677" y1="727.145" x2="853" y2="727.145" gradientUnits="userSpaceOnUse">
<stop stop-color="#DD0032"/>
<stop offset="1" stop-color="#C3012F"/>
</linearGradient>
<linearGradient id="paint3_linear_701_982" x1="917" y1="727.145" x2="1093" y2="727.145" gradientUnits="userSpaceOnUse">
<stop stop-color="#DD0032"/>
<stop offset="1" stop-color="#C3012F"/>
</linearGradient>
<linearGradient id="paint4_linear_701_982" x1="677" y1="894.145" x2="853" y2="894.145" gradientUnits="userSpaceOnUse">
<stop stop-color="#DD0032"/>
<stop offset="1" stop-color="#C3012F"/>
</linearGradient>
<linearGradient id="paint5_linear_701_982" x1="917" y1="894.145" x2="1093" y2="894.145" gradientUnits="userSpaceOnUse">
<stop stop-color="#DD0032"/>
<stop offset="1" stop-color="#C3012F"/>
</linearGradient>
<clipPath id="clip0_701_982">
<rect width="1920" height="1080" fill="white"/>
</clipPath>
</defs>
</svg>
