<svg width="1225" height="795" viewBox="0 0 1225 795" fill="none" xmlns="http://www.w3.org/2000/svg">
<path d="M455.979 548.469L433.989 650.013M353.141 657.775L293.638 573.693" stroke="white" stroke-width="2"/>
<path d="M326.624 503.841L430.755 477.323" stroke="white" stroke-width="2"/>
<circle cx="76.9667" cy="162.342" r="76.4667" fill="white" stroke="white"/>
<circle cx="249.01" cy="510.309" r="76.4667" fill="white" stroke="white"/>
<circle cx="76.9667" cy="400.356" r="76.4667" fill="white" stroke="white"/>
<path d="M73.0859 323.39L82.1408 236.721M151.346 175.277L213.437 201.148M277.468 296.225L265.826 436.576" stroke="white" stroke-width="2"/>
<circle cx="477.97" cy="476.676" r="76.4667" fill="white" stroke="white"/>
<circle cx="401.65" cy="717.278" r="75.9667" fill="url(#paint0_linear_701_1033)" stroke="white" stroke-width="2"/>
<circle cx="285.23" cy="219.258" r="76.4667" fill="white" stroke="white"/>
<path d="M458.768 212.611H455.95C455.784 211.801 455.492 211.089 455.075 210.475C454.666 209.861 454.166 209.346 453.575 208.93C452.992 208.505 452.344 208.187 451.632 207.975C450.92 207.763 450.177 207.657 449.405 207.657C447.996 207.657 446.719 208.013 445.575 208.725C444.439 209.437 443.534 210.486 442.859 211.873C442.193 213.259 441.859 214.96 441.859 216.975C441.859 218.99 442.193 220.691 442.859 222.077C443.534 223.464 444.439 224.513 445.575 225.225C446.719 225.937 447.996 226.293 449.405 226.293C450.177 226.293 450.92 226.187 451.632 225.975C452.344 225.763 452.992 225.449 453.575 225.032C454.166 224.608 454.666 224.089 455.075 223.475C455.492 222.854 455.784 222.142 455.95 221.339H458.768C458.556 222.528 458.17 223.592 457.609 224.532C457.049 225.471 456.352 226.27 455.518 226.93C454.685 227.581 453.749 228.077 452.712 228.418C451.681 228.759 450.579 228.93 449.405 228.93C447.42 228.93 445.655 228.445 444.109 227.475C442.564 226.505 441.348 225.127 440.462 223.339C439.575 221.551 439.132 219.43 439.132 216.975C439.132 214.52 439.575 212.399 440.462 210.611C441.348 208.824 442.564 207.445 444.109 206.475C445.655 205.505 447.42 205.02 449.405 205.02C450.579 205.02 451.681 205.191 452.712 205.532C453.749 205.873 454.685 206.373 455.518 207.032C456.352 207.683 457.049 208.479 457.609 209.418C458.17 210.35 458.556 211.414 458.768 212.611ZM465.641 218.111V228.611H462.959V205.339H465.641V213.884H465.868C466.277 212.983 466.891 212.267 467.709 211.736C468.534 211.199 469.633 210.93 471.004 210.93C472.194 210.93 473.235 211.168 474.129 211.645C475.023 212.115 475.716 212.839 476.209 213.816C476.709 214.786 476.959 216.02 476.959 217.52V228.611H474.277V217.702C474.277 216.316 473.917 215.244 473.197 214.486C472.485 213.721 471.497 213.339 470.231 213.339C469.353 213.339 468.565 213.524 467.868 213.895C467.178 214.267 466.633 214.808 466.231 215.52C465.837 216.233 465.641 217.096 465.641 218.111ZM487.001 229.02C485.895 229.02 484.891 228.812 483.99 228.395C483.088 227.971 482.373 227.361 481.842 226.566C481.312 225.763 481.047 224.793 481.047 223.657C481.047 222.657 481.244 221.846 481.638 221.225C482.032 220.596 482.558 220.104 483.217 219.748C483.876 219.392 484.604 219.127 485.399 218.952C486.202 218.77 487.009 218.627 487.819 218.52C488.88 218.384 489.74 218.282 490.399 218.214C491.066 218.138 491.551 218.013 491.854 217.839C492.164 217.664 492.319 217.361 492.319 216.93V216.839C492.319 215.717 492.013 214.846 491.399 214.225C490.793 213.604 489.873 213.293 488.638 213.293C487.357 213.293 486.354 213.574 485.626 214.134C484.899 214.695 484.388 215.293 484.092 215.93L481.547 215.02C482.001 213.96 482.607 213.134 483.365 212.543C484.13 211.945 484.963 211.528 485.865 211.293C486.774 211.051 487.668 210.93 488.547 210.93C489.107 210.93 489.751 210.998 490.479 211.134C491.213 211.263 491.922 211.532 492.604 211.941C493.293 212.35 493.865 212.967 494.319 213.793C494.774 214.619 495.001 215.725 495.001 217.111V228.611H492.319V226.248H492.183C492.001 226.627 491.698 227.032 491.274 227.464C490.85 227.895 490.285 228.263 489.581 228.566C488.876 228.869 488.016 229.02 487.001 229.02ZM487.41 226.611C488.471 226.611 489.365 226.403 490.092 225.986C490.827 225.57 491.38 225.032 491.751 224.373C492.13 223.714 492.319 223.02 492.319 222.293V219.839C492.206 219.975 491.956 220.1 491.569 220.214C491.191 220.32 490.751 220.414 490.251 220.498C489.759 220.574 489.278 220.642 488.808 220.702C488.346 220.755 487.971 220.801 487.683 220.839C486.986 220.93 486.335 221.077 485.729 221.282C485.13 221.479 484.645 221.778 484.274 222.18C483.91 222.574 483.729 223.111 483.729 223.793C483.729 224.725 484.073 225.43 484.763 225.907C485.46 226.377 486.342 226.611 487.41 226.611ZM502.578 218.111V228.611H499.896V211.157H502.487V213.884H502.714C503.123 212.998 503.745 212.286 504.578 211.748C505.411 211.202 506.487 210.93 507.805 210.93C508.987 210.93 510.021 211.172 510.908 211.657C511.794 212.134 512.483 212.861 512.976 213.839C513.468 214.808 513.714 216.036 513.714 217.52V228.611H511.033V217.702C511.033 216.331 510.676 215.263 509.964 214.498C509.252 213.725 508.275 213.339 507.033 213.339C506.176 213.339 505.411 213.524 504.737 213.895C504.07 214.267 503.544 214.808 503.158 215.52C502.771 216.233 502.578 217.096 502.578 218.111ZM525.66 235.52C524.365 235.52 523.251 235.354 522.319 235.02C521.388 234.695 520.611 234.263 519.99 233.725C519.376 233.195 518.888 232.627 518.524 232.02L520.66 230.52C520.903 230.839 521.21 231.202 521.581 231.611C521.952 232.028 522.46 232.388 523.104 232.691C523.755 233.002 524.607 233.157 525.66 233.157C527.069 233.157 528.232 232.816 529.149 232.134C530.066 231.452 530.524 230.384 530.524 228.93V225.384H530.297C530.1 225.702 529.819 226.096 529.456 226.566C529.1 227.028 528.585 227.441 527.91 227.805C527.244 228.161 526.342 228.339 525.206 228.339C523.797 228.339 522.532 228.005 521.41 227.339C520.297 226.672 519.414 225.702 518.763 224.43C518.119 223.157 517.797 221.611 517.797 219.793C517.797 218.005 518.111 216.449 518.74 215.123C519.369 213.789 520.244 212.759 521.365 212.032C522.486 211.297 523.782 210.93 525.251 210.93C526.388 210.93 527.289 211.119 527.956 211.498C528.63 211.869 529.145 212.293 529.501 212.77C529.865 213.24 530.145 213.627 530.342 213.93H530.615V211.157H533.206V229.111C533.206 230.611 532.865 231.831 532.183 232.77C531.509 233.717 530.6 234.411 529.456 234.85C528.319 235.297 527.054 235.52 525.66 235.52ZM525.569 225.93C526.645 225.93 527.554 225.683 528.297 225.191C529.039 224.699 529.604 223.99 529.99 223.066C530.376 222.142 530.569 221.036 530.569 219.748C530.569 218.49 530.38 217.38 530.001 216.418C529.623 215.456 529.062 214.702 528.319 214.157C527.577 213.611 526.66 213.339 525.569 213.339C524.433 213.339 523.486 213.627 522.729 214.202C521.979 214.778 521.414 215.551 521.035 216.52C520.664 217.49 520.479 218.566 520.479 219.748C520.479 220.96 520.668 222.032 521.047 222.964C521.433 223.888 522.001 224.615 522.751 225.145C523.509 225.668 524.448 225.93 525.569 225.93ZM545.433 228.975C543.751 228.975 542.301 228.604 541.081 227.861C539.869 227.111 538.933 226.066 538.274 224.725C537.623 223.377 537.297 221.808 537.297 220.02C537.297 218.233 537.623 216.657 538.274 215.293C538.933 213.922 539.85 212.854 541.024 212.089C542.206 211.316 543.585 210.93 545.16 210.93C546.069 210.93 546.967 211.081 547.854 211.384C548.74 211.687 549.547 212.18 550.274 212.861C551.001 213.536 551.581 214.43 552.013 215.543C552.444 216.657 552.66 218.028 552.66 219.657V220.793H539.206V218.475H549.933C549.933 217.49 549.736 216.611 549.342 215.839C548.956 215.066 548.403 214.456 547.683 214.009C546.971 213.562 546.13 213.339 545.16 213.339C544.092 213.339 543.168 213.604 542.388 214.134C541.615 214.657 541.02 215.339 540.604 216.18C540.187 217.02 539.979 217.922 539.979 218.884V220.43C539.979 221.748 540.206 222.865 540.66 223.782C541.123 224.691 541.763 225.384 542.581 225.861C543.399 226.331 544.35 226.566 545.433 226.566C546.138 226.566 546.774 226.467 547.342 226.27C547.918 226.066 548.414 225.763 548.831 225.361C549.248 224.952 549.569 224.445 549.797 223.839L552.388 224.566C552.115 225.445 551.657 226.217 551.013 226.884C550.369 227.543 549.573 228.058 548.626 228.43C547.679 228.793 546.615 228.975 545.433 228.975ZM442.359 257.111V267.611H439.677V244.339H442.359V252.884H442.587C442.996 251.983 443.609 251.267 444.427 250.736C445.253 250.199 446.352 249.93 447.723 249.93C448.912 249.93 449.954 250.168 450.848 250.645C451.742 251.115 452.435 251.839 452.927 252.816C453.427 253.786 453.677 255.02 453.677 256.52V267.611H450.996V256.702C450.996 255.316 450.636 254.244 449.916 253.486C449.204 252.721 448.215 252.339 446.95 252.339C446.071 252.339 445.284 252.524 444.587 252.895C443.897 253.267 443.352 253.808 442.95 254.52C442.556 255.233 442.359 256.096 442.359 257.111ZM463.72 268.02C462.614 268.02 461.61 267.812 460.709 267.395C459.807 266.971 459.091 266.361 458.561 265.566C458.031 264.763 457.766 263.793 457.766 262.657C457.766 261.657 457.962 260.846 458.356 260.225C458.75 259.596 459.277 259.104 459.936 258.748C460.595 258.392 461.322 258.127 462.118 257.952C462.921 257.77 463.728 257.627 464.538 257.52C465.599 257.384 466.459 257.282 467.118 257.214C467.784 257.138 468.269 257.013 468.572 256.839C468.883 256.664 469.038 256.361 469.038 255.93V255.839C469.038 254.717 468.731 253.846 468.118 253.225C467.512 252.604 466.591 252.293 465.356 252.293C464.076 252.293 463.072 252.574 462.345 253.134C461.618 253.695 461.106 254.293 460.811 254.93L458.266 254.02C458.72 252.96 459.326 252.134 460.084 251.543C460.849 250.945 461.682 250.528 462.584 250.293C463.493 250.051 464.387 249.93 465.266 249.93C465.826 249.93 466.47 249.998 467.197 250.134C467.932 250.263 468.641 250.532 469.322 250.941C470.012 251.35 470.584 251.967 471.038 252.793C471.493 253.619 471.72 254.725 471.72 256.111V267.611H469.038V265.248H468.902C468.72 265.627 468.417 266.032 467.993 266.464C467.569 266.895 467.004 267.263 466.3 267.566C465.595 267.869 464.735 268.02 463.72 268.02ZM464.129 265.611C465.19 265.611 466.084 265.403 466.811 264.986C467.546 264.57 468.099 264.032 468.47 263.373C468.849 262.714 469.038 262.02 469.038 261.293V258.839C468.925 258.975 468.675 259.1 468.288 259.214C467.909 259.32 467.47 259.414 466.97 259.498C466.478 259.574 465.997 259.642 465.527 259.702C465.065 259.755 464.69 259.801 464.402 259.839C463.705 259.93 463.053 260.077 462.447 260.282C461.849 260.479 461.364 260.778 460.993 261.18C460.629 261.574 460.447 262.111 460.447 262.793C460.447 263.725 460.792 264.43 461.481 264.907C462.178 265.377 463.061 265.611 464.129 265.611ZM476.615 274.157V250.157H479.206V252.93H479.524C479.721 252.627 479.994 252.24 480.342 251.77C480.698 251.293 481.206 250.869 481.865 250.498C482.532 250.119 483.433 249.93 484.569 249.93C486.039 249.93 487.335 250.297 488.456 251.032C489.577 251.767 490.452 252.808 491.081 254.157C491.71 255.505 492.024 257.096 492.024 258.93C492.024 260.778 491.71 262.38 491.081 263.736C490.452 265.085 489.581 266.13 488.467 266.873C487.354 267.608 486.069 267.975 484.615 267.975C483.494 267.975 482.596 267.789 481.922 267.418C481.248 267.039 480.729 266.611 480.365 266.134C480.001 265.649 479.721 265.248 479.524 264.93H479.297V274.157H476.615ZM479.251 258.884C479.251 260.202 479.444 261.365 479.831 262.373C480.217 263.373 480.782 264.157 481.524 264.725C482.266 265.286 483.176 265.566 484.251 265.566C485.373 265.566 486.308 265.27 487.058 264.68C487.816 264.081 488.384 263.278 488.763 262.27C489.149 261.255 489.342 260.127 489.342 258.884C489.342 257.657 489.153 256.551 488.774 255.566C488.403 254.574 487.838 253.789 487.081 253.214C486.331 252.63 485.388 252.339 484.251 252.339C483.16 252.339 482.244 252.615 481.501 253.168C480.759 253.714 480.198 254.479 479.819 255.464C479.441 256.441 479.251 257.581 479.251 258.884ZM496.115 274.157V250.157H498.706V252.93H499.024C499.221 252.627 499.494 252.24 499.842 251.77C500.198 251.293 500.706 250.869 501.365 250.498C502.032 250.119 502.933 249.93 504.069 249.93C505.539 249.93 506.835 250.297 507.956 251.032C509.077 251.767 509.952 252.808 510.581 254.157C511.21 255.505 511.524 257.096 511.524 258.93C511.524 260.778 511.21 262.38 510.581 263.736C509.952 265.085 509.081 266.13 507.967 266.873C506.854 267.608 505.569 267.975 504.115 267.975C502.994 267.975 502.096 267.789 501.422 267.418C500.748 267.039 500.229 266.611 499.865 266.134C499.501 265.649 499.221 265.248 499.024 264.93H498.797V274.157H496.115ZM498.751 258.884C498.751 260.202 498.944 261.365 499.331 262.373C499.717 263.373 500.282 264.157 501.024 264.725C501.766 265.286 502.676 265.566 503.751 265.566C504.873 265.566 505.808 265.27 506.558 264.68C507.316 264.081 507.884 263.278 508.263 262.27C508.649 261.255 508.842 260.127 508.842 258.884C508.842 257.657 508.653 256.551 508.274 255.566C507.903 254.574 507.338 253.789 506.581 253.214C505.831 252.63 504.888 252.339 503.751 252.339C502.66 252.339 501.744 252.615 501.001 253.168C500.259 253.714 499.698 254.479 499.319 255.464C498.941 256.441 498.751 257.581 498.751 258.884ZM522.933 267.975C521.251 267.975 519.801 267.604 518.581 266.861C517.369 266.111 516.433 265.066 515.774 263.725C515.123 262.377 514.797 260.808 514.797 259.02C514.797 257.233 515.123 255.657 515.774 254.293C516.433 252.922 517.35 251.854 518.524 251.089C519.706 250.316 521.085 249.93 522.66 249.93C523.569 249.93 524.467 250.081 525.354 250.384C526.24 250.687 527.047 251.18 527.774 251.861C528.501 252.536 529.081 253.43 529.513 254.543C529.944 255.657 530.16 257.028 530.16 258.657V259.793H516.706V257.475H527.433C527.433 256.49 527.236 255.611 526.842 254.839C526.456 254.066 525.903 253.456 525.183 253.009C524.471 252.562 523.63 252.339 522.66 252.339C521.592 252.339 520.668 252.604 519.888 253.134C519.115 253.657 518.52 254.339 518.104 255.18C517.687 256.02 517.479 256.922 517.479 257.884V259.43C517.479 260.748 517.706 261.865 518.16 262.782C518.623 263.691 519.263 264.384 520.081 264.861C520.899 265.331 521.85 265.566 522.933 265.566C523.638 265.566 524.274 265.467 524.842 265.27C525.418 265.066 525.914 264.763 526.331 264.361C526.748 263.952 527.069 263.445 527.297 262.839L529.888 263.566C529.615 264.445 529.157 265.217 528.513 265.884C527.869 266.543 527.073 267.058 526.126 267.43C525.179 267.793 524.115 267.975 522.933 267.975ZM536.922 257.111V267.611H534.24V250.157H536.831V252.884H537.058C537.467 251.998 538.088 251.286 538.922 250.748C539.755 250.202 540.831 249.93 542.149 249.93C543.331 249.93 544.365 250.172 545.251 250.657C546.138 251.134 546.827 251.861 547.319 252.839C547.812 253.808 548.058 255.036 548.058 256.52V267.611H545.376V256.702C545.376 255.331 545.02 254.263 544.308 253.498C543.596 252.725 542.619 252.339 541.376 252.339C540.52 252.339 539.755 252.524 539.081 252.895C538.414 253.267 537.888 253.808 537.501 254.52C537.115 255.233 536.922 256.096 536.922 257.111ZM560.277 267.975C558.595 267.975 557.144 267.604 555.925 266.861C554.712 266.111 553.777 265.066 553.118 263.725C552.466 262.377 552.141 260.808 552.141 259.02C552.141 257.233 552.466 255.657 553.118 254.293C553.777 252.922 554.694 251.854 555.868 251.089C557.05 250.316 558.428 249.93 560.004 249.93C560.913 249.93 561.811 250.081 562.697 250.384C563.584 250.687 564.391 251.18 565.118 251.861C565.845 252.536 566.425 253.43 566.856 254.543C567.288 255.657 567.504 257.028 567.504 258.657V259.793H554.05V257.475H564.777C564.777 256.49 564.58 255.611 564.186 254.839C563.8 254.066 563.247 253.456 562.527 253.009C561.815 252.562 560.974 252.339 560.004 252.339C558.936 252.339 558.012 252.604 557.231 253.134C556.459 253.657 555.864 254.339 555.447 255.18C555.031 256.02 554.822 256.922 554.822 257.884V259.43C554.822 260.748 555.05 261.865 555.504 262.782C555.966 263.691 556.606 264.384 557.425 264.861C558.243 265.331 559.194 265.566 560.277 265.566C560.981 265.566 561.618 265.467 562.186 265.27C562.762 265.066 563.258 264.763 563.675 264.361C564.091 263.952 564.413 263.445 564.641 262.839L567.231 263.566C566.959 264.445 566.5 265.217 565.856 265.884C565.212 266.543 564.417 267.058 563.47 267.43C562.523 267.793 561.459 267.975 560.277 267.975ZM578.175 267.975C576.72 267.975 575.436 267.608 574.322 266.873C573.209 266.13 572.337 265.085 571.709 263.736C571.08 262.38 570.766 260.778 570.766 258.93C570.766 257.096 571.08 255.505 571.709 254.157C572.337 252.808 573.212 251.767 574.334 251.032C575.455 250.297 576.75 249.93 578.22 249.93C579.356 249.93 580.254 250.119 580.913 250.498C581.58 250.869 582.087 251.293 582.436 251.77C582.792 252.24 583.069 252.627 583.266 252.93H583.493V244.339H586.175V267.611H583.584V264.93H583.266C583.069 265.248 582.788 265.649 582.425 266.134C582.061 266.611 581.542 267.039 580.868 267.418C580.194 267.789 579.296 267.975 578.175 267.975ZM578.538 265.566C579.614 265.566 580.523 265.286 581.266 264.725C582.008 264.157 582.572 263.373 582.959 262.373C583.345 261.365 583.538 260.202 583.538 258.884C583.538 257.581 583.349 256.441 582.97 255.464C582.591 254.479 582.031 253.714 581.288 253.168C580.546 252.615 579.629 252.339 578.538 252.339C577.402 252.339 576.455 252.63 575.697 253.214C574.947 253.789 574.383 254.574 574.004 255.566C573.633 256.551 573.447 257.657 573.447 258.884C573.447 260.127 573.637 261.255 574.016 262.27C574.402 263.278 574.97 264.081 575.72 264.68C576.478 265.27 577.417 265.566 578.538 265.566ZM595.004 244.339L594.777 261.066H592.141L591.913 244.339H595.004ZM593.459 267.793C592.898 267.793 592.417 267.592 592.016 267.191C591.614 266.789 591.413 266.308 591.413 265.748C591.413 265.187 591.614 264.706 592.016 264.305C592.417 263.903 592.898 263.702 593.459 263.702C594.019 263.702 594.5 263.903 594.902 264.305C595.303 264.706 595.504 265.187 595.504 265.748C595.504 266.119 595.409 266.46 595.22 266.77C595.038 267.081 594.792 267.331 594.481 267.52C594.178 267.702 593.837 267.793 593.459 267.793Z" fill="white"/>
<path d="M187.634 17.4545H195.598L204.01 37.9773H204.368L212.78 17.4545H220.745V48H214.48V28.1186H214.227L206.322 47.8509H202.056L194.152 28.044H193.898V48H187.634V17.4545ZM236.297 48.4474C233.98 48.4474 231.977 47.9553 230.286 46.9709C228.606 45.9766 227.308 44.5945 226.394 42.8246C225.479 41.0447 225.021 38.9815 225.021 36.6349C225.021 34.2685 225.479 32.2003 226.394 30.4304C227.308 28.6506 228.606 27.2685 230.286 26.2841C231.977 25.2898 233.98 24.7926 236.297 24.7926C238.614 24.7926 240.612 25.2898 242.293 26.2841C243.983 27.2685 245.286 28.6506 246.2 30.4304C247.115 32.2003 247.573 34.2685 247.573 36.6349C247.573 38.9815 247.115 41.0447 246.2 42.8246C245.286 44.5945 243.983 45.9766 242.293 46.9709C240.612 47.9553 238.614 48.4474 236.297 48.4474ZM236.327 43.5256C237.381 43.5256 238.261 43.2273 238.967 42.6307C239.673 42.0241 240.205 41.1989 240.563 40.1548C240.931 39.1108 241.114 37.9226 241.114 36.5902C241.114 35.2578 240.931 34.0696 240.563 33.0256C240.205 31.9815 239.673 31.1562 238.967 30.5497C238.261 29.9432 237.381 29.6399 236.327 29.6399C235.263 29.6399 234.368 29.9432 233.642 30.5497C232.926 31.1562 232.384 31.9815 232.016 33.0256C231.659 34.0696 231.48 35.2578 231.48 36.5902C231.48 37.9226 231.659 39.1108 232.016 40.1548C232.384 41.1989 232.926 42.0241 233.642 42.6307C234.368 43.2273 235.263 43.5256 236.327 43.5256ZM260.146 48.3729C258.406 48.3729 256.83 47.9254 255.418 47.0305C254.016 46.1257 252.902 44.7983 252.077 43.0483C251.261 41.2884 250.854 39.1307 250.854 36.5753C250.854 33.9503 251.276 31.7678 252.122 30.0277C252.967 28.2777 254.09 26.9702 255.492 26.1051C256.904 25.2301 258.45 24.7926 260.131 24.7926C261.413 24.7926 262.482 25.0114 263.337 25.4489C264.203 25.8764 264.899 26.4134 265.426 27.0597C265.962 27.696 266.37 28.3224 266.649 28.9389H266.842V17.4545H273.181V48H266.917V44.331H266.649C266.35 44.9673 265.928 45.5987 265.381 46.2251C264.844 46.8416 264.143 47.3537 263.278 47.7614C262.423 48.169 261.379 48.3729 260.146 48.3729ZM262.159 43.3168C263.183 43.3168 264.048 43.0384 264.754 42.4815C265.47 41.9148 266.017 41.1243 266.395 40.1101C266.783 39.0959 266.977 37.9077 266.977 36.5455C266.977 35.1832 266.788 34 266.41 32.9957C266.032 31.9915 265.485 31.2159 264.769 30.669C264.053 30.1222 263.183 29.8487 262.159 29.8487C261.115 29.8487 260.235 30.1321 259.519 30.6989C258.803 31.2656 258.261 32.0511 257.894 33.0554C257.526 34.0597 257.342 35.223 257.342 36.5455C257.342 37.8778 257.526 39.0561 257.894 40.0803C258.271 41.0945 258.813 41.8899 259.519 42.4666C260.235 43.0334 261.115 43.3168 262.159 43.3168ZM288.845 48.4474C286.489 48.4474 284.461 47.9702 282.76 47.0156C281.07 46.0511 279.767 44.6889 278.853 42.929C277.938 41.1591 277.48 39.0661 277.48 36.6499C277.48 34.2933 277.938 32.2251 278.853 30.4453C279.767 28.6655 281.055 27.2784 282.716 26.2841C284.386 25.2898 286.345 24.7926 288.592 24.7926C290.103 24.7926 291.51 25.0362 292.813 25.5234C294.125 26.0007 295.269 26.7216 296.243 27.6861C297.228 28.6506 297.993 29.8636 298.54 31.3253C299.087 32.777 299.36 34.4773 299.36 36.4261V38.1712H280.016V34.2337H293.38C293.38 33.3189 293.181 32.5085 292.783 31.8026C292.385 31.0966 291.833 30.5447 291.127 30.147C290.431 29.7393 289.621 29.5355 288.696 29.5355C287.732 29.5355 286.877 29.7592 286.131 30.2067C285.395 30.6442 284.818 31.2358 284.401 31.9815C283.983 32.7173 283.769 33.5376 283.76 34.4425V38.1861C283.76 39.3196 283.968 40.299 284.386 41.1243C284.814 41.9496 285.415 42.5859 286.191 43.0334C286.966 43.4808 287.886 43.7045 288.95 43.7045C289.656 43.7045 290.302 43.6051 290.889 43.4062C291.475 43.2074 291.978 42.9091 292.395 42.5114C292.813 42.1136 293.131 41.6264 293.35 41.0497L299.226 41.4375C298.928 42.8494 298.316 44.0824 297.392 45.1364C296.477 46.1804 295.294 46.9957 293.842 47.5824C292.4 48.1591 290.735 48.4474 288.845 48.4474ZM309.86 17.4545V48H303.507V17.4545H309.86Z" fill="white"/>
<path d="M900.864 48H890.036V17.4545H900.954C904.026 17.4545 906.671 18.0661 908.888 19.2891C911.106 20.5021 912.811 22.2472 914.004 24.5241C915.207 26.8011 915.809 29.5256 915.809 32.6974C915.809 35.8793 915.207 38.6136 914.004 40.9006C912.811 43.1875 911.096 44.9425 908.859 46.1655C906.631 47.3885 903.967 48 900.864 48ZM896.494 42.4666H900.596C902.505 42.4666 904.111 42.1286 905.413 41.4524C906.726 40.7663 907.71 39.7074 908.366 38.2756C909.033 36.8338 909.366 34.9744 909.366 32.6974C909.366 30.4403 909.033 28.5959 908.366 27.1641C907.71 25.7322 906.731 24.6783 905.428 24.0021C904.126 23.326 902.52 22.9879 900.611 22.9879H896.494V42.4666ZM948.662 32.7273C948.662 36.0582 948.031 38.892 946.768 41.2287C945.515 43.5653 943.805 45.3501 941.638 46.5831C939.48 47.8061 937.054 48.4176 934.359 48.4176C931.645 48.4176 929.209 47.8011 927.051 46.5682C924.893 45.3352 923.188 43.5504 921.935 41.2138C920.682 38.8771 920.056 36.0483 920.056 32.7273C920.056 29.3963 920.682 26.5625 921.935 24.2259C923.188 21.8892 924.893 20.1094 927.051 18.8864C929.209 17.6534 931.645 17.0369 934.359 17.0369C937.054 17.0369 939.48 17.6534 941.638 18.8864C943.805 20.1094 945.515 21.8892 946.768 24.2259C948.031 26.5625 948.662 29.3963 948.662 32.7273ZM942.115 32.7273C942.115 30.5696 941.792 28.75 941.145 27.2685C940.509 25.7869 939.609 24.6634 938.446 23.8977C937.282 23.1321 935.92 22.7493 934.359 22.7493C932.798 22.7493 931.436 23.1321 930.273 23.8977C929.109 24.6634 928.204 25.7869 927.558 27.2685C926.922 28.75 926.603 30.5696 926.603 32.7273C926.603 34.8849 926.922 36.7045 927.558 38.1861C928.204 39.6676 929.109 40.7912 930.273 41.5568C931.436 42.3224 932.798 42.7053 934.359 42.7053C935.92 42.7053 937.282 42.3224 938.446 41.5568C939.609 40.7912 940.509 39.6676 941.145 38.1861C941.792 36.7045 942.115 34.8849 942.115 32.7273ZM953.446 17.4545H961.411L969.823 37.9773H970.181L978.593 17.4545H986.557V48H980.293V28.1186H980.039L972.135 47.8509H967.869L959.964 28.044H959.711V48H953.446V17.4545Z" fill="white"/>
<rect x="854.249" y="94.9298" width="231.841" height="128.356" rx="11.5" fill="white" stroke="#808080"/>
<rect x="714.544" y="270.854" width="231.841" height="128.356" rx="11.5" fill="white" stroke="#808080"/>
<rect x="627.876" y="455.833" width="231.841" height="128.356" rx="11.5" fill="white" stroke="#808080"/>
<rect x="983.604" y="270.854" width="231.841" height="128.356" rx="11.5" fill="white" stroke="#808080"/>
<rect x="897.436" y="456.333" width="230.841" height="127.356" rx="11" fill="url(#paint1_linear_701_1033)" stroke="white" stroke-width="2"/>
<rect x="992.659" y="640.812" width="231.841" height="128.356" rx="11.5" fill="white" stroke="#808080"/>
<path d="M867.978 270.354L964.348 223.786L1063.95 270.354" stroke="white" stroke-width="2"/>
<path d="M750.264 454.039L825.291 398.416L922.954 454.039M1016.09 584.042L1097.58 639.665" stroke="white" stroke-width="2"/>
<defs>
<linearGradient id="paint0_linear_701_1033" x1="324.683" y1="716.747" x2="478.617" y2="716.747" gradientUnits="userSpaceOnUse">
<stop stop-color="#DD0032"/>
<stop offset="1" stop-color="#C3012F"/>
</linearGradient>
<linearGradient id="paint1_linear_701_1033" x1="896.436" y1="519.565" x2="1129.28" y2="519.565" gradientUnits="userSpaceOnUse">
<stop stop-color="#DD0032"/>
<stop offset="1" stop-color="#C3012F"/>
</linearGradient>
</defs>
</svg>
