<svg width="1920" height="1080" viewBox="0 0 1920 1080" fill="none" xmlns="http://www.w3.org/2000/svg">
<g clip-path="url(#clip0_701_896)">
<rect x="543" y="343" width="174" height="101" rx="11" fill="#E61010"/>
<rect x="543" y="343" width="174" height="101" rx="11" stroke="white" stroke-width="2"/>
<path d="M628.557 389.875H623.58C623.489 389.231 623.303 388.659 623.023 388.159C622.742 387.652 622.383 387.22 621.943 386.864C621.504 386.508 620.996 386.235 620.42 386.045C619.852 385.856 619.235 385.761 618.568 385.761C617.364 385.761 616.314 386.061 615.42 386.659C614.527 387.25 613.833 388.114 613.341 389.25C612.848 390.379 612.602 391.75 612.602 393.364C612.602 395.023 612.848 396.417 613.341 397.545C613.841 398.674 614.538 399.527 615.432 400.102C616.326 400.678 617.36 400.966 618.534 400.966C619.193 400.966 619.803 400.879 620.364 400.705C620.932 400.53 621.436 400.277 621.875 399.943C622.314 399.602 622.678 399.189 622.966 398.705C623.261 398.22 623.466 397.667 623.58 397.045L628.557 397.068C628.428 398.136 628.106 399.167 627.591 400.159C627.083 401.144 626.398 402.027 625.534 402.807C624.678 403.58 623.655 404.193 622.466 404.648C621.284 405.095 619.947 405.318 618.455 405.318C616.379 405.318 614.523 404.848 612.886 403.909C611.258 402.97 609.97 401.61 609.023 399.83C608.083 398.049 607.614 395.894 607.614 393.364C607.614 390.826 608.091 388.667 609.045 386.886C610 385.106 611.295 383.75 612.932 382.818C614.568 381.879 616.409 381.409 618.455 381.409C619.803 381.409 621.053 381.598 622.205 381.977C623.364 382.356 624.39 382.909 625.284 383.636C626.178 384.356 626.905 385.239 627.466 386.284C628.034 387.33 628.398 388.527 628.557 389.875ZM640.335 405H632.085V381.727H640.403C642.744 381.727 644.759 382.193 646.449 383.125C648.138 384.049 649.438 385.379 650.347 387.114C651.263 388.848 651.722 390.924 651.722 393.341C651.722 395.765 651.263 397.848 650.347 399.591C649.438 401.333 648.131 402.67 646.426 403.602C644.729 404.534 642.699 405 640.335 405ZM637.006 400.784H640.131C641.585 400.784 642.809 400.527 643.801 400.011C644.801 399.489 645.551 398.682 646.051 397.591C646.559 396.492 646.812 395.076 646.812 393.341C646.812 391.621 646.559 390.216 646.051 389.125C645.551 388.034 644.805 387.231 643.812 386.716C642.82 386.201 641.597 385.943 640.142 385.943H637.006V400.784Z" fill="white"/>
<rect x="543" y="343" width="174" height="101" rx="11" fill="#EEEEEE"/>
<rect x="543" y="343" width="174" height="101" rx="11" stroke="white" stroke-width="2"/>
<path d="M628.557 389.875H623.58C623.489 389.231 623.303 388.659 623.023 388.159C622.742 387.652 622.383 387.22 621.943 386.864C621.504 386.508 620.996 386.235 620.42 386.045C619.852 385.856 619.235 385.761 618.568 385.761C617.364 385.761 616.314 386.061 615.42 386.659C614.527 387.25 613.833 388.114 613.341 389.25C612.848 390.379 612.602 391.75 612.602 393.364C612.602 395.023 612.848 396.417 613.341 397.545C613.841 398.674 614.538 399.527 615.432 400.102C616.326 400.678 617.36 400.966 618.534 400.966C619.193 400.966 619.803 400.879 620.364 400.705C620.932 400.53 621.436 400.277 621.875 399.943C622.314 399.602 622.678 399.189 622.966 398.705C623.261 398.22 623.466 397.667 623.58 397.045L628.557 397.068C628.428 398.136 628.106 399.167 627.591 400.159C627.083 401.144 626.398 402.027 625.534 402.807C624.678 403.58 623.655 404.193 622.466 404.648C621.284 405.095 619.947 405.318 618.455 405.318C616.379 405.318 614.523 404.848 612.886 403.909C611.258 402.97 609.97 401.61 609.023 399.83C608.083 398.049 607.614 395.894 607.614 393.364C607.614 390.826 608.091 388.667 609.045 386.886C610 385.106 611.295 383.75 612.932 382.818C614.568 381.879 616.409 381.409 618.455 381.409C619.803 381.409 621.053 381.598 622.205 381.977C623.364 382.356 624.39 382.909 625.284 383.636C626.178 384.356 626.905 385.239 627.466 386.284C628.034 387.33 628.398 388.527 628.557 389.875ZM640.335 405H632.085V381.727H640.403C642.744 381.727 644.759 382.193 646.449 383.125C648.138 384.049 649.438 385.379 650.347 387.114C651.263 388.848 651.722 390.924 651.722 393.341C651.722 395.765 651.263 397.848 650.347 399.591C649.438 401.333 648.131 402.67 646.426 403.602C644.729 404.534 642.699 405 640.335 405ZM637.006 400.784H640.131C641.585 400.784 642.809 400.527 643.801 400.011C644.801 399.489 645.551 398.682 646.051 397.591C646.559 396.492 646.812 395.076 646.812 393.341C646.812 391.621 646.559 390.216 646.051 389.125C645.551 388.034 644.805 387.231 643.812 386.716C642.82 386.201 641.597 385.943 640.142 385.943H637.006V400.784Z" fill="#003399"/>
<rect x="423" y="510" width="174" height="101" rx="11" fill="#EEEEEE"/>
<rect x="423" y="510" width="174" height="101" rx="11" stroke="white" stroke-width="2"/>
<path d="M508.557 556.875H503.58C503.489 556.231 503.303 555.659 503.023 555.159C502.742 554.652 502.383 554.22 501.943 553.864C501.504 553.508 500.996 553.235 500.42 553.045C499.852 552.856 499.235 552.761 498.568 552.761C497.364 552.761 496.314 553.061 495.42 553.659C494.527 554.25 493.833 555.114 493.341 556.25C492.848 557.379 492.602 558.75 492.602 560.364C492.602 562.023 492.848 563.417 493.341 564.545C493.841 565.674 494.538 566.527 495.432 567.102C496.326 567.678 497.36 567.966 498.534 567.966C499.193 567.966 499.803 567.879 500.364 567.705C500.932 567.53 501.436 567.277 501.875 566.943C502.314 566.602 502.678 566.189 502.966 565.705C503.261 565.22 503.466 564.667 503.58 564.045L508.557 564.068C508.428 565.136 508.106 566.167 507.591 567.159C507.083 568.144 506.398 569.027 505.534 569.807C504.678 570.58 503.655 571.193 502.466 571.648C501.284 572.095 499.947 572.318 498.455 572.318C496.379 572.318 494.523 571.848 492.886 570.909C491.258 569.97 489.97 568.61 489.023 566.83C488.083 565.049 487.614 562.894 487.614 560.364C487.614 557.826 488.091 555.667 489.045 553.886C490 552.106 491.295 550.75 492.932 549.818C494.568 548.879 496.409 548.409 498.455 548.409C499.803 548.409 501.053 548.598 502.205 548.977C503.364 549.356 504.39 549.909 505.284 550.636C506.178 551.356 506.905 552.239 507.466 553.284C508.034 554.33 508.398 555.527 508.557 556.875ZM520.335 572H512.085V548.727H520.403C522.744 548.727 524.759 549.193 526.449 550.125C528.138 551.049 529.438 552.379 530.347 554.114C531.263 555.848 531.722 557.924 531.722 560.341C531.722 562.765 531.263 564.848 530.347 566.591C529.438 568.333 528.131 569.67 526.426 570.602C524.729 571.534 522.699 572 520.335 572ZM517.006 567.784H520.131C521.585 567.784 522.809 567.527 523.801 567.011C524.801 566.489 525.551 565.682 526.051 564.591C526.559 563.492 526.812 562.076 526.812 560.341C526.812 558.621 526.559 557.216 526.051 556.125C525.551 555.034 524.805 554.231 523.812 553.716C522.82 553.201 521.597 552.943 520.142 552.943H517.006V567.784Z" fill="#003399"/>
<rect x="663" y="510" width="174" height="101" rx="11" fill="#EEEEEE"/>
<rect x="663" y="510" width="174" height="101" rx="11" stroke="white" stroke-width="2"/>
<path d="M748.557 556.875H743.58C743.489 556.231 743.303 555.659 743.023 555.159C742.742 554.652 742.383 554.22 741.943 553.864C741.504 553.508 740.996 553.235 740.42 553.045C739.852 552.856 739.235 552.761 738.568 552.761C737.364 552.761 736.314 553.061 735.42 553.659C734.527 554.25 733.833 555.114 733.341 556.25C732.848 557.379 732.602 558.75 732.602 560.364C732.602 562.023 732.848 563.417 733.341 564.545C733.841 565.674 734.538 566.527 735.432 567.102C736.326 567.678 737.36 567.966 738.534 567.966C739.193 567.966 739.803 567.879 740.364 567.705C740.932 567.53 741.436 567.277 741.875 566.943C742.314 566.602 742.678 566.189 742.966 565.705C743.261 565.22 743.466 564.667 743.58 564.045L748.557 564.068C748.428 565.136 748.106 566.167 747.591 567.159C747.083 568.144 746.398 569.027 745.534 569.807C744.678 570.58 743.655 571.193 742.466 571.648C741.284 572.095 739.947 572.318 738.455 572.318C736.379 572.318 734.523 571.848 732.886 570.909C731.258 569.97 729.97 568.61 729.023 566.83C728.083 565.049 727.614 562.894 727.614 560.364C727.614 557.826 728.091 555.667 729.045 553.886C730 552.106 731.295 550.75 732.932 549.818C734.568 548.879 736.409 548.409 738.455 548.409C739.803 548.409 741.053 548.598 742.205 548.977C743.364 549.356 744.39 549.909 745.284 550.636C746.178 551.356 746.905 552.239 747.466 553.284C748.034 554.33 748.398 555.527 748.557 556.875ZM760.335 572H752.085V548.727H760.403C762.744 548.727 764.759 549.193 766.449 550.125C768.138 551.049 769.438 552.379 770.347 554.114C771.263 555.848 771.722 557.924 771.722 560.341C771.722 562.765 771.263 564.848 770.347 566.591C769.438 568.333 768.131 569.67 766.426 570.602C764.729 571.534 762.699 572 760.335 572ZM757.006 567.784H760.131C761.585 567.784 762.809 567.527 763.801 567.011C764.801 566.489 765.551 565.682 766.051 564.591C766.559 563.492 766.812 562.076 766.812 560.341C766.812 558.621 766.559 557.216 766.051 556.125C765.551 555.034 764.805 554.231 763.812 553.716C762.82 553.201 761.597 552.943 760.142 552.943H757.006V567.784Z" fill="#003399"/>
<rect x="136" y="677" width="174" height="101" rx="11" fill="#EEEEEE"/>
<rect x="136" y="677" width="174" height="101" rx="11" stroke="white" stroke-width="2"/>
<path d="M221.557 723.875H216.58C216.489 723.231 216.303 722.659 216.023 722.159C215.742 721.652 215.383 721.22 214.943 720.864C214.504 720.508 213.996 720.235 213.42 720.045C212.852 719.856 212.235 719.761 211.568 719.761C210.364 719.761 209.314 720.061 208.42 720.659C207.527 721.25 206.833 722.114 206.341 723.25C205.848 724.379 205.602 725.75 205.602 727.364C205.602 729.023 205.848 730.417 206.341 731.545C206.841 732.674 207.538 733.527 208.432 734.102C209.326 734.678 210.36 734.966 211.534 734.966C212.193 734.966 212.803 734.879 213.364 734.705C213.932 734.53 214.436 734.277 214.875 733.943C215.314 733.602 215.678 733.189 215.966 732.705C216.261 732.22 216.466 731.667 216.58 731.045L221.557 731.068C221.428 732.136 221.106 733.167 220.591 734.159C220.083 735.144 219.398 736.027 218.534 736.807C217.678 737.58 216.655 738.193 215.466 738.648C214.284 739.095 212.947 739.318 211.455 739.318C209.379 739.318 207.523 738.848 205.886 737.909C204.258 736.97 202.97 735.61 202.023 733.83C201.083 732.049 200.614 729.894 200.614 727.364C200.614 724.826 201.091 722.667 202.045 720.886C203 719.106 204.295 717.75 205.932 716.818C207.568 715.879 209.409 715.409 211.455 715.409C212.803 715.409 214.053 715.598 215.205 715.977C216.364 716.356 217.39 716.909 218.284 717.636C219.178 718.356 219.905 719.239 220.466 720.284C221.034 721.33 221.398 722.527 221.557 723.875ZM233.335 739H225.085V715.727H233.403C235.744 715.727 237.759 716.193 239.449 717.125C241.138 718.049 242.438 719.379 243.347 721.114C244.263 722.848 244.722 724.924 244.722 727.341C244.722 729.765 244.263 731.848 243.347 733.591C242.438 735.333 241.131 736.67 239.426 737.602C237.729 738.534 235.699 739 233.335 739ZM230.006 734.784H233.131C234.585 734.784 235.809 734.527 236.801 734.011C237.801 733.489 238.551 732.682 239.051 731.591C239.559 730.492 239.812 729.076 239.812 727.341C239.812 725.621 239.559 724.216 239.051 723.125C238.551 722.034 237.805 721.231 236.812 720.716C235.82 720.201 234.597 719.943 233.142 719.943H230.006V734.784Z" fill="#003399"/>
<rect x="376" y="677" width="174" height="101" rx="11" fill="#EEEEEE"/>
<rect x="376" y="677" width="174" height="101" rx="11" stroke="white" stroke-width="2"/>
<path d="M461.557 723.875H456.58C456.489 723.231 456.303 722.659 456.023 722.159C455.742 721.652 455.383 721.22 454.943 720.864C454.504 720.508 453.996 720.235 453.42 720.045C452.852 719.856 452.235 719.761 451.568 719.761C450.364 719.761 449.314 720.061 448.42 720.659C447.527 721.25 446.833 722.114 446.341 723.25C445.848 724.379 445.602 725.75 445.602 727.364C445.602 729.023 445.848 730.417 446.341 731.545C446.841 732.674 447.538 733.527 448.432 734.102C449.326 734.678 450.36 734.966 451.534 734.966C452.193 734.966 452.803 734.879 453.364 734.705C453.932 734.53 454.436 734.277 454.875 733.943C455.314 733.602 455.678 733.189 455.966 732.705C456.261 732.22 456.466 731.667 456.58 731.045L461.557 731.068C461.428 732.136 461.106 733.167 460.591 734.159C460.083 735.144 459.398 736.027 458.534 736.807C457.678 737.58 456.655 738.193 455.466 738.648C454.284 739.095 452.947 739.318 451.455 739.318C449.379 739.318 447.523 738.848 445.886 737.909C444.258 736.97 442.97 735.61 442.023 733.83C441.083 732.049 440.614 729.894 440.614 727.364C440.614 724.826 441.091 722.667 442.045 720.886C443 719.106 444.295 717.75 445.932 716.818C447.568 715.879 449.409 715.409 451.455 715.409C452.803 715.409 454.053 715.598 455.205 715.977C456.364 716.356 457.39 716.909 458.284 717.636C459.178 718.356 459.905 719.239 460.466 720.284C461.034 721.33 461.398 722.527 461.557 723.875ZM473.335 739H465.085V715.727H473.403C475.744 715.727 477.759 716.193 479.449 717.125C481.138 718.049 482.438 719.379 483.347 721.114C484.263 722.848 484.722 724.924 484.722 727.341C484.722 729.765 484.263 731.848 483.347 733.591C482.438 735.333 481.131 736.67 479.426 737.602C477.729 738.534 475.699 739 473.335 739ZM470.006 734.784H473.131C474.585 734.784 475.809 734.527 476.801 734.011C477.801 733.489 478.551 732.682 479.051 731.591C479.559 730.492 479.812 729.076 479.812 727.341C479.812 725.621 479.559 724.216 479.051 723.125C478.551 722.034 477.805 721.231 476.812 720.716C475.82 720.201 474.597 719.943 473.142 719.943H470.006V734.784Z" fill="#003399"/>
<rect x="136" y="844" width="174" height="101" rx="11" fill="#EEEEEE"/>
<rect x="136" y="844" width="174" height="101" rx="11" stroke="white" stroke-width="2"/>
<path d="M221.557 890.875H216.58C216.489 890.231 216.303 889.659 216.023 889.159C215.742 888.652 215.383 888.22 214.943 887.864C214.504 887.508 213.996 887.235 213.42 887.045C212.852 886.856 212.235 886.761 211.568 886.761C210.364 886.761 209.314 887.061 208.42 887.659C207.527 888.25 206.833 889.114 206.341 890.25C205.848 891.379 205.602 892.75 205.602 894.364C205.602 896.023 205.848 897.417 206.341 898.545C206.841 899.674 207.538 900.527 208.432 901.102C209.326 901.678 210.36 901.966 211.534 901.966C212.193 901.966 212.803 901.879 213.364 901.705C213.932 901.53 214.436 901.277 214.875 900.943C215.314 900.602 215.678 900.189 215.966 899.705C216.261 899.22 216.466 898.667 216.58 898.045L221.557 898.068C221.428 899.136 221.106 900.167 220.591 901.159C220.083 902.144 219.398 903.027 218.534 903.807C217.678 904.58 216.655 905.193 215.466 905.648C214.284 906.095 212.947 906.318 211.455 906.318C209.379 906.318 207.523 905.848 205.886 904.909C204.258 903.97 202.97 902.61 202.023 900.83C201.083 899.049 200.614 896.894 200.614 894.364C200.614 891.826 201.091 889.667 202.045 887.886C203 886.106 204.295 884.75 205.932 883.818C207.568 882.879 209.409 882.409 211.455 882.409C212.803 882.409 214.053 882.598 215.205 882.977C216.364 883.356 217.39 883.909 218.284 884.636C219.178 885.356 219.905 886.239 220.466 887.284C221.034 888.33 221.398 889.527 221.557 890.875ZM233.335 906H225.085V882.727H233.403C235.744 882.727 237.759 883.193 239.449 884.125C241.138 885.049 242.438 886.379 243.347 888.114C244.263 889.848 244.722 891.924 244.722 894.341C244.722 896.765 244.263 898.848 243.347 900.591C242.438 902.333 241.131 903.67 239.426 904.602C237.729 905.534 235.699 906 233.335 906ZM230.006 901.784H233.131C234.585 901.784 235.809 901.527 236.801 901.011C237.801 900.489 238.551 899.682 239.051 898.591C239.559 897.492 239.812 896.076 239.812 894.341C239.812 892.621 239.559 891.216 239.051 890.125C238.551 889.034 237.805 888.231 236.812 887.716C235.82 887.201 234.597 886.943 233.142 886.943H230.006V901.784Z" fill="#003399"/>
<rect x="376" y="844" width="174" height="101" rx="11" fill="#EEEEEE"/>
<rect x="376" y="844" width="174" height="101" rx="11" stroke="white" stroke-width="2"/>
<path d="M461.557 890.875H456.58C456.489 890.231 456.303 889.659 456.023 889.159C455.742 888.652 455.383 888.22 454.943 887.864C454.504 887.508 453.996 887.235 453.42 887.045C452.852 886.856 452.235 886.761 451.568 886.761C450.364 886.761 449.314 887.061 448.42 887.659C447.527 888.25 446.833 889.114 446.341 890.25C445.848 891.379 445.602 892.75 445.602 894.364C445.602 896.023 445.848 897.417 446.341 898.545C446.841 899.674 447.538 900.527 448.432 901.102C449.326 901.678 450.36 901.966 451.534 901.966C452.193 901.966 452.803 901.879 453.364 901.705C453.932 901.53 454.436 901.277 454.875 900.943C455.314 900.602 455.678 900.189 455.966 899.705C456.261 899.22 456.466 898.667 456.58 898.045L461.557 898.068C461.428 899.136 461.106 900.167 460.591 901.159C460.083 902.144 459.398 903.027 458.534 903.807C457.678 904.58 456.655 905.193 455.466 905.648C454.284 906.095 452.947 906.318 451.455 906.318C449.379 906.318 447.523 905.848 445.886 904.909C444.258 903.97 442.97 902.61 442.023 900.83C441.083 899.049 440.614 896.894 440.614 894.364C440.614 891.826 441.091 889.667 442.045 887.886C443 886.106 444.295 884.75 445.932 883.818C447.568 882.879 449.409 882.409 451.455 882.409C452.803 882.409 454.053 882.598 455.205 882.977C456.364 883.356 457.39 883.909 458.284 884.636C459.178 885.356 459.905 886.239 460.466 887.284C461.034 888.33 461.398 889.527 461.557 890.875ZM473.335 906H465.085V882.727H473.403C475.744 882.727 477.759 883.193 479.449 884.125C481.138 885.049 482.438 886.379 483.347 888.114C484.263 889.848 484.722 891.924 484.722 894.341C484.722 896.765 484.263 898.848 483.347 900.591C482.438 902.333 481.131 903.67 479.426 904.602C477.729 905.534 475.699 906 473.335 906ZM470.006 901.784H473.131C474.585 901.784 475.809 901.527 476.801 901.011C477.801 900.489 478.551 899.682 479.051 898.591C479.559 897.492 479.812 896.076 479.812 894.341C479.812 892.621 479.559 891.216 479.051 890.125C478.551 889.034 477.805 888.231 476.812 887.716C475.82 887.201 474.597 886.943 473.142 886.943H470.006V901.784Z" fill="#003399"/>
<rect x="678" y="677" width="174" height="101" rx="11" fill="#EEEEEE"/>
<rect x="678" y="677" width="174" height="101" rx="11" stroke="white" stroke-width="2"/>
<path d="M763.557 723.875H758.58C758.489 723.231 758.303 722.659 758.023 722.159C757.742 721.652 757.383 721.22 756.943 720.864C756.504 720.508 755.996 720.235 755.42 720.045C754.852 719.856 754.235 719.761 753.568 719.761C752.364 719.761 751.314 720.061 750.42 720.659C749.527 721.25 748.833 722.114 748.341 723.25C747.848 724.379 747.602 725.75 747.602 727.364C747.602 729.023 747.848 730.417 748.341 731.545C748.841 732.674 749.538 733.527 750.432 734.102C751.326 734.678 752.36 734.966 753.534 734.966C754.193 734.966 754.803 734.879 755.364 734.705C755.932 734.53 756.436 734.277 756.875 733.943C757.314 733.602 757.678 733.189 757.966 732.705C758.261 732.22 758.466 731.667 758.58 731.045L763.557 731.068C763.428 732.136 763.106 733.167 762.591 734.159C762.083 735.144 761.398 736.027 760.534 736.807C759.678 737.58 758.655 738.193 757.466 738.648C756.284 739.095 754.947 739.318 753.455 739.318C751.379 739.318 749.523 738.848 747.886 737.909C746.258 736.97 744.97 735.61 744.023 733.83C743.083 732.049 742.614 729.894 742.614 727.364C742.614 724.826 743.091 722.667 744.045 720.886C745 719.106 746.295 717.75 747.932 716.818C749.568 715.879 751.409 715.409 753.455 715.409C754.803 715.409 756.053 715.598 757.205 715.977C758.364 716.356 759.39 716.909 760.284 717.636C761.178 718.356 761.905 719.239 762.466 720.284C763.034 721.33 763.398 722.527 763.557 723.875ZM775.335 739H767.085V715.727H775.403C777.744 715.727 779.759 716.193 781.449 717.125C783.138 718.049 784.438 719.379 785.347 721.114C786.263 722.848 786.722 724.924 786.722 727.341C786.722 729.765 786.263 731.848 785.347 733.591C784.438 735.333 783.131 736.67 781.426 737.602C779.729 738.534 777.699 739 775.335 739ZM772.006 734.784H775.131C776.585 734.784 777.809 734.527 778.801 734.011C779.801 733.489 780.551 732.682 781.051 731.591C781.559 730.492 781.812 729.076 781.812 727.341C781.812 725.621 781.559 724.216 781.051 723.125C780.551 722.034 779.805 721.231 778.812 720.716C777.82 720.201 776.597 719.943 775.142 719.943H772.006V734.784Z" fill="#003399"/>
<rect x="918" y="677" width="174" height="101" rx="11" fill="#EEEEEE"/>
<rect x="918" y="677" width="174" height="101" rx="11" stroke="white" stroke-width="2"/>
<path d="M1003.56 723.875H998.58C998.489 723.231 998.303 722.659 998.023 722.159C997.742 721.652 997.383 721.22 996.943 720.864C996.504 720.508 995.996 720.235 995.42 720.045C994.852 719.856 994.235 719.761 993.568 719.761C992.364 719.761 991.314 720.061 990.42 720.659C989.527 721.25 988.833 722.114 988.341 723.25C987.848 724.379 987.602 725.75 987.602 727.364C987.602 729.023 987.848 730.417 988.341 731.545C988.841 732.674 989.538 733.527 990.432 734.102C991.326 734.678 992.36 734.966 993.534 734.966C994.193 734.966 994.803 734.879 995.364 734.705C995.932 734.53 996.436 734.277 996.875 733.943C997.314 733.602 997.678 733.189 997.966 732.705C998.261 732.22 998.466 731.667 998.58 731.045L1003.56 731.068C1003.43 732.136 1003.11 733.167 1002.59 734.159C1002.08 735.144 1001.4 736.027 1000.53 736.807C999.678 737.58 998.655 738.193 997.466 738.648C996.284 739.095 994.947 739.318 993.455 739.318C991.379 739.318 989.523 738.848 987.886 737.909C986.258 736.97 984.97 735.61 984.023 733.83C983.083 732.049 982.614 729.894 982.614 727.364C982.614 724.826 983.091 722.667 984.045 720.886C985 719.106 986.295 717.75 987.932 716.818C989.568 715.879 991.409 715.409 993.455 715.409C994.803 715.409 996.053 715.598 997.205 715.977C998.364 716.356 999.39 716.909 1000.28 717.636C1001.18 718.356 1001.91 719.239 1002.47 720.284C1003.03 721.33 1003.4 722.527 1003.56 723.875ZM1015.34 739H1007.09V715.727H1015.4C1017.74 715.727 1019.76 716.193 1021.45 717.125C1023.14 718.049 1024.44 719.379 1025.35 721.114C1026.26 722.848 1026.72 724.924 1026.72 727.341C1026.72 729.765 1026.26 731.848 1025.35 733.591C1024.44 735.333 1023.13 736.67 1021.43 737.602C1019.73 738.534 1017.7 739 1015.34 739ZM1012.01 734.784H1015.13C1016.59 734.784 1017.81 734.527 1018.8 734.011C1019.8 733.489 1020.55 732.682 1021.05 731.591C1021.56 730.492 1021.81 729.076 1021.81 727.341C1021.81 725.621 1021.56 724.216 1021.05 723.125C1020.55 722.034 1019.8 721.231 1018.81 720.716C1017.82 720.201 1016.6 719.943 1015.14 719.943H1012.01V734.784Z" fill="#003399"/>
<rect x="678" y="844" width="174" height="101" rx="11" fill="#EEEEEE"/>
<rect x="678" y="844" width="174" height="101" rx="11" stroke="white" stroke-width="2"/>
<path d="M763.557 890.875H758.58C758.489 890.231 758.303 889.659 758.023 889.159C757.742 888.652 757.383 888.22 756.943 887.864C756.504 887.508 755.996 887.235 755.42 887.045C754.852 886.856 754.235 886.761 753.568 886.761C752.364 886.761 751.314 887.061 750.42 887.659C749.527 888.25 748.833 889.114 748.341 890.25C747.848 891.379 747.602 892.75 747.602 894.364C747.602 896.023 747.848 897.417 748.341 898.545C748.841 899.674 749.538 900.527 750.432 901.102C751.326 901.678 752.36 901.966 753.534 901.966C754.193 901.966 754.803 901.879 755.364 901.705C755.932 901.53 756.436 901.277 756.875 900.943C757.314 900.602 757.678 900.189 757.966 899.705C758.261 899.22 758.466 898.667 758.58 898.045L763.557 898.068C763.428 899.136 763.106 900.167 762.591 901.159C762.083 902.144 761.398 903.027 760.534 903.807C759.678 904.58 758.655 905.193 757.466 905.648C756.284 906.095 754.947 906.318 753.455 906.318C751.379 906.318 749.523 905.848 747.886 904.909C746.258 903.97 744.97 902.61 744.023 900.83C743.083 899.049 742.614 896.894 742.614 894.364C742.614 891.826 743.091 889.667 744.045 887.886C745 886.106 746.295 884.75 747.932 883.818C749.568 882.879 751.409 882.409 753.455 882.409C754.803 882.409 756.053 882.598 757.205 882.977C758.364 883.356 759.39 883.909 760.284 884.636C761.178 885.356 761.905 886.239 762.466 887.284C763.034 888.33 763.398 889.527 763.557 890.875ZM775.335 906H767.085V882.727H775.403C777.744 882.727 779.759 883.193 781.449 884.125C783.138 885.049 784.438 886.379 785.347 888.114C786.263 889.848 786.722 891.924 786.722 894.341C786.722 896.765 786.263 898.848 785.347 900.591C784.438 902.333 783.131 903.67 781.426 904.602C779.729 905.534 777.699 906 775.335 906ZM772.006 901.784H775.131C776.585 901.784 777.809 901.527 778.801 901.011C779.801 900.489 780.551 899.682 781.051 898.591C781.559 897.492 781.812 896.076 781.812 894.341C781.812 892.621 781.559 891.216 781.051 890.125C780.551 889.034 779.805 888.231 778.812 887.716C777.82 887.201 776.597 886.943 775.142 886.943H772.006V901.784Z" fill="#003399"/>
<rect x="918" y="844" width="174" height="101" rx="11" fill="#EEEEEE"/>
<rect x="918" y="844" width="174" height="101" rx="11" stroke="white" stroke-width="2"/>
<path d="M1003.56 890.875H998.58C998.489 890.231 998.303 889.659 998.023 889.159C997.742 888.652 997.383 888.22 996.943 887.864C996.504 887.508 995.996 887.235 995.42 887.045C994.852 886.856 994.235 886.761 993.568 886.761C992.364 886.761 991.314 887.061 990.42 887.659C989.527 888.25 988.833 889.114 988.341 890.25C987.848 891.379 987.602 892.75 987.602 894.364C987.602 896.023 987.848 897.417 988.341 898.545C988.841 899.674 989.538 900.527 990.432 901.102C991.326 901.678 992.36 901.966 993.534 901.966C994.193 901.966 994.803 901.879 995.364 901.705C995.932 901.53 996.436 901.277 996.875 900.943C997.314 900.602 997.678 900.189 997.966 899.705C998.261 899.22 998.466 898.667 998.58 898.045L1003.56 898.068C1003.43 899.136 1003.11 900.167 1002.59 901.159C1002.08 902.144 1001.4 903.027 1000.53 903.807C999.678 904.58 998.655 905.193 997.466 905.648C996.284 906.095 994.947 906.318 993.455 906.318C991.379 906.318 989.523 905.848 987.886 904.909C986.258 903.97 984.97 902.61 984.023 900.83C983.083 899.049 982.614 896.894 982.614 894.364C982.614 891.826 983.091 889.667 984.045 887.886C985 886.106 986.295 884.75 987.932 883.818C989.568 882.879 991.409 882.409 993.455 882.409C994.803 882.409 996.053 882.598 997.205 882.977C998.364 883.356 999.39 883.909 1000.28 884.636C1001.18 885.356 1001.91 886.239 1002.47 887.284C1003.03 888.33 1003.4 889.527 1003.56 890.875ZM1015.34 906H1007.09V882.727H1015.4C1017.74 882.727 1019.76 883.193 1021.45 884.125C1023.14 885.049 1024.44 886.379 1025.35 888.114C1026.26 889.848 1026.72 891.924 1026.72 894.341C1026.72 896.765 1026.26 898.848 1025.35 900.591C1024.44 902.333 1023.13 903.67 1021.43 904.602C1019.73 905.534 1017.7 906 1015.34 906ZM1012.01 901.784H1015.13C1016.59 901.784 1017.81 901.527 1018.8 901.011C1019.8 900.489 1020.55 899.682 1021.05 898.591C1021.56 897.492 1021.81 896.076 1021.81 894.341C1021.81 892.621 1021.56 891.216 1021.05 890.125C1020.55 889.034 1019.8 888.231 1018.81 887.716C1017.82 887.201 1016.6 886.943 1015.14 886.943H1012.01V901.784Z" fill="#003399"/>
<line x1="632" y1="444.414" x2="566.414" y2="510" stroke="white" stroke-width="2" stroke-linecap="round"/>
<line x1="697.586" y1="510" x2="632" y2="444.414" stroke="white" stroke-width="2" stroke-linecap="round"/>
<line x1="751.359" y1="611.392" x2="787.392" y2="676.641" stroke="white" stroke-width="2" stroke-linecap="round"/>
<line x1="1003.78" y1="676.716" x2="751.716" y2="611.219" stroke="white" stroke-width="2" stroke-linecap="round"/>
<line x1="507.247" y1="612.197" x2="224.197" y2="676.753" stroke="white" stroke-width="2" stroke-linecap="round"/>
<line x1="459.787" y1="677.602" x2="508.602" y2="611.213" stroke="white" stroke-width="2" stroke-linecap="round"/>
<line x1="462" y1="844" x2="462" y2="778" stroke="white" stroke-width="2" stroke-linecap="round"/>
<line x1="1024" y1="844" x2="1024" y2="778" stroke="white" stroke-width="2" stroke-linecap="round"/>
<line x1="769" y1="844" x2="769" y2="778" stroke="white" stroke-width="2" stroke-linecap="round"/>
<line x1="222" y1="844" x2="222" y2="778" stroke="white" stroke-width="2" stroke-linecap="round"/>
<path d="M1180.02 592V568.727H1195.7V572.784H1184.94V578.33H1194.9V582.386H1184.94V587.943H1195.75V592H1180.02ZM1204.5 592.33C1203.39 592.33 1202.4 592.136 1201.53 591.75C1200.65 591.356 1199.96 590.777 1199.46 590.011C1198.96 589.239 1198.71 588.277 1198.71 587.125C1198.71 586.155 1198.89 585.341 1199.24 584.682C1199.6 584.023 1200.08 583.492 1200.7 583.091C1201.31 582.689 1202.01 582.386 1202.79 582.182C1203.57 581.977 1204.4 581.833 1205.26 581.75C1206.28 581.644 1207.1 581.545 1207.72 581.455C1208.34 581.356 1208.79 581.212 1209.07 581.023C1209.35 580.833 1209.49 580.553 1209.49 580.182V580.114C1209.49 579.394 1209.26 578.837 1208.81 578.443C1208.36 578.049 1207.73 577.852 1206.9 577.852C1206.03 577.852 1205.34 578.045 1204.82 578.432C1204.31 578.811 1203.96 579.288 1203.8 579.864L1199.32 579.5C1199.55 578.439 1200 577.523 1200.66 576.75C1201.33 575.97 1202.19 575.371 1203.24 574.955C1204.3 574.53 1205.53 574.318 1206.92 574.318C1207.89 574.318 1208.82 574.432 1209.71 574.659C1210.6 574.886 1211.39 575.239 1212.08 575.716C1212.78 576.193 1213.33 576.807 1213.73 577.557C1214.13 578.299 1214.33 579.189 1214.33 580.227V592H1209.74V589.58H1209.61C1209.32 590.125 1208.95 590.606 1208.48 591.023C1208.01 591.432 1207.45 591.754 1206.79 591.989C1206.13 592.216 1205.37 592.33 1204.5 592.33ZM1205.89 588.989C1206.6 588.989 1207.23 588.848 1207.78 588.568C1208.32 588.28 1208.75 587.894 1209.06 587.409C1209.37 586.924 1209.53 586.375 1209.53 585.761V583.909C1209.37 584.008 1209.17 584.098 1208.9 584.182C1208.64 584.258 1208.35 584.33 1208.03 584.398C1207.7 584.458 1207.37 584.515 1207.05 584.568C1206.72 584.614 1206.43 584.655 1206.16 584.693C1205.59 584.777 1205.1 584.909 1204.67 585.091C1204.25 585.273 1203.92 585.519 1203.68 585.83C1203.45 586.133 1203.33 586.511 1203.33 586.966C1203.33 587.625 1203.57 588.129 1204.05 588.477C1204.53 588.818 1205.15 588.989 1205.89 588.989ZM1225.97 592.341C1224.19 592.341 1222.65 591.962 1221.36 591.205C1220.08 590.439 1219.1 589.379 1218.41 588.023C1217.72 586.667 1217.38 585.106 1217.38 583.341C1217.38 581.553 1217.73 579.985 1218.42 578.636C1219.11 577.28 1220.1 576.223 1221.38 575.466C1222.66 574.701 1224.19 574.318 1225.95 574.318C1227.47 574.318 1228.81 574.595 1229.95 575.148C1231.1 575.701 1232 576.477 1232.67 577.477C1233.33 578.477 1233.7 579.652 1233.77 581H1229.2C1229.07 580.129 1228.73 579.428 1228.18 578.898C1227.63 578.36 1226.92 578.091 1226.03 578.091C1225.28 578.091 1224.63 578.295 1224.07 578.705C1223.51 579.106 1223.08 579.693 1222.77 580.466C1222.46 581.239 1222.3 582.174 1222.3 583.273C1222.3 584.386 1222.46 585.333 1222.76 586.114C1223.07 586.894 1223.5 587.489 1224.07 587.898C1224.63 588.307 1225.28 588.511 1226.03 588.511C1226.58 588.511 1227.08 588.398 1227.52 588.17C1227.97 587.943 1228.33 587.614 1228.62 587.182C1228.92 586.742 1229.11 586.216 1229.2 585.602H1233.77C1233.69 586.936 1233.33 588.11 1232.68 589.125C1232.04 590.133 1231.14 590.92 1230.01 591.489C1228.87 592.057 1227.53 592.341 1225.97 592.341ZM1241.71 581.909V592H1236.87V568.727H1241.57V577.625H1241.78C1242.17 576.595 1242.81 575.788 1243.69 575.205C1244.57 574.614 1245.67 574.318 1246.99 574.318C1248.21 574.318 1249.26 574.583 1250.16 575.114C1251.07 575.636 1251.78 576.39 1252.28 577.375C1252.79 578.352 1253.04 579.523 1253.03 580.886V592H1248.19V581.75C1248.2 580.674 1247.92 579.837 1247.37 579.239C1246.82 578.64 1246.06 578.341 1245.07 578.341C1244.41 578.341 1243.83 578.481 1243.32 578.761C1242.82 579.042 1242.43 579.451 1242.14 579.989C1241.86 580.519 1241.72 581.159 1241.71 581.909ZM1272.13 592.341C1270.34 592.341 1268.8 591.962 1267.52 591.205C1266.24 590.439 1265.25 589.379 1264.56 588.023C1263.88 586.667 1263.54 585.106 1263.54 583.341C1263.54 581.553 1263.88 579.985 1264.57 578.636C1265.27 577.28 1266.26 576.223 1267.54 575.466C1268.82 574.701 1270.34 574.318 1272.11 574.318C1273.63 574.318 1274.96 574.595 1276.11 575.148C1277.25 575.701 1278.16 576.477 1278.82 577.477C1279.49 578.477 1279.86 579.652 1279.93 581H1275.36C1275.23 580.129 1274.89 579.428 1274.34 578.898C1273.79 578.36 1273.07 578.091 1272.19 578.091C1271.44 578.091 1270.78 578.295 1270.22 578.705C1269.67 579.106 1269.24 579.693 1268.93 580.466C1268.62 581.239 1268.46 582.174 1268.46 583.273C1268.46 584.386 1268.61 585.333 1268.91 586.114C1269.23 586.894 1269.66 587.489 1270.22 587.898C1270.78 588.307 1271.44 588.511 1272.19 588.511C1272.74 588.511 1273.24 588.398 1273.68 588.17C1274.12 587.943 1274.49 587.614 1274.78 587.182C1275.07 586.742 1275.27 586.216 1275.36 585.602H1279.93C1279.85 586.936 1279.49 588.11 1278.84 589.125C1278.19 590.133 1277.3 590.92 1276.16 591.489C1275.03 592.057 1273.68 592.341 1272.13 592.341ZM1290.91 592.341C1289.15 592.341 1287.62 591.966 1286.33 591.216C1285.05 590.458 1284.06 589.405 1283.37 588.057C1282.67 586.701 1282.32 585.129 1282.32 583.341C1282.32 581.538 1282.67 579.962 1283.37 578.614C1284.06 577.258 1285.05 576.205 1286.33 575.455C1287.62 574.697 1289.15 574.318 1290.91 574.318C1292.68 574.318 1294.2 574.697 1295.48 575.455C1296.77 576.205 1297.76 577.258 1298.46 578.614C1299.15 579.962 1299.5 581.538 1299.5 583.341C1299.5 585.129 1299.15 586.701 1298.46 588.057C1297.76 589.405 1296.77 590.458 1295.48 591.216C1294.2 591.966 1292.68 592.341 1290.91 592.341ZM1290.93 588.591C1291.74 588.591 1292.41 588.364 1292.95 587.909C1293.48 587.447 1293.89 586.818 1294.16 586.023C1294.44 585.227 1294.58 584.322 1294.58 583.307C1294.58 582.292 1294.44 581.386 1294.16 580.591C1293.89 579.795 1293.48 579.167 1292.95 578.705C1292.41 578.242 1291.74 578.011 1290.93 578.011C1290.12 578.011 1289.44 578.242 1288.89 578.705C1288.34 579.167 1287.93 579.795 1287.65 580.591C1287.38 581.386 1287.24 582.292 1287.24 583.307C1287.24 584.322 1287.38 585.227 1287.65 586.023C1287.93 586.818 1288.34 587.447 1288.89 587.909C1289.44 588.364 1290.12 588.591 1290.93 588.591ZM1302.65 592V574.545H1307.26V577.625H1307.47C1307.83 576.602 1308.44 575.795 1309.29 575.205C1310.14 574.614 1311.15 574.318 1312.33 574.318C1313.53 574.318 1314.55 574.617 1315.39 575.216C1316.23 575.807 1316.79 576.61 1317.07 577.625H1317.25C1317.61 576.625 1318.25 575.826 1319.18 575.227C1320.12 574.621 1321.23 574.318 1322.51 574.318C1324.14 574.318 1325.46 574.837 1326.48 575.875C1327.5 576.905 1328.01 578.367 1328.01 580.261V592H1323.18V581.216C1323.18 580.246 1322.93 579.519 1322.41 579.034C1321.9 578.549 1321.25 578.307 1320.48 578.307C1319.6 578.307 1318.92 578.587 1318.42 579.148C1317.93 579.701 1317.68 580.432 1317.68 581.341V592H1312.99V581.114C1312.99 580.258 1312.75 579.576 1312.25 579.068C1311.77 578.561 1311.13 578.307 1310.33 578.307C1309.79 578.307 1309.31 578.443 1308.88 578.716C1308.45 578.981 1308.12 579.356 1307.87 579.841C1307.62 580.318 1307.49 580.879 1307.49 581.523V592H1302.65ZM1331.84 598.545V574.545H1336.61V577.477H1336.83C1337.04 577.008 1337.35 576.53 1337.75 576.045C1338.16 575.553 1338.69 575.144 1339.34 574.818C1340 574.485 1340.82 574.318 1341.79 574.318C1343.07 574.318 1344.24 574.652 1345.32 575.318C1346.39 575.977 1347.25 576.973 1347.89 578.307C1348.54 579.633 1348.86 581.295 1348.86 583.295C1348.86 585.242 1348.55 586.886 1347.92 588.227C1347.3 589.561 1346.45 590.572 1345.37 591.261C1344.3 591.943 1343.11 592.284 1341.78 592.284C1340.84 592.284 1340.04 592.129 1339.38 591.818C1338.73 591.508 1338.2 591.117 1337.78 590.648C1337.36 590.17 1337.05 589.689 1336.83 589.205H1336.68V598.545H1331.84ZM1336.58 583.273C1336.58 584.311 1336.72 585.216 1337.01 585.989C1337.3 586.761 1337.71 587.364 1338.26 587.795C1338.8 588.22 1339.47 588.432 1340.25 588.432C1341.04 588.432 1341.7 588.216 1342.25 587.784C1342.79 587.345 1343.21 586.739 1343.49 585.966C1343.77 585.186 1343.92 584.288 1343.92 583.273C1343.92 582.265 1343.78 581.379 1343.5 580.614C1343.22 579.848 1342.8 579.25 1342.26 578.818C1341.71 578.386 1341.04 578.17 1340.25 578.17C1339.46 578.17 1338.79 578.379 1338.25 578.795C1337.71 579.212 1337.3 579.803 1337.01 580.568C1336.72 581.333 1336.58 582.235 1336.58 583.273ZM1359.97 592.341C1358.21 592.341 1356.68 591.966 1355.39 591.216C1354.11 590.458 1353.13 589.405 1352.43 588.057C1351.73 586.701 1351.38 585.129 1351.38 583.341C1351.38 581.538 1351.73 579.962 1352.43 578.614C1353.13 577.258 1354.11 576.205 1355.39 575.455C1356.68 574.697 1358.21 574.318 1359.97 574.318C1361.74 574.318 1363.26 574.697 1364.54 575.455C1365.83 576.205 1366.82 577.258 1367.52 578.614C1368.22 579.962 1368.57 581.538 1368.57 583.341C1368.57 585.129 1368.22 586.701 1367.52 588.057C1366.82 589.405 1365.83 590.458 1364.54 591.216C1363.26 591.966 1361.74 592.341 1359.97 592.341ZM1360 588.591C1360.8 588.591 1361.47 588.364 1362.01 587.909C1362.55 587.447 1362.95 586.818 1363.22 586.023C1363.5 585.227 1363.64 584.322 1363.64 583.307C1363.64 582.292 1363.5 581.386 1363.22 580.591C1362.95 579.795 1362.55 579.167 1362.01 578.705C1361.47 578.242 1360.8 578.011 1360 578.011C1359.19 578.011 1358.5 578.242 1357.95 578.705C1357.41 579.167 1356.99 579.795 1356.71 580.591C1356.44 581.386 1356.3 582.292 1356.3 583.307C1356.3 584.322 1356.44 585.227 1356.71 586.023C1356.99 586.818 1357.41 587.447 1357.95 587.909C1358.5 588.364 1359.19 588.591 1360 588.591ZM1376.55 581.909V592H1371.71V574.545H1376.33V577.625H1376.53C1376.92 576.61 1377.57 575.807 1378.47 575.216C1379.38 574.617 1380.49 574.318 1381.78 574.318C1382.99 574.318 1384.05 574.583 1384.95 575.114C1385.85 575.644 1386.55 576.402 1387.05 577.386C1387.55 578.364 1387.8 579.53 1387.8 580.886V592H1382.96V581.75C1382.97 580.682 1382.7 579.848 1382.14 579.25C1381.59 578.644 1380.83 578.341 1379.86 578.341C1379.21 578.341 1378.63 578.481 1378.13 578.761C1377.64 579.042 1377.25 579.451 1376.97 579.989C1376.7 580.519 1376.56 581.159 1376.55 581.909ZM1399.57 592.341C1397.78 592.341 1396.23 591.977 1394.94 591.25C1393.65 590.515 1392.66 589.477 1391.96 588.136C1391.26 586.788 1390.91 585.193 1390.91 583.352C1390.91 581.557 1391.26 579.981 1391.96 578.625C1392.66 577.269 1393.64 576.212 1394.9 575.455C1396.18 574.697 1397.67 574.318 1399.38 574.318C1400.53 574.318 1401.6 574.504 1402.6 574.875C1403.6 575.239 1404.47 575.788 1405.21 576.523C1405.96 577.258 1406.54 578.182 1406.96 579.295C1407.38 580.402 1407.59 581.697 1407.59 583.182V584.511H1392.85V581.511H1403.03C1403.03 580.814 1402.88 580.197 1402.57 579.659C1402.27 579.121 1401.85 578.701 1401.31 578.398C1400.78 578.087 1400.16 577.932 1399.46 577.932C1398.73 577.932 1398.07 578.102 1397.51 578.443C1396.95 578.777 1396.51 579.227 1396.19 579.795C1395.87 580.356 1395.71 580.981 1395.7 581.67V584.523C1395.7 585.386 1395.86 586.133 1396.18 586.761C1396.5 587.39 1396.96 587.875 1397.55 588.216C1398.14 588.557 1398.84 588.727 1399.65 588.727C1400.19 588.727 1400.68 588.652 1401.13 588.5C1401.58 588.348 1401.96 588.121 1402.28 587.818C1402.6 587.515 1402.84 587.144 1403.01 586.705L1407.48 587C1407.26 588.076 1406.79 589.015 1406.09 589.818C1405.39 590.614 1404.49 591.235 1403.38 591.682C1402.28 592.121 1401.01 592.341 1399.57 592.341ZM1415.59 581.909V592H1410.74V574.545H1415.36V577.625H1415.56C1415.95 576.61 1416.6 575.807 1417.51 575.216C1418.41 574.617 1419.52 574.318 1420.81 574.318C1422.02 574.318 1423.08 574.583 1423.98 575.114C1424.88 575.644 1425.59 576.402 1426.09 577.386C1426.59 578.364 1426.84 579.53 1426.84 580.886V592H1421.99V581.75C1422 580.682 1421.73 579.848 1421.18 579.25C1420.62 578.644 1419.86 578.341 1418.89 578.341C1418.24 578.341 1417.66 578.481 1417.16 578.761C1416.67 579.042 1416.29 579.451 1416.01 579.989C1415.73 580.519 1415.59 581.159 1415.59 581.909ZM1439.93 574.545V578.182H1429.42V574.545H1439.93ZM1431.81 570.364H1436.65V586.636C1436.65 587.083 1436.72 587.432 1436.86 587.682C1436.99 587.924 1437.18 588.095 1437.42 588.193C1437.67 588.292 1437.96 588.341 1438.29 588.341C1438.51 588.341 1438.74 588.322 1438.97 588.284C1439.2 588.239 1439.37 588.205 1439.49 588.182L1440.25 591.784C1440.01 591.86 1439.67 591.947 1439.23 592.045C1438.79 592.152 1438.26 592.216 1437.63 592.239C1436.46 592.284 1435.44 592.129 1434.56 591.773C1433.69 591.417 1433.01 590.864 1432.53 590.114C1432.04 589.364 1431.8 588.417 1431.81 587.273V570.364ZM1455.34 581.909V592H1450.49V568.727H1455.2V577.625H1455.4C1455.8 576.595 1456.43 575.788 1457.31 575.205C1458.19 574.614 1459.29 574.318 1460.62 574.318C1461.83 574.318 1462.89 574.583 1463.79 575.114C1464.7 575.636 1465.4 576.39 1465.9 577.375C1466.41 578.352 1466.66 579.523 1466.65 580.886V592H1461.81V581.75C1461.82 580.674 1461.55 579.837 1460.99 579.239C1460.45 578.64 1459.68 578.341 1458.7 578.341C1458.04 578.341 1457.46 578.481 1456.95 578.761C1456.45 579.042 1456.05 579.451 1455.77 579.989C1455.49 580.519 1455.34 581.159 1455.34 581.909ZM1475.44 592.33C1474.33 592.33 1473.33 592.136 1472.46 591.75C1471.59 591.356 1470.9 590.777 1470.39 590.011C1469.89 589.239 1469.64 588.277 1469.64 587.125C1469.64 586.155 1469.82 585.341 1470.18 584.682C1470.54 584.023 1471.02 583.492 1471.63 583.091C1472.25 582.689 1472.94 582.386 1473.72 582.182C1474.51 581.977 1475.34 581.833 1476.2 581.75C1477.22 581.644 1478.04 581.545 1478.66 581.455C1479.28 581.356 1479.73 581.212 1480.01 581.023C1480.29 580.833 1480.43 580.553 1480.43 580.182V580.114C1480.43 579.394 1480.2 578.837 1479.75 578.443C1479.3 578.049 1478.66 577.852 1477.84 577.852C1476.97 577.852 1476.27 578.045 1475.76 578.432C1475.24 578.811 1474.9 579.288 1474.74 579.864L1470.26 579.5C1470.49 578.439 1470.93 577.523 1471.6 576.75C1472.27 575.97 1473.13 575.371 1474.18 574.955C1475.24 574.53 1476.47 574.318 1477.86 574.318C1478.83 574.318 1479.76 574.432 1480.64 574.659C1481.54 574.886 1482.33 575.239 1483.02 575.716C1483.72 576.193 1484.27 576.807 1484.67 577.557C1485.07 578.299 1485.27 579.189 1485.27 580.227V592H1480.68V589.58H1480.54C1480.26 590.125 1479.89 590.606 1479.42 591.023C1478.95 591.432 1478.38 591.754 1477.72 591.989C1477.07 592.216 1476.3 592.33 1475.44 592.33ZM1476.83 588.989C1477.54 588.989 1478.17 588.848 1478.71 588.568C1479.26 588.28 1479.69 587.894 1480 587.409C1480.31 586.924 1480.46 586.375 1480.46 585.761V583.909C1480.31 584.008 1480.1 584.098 1479.84 584.182C1479.58 584.258 1479.29 584.33 1478.96 584.398C1478.64 584.458 1478.31 584.515 1477.99 584.568C1477.66 584.614 1477.36 584.655 1477.1 584.693C1476.53 584.777 1476.04 584.909 1475.61 585.091C1475.19 585.273 1474.86 585.519 1474.62 585.83C1474.39 586.133 1474.27 586.511 1474.27 586.966C1474.27 587.625 1474.51 588.129 1474.99 588.477C1475.47 588.818 1476.08 588.989 1476.83 588.989ZM1503.55 579.523L1499.12 579.795C1499.04 579.417 1498.88 579.076 1498.63 578.773C1498.38 578.462 1498.05 578.216 1497.64 578.034C1497.24 577.845 1496.76 577.75 1496.2 577.75C1495.45 577.75 1494.81 577.909 1494.3 578.227C1493.78 578.538 1493.53 578.955 1493.53 579.477C1493.53 579.894 1493.69 580.246 1494.03 580.534C1494.36 580.822 1494.93 581.053 1495.74 581.227L1498.9 581.864C1500.6 582.212 1501.86 582.773 1502.7 583.545C1503.53 584.318 1503.95 585.333 1503.95 586.591C1503.95 587.735 1503.61 588.739 1502.93 589.602C1502.27 590.466 1501.35 591.14 1500.18 591.625C1499.03 592.102 1497.69 592.341 1496.17 592.341C1493.86 592.341 1492.02 591.86 1490.65 590.898C1489.29 589.928 1488.49 588.61 1488.25 586.943L1493.01 586.693C1493.16 587.398 1493.51 587.936 1494.06 588.307C1494.61 588.67 1495.32 588.852 1496.18 588.852C1497.03 588.852 1497.71 588.689 1498.23 588.364C1498.75 588.03 1499.02 587.602 1499.03 587.08C1499.02 586.64 1498.83 586.28 1498.47 586C1498.11 585.712 1497.54 585.492 1496.79 585.341L1493.76 584.739C1492.06 584.398 1490.79 583.807 1489.96 582.966C1489.13 582.125 1488.72 581.053 1488.72 579.75C1488.72 578.629 1489.02 577.663 1489.63 576.852C1490.24 576.042 1491.1 575.417 1492.21 574.977C1493.32 574.538 1494.62 574.318 1496.12 574.318C1498.32 574.318 1500.06 574.784 1501.32 575.716C1502.59 576.648 1503.34 577.917 1503.55 579.523ZM1514.4 592V574.545H1519.24V592H1514.4ZM1516.83 572.295C1516.11 572.295 1515.5 572.057 1514.98 571.58C1514.47 571.095 1514.22 570.515 1514.22 569.841C1514.22 569.174 1514.47 568.602 1514.98 568.125C1515.5 567.64 1516.11 567.398 1516.83 567.398C1517.55 567.398 1518.17 567.64 1518.67 568.125C1519.19 568.602 1519.45 569.174 1519.45 569.841C1519.45 570.515 1519.19 571.095 1518.67 571.58C1518.17 572.057 1517.55 572.295 1516.83 572.295ZM1532.4 574.545V578.182H1521.89V574.545H1532.4ZM1524.28 570.364H1529.12V586.636C1529.12 587.083 1529.19 587.432 1529.32 587.682C1529.46 587.924 1529.65 588.095 1529.89 588.193C1530.14 588.292 1530.43 588.341 1530.76 588.341C1530.98 588.341 1531.21 588.322 1531.44 588.284C1531.66 588.239 1531.84 588.205 1531.96 588.182L1532.72 591.784C1532.48 591.86 1532.14 591.947 1531.7 592.045C1531.26 592.152 1530.73 592.216 1530.1 592.239C1528.93 592.284 1527.91 592.129 1527.03 591.773C1526.16 591.417 1525.48 590.864 1524.99 590.114C1524.51 589.364 1524.27 588.417 1524.28 587.273V570.364ZM1549.86 579.523L1545.43 579.795C1545.35 579.417 1545.19 579.076 1544.94 578.773C1544.69 578.462 1544.36 578.216 1543.95 578.034C1543.55 577.845 1543.07 577.75 1542.51 577.75C1541.76 577.75 1541.13 577.909 1540.61 578.227C1540.1 578.538 1539.84 578.955 1539.84 579.477C1539.84 579.894 1540 580.246 1540.34 580.534C1540.67 580.822 1541.24 581.053 1542.05 581.227L1545.21 581.864C1546.91 582.212 1548.18 582.773 1549.01 583.545C1549.84 584.318 1550.26 585.333 1550.26 586.591C1550.26 587.735 1549.92 588.739 1549.25 589.602C1548.58 590.466 1547.66 591.14 1546.5 591.625C1545.34 592.102 1544 592.341 1542.49 592.341C1540.18 592.341 1538.33 591.86 1536.96 590.898C1535.6 589.928 1534.8 588.61 1534.57 586.943L1539.33 586.693C1539.47 587.398 1539.82 587.936 1540.37 588.307C1540.93 588.67 1541.63 588.852 1542.5 588.852C1543.35 588.852 1544.03 588.689 1544.54 588.364C1545.07 588.03 1545.33 587.602 1545.34 587.08C1545.33 586.64 1545.14 586.28 1544.78 586C1544.42 585.712 1543.86 585.492 1543.1 585.341L1540.08 584.739C1538.37 584.398 1537.1 583.807 1536.27 582.966C1535.44 582.125 1535.03 581.053 1535.03 579.75C1535.03 578.629 1535.33 577.663 1535.94 576.852C1536.55 576.042 1537.41 575.417 1538.52 574.977C1539.63 574.538 1540.94 574.318 1542.43 574.318C1544.63 574.318 1546.37 574.784 1547.63 575.716C1548.91 576.648 1549.65 577.917 1549.86 579.523ZM1568.6 592.341C1566.83 592.341 1565.31 591.966 1564.02 591.216C1562.74 590.458 1561.75 589.405 1561.05 588.057C1560.36 586.701 1560.01 585.129 1560.01 583.341C1560.01 581.538 1560.36 579.962 1561.05 578.614C1561.75 577.258 1562.74 576.205 1564.02 575.455C1565.31 574.697 1566.83 574.318 1568.6 574.318C1570.36 574.318 1571.89 574.697 1573.17 575.455C1574.46 576.205 1575.45 577.258 1576.14 578.614C1576.84 579.962 1577.19 581.538 1577.19 583.341C1577.19 585.129 1576.84 586.701 1576.14 588.057C1575.45 589.405 1574.46 590.458 1573.17 591.216C1571.89 591.966 1570.36 592.341 1568.6 592.341ZM1568.62 588.591C1569.43 588.591 1570.1 588.364 1570.63 587.909C1571.17 587.447 1571.58 586.818 1571.85 586.023C1572.13 585.227 1572.27 584.322 1572.27 583.307C1572.27 582.292 1572.13 581.386 1571.85 580.591C1571.58 579.795 1571.17 579.167 1570.63 578.705C1570.1 578.242 1569.43 578.011 1568.62 578.011C1567.81 578.011 1567.13 578.242 1566.58 578.705C1566.03 579.167 1565.62 579.795 1565.34 580.591C1565.07 581.386 1564.93 582.292 1564.93 583.307C1564.93 584.322 1565.07 585.227 1565.34 586.023C1565.62 586.818 1566.03 587.447 1566.58 587.909C1567.13 588.364 1567.81 588.591 1568.62 588.591ZM1583.34 592L1578.59 574.545H1583.49L1586.2 586.273H1586.36L1589.17 574.545H1593.98L1596.84 586.205H1596.99L1599.65 574.545H1604.54L1599.8 592H1594.67L1591.67 581.023H1591.46L1588.46 592H1583.34ZM1611.96 581.909V592H1607.12V574.545H1611.73V577.625H1611.94C1612.32 576.61 1612.97 575.807 1613.88 575.216C1614.79 574.617 1615.89 574.318 1617.19 574.318C1618.4 574.318 1619.46 574.583 1620.36 575.114C1621.26 575.644 1621.96 576.402 1622.46 577.386C1622.96 578.364 1623.21 579.53 1623.21 580.886V592H1618.37V581.75C1618.38 580.682 1618.1 579.848 1617.55 579.25C1617 578.644 1616.24 578.341 1615.27 578.341C1614.62 578.341 1614.04 578.481 1613.54 578.761C1613.05 579.042 1612.66 579.451 1612.38 579.989C1612.11 580.519 1611.97 581.159 1611.96 581.909ZM1200.56 615.875H1195.58C1195.49 615.231 1195.3 614.659 1195.02 614.159C1194.74 613.652 1194.38 613.22 1193.94 612.864C1193.5 612.508 1193 612.235 1192.42 612.045C1191.85 611.856 1191.23 611.761 1190.57 611.761C1189.36 611.761 1188.31 612.061 1187.42 612.659C1186.53 613.25 1185.83 614.114 1185.34 615.25C1184.85 616.379 1184.6 617.75 1184.6 619.364C1184.6 621.023 1184.85 622.417 1185.34 623.545C1185.84 624.674 1186.54 625.527 1187.43 626.102C1188.33 626.678 1189.36 626.966 1190.53 626.966C1191.19 626.966 1191.8 626.879 1192.36 626.705C1192.93 626.53 1193.44 626.277 1193.88 625.943C1194.31 625.602 1194.68 625.189 1194.97 624.705C1195.26 624.22 1195.47 623.667 1195.58 623.045L1200.56 623.068C1200.43 624.136 1200.11 625.167 1199.59 626.159C1199.08 627.144 1198.4 628.027 1197.53 628.807C1196.68 629.58 1195.66 630.193 1194.47 630.648C1193.28 631.095 1191.95 631.318 1190.45 631.318C1188.38 631.318 1186.52 630.848 1184.89 629.909C1183.26 628.97 1181.97 627.61 1181.02 625.83C1180.08 624.049 1179.61 621.894 1179.61 619.364C1179.61 616.826 1180.09 614.667 1181.05 612.886C1182 611.106 1183.3 609.75 1184.93 608.818C1186.57 607.879 1188.41 607.409 1190.45 607.409C1191.8 607.409 1193.05 607.598 1194.2 607.977C1195.36 608.356 1196.39 608.909 1197.28 609.636C1198.18 610.356 1198.91 611.239 1199.47 612.284C1200.03 613.33 1200.4 614.527 1200.56 615.875ZM1208.84 620.909V631H1203.99V607.727H1208.7V616.625H1208.9C1209.3 615.595 1209.93 614.788 1210.81 614.205C1211.69 613.614 1212.79 613.318 1214.12 613.318C1215.33 613.318 1216.39 613.583 1217.29 614.114C1218.2 614.636 1218.9 615.39 1219.4 616.375C1219.91 617.352 1220.16 618.523 1220.15 619.886V631H1215.31V620.75C1215.32 619.674 1215.05 618.837 1214.49 618.239C1213.95 617.64 1213.18 617.341 1212.2 617.341C1211.54 617.341 1210.96 617.481 1210.45 617.761C1209.95 618.042 1209.55 618.451 1209.27 618.989C1208.99 619.519 1208.84 620.159 1208.84 620.909ZM1228.94 631.33C1227.83 631.33 1226.83 631.136 1225.96 630.75C1225.09 630.356 1224.4 629.777 1223.89 629.011C1223.39 628.239 1223.14 627.277 1223.14 626.125C1223.14 625.155 1223.32 624.341 1223.68 623.682C1224.04 623.023 1224.52 622.492 1225.13 622.091C1225.75 621.689 1226.44 621.386 1227.22 621.182C1228.01 620.977 1228.84 620.833 1229.7 620.75C1230.72 620.644 1231.54 620.545 1232.16 620.455C1232.78 620.356 1233.23 620.212 1233.51 620.023C1233.79 619.833 1233.93 619.553 1233.93 619.182V619.114C1233.93 618.394 1233.7 617.837 1233.25 617.443C1232.8 617.049 1232.16 616.852 1231.34 616.852C1230.47 616.852 1229.77 617.045 1229.26 617.432C1228.74 617.811 1228.4 618.288 1228.24 618.864L1223.76 618.5C1223.99 617.439 1224.43 616.523 1225.1 615.75C1225.77 614.97 1226.63 614.371 1227.68 613.955C1228.74 613.53 1229.97 613.318 1231.36 613.318C1232.33 613.318 1233.26 613.432 1234.14 613.659C1235.04 613.886 1235.83 614.239 1236.52 614.716C1237.22 615.193 1237.77 615.807 1238.17 616.557C1238.57 617.299 1238.77 618.189 1238.77 619.227V631H1234.18V628.58H1234.04C1233.76 629.125 1233.39 629.606 1232.92 630.023C1232.45 630.432 1231.88 630.754 1231.22 630.989C1230.57 631.216 1229.8 631.33 1228.94 631.33ZM1230.33 627.989C1231.04 627.989 1231.67 627.848 1232.21 627.568C1232.76 627.28 1233.19 626.894 1233.5 626.409C1233.81 625.924 1233.96 625.375 1233.96 624.761V622.909C1233.81 623.008 1233.6 623.098 1233.34 623.182C1233.08 623.258 1232.79 623.33 1232.46 623.398C1232.14 623.458 1231.81 623.515 1231.49 623.568C1231.16 623.614 1230.86 623.655 1230.6 623.693C1230.03 623.777 1229.54 623.909 1229.11 624.091C1228.69 624.273 1228.36 624.519 1228.12 624.83C1227.89 625.133 1227.77 625.511 1227.77 625.966C1227.77 626.625 1228.01 627.129 1228.49 627.477C1228.97 627.818 1229.58 627.989 1230.33 627.989ZM1247.37 620.909V631H1242.53V613.545H1247.14V616.625H1247.34C1247.73 615.61 1248.38 614.807 1249.29 614.216C1250.2 613.617 1251.3 613.318 1252.59 613.318C1253.81 613.318 1254.86 613.583 1255.76 614.114C1256.67 614.644 1257.37 615.402 1257.87 616.386C1258.37 617.364 1258.62 618.53 1258.62 619.886V631H1253.78V620.75C1253.78 619.682 1253.51 618.848 1252.96 618.25C1252.4 617.644 1251.64 617.341 1250.67 617.341C1250.02 617.341 1249.45 617.481 1248.95 617.761C1248.45 618.042 1248.07 618.451 1247.79 618.989C1247.51 619.519 1247.37 620.159 1247.37 620.909ZM1270.3 637.909C1268.73 637.909 1267.38 637.693 1266.26 637.261C1265.15 636.837 1264.26 636.258 1263.6 635.523C1262.94 634.788 1262.52 633.962 1262.32 633.045L1266.8 632.443C1266.93 632.792 1267.15 633.117 1267.44 633.42C1267.74 633.723 1268.13 633.966 1268.61 634.148C1269.11 634.337 1269.7 634.432 1270.41 634.432C1271.46 634.432 1272.33 634.174 1273.01 633.659C1273.7 633.152 1274.05 632.299 1274.05 631.102V627.909H1273.84C1273.63 628.394 1273.31 628.852 1272.89 629.284C1272.46 629.716 1271.92 630.068 1271.25 630.341C1270.58 630.614 1269.79 630.75 1268.86 630.75C1267.55 630.75 1266.36 630.447 1265.28 629.841C1264.22 629.227 1263.36 628.292 1262.73 627.034C1262.1 625.769 1261.78 624.17 1261.78 622.239C1261.78 620.261 1262.11 618.61 1262.75 617.284C1263.39 615.958 1264.25 614.966 1265.32 614.307C1266.39 613.648 1267.57 613.318 1268.85 613.318C1269.83 613.318 1270.65 613.485 1271.31 613.818C1271.97 614.144 1272.5 614.553 1272.9 615.045C1273.31 615.53 1273.62 616.008 1273.84 616.477H1274.02V613.545H1278.83V631.17C1278.83 632.655 1278.47 633.898 1277.74 634.898C1277.01 635.898 1276 636.648 1274.72 637.148C1273.44 637.655 1271.96 637.909 1270.3 637.909ZM1270.4 627.114C1271.18 627.114 1271.84 626.92 1272.38 626.534C1272.92 626.14 1273.34 625.58 1273.62 624.852C1273.92 624.117 1274.07 623.239 1274.07 622.216C1274.07 621.193 1273.92 620.307 1273.64 619.557C1273.35 618.799 1272.93 618.212 1272.39 617.795C1271.84 617.379 1271.18 617.17 1270.4 617.17C1269.6 617.17 1268.93 617.386 1268.39 617.818C1267.84 618.242 1267.43 618.833 1267.15 619.591C1266.87 620.348 1266.73 621.223 1266.73 622.216C1266.73 623.223 1266.87 624.095 1267.15 624.83C1267.44 625.557 1267.85 626.121 1268.39 626.523C1268.93 626.917 1269.6 627.114 1270.4 627.114ZM1290.64 631.341C1288.84 631.341 1287.3 630.977 1286 630.25C1284.71 629.515 1283.72 628.477 1283.02 627.136C1282.33 625.788 1281.98 624.193 1281.98 622.352C1281.98 620.557 1282.33 618.981 1283.02 617.625C1283.72 616.269 1284.7 615.212 1285.97 614.455C1287.24 613.697 1288.73 613.318 1290.44 613.318C1291.59 613.318 1292.67 613.504 1293.66 613.875C1294.66 614.239 1295.53 614.788 1296.27 615.523C1297.02 616.258 1297.61 617.182 1298.02 618.295C1298.44 619.402 1298.65 620.697 1298.65 622.182V623.511H1283.91V620.511H1294.09C1294.09 619.814 1293.94 619.197 1293.64 618.659C1293.33 618.121 1292.91 617.701 1292.38 617.398C1291.84 617.087 1291.23 616.932 1290.52 616.932C1289.79 616.932 1289.14 617.102 1288.57 617.443C1288.01 617.777 1287.57 618.227 1287.25 618.795C1286.93 619.356 1286.77 619.981 1286.76 620.67V623.523C1286.76 624.386 1286.92 625.133 1287.24 625.761C1287.56 626.39 1288.02 626.875 1288.61 627.216C1289.2 627.557 1289.91 627.727 1290.72 627.727C1291.25 627.727 1291.75 627.652 1292.19 627.5C1292.64 627.348 1293.02 627.121 1293.34 626.818C1293.66 626.515 1293.9 626.144 1294.07 625.705L1298.55 626C1298.32 627.076 1297.85 628.015 1297.15 628.818C1296.45 629.614 1295.55 630.235 1294.44 630.682C1293.34 631.121 1292.08 631.341 1290.64 631.341ZM1317.55 631H1309.3V607.727H1317.62C1319.96 607.727 1321.98 608.193 1323.67 609.125C1325.36 610.049 1326.66 611.379 1327.57 613.114C1328.48 614.848 1328.94 616.924 1328.94 619.341C1328.94 621.765 1328.48 623.848 1327.57 625.591C1326.66 627.333 1325.35 628.67 1323.64 629.602C1321.95 630.534 1319.92 631 1317.55 631ZM1314.22 626.784H1317.35C1318.8 626.784 1320.03 626.527 1321.02 626.011C1322.02 625.489 1322.77 624.682 1323.27 623.591C1323.78 622.492 1324.03 621.076 1324.03 619.341C1324.03 617.621 1323.78 616.216 1323.27 615.125C1322.77 614.034 1322.02 613.231 1321.03 612.716C1320.04 612.201 1318.82 611.943 1317.36 611.943H1314.22V626.784ZM1340.45 631.341C1338.65 631.341 1337.11 630.977 1335.81 630.25C1334.52 629.515 1333.53 628.477 1332.84 627.136C1332.14 625.788 1331.79 624.193 1331.79 622.352C1331.79 620.557 1332.14 618.981 1332.84 617.625C1333.53 616.269 1334.51 615.212 1335.78 614.455C1337.05 613.697 1338.54 613.318 1340.26 613.318C1341.41 613.318 1342.48 613.504 1343.47 613.875C1344.47 614.239 1345.34 614.788 1346.09 615.523C1346.84 616.258 1347.42 617.182 1347.84 618.295C1348.25 619.402 1348.46 620.697 1348.46 622.182V623.511H1333.72V620.511H1343.9C1343.9 619.814 1343.75 619.197 1343.45 618.659C1343.15 618.121 1342.73 617.701 1342.19 617.398C1341.66 617.087 1341.04 616.932 1340.34 616.932C1339.6 616.932 1338.95 617.102 1338.38 617.443C1337.82 617.777 1337.38 618.227 1337.06 618.795C1336.74 619.356 1336.58 619.981 1336.57 620.67V623.523C1336.57 624.386 1336.73 625.133 1337.05 625.761C1337.38 626.39 1337.84 626.875 1338.43 627.216C1339.02 627.557 1339.72 627.727 1340.53 627.727C1341.07 627.727 1341.56 627.652 1342.01 627.5C1342.45 627.348 1342.84 627.121 1343.15 626.818C1343.47 626.515 1343.71 626.144 1343.88 625.705L1348.36 626C1348.13 627.076 1347.66 628.015 1346.96 628.818C1346.26 629.614 1345.36 630.235 1344.26 630.682C1343.16 631.121 1341.89 631.341 1340.45 631.341ZM1360.9 613.545V617.182H1350.39V613.545H1360.9ZM1352.78 609.364H1357.62V625.636C1357.62 626.083 1357.69 626.432 1357.82 626.682C1357.96 626.924 1358.15 627.095 1358.39 627.193C1358.64 627.292 1358.93 627.341 1359.26 627.341C1359.48 627.341 1359.71 627.322 1359.94 627.284C1360.16 627.239 1360.34 627.205 1360.46 627.182L1361.22 630.784C1360.98 630.86 1360.64 630.947 1360.2 631.045C1359.76 631.152 1359.23 631.216 1358.6 631.239C1357.43 631.284 1356.41 631.129 1355.53 630.773C1354.66 630.417 1353.98 629.864 1353.49 629.114C1353.01 628.364 1352.77 627.417 1352.78 626.273V609.364ZM1371.82 631.341C1370.03 631.341 1368.48 630.977 1367.19 630.25C1365.9 629.515 1364.91 628.477 1364.21 627.136C1363.51 625.788 1363.16 624.193 1363.16 622.352C1363.16 620.557 1363.51 618.981 1364.21 617.625C1364.91 616.269 1365.89 615.212 1367.15 614.455C1368.43 613.697 1369.92 613.318 1371.63 613.318C1372.78 613.318 1373.85 613.504 1374.85 613.875C1375.85 614.239 1376.72 614.788 1377.46 615.523C1378.21 616.258 1378.79 617.182 1379.21 618.295C1379.63 619.402 1379.84 620.697 1379.84 622.182V623.511H1365.1V620.511H1375.28C1375.28 619.814 1375.13 619.197 1374.82 618.659C1374.52 618.121 1374.1 617.701 1373.56 617.398C1373.03 617.087 1372.41 616.932 1371.71 616.932C1370.98 616.932 1370.32 617.102 1369.76 617.443C1369.2 617.777 1368.76 618.227 1368.44 618.795C1368.12 619.356 1367.96 619.981 1367.95 620.67V623.523C1367.95 624.386 1368.11 625.133 1368.43 625.761C1368.75 626.39 1369.21 626.875 1369.8 627.216C1370.39 627.557 1371.09 627.727 1371.9 627.727C1372.44 627.727 1372.93 627.652 1373.38 627.5C1373.83 627.348 1374.21 627.121 1374.53 626.818C1374.85 626.515 1375.09 626.144 1375.26 625.705L1379.73 626C1379.51 627.076 1379.04 628.015 1378.34 628.818C1377.64 629.614 1376.74 630.235 1375.63 630.682C1374.53 631.121 1373.26 631.341 1371.82 631.341ZM1390.88 631.341C1389.09 631.341 1387.55 630.962 1386.27 630.205C1384.99 629.439 1384 628.379 1383.31 627.023C1382.63 625.667 1382.29 624.106 1382.29 622.341C1382.29 620.553 1382.63 618.985 1383.32 617.636C1384.02 616.28 1385.01 615.223 1386.29 614.466C1387.57 613.701 1389.09 613.318 1390.86 613.318C1392.38 613.318 1393.71 613.595 1394.86 614.148C1396 614.701 1396.91 615.477 1397.57 616.477C1398.24 617.477 1398.61 618.652 1398.68 620H1394.11C1393.98 619.129 1393.64 618.428 1393.09 617.898C1392.54 617.36 1391.82 617.091 1390.94 617.091C1390.19 617.091 1389.53 617.295 1388.97 617.705C1388.42 618.106 1387.99 618.693 1387.68 619.466C1387.37 620.239 1387.21 621.174 1387.21 622.273C1387.21 623.386 1387.36 624.333 1387.66 625.114C1387.98 625.894 1388.41 626.489 1388.97 626.898C1389.53 627.307 1390.19 627.511 1390.94 627.511C1391.49 627.511 1391.99 627.398 1392.43 627.17C1392.87 626.943 1393.24 626.614 1393.53 626.182C1393.82 625.742 1394.02 625.216 1394.11 624.602H1398.68C1398.6 625.936 1398.24 627.11 1397.59 628.125C1396.94 629.133 1396.05 629.92 1394.91 630.489C1393.78 631.057 1392.43 631.341 1390.88 631.341ZM1411.06 613.545V617.182H1400.55V613.545H1411.06ZM1402.93 609.364H1407.78V625.636C1407.78 626.083 1407.84 626.432 1407.98 626.682C1408.12 626.924 1408.31 627.095 1408.55 627.193C1408.8 627.292 1409.09 627.341 1409.41 627.341C1409.64 627.341 1409.87 627.322 1410.09 627.284C1410.32 627.239 1410.5 627.205 1410.62 627.182L1411.38 630.784C1411.14 630.86 1410.79 630.947 1410.36 631.045C1409.92 631.152 1409.38 631.216 1408.75 631.239C1407.59 631.284 1406.56 631.129 1405.68 630.773C1404.81 630.417 1404.14 629.864 1403.65 629.114C1403.17 628.364 1402.93 627.417 1402.93 626.273V609.364ZM1421.91 631.341C1420.15 631.341 1418.62 630.966 1417.33 630.216C1416.05 629.458 1415.06 628.405 1414.37 627.057C1413.67 625.701 1413.32 624.129 1413.32 622.341C1413.32 620.538 1413.67 618.962 1414.37 617.614C1415.06 616.258 1416.05 615.205 1417.33 614.455C1418.62 613.697 1420.15 613.318 1421.91 613.318C1423.68 613.318 1425.2 613.697 1426.48 614.455C1427.77 615.205 1428.76 616.258 1429.46 617.614C1430.15 618.962 1430.5 620.538 1430.5 622.341C1430.5 624.129 1430.15 625.701 1429.46 627.057C1428.76 628.405 1427.77 629.458 1426.48 630.216C1425.2 630.966 1423.68 631.341 1421.91 631.341ZM1421.93 627.591C1422.74 627.591 1423.41 627.364 1423.95 626.909C1424.48 626.447 1424.89 625.818 1425.16 625.023C1425.44 624.227 1425.58 623.322 1425.58 622.307C1425.58 621.292 1425.44 620.386 1425.16 619.591C1424.89 618.795 1424.48 618.167 1423.95 617.705C1423.41 617.242 1422.74 617.011 1421.93 617.011C1421.12 617.011 1420.44 617.242 1419.89 617.705C1419.34 618.167 1418.93 618.795 1418.65 619.591C1418.38 620.386 1418.24 621.292 1418.24 622.307C1418.24 623.322 1418.38 624.227 1418.65 625.023C1418.93 625.818 1419.34 626.447 1419.89 626.909C1420.44 627.364 1421.12 627.591 1421.93 627.591ZM1433.65 631V613.545H1438.34V616.591H1438.53C1438.84 615.508 1439.38 614.689 1440.13 614.136C1440.88 613.576 1441.74 613.295 1442.72 613.295C1442.96 613.295 1443.22 613.311 1443.5 613.341C1443.78 613.371 1444.03 613.413 1444.24 613.466V617.761C1444.01 617.693 1443.7 617.633 1443.3 617.58C1442.9 617.527 1442.53 617.5 1442.2 617.5C1441.48 617.5 1440.85 617.655 1440.29 617.966C1439.73 618.269 1439.29 618.693 1438.97 619.239C1438.65 619.784 1438.49 620.413 1438.49 621.125V631H1433.65Z" fill="white"/>
</g>
<defs>
<clipPath id="clip0_701_896">
<rect width="1920" height="1080" fill="white"/>
</clipPath>
</defs>
</svg>
