<svg width="1920" height="1080" viewBox="0 0 1920 1080" fill="none" xmlns="http://www.w3.org/2000/svg">
<g clip-path="url(#clip0_701_977)">
<rect x="557" y="314" width="174" height="101" rx="11" fill="#E61010"/>
<rect x="557" y="314" width="174" height="101" rx="11" stroke="white" stroke-width="2"/>
<path d="M642.557 360.875H637.58C637.489 360.231 637.303 359.659 637.023 359.159C636.742 358.652 636.383 358.22 635.943 357.864C635.504 357.508 634.996 357.235 634.42 357.045C633.852 356.856 633.235 356.761 632.568 356.761C631.364 356.761 630.314 357.061 629.42 357.659C628.527 358.25 627.833 359.114 627.341 360.25C626.848 361.379 626.602 362.75 626.602 364.364C626.602 366.023 626.848 367.417 627.341 368.545C627.841 369.674 628.538 370.527 629.432 371.102C630.326 371.678 631.36 371.966 632.534 371.966C633.193 371.966 633.803 371.879 634.364 371.705C634.932 371.53 635.436 371.277 635.875 370.943C636.314 370.602 636.678 370.189 636.966 369.705C637.261 369.22 637.466 368.667 637.58 368.045L642.557 368.068C642.428 369.136 642.106 370.167 641.591 371.159C641.083 372.144 640.398 373.027 639.534 373.807C638.678 374.58 637.655 375.193 636.466 375.648C635.284 376.095 633.947 376.318 632.455 376.318C630.379 376.318 628.523 375.848 626.886 374.909C625.258 373.97 623.97 372.61 623.023 370.83C622.083 369.049 621.614 366.894 621.614 364.364C621.614 361.826 622.091 359.667 623.045 357.886C624 356.106 625.295 354.75 626.932 353.818C628.568 352.879 630.409 352.409 632.455 352.409C633.803 352.409 635.053 352.598 636.205 352.977C637.364 353.356 638.39 353.909 639.284 354.636C640.178 355.356 640.905 356.239 641.466 357.284C642.034 358.33 642.398 359.527 642.557 360.875ZM654.335 376H646.085V352.727H654.403C656.744 352.727 658.759 353.193 660.449 354.125C662.138 355.049 663.438 356.379 664.347 358.114C665.263 359.848 665.722 361.924 665.722 364.341C665.722 366.765 665.263 368.848 664.347 370.591C663.438 372.333 662.131 373.67 660.426 374.602C658.729 375.534 656.699 376 654.335 376ZM651.006 371.784H654.131C655.585 371.784 656.809 371.527 657.801 371.011C658.801 370.489 659.551 369.682 660.051 368.591C660.559 367.492 660.812 366.076 660.812 364.341C660.812 362.621 660.559 361.216 660.051 360.125C659.551 359.034 658.805 358.231 657.812 357.716C656.82 357.201 655.597 356.943 654.142 356.943H651.006V371.784Z" fill="white"/>
<rect x="557" y="314" width="174" height="101" rx="11" fill="#EEEEEE"/>
<rect x="557" y="314" width="174" height="101" rx="11" stroke="white" stroke-width="2"/>
<rect x="437" y="481" width="250" height="101" rx="11" fill="#EEEEEE"/>
<rect x="437" y="481" width="250" height="101" rx="11" stroke="white" stroke-width="2"/>
<path d="M523.409 531.364C523.409 533.902 522.928 536.061 521.966 537.841C521.011 539.621 519.708 540.981 518.057 541.92C516.413 542.852 514.564 543.318 512.511 543.318C510.443 543.318 508.587 542.848 506.943 541.909C505.299 540.97 504 539.61 503.045 537.83C502.091 536.049 501.614 533.894 501.614 531.364C501.614 528.826 502.091 526.667 503.045 524.886C504 523.106 505.299 521.75 506.943 520.818C508.587 519.879 510.443 519.409 512.511 519.409C514.564 519.409 516.413 519.879 518.057 520.818C519.708 521.75 521.011 523.106 521.966 524.886C522.928 526.667 523.409 528.826 523.409 531.364ZM518.42 531.364C518.42 529.72 518.174 528.333 517.682 527.205C517.197 526.076 516.511 525.22 515.625 524.636C514.739 524.053 513.701 523.761 512.511 523.761C511.322 523.761 510.284 524.053 509.398 524.636C508.511 525.22 507.822 526.076 507.33 527.205C506.845 528.333 506.602 529.72 506.602 531.364C506.602 533.008 506.845 534.394 507.33 535.523C507.822 536.652 508.511 537.508 509.398 538.091C510.284 538.674 511.322 538.966 512.511 538.966C513.701 538.966 514.739 538.674 515.625 538.091C516.511 537.508 517.197 536.652 517.682 535.523C518.174 534.394 518.42 533.008 518.42 531.364ZM531.804 532.909V543H526.963V525.545H531.577V528.625H531.781C532.168 527.61 532.815 526.807 533.724 526.216C534.634 525.617 535.736 525.318 537.031 525.318C538.243 525.318 539.3 525.583 540.202 526.114C541.103 526.644 541.804 527.402 542.304 528.386C542.804 529.364 543.054 530.53 543.054 531.886V543H538.213V532.75C538.221 531.682 537.948 530.848 537.395 530.25C536.842 529.644 536.08 529.341 535.111 529.341C534.459 529.341 533.884 529.481 533.384 529.761C532.891 530.042 532.505 530.451 532.224 530.989C531.952 531.519 531.812 532.159 531.804 532.909ZM546.96 543V519.727H556.142C557.907 519.727 559.411 520.064 560.653 520.739C561.896 521.405 562.843 522.333 563.494 523.523C564.153 524.705 564.483 526.068 564.483 527.614C564.483 529.159 564.15 530.523 563.483 531.705C562.816 532.886 561.85 533.807 560.585 534.466C559.328 535.125 557.805 535.455 556.017 535.455H550.165V531.511H555.222C556.169 531.511 556.949 531.348 557.562 531.023C558.184 530.689 558.646 530.231 558.949 529.648C559.259 529.057 559.415 528.379 559.415 527.614C559.415 526.841 559.259 526.167 558.949 525.591C558.646 525.008 558.184 524.557 557.562 524.239C556.941 523.913 556.153 523.75 555.199 523.75H551.881V543H546.96ZM578.781 535.568V525.545H583.622V543H578.974V539.83H578.793C578.399 540.852 577.743 541.674 576.827 542.295C575.918 542.917 574.808 543.227 573.497 543.227C572.33 543.227 571.304 542.962 570.418 542.432C569.531 541.902 568.838 541.148 568.338 540.17C567.846 539.193 567.596 538.023 567.588 536.659V525.545H572.429V535.795C572.437 536.826 572.713 537.64 573.259 538.239C573.804 538.837 574.535 539.136 575.452 539.136C576.035 539.136 576.58 539.004 577.088 538.739C577.596 538.466 578.005 538.064 578.315 537.534C578.634 537.004 578.789 536.348 578.781 535.568ZM602.017 530.523L597.585 530.795C597.509 530.417 597.347 530.076 597.097 529.773C596.847 529.462 596.517 529.216 596.108 529.034C595.706 528.845 595.225 528.75 594.665 528.75C593.915 528.75 593.282 528.909 592.767 529.227C592.252 529.538 591.994 529.955 591.994 530.477C591.994 530.894 592.161 531.246 592.494 531.534C592.828 531.822 593.4 532.053 594.21 532.227L597.369 532.864C599.066 533.212 600.331 533.773 601.165 534.545C601.998 535.318 602.415 536.333 602.415 537.591C602.415 538.735 602.078 539.739 601.403 540.602C600.737 541.466 599.82 542.14 598.653 542.625C597.494 543.102 596.157 543.341 594.642 543.341C592.331 543.341 590.491 542.86 589.119 541.898C587.756 540.928 586.956 539.61 586.722 537.943L591.483 537.693C591.627 538.398 591.975 538.936 592.528 539.307C593.081 539.67 593.79 539.852 594.653 539.852C595.502 539.852 596.184 539.689 596.699 539.364C597.222 539.03 597.487 538.602 597.494 538.08C597.487 537.64 597.301 537.28 596.938 537C596.574 536.712 596.013 536.492 595.256 536.341L592.233 535.739C590.528 535.398 589.259 534.807 588.426 533.966C587.6 533.125 587.188 532.053 587.188 530.75C587.188 529.629 587.491 528.663 588.097 527.852C588.71 527.042 589.57 526.417 590.676 525.977C591.79 525.538 593.093 525.318 594.585 525.318C596.79 525.318 598.525 525.784 599.79 526.716C601.063 527.648 601.805 528.917 602.017 530.523ZM610.304 532.909V543H605.463V519.727H610.168V528.625H610.372C610.766 527.595 611.402 526.788 612.281 526.205C613.16 525.614 614.262 525.318 615.588 525.318C616.8 525.318 617.857 525.583 618.759 526.114C619.668 526.636 620.372 527.39 620.872 528.375C621.38 529.352 621.63 530.523 621.622 531.886V543H616.781V532.75C616.789 531.674 616.516 530.837 615.963 530.239C615.418 529.64 614.652 529.341 613.668 529.341C613.009 529.341 612.425 529.481 611.918 529.761C611.418 530.042 611.024 530.451 610.736 530.989C610.455 531.519 610.312 532.159 610.304 532.909Z" fill="#808080"/>
<rect x="703" y="481" width="174" height="101" rx="11" fill="#EEEEEE"/>
<rect x="703" y="481" width="174" height="101" rx="11" stroke="white" stroke-width="2"/>
<rect x="150" y="648" width="174" height="101" rx="11" fill="#EEEEEE"/>
<rect x="150" y="648" width="174" height="101" rx="11" stroke="white" stroke-width="2"/>
<rect x="390" y="648" width="174" height="101" rx="11" fill="#EEEEEE"/>
<rect x="390" y="648" width="174" height="101" rx="11" stroke="white" stroke-width="2"/>
<rect x="150" y="815" width="174" height="101" rx="11" fill="#EEEEEE"/>
<rect x="150" y="815" width="174" height="101" rx="11" stroke="white" stroke-width="2"/>
<rect x="390" y="815" width="174" height="101" rx="11" fill="#EEEEEE"/>
<rect x="390" y="815" width="174" height="101" rx="11" stroke="white" stroke-width="2"/>
<rect x="692" y="648" width="174" height="101" rx="11" fill="#EEEEEE"/>
<rect x="692" y="648" width="174" height="101" rx="11" stroke="white" stroke-width="2"/>
<rect x="932" y="648" width="174" height="101" rx="11" fill="#EEEEEE"/>
<rect x="932" y="648" width="174" height="101" rx="11" stroke="white" stroke-width="2"/>
<rect x="692" y="815" width="174" height="101" rx="11" fill="#EEEEEE"/>
<rect x="692" y="815" width="174" height="101" rx="11" stroke="white" stroke-width="2"/>
<rect x="932" y="815" width="174" height="101" rx="11" fill="#EEEEEE"/>
<rect x="932" y="815" width="174" height="101" rx="11" stroke="white" stroke-width="2"/>
<line x1="646" y1="415.414" x2="580.414" y2="481" stroke="white" stroke-width="2" stroke-linecap="round"/>
<line x1="711.586" y1="481" x2="646" y2="415.414" stroke="white" stroke-width="2" stroke-linecap="round"/>
<line x1="765.359" y1="582.392" x2="801.392" y2="647.641" stroke="white" stroke-width="2" stroke-linecap="round"/>
<line x1="1017.78" y1="647.716" x2="765.716" y2="582.219" stroke="white" stroke-width="2" stroke-linecap="round"/>
<line x1="521.247" y1="583.197" x2="238.197" y2="647.753" stroke="white" stroke-width="2" stroke-linecap="round"/>
<line x1="473.787" y1="648.602" x2="522.602" y2="582.213" stroke="white" stroke-width="2" stroke-linecap="round"/>
<line x1="476" y1="815" x2="476" y2="749" stroke="white" stroke-width="2" stroke-linecap="round"/>
<line x1="1038" y1="815" x2="1038" y2="749" stroke="white" stroke-width="2" stroke-linecap="round"/>
<line x1="783" y1="815" x2="783" y2="749" stroke="white" stroke-width="2" stroke-linecap="round"/>
<line x1="236" y1="815" x2="236" y2="749" stroke="white" stroke-width="2" stroke-linecap="round"/>
</g>
<defs>
<clipPath id="clip0_701_977">
<rect width="1920" height="1080" fill="white"/>
</clipPath>
</defs>
</svg>
