<svg width="1920" height="1080" viewBox="0 0 1920 1080" fill="none" xmlns="http://www.w3.org/2000/svg">
<g clip-path="url(#clip0_701_901)">
<rect x="543" y="343" width="174" height="101" rx="11" fill="#E61010"/>
<rect x="543" y="343" width="174" height="101" rx="11" stroke="white" stroke-width="2"/>
<path d="M628.557 389.875H623.58C623.489 389.231 623.303 388.659 623.023 388.159C622.742 387.652 622.383 387.22 621.943 386.864C621.504 386.508 620.996 386.235 620.42 386.045C619.852 385.856 619.235 385.761 618.568 385.761C617.364 385.761 616.314 386.061 615.42 386.659C614.527 387.25 613.833 388.114 613.341 389.25C612.848 390.379 612.602 391.75 612.602 393.364C612.602 395.023 612.848 396.417 613.341 397.545C613.841 398.674 614.538 399.527 615.432 400.102C616.326 400.678 617.36 400.966 618.534 400.966C619.193 400.966 619.803 400.879 620.364 400.705C620.932 400.53 621.436 400.277 621.875 399.943C622.314 399.602 622.678 399.189 622.966 398.705C623.261 398.22 623.466 397.667 623.58 397.045L628.557 397.068C628.428 398.136 628.106 399.167 627.591 400.159C627.083 401.144 626.398 402.027 625.534 402.807C624.678 403.58 623.655 404.193 622.466 404.648C621.284 405.095 619.947 405.318 618.455 405.318C616.379 405.318 614.523 404.848 612.886 403.909C611.258 402.97 609.97 401.61 609.023 399.83C608.083 398.049 607.614 395.894 607.614 393.364C607.614 390.826 608.091 388.667 609.045 386.886C610 385.106 611.295 383.75 612.932 382.818C614.568 381.879 616.409 381.409 618.455 381.409C619.803 381.409 621.053 381.598 622.205 381.977C623.364 382.356 624.39 382.909 625.284 383.636C626.178 384.356 626.905 385.239 627.466 386.284C628.034 387.33 628.398 388.527 628.557 389.875ZM640.335 405H632.085V381.727H640.403C642.744 381.727 644.759 382.193 646.449 383.125C648.138 384.049 649.438 385.379 650.347 387.114C651.263 388.848 651.722 390.924 651.722 393.341C651.722 395.765 651.263 397.848 650.347 399.591C649.438 401.333 648.131 402.67 646.426 403.602C644.729 404.534 642.699 405 640.335 405ZM637.006 400.784H640.131C641.585 400.784 642.809 400.527 643.801 400.011C644.801 399.489 645.551 398.682 646.051 397.591C646.559 396.492 646.812 395.076 646.812 393.341C646.812 391.621 646.559 390.216 646.051 389.125C645.551 388.034 644.805 387.231 643.812 386.716C642.82 386.201 641.597 385.943 640.142 385.943H637.006V400.784Z" fill="white"/>
<rect x="543" y="343" width="174" height="101" rx="11" fill="url(#paint0_linear_701_901)"/>
<rect x="543" y="343" width="174" height="101" rx="11" stroke="white" stroke-width="2"/>
<path d="M628.557 389.875H623.58C623.489 389.231 623.303 388.659 623.023 388.159C622.742 387.652 622.383 387.22 621.943 386.864C621.504 386.508 620.996 386.235 620.42 386.045C619.852 385.856 619.235 385.761 618.568 385.761C617.364 385.761 616.314 386.061 615.42 386.659C614.527 387.25 613.833 388.114 613.341 389.25C612.848 390.379 612.602 391.75 612.602 393.364C612.602 395.023 612.848 396.417 613.341 397.545C613.841 398.674 614.538 399.527 615.432 400.102C616.326 400.678 617.36 400.966 618.534 400.966C619.193 400.966 619.803 400.879 620.364 400.705C620.932 400.53 621.436 400.277 621.875 399.943C622.314 399.602 622.678 399.189 622.966 398.705C623.261 398.22 623.466 397.667 623.58 397.045L628.557 397.068C628.428 398.136 628.106 399.167 627.591 400.159C627.083 401.144 626.398 402.027 625.534 402.807C624.678 403.58 623.655 404.193 622.466 404.648C621.284 405.095 619.947 405.318 618.455 405.318C616.379 405.318 614.523 404.848 612.886 403.909C611.258 402.97 609.97 401.61 609.023 399.83C608.083 398.049 607.614 395.894 607.614 393.364C607.614 390.826 608.091 388.667 609.045 386.886C610 385.106 611.295 383.75 612.932 382.818C614.568 381.879 616.409 381.409 618.455 381.409C619.803 381.409 621.053 381.598 622.205 381.977C623.364 382.356 624.39 382.909 625.284 383.636C626.178 384.356 626.905 385.239 627.466 386.284C628.034 387.33 628.398 388.527 628.557 389.875ZM640.335 405H632.085V381.727H640.403C642.744 381.727 644.759 382.193 646.449 383.125C648.138 384.049 649.438 385.379 650.347 387.114C651.263 388.848 651.722 390.924 651.722 393.341C651.722 395.765 651.263 397.848 650.347 399.591C649.438 401.333 648.131 402.67 646.426 403.602C644.729 404.534 642.699 405 640.335 405ZM637.006 400.784H640.131C641.585 400.784 642.809 400.527 643.801 400.011C644.801 399.489 645.551 398.682 646.051 397.591C646.559 396.492 646.812 395.076 646.812 393.341C646.812 391.621 646.559 390.216 646.051 389.125C645.551 388.034 644.805 387.231 643.812 386.716C642.82 386.201 641.597 385.943 640.142 385.943H637.006V400.784Z" fill="white"/>
<rect x="423" y="510" width="174" height="101" rx="11" fill="url(#paint1_linear_701_901)"/>
<rect x="423" y="510" width="174" height="101" rx="11" stroke="white" stroke-width="2"/>
<path d="M508.557 556.875H503.58C503.489 556.231 503.303 555.659 503.023 555.159C502.742 554.652 502.383 554.22 501.943 553.864C501.504 553.508 500.996 553.235 500.42 553.045C499.852 552.856 499.235 552.761 498.568 552.761C497.364 552.761 496.314 553.061 495.42 553.659C494.527 554.25 493.833 555.114 493.341 556.25C492.848 557.379 492.602 558.75 492.602 560.364C492.602 562.023 492.848 563.417 493.341 564.545C493.841 565.674 494.538 566.527 495.432 567.102C496.326 567.678 497.36 567.966 498.534 567.966C499.193 567.966 499.803 567.879 500.364 567.705C500.932 567.53 501.436 567.277 501.875 566.943C502.314 566.602 502.678 566.189 502.966 565.705C503.261 565.22 503.466 564.667 503.58 564.045L508.557 564.068C508.428 565.136 508.106 566.167 507.591 567.159C507.083 568.144 506.398 569.027 505.534 569.807C504.678 570.58 503.655 571.193 502.466 571.648C501.284 572.095 499.947 572.318 498.455 572.318C496.379 572.318 494.523 571.848 492.886 570.909C491.258 569.97 489.97 568.61 489.023 566.83C488.083 565.049 487.614 562.894 487.614 560.364C487.614 557.826 488.091 555.667 489.045 553.886C490 552.106 491.295 550.75 492.932 549.818C494.568 548.879 496.409 548.409 498.455 548.409C499.803 548.409 501.053 548.598 502.205 548.977C503.364 549.356 504.39 549.909 505.284 550.636C506.178 551.356 506.905 552.239 507.466 553.284C508.034 554.33 508.398 555.527 508.557 556.875ZM520.335 572H512.085V548.727H520.403C522.744 548.727 524.759 549.193 526.449 550.125C528.138 551.049 529.438 552.379 530.347 554.114C531.263 555.848 531.722 557.924 531.722 560.341C531.722 562.765 531.263 564.848 530.347 566.591C529.438 568.333 528.131 569.67 526.426 570.602C524.729 571.534 522.699 572 520.335 572ZM517.006 567.784H520.131C521.585 567.784 522.809 567.527 523.801 567.011C524.801 566.489 525.551 565.682 526.051 564.591C526.559 563.492 526.812 562.076 526.812 560.341C526.812 558.621 526.559 557.216 526.051 556.125C525.551 555.034 524.805 554.231 523.812 553.716C522.82 553.201 521.597 552.943 520.142 552.943H517.006V567.784Z" fill="white"/>
<rect x="663" y="510" width="174" height="101" rx="11" fill="url(#paint2_linear_701_901)"/>
<rect x="663" y="510" width="174" height="101" rx="11" stroke="white" stroke-width="2"/>
<path d="M748.557 556.875H743.58C743.489 556.231 743.303 555.659 743.023 555.159C742.742 554.652 742.383 554.22 741.943 553.864C741.504 553.508 740.996 553.235 740.42 553.045C739.852 552.856 739.235 552.761 738.568 552.761C737.364 552.761 736.314 553.061 735.42 553.659C734.527 554.25 733.833 555.114 733.341 556.25C732.848 557.379 732.602 558.75 732.602 560.364C732.602 562.023 732.848 563.417 733.341 564.545C733.841 565.674 734.538 566.527 735.432 567.102C736.326 567.678 737.36 567.966 738.534 567.966C739.193 567.966 739.803 567.879 740.364 567.705C740.932 567.53 741.436 567.277 741.875 566.943C742.314 566.602 742.678 566.189 742.966 565.705C743.261 565.22 743.466 564.667 743.58 564.045L748.557 564.068C748.428 565.136 748.106 566.167 747.591 567.159C747.083 568.144 746.398 569.027 745.534 569.807C744.678 570.58 743.655 571.193 742.466 571.648C741.284 572.095 739.947 572.318 738.455 572.318C736.379 572.318 734.523 571.848 732.886 570.909C731.258 569.97 729.97 568.61 729.023 566.83C728.083 565.049 727.614 562.894 727.614 560.364C727.614 557.826 728.091 555.667 729.045 553.886C730 552.106 731.295 550.75 732.932 549.818C734.568 548.879 736.409 548.409 738.455 548.409C739.803 548.409 741.053 548.598 742.205 548.977C743.364 549.356 744.39 549.909 745.284 550.636C746.178 551.356 746.905 552.239 747.466 553.284C748.034 554.33 748.398 555.527 748.557 556.875ZM760.335 572H752.085V548.727H760.403C762.744 548.727 764.759 549.193 766.449 550.125C768.138 551.049 769.438 552.379 770.347 554.114C771.263 555.848 771.722 557.924 771.722 560.341C771.722 562.765 771.263 564.848 770.347 566.591C769.438 568.333 768.131 569.67 766.426 570.602C764.729 571.534 762.699 572 760.335 572ZM757.006 567.784H760.131C761.585 567.784 762.809 567.527 763.801 567.011C764.801 566.489 765.551 565.682 766.051 564.591C766.559 563.492 766.812 562.076 766.812 560.341C766.812 558.621 766.559 557.216 766.051 556.125C765.551 555.034 764.805 554.231 763.812 553.716C762.82 553.201 761.597 552.943 760.142 552.943H757.006V567.784Z" fill="white"/>
<rect x="136" y="677" width="174" height="101" rx="11" fill="url(#paint3_linear_701_901)"/>
<rect x="136" y="677" width="174" height="101" rx="11" stroke="white" stroke-width="2"/>
<path d="M221.557 723.875H216.58C216.489 723.231 216.303 722.659 216.023 722.159C215.742 721.652 215.383 721.22 214.943 720.864C214.504 720.508 213.996 720.235 213.42 720.045C212.852 719.856 212.235 719.761 211.568 719.761C210.364 719.761 209.314 720.061 208.42 720.659C207.527 721.25 206.833 722.114 206.341 723.25C205.848 724.379 205.602 725.75 205.602 727.364C205.602 729.023 205.848 730.417 206.341 731.545C206.841 732.674 207.538 733.527 208.432 734.102C209.326 734.678 210.36 734.966 211.534 734.966C212.193 734.966 212.803 734.879 213.364 734.705C213.932 734.53 214.436 734.277 214.875 733.943C215.314 733.602 215.678 733.189 215.966 732.705C216.261 732.22 216.466 731.667 216.58 731.045L221.557 731.068C221.428 732.136 221.106 733.167 220.591 734.159C220.083 735.144 219.398 736.027 218.534 736.807C217.678 737.58 216.655 738.193 215.466 738.648C214.284 739.095 212.947 739.318 211.455 739.318C209.379 739.318 207.523 738.848 205.886 737.909C204.258 736.97 202.97 735.61 202.023 733.83C201.083 732.049 200.614 729.894 200.614 727.364C200.614 724.826 201.091 722.667 202.045 720.886C203 719.106 204.295 717.75 205.932 716.818C207.568 715.879 209.409 715.409 211.455 715.409C212.803 715.409 214.053 715.598 215.205 715.977C216.364 716.356 217.39 716.909 218.284 717.636C219.178 718.356 219.905 719.239 220.466 720.284C221.034 721.33 221.398 722.527 221.557 723.875ZM233.335 739H225.085V715.727H233.403C235.744 715.727 237.759 716.193 239.449 717.125C241.138 718.049 242.438 719.379 243.347 721.114C244.263 722.848 244.722 724.924 244.722 727.341C244.722 729.765 244.263 731.848 243.347 733.591C242.438 735.333 241.131 736.67 239.426 737.602C237.729 738.534 235.699 739 233.335 739ZM230.006 734.784H233.131C234.585 734.784 235.809 734.527 236.801 734.011C237.801 733.489 238.551 732.682 239.051 731.591C239.559 730.492 239.812 729.076 239.812 727.341C239.812 725.621 239.559 724.216 239.051 723.125C238.551 722.034 237.805 721.231 236.812 720.716C235.82 720.201 234.597 719.943 233.142 719.943H230.006V734.784Z" fill="white"/>
<rect x="376" y="677" width="174" height="101" rx="11" fill="url(#paint4_linear_701_901)"/>
<rect x="376" y="677" width="174" height="101" rx="11" stroke="white" stroke-width="2"/>
<path d="M461.557 723.875H456.58C456.489 723.231 456.303 722.659 456.023 722.159C455.742 721.652 455.383 721.22 454.943 720.864C454.504 720.508 453.996 720.235 453.42 720.045C452.852 719.856 452.235 719.761 451.568 719.761C450.364 719.761 449.314 720.061 448.42 720.659C447.527 721.25 446.833 722.114 446.341 723.25C445.848 724.379 445.602 725.75 445.602 727.364C445.602 729.023 445.848 730.417 446.341 731.545C446.841 732.674 447.538 733.527 448.432 734.102C449.326 734.678 450.36 734.966 451.534 734.966C452.193 734.966 452.803 734.879 453.364 734.705C453.932 734.53 454.436 734.277 454.875 733.943C455.314 733.602 455.678 733.189 455.966 732.705C456.261 732.22 456.466 731.667 456.58 731.045L461.557 731.068C461.428 732.136 461.106 733.167 460.591 734.159C460.083 735.144 459.398 736.027 458.534 736.807C457.678 737.58 456.655 738.193 455.466 738.648C454.284 739.095 452.947 739.318 451.455 739.318C449.379 739.318 447.523 738.848 445.886 737.909C444.258 736.97 442.97 735.61 442.023 733.83C441.083 732.049 440.614 729.894 440.614 727.364C440.614 724.826 441.091 722.667 442.045 720.886C443 719.106 444.295 717.75 445.932 716.818C447.568 715.879 449.409 715.409 451.455 715.409C452.803 715.409 454.053 715.598 455.205 715.977C456.364 716.356 457.39 716.909 458.284 717.636C459.178 718.356 459.905 719.239 460.466 720.284C461.034 721.33 461.398 722.527 461.557 723.875ZM473.335 739H465.085V715.727H473.403C475.744 715.727 477.759 716.193 479.449 717.125C481.138 718.049 482.438 719.379 483.347 721.114C484.263 722.848 484.722 724.924 484.722 727.341C484.722 729.765 484.263 731.848 483.347 733.591C482.438 735.333 481.131 736.67 479.426 737.602C477.729 738.534 475.699 739 473.335 739ZM470.006 734.784H473.131C474.585 734.784 475.809 734.527 476.801 734.011C477.801 733.489 478.551 732.682 479.051 731.591C479.559 730.492 479.812 729.076 479.812 727.341C479.812 725.621 479.559 724.216 479.051 723.125C478.551 722.034 477.805 721.231 476.812 720.716C475.82 720.201 474.597 719.943 473.142 719.943H470.006V734.784Z" fill="white"/>
<rect x="136" y="844" width="174" height="101" rx="11" fill="url(#paint5_linear_701_901)"/>
<rect x="136" y="844" width="174" height="101" rx="11" stroke="white" stroke-width="2"/>
<path d="M221.557 890.875H216.58C216.489 890.231 216.303 889.659 216.023 889.159C215.742 888.652 215.383 888.22 214.943 887.864C214.504 887.508 213.996 887.235 213.42 887.045C212.852 886.856 212.235 886.761 211.568 886.761C210.364 886.761 209.314 887.061 208.42 887.659C207.527 888.25 206.833 889.114 206.341 890.25C205.848 891.379 205.602 892.75 205.602 894.364C205.602 896.023 205.848 897.417 206.341 898.545C206.841 899.674 207.538 900.527 208.432 901.102C209.326 901.678 210.36 901.966 211.534 901.966C212.193 901.966 212.803 901.879 213.364 901.705C213.932 901.53 214.436 901.277 214.875 900.943C215.314 900.602 215.678 900.189 215.966 899.705C216.261 899.22 216.466 898.667 216.58 898.045L221.557 898.068C221.428 899.136 221.106 900.167 220.591 901.159C220.083 902.144 219.398 903.027 218.534 903.807C217.678 904.58 216.655 905.193 215.466 905.648C214.284 906.095 212.947 906.318 211.455 906.318C209.379 906.318 207.523 905.848 205.886 904.909C204.258 903.97 202.97 902.61 202.023 900.83C201.083 899.049 200.614 896.894 200.614 894.364C200.614 891.826 201.091 889.667 202.045 887.886C203 886.106 204.295 884.75 205.932 883.818C207.568 882.879 209.409 882.409 211.455 882.409C212.803 882.409 214.053 882.598 215.205 882.977C216.364 883.356 217.39 883.909 218.284 884.636C219.178 885.356 219.905 886.239 220.466 887.284C221.034 888.33 221.398 889.527 221.557 890.875ZM233.335 906H225.085V882.727H233.403C235.744 882.727 237.759 883.193 239.449 884.125C241.138 885.049 242.438 886.379 243.347 888.114C244.263 889.848 244.722 891.924 244.722 894.341C244.722 896.765 244.263 898.848 243.347 900.591C242.438 902.333 241.131 903.67 239.426 904.602C237.729 905.534 235.699 906 233.335 906ZM230.006 901.784H233.131C234.585 901.784 235.809 901.527 236.801 901.011C237.801 900.489 238.551 899.682 239.051 898.591C239.559 897.492 239.812 896.076 239.812 894.341C239.812 892.621 239.559 891.216 239.051 890.125C238.551 889.034 237.805 888.231 236.812 887.716C235.82 887.201 234.597 886.943 233.142 886.943H230.006V901.784Z" fill="white"/>
<rect x="376" y="844" width="174" height="101" rx="11" fill="url(#paint6_linear_701_901)"/>
<rect x="376" y="844" width="174" height="101" rx="11" stroke="white" stroke-width="2"/>
<path d="M461.557 890.875H456.58C456.489 890.231 456.303 889.659 456.023 889.159C455.742 888.652 455.383 888.22 454.943 887.864C454.504 887.508 453.996 887.235 453.42 887.045C452.852 886.856 452.235 886.761 451.568 886.761C450.364 886.761 449.314 887.061 448.42 887.659C447.527 888.25 446.833 889.114 446.341 890.25C445.848 891.379 445.602 892.75 445.602 894.364C445.602 896.023 445.848 897.417 446.341 898.545C446.841 899.674 447.538 900.527 448.432 901.102C449.326 901.678 450.36 901.966 451.534 901.966C452.193 901.966 452.803 901.879 453.364 901.705C453.932 901.53 454.436 901.277 454.875 900.943C455.314 900.602 455.678 900.189 455.966 899.705C456.261 899.22 456.466 898.667 456.58 898.045L461.557 898.068C461.428 899.136 461.106 900.167 460.591 901.159C460.083 902.144 459.398 903.027 458.534 903.807C457.678 904.58 456.655 905.193 455.466 905.648C454.284 906.095 452.947 906.318 451.455 906.318C449.379 906.318 447.523 905.848 445.886 904.909C444.258 903.97 442.97 902.61 442.023 900.83C441.083 899.049 440.614 896.894 440.614 894.364C440.614 891.826 441.091 889.667 442.045 887.886C443 886.106 444.295 884.75 445.932 883.818C447.568 882.879 449.409 882.409 451.455 882.409C452.803 882.409 454.053 882.598 455.205 882.977C456.364 883.356 457.39 883.909 458.284 884.636C459.178 885.356 459.905 886.239 460.466 887.284C461.034 888.33 461.398 889.527 461.557 890.875ZM473.335 906H465.085V882.727H473.403C475.744 882.727 477.759 883.193 479.449 884.125C481.138 885.049 482.438 886.379 483.347 888.114C484.263 889.848 484.722 891.924 484.722 894.341C484.722 896.765 484.263 898.848 483.347 900.591C482.438 902.333 481.131 903.67 479.426 904.602C477.729 905.534 475.699 906 473.335 906ZM470.006 901.784H473.131C474.585 901.784 475.809 901.527 476.801 901.011C477.801 900.489 478.551 899.682 479.051 898.591C479.559 897.492 479.812 896.076 479.812 894.341C479.812 892.621 479.559 891.216 479.051 890.125C478.551 889.034 477.805 888.231 476.812 887.716C475.82 887.201 474.597 886.943 473.142 886.943H470.006V901.784Z" fill="white"/>
<rect x="678" y="677" width="174" height="101" rx="11" fill="url(#paint7_linear_701_901)"/>
<rect x="678" y="677" width="174" height="101" rx="11" stroke="white" stroke-width="2"/>
<path d="M763.557 723.875H758.58C758.489 723.231 758.303 722.659 758.023 722.159C757.742 721.652 757.383 721.22 756.943 720.864C756.504 720.508 755.996 720.235 755.42 720.045C754.852 719.856 754.235 719.761 753.568 719.761C752.364 719.761 751.314 720.061 750.42 720.659C749.527 721.25 748.833 722.114 748.341 723.25C747.848 724.379 747.602 725.75 747.602 727.364C747.602 729.023 747.848 730.417 748.341 731.545C748.841 732.674 749.538 733.527 750.432 734.102C751.326 734.678 752.36 734.966 753.534 734.966C754.193 734.966 754.803 734.879 755.364 734.705C755.932 734.53 756.436 734.277 756.875 733.943C757.314 733.602 757.678 733.189 757.966 732.705C758.261 732.22 758.466 731.667 758.58 731.045L763.557 731.068C763.428 732.136 763.106 733.167 762.591 734.159C762.083 735.144 761.398 736.027 760.534 736.807C759.678 737.58 758.655 738.193 757.466 738.648C756.284 739.095 754.947 739.318 753.455 739.318C751.379 739.318 749.523 738.848 747.886 737.909C746.258 736.97 744.97 735.61 744.023 733.83C743.083 732.049 742.614 729.894 742.614 727.364C742.614 724.826 743.091 722.667 744.045 720.886C745 719.106 746.295 717.75 747.932 716.818C749.568 715.879 751.409 715.409 753.455 715.409C754.803 715.409 756.053 715.598 757.205 715.977C758.364 716.356 759.39 716.909 760.284 717.636C761.178 718.356 761.905 719.239 762.466 720.284C763.034 721.33 763.398 722.527 763.557 723.875ZM775.335 739H767.085V715.727H775.403C777.744 715.727 779.759 716.193 781.449 717.125C783.138 718.049 784.438 719.379 785.347 721.114C786.263 722.848 786.722 724.924 786.722 727.341C786.722 729.765 786.263 731.848 785.347 733.591C784.438 735.333 783.131 736.67 781.426 737.602C779.729 738.534 777.699 739 775.335 739ZM772.006 734.784H775.131C776.585 734.784 777.809 734.527 778.801 734.011C779.801 733.489 780.551 732.682 781.051 731.591C781.559 730.492 781.812 729.076 781.812 727.341C781.812 725.621 781.559 724.216 781.051 723.125C780.551 722.034 779.805 721.231 778.812 720.716C777.82 720.201 776.597 719.943 775.142 719.943H772.006V734.784Z" fill="white"/>
<rect x="918" y="677" width="174" height="101" rx="11" fill="url(#paint8_linear_701_901)"/>
<rect x="918" y="677" width="174" height="101" rx="11" stroke="white" stroke-width="2"/>
<path d="M1003.56 723.875H998.58C998.489 723.231 998.303 722.659 998.023 722.159C997.742 721.652 997.383 721.22 996.943 720.864C996.504 720.508 995.996 720.235 995.42 720.045C994.852 719.856 994.235 719.761 993.568 719.761C992.364 719.761 991.314 720.061 990.42 720.659C989.527 721.25 988.833 722.114 988.341 723.25C987.848 724.379 987.602 725.75 987.602 727.364C987.602 729.023 987.848 730.417 988.341 731.545C988.841 732.674 989.538 733.527 990.432 734.102C991.326 734.678 992.36 734.966 993.534 734.966C994.193 734.966 994.803 734.879 995.364 734.705C995.932 734.53 996.436 734.277 996.875 733.943C997.314 733.602 997.678 733.189 997.966 732.705C998.261 732.22 998.466 731.667 998.58 731.045L1003.56 731.068C1003.43 732.136 1003.11 733.167 1002.59 734.159C1002.08 735.144 1001.4 736.027 1000.53 736.807C999.678 737.58 998.655 738.193 997.466 738.648C996.284 739.095 994.947 739.318 993.455 739.318C991.379 739.318 989.523 738.848 987.886 737.909C986.258 736.97 984.97 735.61 984.023 733.83C983.083 732.049 982.614 729.894 982.614 727.364C982.614 724.826 983.091 722.667 984.045 720.886C985 719.106 986.295 717.75 987.932 716.818C989.568 715.879 991.409 715.409 993.455 715.409C994.803 715.409 996.053 715.598 997.205 715.977C998.364 716.356 999.39 716.909 1000.28 717.636C1001.18 718.356 1001.91 719.239 1002.47 720.284C1003.03 721.33 1003.4 722.527 1003.56 723.875ZM1015.34 739H1007.09V715.727H1015.4C1017.74 715.727 1019.76 716.193 1021.45 717.125C1023.14 718.049 1024.44 719.379 1025.35 721.114C1026.26 722.848 1026.72 724.924 1026.72 727.341C1026.72 729.765 1026.26 731.848 1025.35 733.591C1024.44 735.333 1023.13 736.67 1021.43 737.602C1019.73 738.534 1017.7 739 1015.34 739ZM1012.01 734.784H1015.13C1016.59 734.784 1017.81 734.527 1018.8 734.011C1019.8 733.489 1020.55 732.682 1021.05 731.591C1021.56 730.492 1021.81 729.076 1021.81 727.341C1021.81 725.621 1021.56 724.216 1021.05 723.125C1020.55 722.034 1019.8 721.231 1018.81 720.716C1017.82 720.201 1016.6 719.943 1015.14 719.943H1012.01V734.784Z" fill="white"/>
<rect x="678" y="844" width="174" height="101" rx="11" fill="url(#paint9_linear_701_901)"/>
<rect x="678" y="844" width="174" height="101" rx="11" stroke="white" stroke-width="2"/>
<path d="M763.557 890.875H758.58C758.489 890.231 758.303 889.659 758.023 889.159C757.742 888.652 757.383 888.22 756.943 887.864C756.504 887.508 755.996 887.235 755.42 887.045C754.852 886.856 754.235 886.761 753.568 886.761C752.364 886.761 751.314 887.061 750.42 887.659C749.527 888.25 748.833 889.114 748.341 890.25C747.848 891.379 747.602 892.75 747.602 894.364C747.602 896.023 747.848 897.417 748.341 898.545C748.841 899.674 749.538 900.527 750.432 901.102C751.326 901.678 752.36 901.966 753.534 901.966C754.193 901.966 754.803 901.879 755.364 901.705C755.932 901.53 756.436 901.277 756.875 900.943C757.314 900.602 757.678 900.189 757.966 899.705C758.261 899.22 758.466 898.667 758.58 898.045L763.557 898.068C763.428 899.136 763.106 900.167 762.591 901.159C762.083 902.144 761.398 903.027 760.534 903.807C759.678 904.58 758.655 905.193 757.466 905.648C756.284 906.095 754.947 906.318 753.455 906.318C751.379 906.318 749.523 905.848 747.886 904.909C746.258 903.97 744.97 902.61 744.023 900.83C743.083 899.049 742.614 896.894 742.614 894.364C742.614 891.826 743.091 889.667 744.045 887.886C745 886.106 746.295 884.75 747.932 883.818C749.568 882.879 751.409 882.409 753.455 882.409C754.803 882.409 756.053 882.598 757.205 882.977C758.364 883.356 759.39 883.909 760.284 884.636C761.178 885.356 761.905 886.239 762.466 887.284C763.034 888.33 763.398 889.527 763.557 890.875ZM775.335 906H767.085V882.727H775.403C777.744 882.727 779.759 883.193 781.449 884.125C783.138 885.049 784.438 886.379 785.347 888.114C786.263 889.848 786.722 891.924 786.722 894.341C786.722 896.765 786.263 898.848 785.347 900.591C784.438 902.333 783.131 903.67 781.426 904.602C779.729 905.534 777.699 906 775.335 906ZM772.006 901.784H775.131C776.585 901.784 777.809 901.527 778.801 901.011C779.801 900.489 780.551 899.682 781.051 898.591C781.559 897.492 781.812 896.076 781.812 894.341C781.812 892.621 781.559 891.216 781.051 890.125C780.551 889.034 779.805 888.231 778.812 887.716C777.82 887.201 776.597 886.943 775.142 886.943H772.006V901.784Z" fill="white"/>
<rect x="918" y="844" width="174" height="101" rx="11" fill="url(#paint10_linear_701_901)"/>
<rect x="918" y="844" width="174" height="101" rx="11" stroke="white" stroke-width="2"/>
<path d="M1003.56 890.875H998.58C998.489 890.231 998.303 889.659 998.023 889.159C997.742 888.652 997.383 888.22 996.943 887.864C996.504 887.508 995.996 887.235 995.42 887.045C994.852 886.856 994.235 886.761 993.568 886.761C992.364 886.761 991.314 887.061 990.42 887.659C989.527 888.25 988.833 889.114 988.341 890.25C987.848 891.379 987.602 892.75 987.602 894.364C987.602 896.023 987.848 897.417 988.341 898.545C988.841 899.674 989.538 900.527 990.432 901.102C991.326 901.678 992.36 901.966 993.534 901.966C994.193 901.966 994.803 901.879 995.364 901.705C995.932 901.53 996.436 901.277 996.875 900.943C997.314 900.602 997.678 900.189 997.966 899.705C998.261 899.22 998.466 898.667 998.58 898.045L1003.56 898.068C1003.43 899.136 1003.11 900.167 1002.59 901.159C1002.08 902.144 1001.4 903.027 1000.53 903.807C999.678 904.58 998.655 905.193 997.466 905.648C996.284 906.095 994.947 906.318 993.455 906.318C991.379 906.318 989.523 905.848 987.886 904.909C986.258 903.97 984.97 902.61 984.023 900.83C983.083 899.049 982.614 896.894 982.614 894.364C982.614 891.826 983.091 889.667 984.045 887.886C985 886.106 986.295 884.75 987.932 883.818C989.568 882.879 991.409 882.409 993.455 882.409C994.803 882.409 996.053 882.598 997.205 882.977C998.364 883.356 999.39 883.909 1000.28 884.636C1001.18 885.356 1001.91 886.239 1002.47 887.284C1003.03 888.33 1003.4 889.527 1003.56 890.875ZM1015.34 906H1007.09V882.727H1015.4C1017.74 882.727 1019.76 883.193 1021.45 884.125C1023.14 885.049 1024.44 886.379 1025.35 888.114C1026.26 889.848 1026.72 891.924 1026.72 894.341C1026.72 896.765 1026.26 898.848 1025.35 900.591C1024.44 902.333 1023.13 903.67 1021.43 904.602C1019.73 905.534 1017.7 906 1015.34 906ZM1012.01 901.784H1015.13C1016.59 901.784 1017.81 901.527 1018.8 901.011C1019.8 900.489 1020.55 899.682 1021.05 898.591C1021.56 897.492 1021.81 896.076 1021.81 894.341C1021.81 892.621 1021.56 891.216 1021.05 890.125C1020.55 889.034 1019.8 888.231 1018.81 887.716C1017.82 887.201 1016.6 886.943 1015.14 886.943H1012.01V901.784Z" fill="white"/>
<path d="M632.707 445.121C633.098 444.731 633.098 444.098 632.707 443.707C632.317 443.317 631.683 443.317 631.293 443.707L632.707 445.121ZM566.414 510L577.568 507.011L569.403 498.846L566.414 510ZM631.293 443.707L572.071 502.929L573.485 504.343L632.707 445.121L631.293 443.707Z" fill="white"/>
<path d="M697.586 510L694.597 498.846L686.432 507.011L697.586 510ZM632.707 443.707C632.317 443.317 631.684 443.317 631.293 443.707C630.903 444.098 630.903 444.731 631.293 445.121L632.707 443.707ZM691.929 502.929L632.707 443.707L631.293 445.121L690.515 504.343L691.929 502.929Z" fill="white"/>
<path d="M752.235 610.909C751.968 610.425 751.359 610.25 750.876 610.517C750.392 610.784 750.217 611.392 750.484 611.875L752.235 610.909ZM787.393 676.641L787.612 665.096L777.504 670.678L787.393 676.641ZM750.484 611.875L782.166 669.246L783.917 668.279L752.235 610.909L750.484 611.875Z" fill="white"/>
<path d="M1003.78 676.716L995.555 668.614L992.651 679.789L1003.78 676.716ZM751.968 610.251C751.434 610.113 750.888 610.433 750.749 610.968C750.61 611.502 750.931 612.048 751.465 612.187L751.968 610.251ZM995.322 673.485L751.968 610.251L751.465 612.187L994.819 675.421L995.322 673.485Z" fill="white"/>
<path d="M507.468 613.172C508.007 613.049 508.344 612.513 508.221 611.975C508.098 611.437 507.562 611.1 507.024 611.222L507.468 613.172ZM224.196 676.753L235.229 680.158L232.662 668.9L224.196 676.753ZM507.024 611.222L232.748 673.776L233.193 675.726L507.468 613.172L507.024 611.222Z" fill="white"/>
<path d="M459.785 677.602L470.36 672.966L461.058 666.125L459.785 677.602ZM509.406 611.806C509.733 611.361 509.638 610.735 509.193 610.408C508.748 610.08 508.122 610.176 507.795 610.621L509.406 611.806ZM465.922 670.943L509.406 611.806L507.795 610.621L464.311 669.759L465.922 670.943Z" fill="white"/>
<path d="M462 844L467.774 834H456.226L462 844ZM463 778C463 777.448 462.552 777 462 777C461.448 777 461 777.448 461 778H463ZM463 835V778H461V835H463Z" fill="white"/>
<path d="M1024 844L1029.77 834H1018.23L1024 844ZM1025 778C1025 777.448 1024.55 777 1024 777C1023.45 777 1023 777.448 1023 778H1025ZM1025 835V778H1023V835H1025Z" fill="white"/>
<path d="M769 844L774.774 834H763.226L769 844ZM770 778C770 777.448 769.552 777 769 777C768.448 777 768 777.448 768 778H770ZM770 835V778H768V835H770Z" fill="white"/>
<path d="M222 844L227.774 834H216.226L222 844ZM223 778C223 777.448 222.552 777 222 777C221.448 777 221 777.448 221 778H223ZM223 835V778H221V835H223Z" fill="white"/>
<path d="M1262.56 487.875H1257.58C1257.49 487.231 1257.3 486.659 1257.02 486.159C1256.74 485.652 1256.38 485.22 1255.94 484.864C1255.5 484.508 1255 484.235 1254.42 484.045C1253.85 483.856 1253.23 483.761 1252.57 483.761C1251.36 483.761 1250.31 484.061 1249.42 484.659C1248.53 485.25 1247.83 486.114 1247.34 487.25C1246.85 488.379 1246.6 489.75 1246.6 491.364C1246.6 493.023 1246.85 494.417 1247.34 495.545C1247.84 496.674 1248.54 497.527 1249.43 498.102C1250.33 498.678 1251.36 498.966 1252.53 498.966C1253.19 498.966 1253.8 498.879 1254.36 498.705C1254.93 498.53 1255.44 498.277 1255.88 497.943C1256.31 497.602 1256.68 497.189 1256.97 496.705C1257.26 496.22 1257.47 495.667 1257.58 495.045L1262.56 495.068C1262.43 496.136 1262.11 497.167 1261.59 498.159C1261.08 499.144 1260.4 500.027 1259.53 500.807C1258.68 501.58 1257.66 502.193 1256.47 502.648C1255.28 503.095 1253.95 503.318 1252.45 503.318C1250.38 503.318 1248.52 502.848 1246.89 501.909C1245.26 500.97 1243.97 499.61 1243.02 497.83C1242.08 496.049 1241.61 493.894 1241.61 491.364C1241.61 488.826 1242.09 486.667 1243.05 484.886C1244 483.106 1245.3 481.75 1246.93 480.818C1248.57 479.879 1250.41 479.409 1252.45 479.409C1253.8 479.409 1255.05 479.598 1256.2 479.977C1257.36 480.356 1258.39 480.909 1259.28 481.636C1260.18 482.356 1260.91 483.239 1261.47 484.284C1262.03 485.33 1262.4 486.527 1262.56 487.875ZM1270.84 492.909V503H1265.99V479.727H1270.7V488.625H1270.9C1271.3 487.595 1271.93 486.788 1272.81 486.205C1273.69 485.614 1274.79 485.318 1276.12 485.318C1277.33 485.318 1278.39 485.583 1279.29 486.114C1280.2 486.636 1280.9 487.39 1281.4 488.375C1281.91 489.352 1282.16 490.523 1282.15 491.886V503H1277.31V492.75C1277.32 491.674 1277.05 490.837 1276.49 490.239C1275.95 489.64 1275.18 489.341 1274.2 489.341C1273.54 489.341 1272.96 489.481 1272.45 489.761C1271.95 490.042 1271.55 490.451 1271.27 490.989C1270.99 491.519 1270.84 492.159 1270.84 492.909ZM1290.94 503.33C1289.83 503.33 1288.83 503.136 1287.96 502.75C1287.09 502.356 1286.4 501.777 1285.89 501.011C1285.39 500.239 1285.14 499.277 1285.14 498.125C1285.14 497.155 1285.32 496.341 1285.68 495.682C1286.04 495.023 1286.52 494.492 1287.13 494.091C1287.75 493.689 1288.44 493.386 1289.22 493.182C1290.01 492.977 1290.84 492.833 1291.7 492.75C1292.72 492.644 1293.54 492.545 1294.16 492.455C1294.78 492.356 1295.23 492.212 1295.51 492.023C1295.79 491.833 1295.93 491.553 1295.93 491.182V491.114C1295.93 490.394 1295.7 489.837 1295.25 489.443C1294.8 489.049 1294.16 488.852 1293.34 488.852C1292.47 488.852 1291.77 489.045 1291.26 489.432C1290.74 489.811 1290.4 490.288 1290.24 490.864L1285.76 490.5C1285.99 489.439 1286.43 488.523 1287.1 487.75C1287.77 486.97 1288.63 486.371 1289.68 485.955C1290.74 485.53 1291.97 485.318 1293.36 485.318C1294.33 485.318 1295.26 485.432 1296.14 485.659C1297.04 485.886 1297.83 486.239 1298.52 486.716C1299.22 487.193 1299.77 487.807 1300.17 488.557C1300.57 489.299 1300.77 490.189 1300.77 491.227V503H1296.18V500.58H1296.04C1295.76 501.125 1295.39 501.606 1294.92 502.023C1294.45 502.432 1293.88 502.754 1293.22 502.989C1292.57 503.216 1291.8 503.33 1290.94 503.33ZM1292.33 499.989C1293.04 499.989 1293.67 499.848 1294.21 499.568C1294.76 499.28 1295.19 498.894 1295.5 498.409C1295.81 497.924 1295.96 497.375 1295.96 496.761V494.909C1295.81 495.008 1295.6 495.098 1295.34 495.182C1295.08 495.258 1294.79 495.33 1294.46 495.398C1294.14 495.458 1293.81 495.515 1293.49 495.568C1293.16 495.614 1292.86 495.655 1292.6 495.693C1292.03 495.777 1291.54 495.909 1291.11 496.091C1290.69 496.273 1290.36 496.519 1290.12 496.83C1289.89 497.133 1289.77 497.511 1289.77 497.966C1289.77 498.625 1290.01 499.129 1290.49 499.477C1290.97 499.818 1291.58 499.989 1292.33 499.989ZM1309.37 492.909V503H1304.53V485.545H1309.14V488.625H1309.34C1309.73 487.61 1310.38 486.807 1311.29 486.216C1312.2 485.617 1313.3 485.318 1314.59 485.318C1315.81 485.318 1316.86 485.583 1317.76 486.114C1318.67 486.644 1319.37 487.402 1319.87 488.386C1320.37 489.364 1320.62 490.53 1320.62 491.886V503H1315.78V492.75C1315.78 491.682 1315.51 490.848 1314.96 490.25C1314.4 489.644 1313.64 489.341 1312.67 489.341C1312.02 489.341 1311.45 489.481 1310.95 489.761C1310.45 490.042 1310.07 490.451 1309.79 490.989C1309.51 491.519 1309.37 492.159 1309.37 492.909ZM1332.3 509.909C1330.73 509.909 1329.38 509.693 1328.26 509.261C1327.15 508.837 1326.26 508.258 1325.6 507.523C1324.94 506.788 1324.52 505.962 1324.32 505.045L1328.8 504.443C1328.93 504.792 1329.15 505.117 1329.44 505.42C1329.74 505.723 1330.13 505.966 1330.61 506.148C1331.11 506.337 1331.7 506.432 1332.41 506.432C1333.46 506.432 1334.33 506.174 1335.01 505.659C1335.7 505.152 1336.05 504.299 1336.05 503.102V499.909H1335.84C1335.63 500.394 1335.31 500.852 1334.89 501.284C1334.46 501.716 1333.92 502.068 1333.25 502.341C1332.58 502.614 1331.79 502.75 1330.86 502.75C1329.55 502.75 1328.36 502.447 1327.28 501.841C1326.22 501.227 1325.36 500.292 1324.73 499.034C1324.1 497.769 1323.78 496.17 1323.78 494.239C1323.78 492.261 1324.11 490.61 1324.75 489.284C1325.39 487.958 1326.25 486.966 1327.32 486.307C1328.39 485.648 1329.57 485.318 1330.85 485.318C1331.83 485.318 1332.65 485.485 1333.31 485.818C1333.97 486.144 1334.5 486.553 1334.9 487.045C1335.31 487.53 1335.62 488.008 1335.84 488.477H1336.02V485.545H1340.83V503.17C1340.83 504.655 1340.47 505.898 1339.74 506.898C1339.01 507.898 1338 508.648 1336.72 509.148C1335.44 509.655 1333.96 509.909 1332.3 509.909ZM1332.4 499.114C1333.18 499.114 1333.84 498.92 1334.38 498.534C1334.92 498.14 1335.34 497.58 1335.62 496.852C1335.92 496.117 1336.07 495.239 1336.07 494.216C1336.07 493.193 1335.92 492.307 1335.64 491.557C1335.35 490.799 1334.93 490.212 1334.39 489.795C1333.84 489.379 1333.18 489.17 1332.4 489.17C1331.6 489.17 1330.93 489.386 1330.39 489.818C1329.84 490.242 1329.43 490.833 1329.15 491.591C1328.87 492.348 1328.73 493.223 1328.73 494.216C1328.73 495.223 1328.87 496.095 1329.15 496.83C1329.44 497.557 1329.85 498.121 1330.39 498.523C1330.93 498.917 1331.6 499.114 1332.4 499.114ZM1352.64 503.341C1350.84 503.341 1349.3 502.977 1348 502.25C1346.71 501.515 1345.72 500.477 1345.02 499.136C1344.33 497.788 1343.98 496.193 1343.98 494.352C1343.98 492.557 1344.33 490.981 1345.02 489.625C1345.72 488.269 1346.7 487.212 1347.97 486.455C1349.24 485.697 1350.73 485.318 1352.44 485.318C1353.59 485.318 1354.67 485.504 1355.66 485.875C1356.66 486.239 1357.53 486.788 1358.27 487.523C1359.02 488.258 1359.61 489.182 1360.02 490.295C1360.44 491.402 1360.65 492.697 1360.65 494.182V495.511H1345.91V492.511H1356.09C1356.09 491.814 1355.94 491.197 1355.64 490.659C1355.33 490.121 1354.91 489.701 1354.38 489.398C1353.84 489.087 1353.23 488.932 1352.52 488.932C1351.79 488.932 1351.14 489.102 1350.57 489.443C1350.01 489.777 1349.57 490.227 1349.25 490.795C1348.93 491.356 1348.77 491.981 1348.76 492.67V495.523C1348.76 496.386 1348.92 497.133 1349.24 497.761C1349.56 498.39 1350.02 498.875 1350.61 499.216C1351.2 499.557 1351.91 499.727 1352.72 499.727C1353.25 499.727 1353.75 499.652 1354.19 499.5C1354.64 499.348 1355.02 499.121 1355.34 498.818C1355.66 498.515 1355.9 498.144 1356.07 497.705L1360.55 498C1360.32 499.076 1359.85 500.015 1359.15 500.818C1358.45 501.614 1357.55 502.235 1356.44 502.682C1355.34 503.121 1354.08 503.341 1352.64 503.341ZM1379.55 503H1371.3V479.727H1379.62C1381.96 479.727 1383.98 480.193 1385.67 481.125C1387.36 482.049 1388.66 483.379 1389.57 485.114C1390.48 486.848 1390.94 488.924 1390.94 491.341C1390.94 493.765 1390.48 495.848 1389.57 497.591C1388.66 499.333 1387.35 500.67 1385.64 501.602C1383.95 502.534 1381.92 503 1379.55 503ZM1376.22 498.784H1379.35C1380.8 498.784 1382.03 498.527 1383.02 498.011C1384.02 497.489 1384.77 496.682 1385.27 495.591C1385.78 494.492 1386.03 493.076 1386.03 491.341C1386.03 489.621 1385.78 488.216 1385.27 487.125C1384.77 486.034 1384.02 485.231 1383.03 484.716C1382.04 484.201 1380.82 483.943 1379.36 483.943H1376.22V498.784ZM1402.45 503.341C1400.65 503.341 1399.11 502.977 1397.81 502.25C1396.52 501.515 1395.53 500.477 1394.84 499.136C1394.14 497.788 1393.79 496.193 1393.79 494.352C1393.79 492.557 1394.14 490.981 1394.84 489.625C1395.53 488.269 1396.51 487.212 1397.78 486.455C1399.05 485.697 1400.54 485.318 1402.26 485.318C1403.41 485.318 1404.48 485.504 1405.47 485.875C1406.47 486.239 1407.34 486.788 1408.09 487.523C1408.84 488.258 1409.42 489.182 1409.84 490.295C1410.25 491.402 1410.46 492.697 1410.46 494.182V495.511H1395.72V492.511H1405.9C1405.9 491.814 1405.75 491.197 1405.45 490.659C1405.15 490.121 1404.73 489.701 1404.19 489.398C1403.66 489.087 1403.04 488.932 1402.34 488.932C1401.6 488.932 1400.95 489.102 1400.38 489.443C1399.82 489.777 1399.38 490.227 1399.06 490.795C1398.74 491.356 1398.58 491.981 1398.57 492.67V495.523C1398.57 496.386 1398.73 497.133 1399.05 497.761C1399.38 498.39 1399.84 498.875 1400.43 499.216C1401.02 499.557 1401.72 499.727 1402.53 499.727C1403.07 499.727 1403.56 499.652 1404.01 499.5C1404.45 499.348 1404.84 499.121 1405.15 498.818C1405.47 498.515 1405.71 498.144 1405.88 497.705L1410.36 498C1410.13 499.076 1409.66 500.015 1408.96 500.818C1408.26 501.614 1407.36 502.235 1406.26 502.682C1405.16 503.121 1403.89 503.341 1402.45 503.341ZM1422.9 485.545V489.182H1412.39V485.545H1422.9ZM1414.78 481.364H1419.62V497.636C1419.62 498.083 1419.69 498.432 1419.82 498.682C1419.96 498.924 1420.15 499.095 1420.39 499.193C1420.64 499.292 1420.93 499.341 1421.26 499.341C1421.48 499.341 1421.71 499.322 1421.94 499.284C1422.16 499.239 1422.34 499.205 1422.46 499.182L1423.22 502.784C1422.98 502.86 1422.64 502.947 1422.2 503.045C1421.76 503.152 1421.23 503.216 1420.6 503.239C1419.43 503.284 1418.41 503.129 1417.53 502.773C1416.66 502.417 1415.98 501.864 1415.49 501.114C1415.01 500.364 1414.77 499.417 1414.78 498.273V481.364ZM1433.82 503.341C1432.03 503.341 1430.48 502.977 1429.19 502.25C1427.9 501.515 1426.91 500.477 1426.21 499.136C1425.51 497.788 1425.16 496.193 1425.16 494.352C1425.16 492.557 1425.51 490.981 1426.21 489.625C1426.91 488.269 1427.89 487.212 1429.15 486.455C1430.43 485.697 1431.92 485.318 1433.63 485.318C1434.78 485.318 1435.85 485.504 1436.85 485.875C1437.85 486.239 1438.72 486.788 1439.46 487.523C1440.21 488.258 1440.79 489.182 1441.21 490.295C1441.63 491.402 1441.84 492.697 1441.84 494.182V495.511H1427.1V492.511H1437.28C1437.28 491.814 1437.13 491.197 1436.82 490.659C1436.52 490.121 1436.1 489.701 1435.56 489.398C1435.03 489.087 1434.41 488.932 1433.71 488.932C1432.98 488.932 1432.32 489.102 1431.76 489.443C1431.2 489.777 1430.76 490.227 1430.44 490.795C1430.12 491.356 1429.96 491.981 1429.95 492.67V495.523C1429.95 496.386 1430.11 497.133 1430.43 497.761C1430.75 498.39 1431.21 498.875 1431.8 499.216C1432.39 499.557 1433.09 499.727 1433.9 499.727C1434.44 499.727 1434.93 499.652 1435.38 499.5C1435.83 499.348 1436.21 499.121 1436.53 498.818C1436.85 498.515 1437.09 498.144 1437.26 497.705L1441.73 498C1441.51 499.076 1441.04 500.015 1440.34 500.818C1439.64 501.614 1438.74 502.235 1437.63 502.682C1436.53 503.121 1435.26 503.341 1433.82 503.341ZM1452.88 503.341C1451.09 503.341 1449.55 502.962 1448.27 502.205C1446.99 501.439 1446 500.379 1445.31 499.023C1444.63 497.667 1444.29 496.106 1444.29 494.341C1444.29 492.553 1444.63 490.985 1445.32 489.636C1446.02 488.28 1447.01 487.223 1448.29 486.466C1449.57 485.701 1451.09 485.318 1452.86 485.318C1454.38 485.318 1455.71 485.595 1456.86 486.148C1458 486.701 1458.91 487.477 1459.57 488.477C1460.24 489.477 1460.61 490.652 1460.68 492H1456.11C1455.98 491.129 1455.64 490.428 1455.09 489.898C1454.54 489.36 1453.82 489.091 1452.94 489.091C1452.19 489.091 1451.53 489.295 1450.97 489.705C1450.42 490.106 1449.99 490.693 1449.68 491.466C1449.37 492.239 1449.21 493.174 1449.21 494.273C1449.21 495.386 1449.36 496.333 1449.66 497.114C1449.98 497.894 1450.41 498.489 1450.97 498.898C1451.53 499.307 1452.19 499.511 1452.94 499.511C1453.49 499.511 1453.99 499.398 1454.43 499.17C1454.87 498.943 1455.24 498.614 1455.53 498.182C1455.82 497.742 1456.02 497.216 1456.11 496.602H1460.68C1460.6 497.936 1460.24 499.11 1459.59 500.125C1458.94 501.133 1458.05 501.92 1456.91 502.489C1455.78 503.057 1454.43 503.341 1452.88 503.341ZM1473.06 485.545V489.182H1462.55V485.545H1473.06ZM1464.93 481.364H1469.78V497.636C1469.78 498.083 1469.84 498.432 1469.98 498.682C1470.12 498.924 1470.31 499.095 1470.55 499.193C1470.8 499.292 1471.09 499.341 1471.41 499.341C1471.64 499.341 1471.87 499.322 1472.09 499.284C1472.32 499.239 1472.5 499.205 1472.62 499.182L1473.38 502.784C1473.14 502.86 1472.79 502.947 1472.36 503.045C1471.92 503.152 1471.38 503.216 1470.75 503.239C1469.59 503.284 1468.56 503.129 1467.68 502.773C1466.81 502.417 1466.14 501.864 1465.65 501.114C1465.17 500.364 1464.93 499.417 1464.93 498.273V481.364ZM1476.21 503V485.545H1481.05V503H1476.21ZM1478.64 483.295C1477.93 483.295 1477.31 483.057 1476.79 482.58C1476.29 482.095 1476.03 481.515 1476.03 480.841C1476.03 480.174 1476.29 479.602 1476.79 479.125C1477.31 478.64 1477.93 478.398 1478.64 478.398C1479.36 478.398 1479.98 478.64 1480.49 479.125C1481 479.602 1481.26 480.174 1481.26 480.841C1481.26 481.515 1481 482.095 1480.49 482.58C1479.98 483.057 1479.36 483.295 1478.64 483.295ZM1492.82 503.341C1491.05 503.341 1489.53 502.966 1488.24 502.216C1486.96 501.458 1485.97 500.405 1485.27 499.057C1484.58 497.701 1484.23 496.129 1484.23 494.341C1484.23 492.538 1484.58 490.962 1485.27 489.614C1485.97 488.258 1486.96 487.205 1488.24 486.455C1489.53 485.697 1491.05 485.318 1492.82 485.318C1494.58 485.318 1496.11 485.697 1497.39 486.455C1498.67 487.205 1499.67 488.258 1500.36 489.614C1501.06 490.962 1501.41 492.538 1501.41 494.341C1501.41 496.129 1501.06 497.701 1500.36 499.057C1499.67 500.405 1498.67 501.458 1497.39 502.216C1496.11 502.966 1494.58 503.341 1492.82 503.341ZM1492.84 499.591C1493.64 499.591 1494.31 499.364 1494.85 498.909C1495.39 498.447 1495.8 497.818 1496.07 497.023C1496.35 496.227 1496.49 495.322 1496.49 494.307C1496.49 493.292 1496.35 492.386 1496.07 491.591C1495.8 490.795 1495.39 490.167 1494.85 489.705C1494.31 489.242 1493.64 489.011 1492.84 489.011C1492.03 489.011 1491.35 489.242 1490.8 489.705C1490.25 490.167 1489.84 490.795 1489.56 491.591C1489.28 492.386 1489.15 493.292 1489.15 494.307C1489.15 495.322 1489.28 496.227 1489.56 497.023C1489.84 497.818 1490.25 498.447 1490.8 498.909C1491.35 499.364 1492.03 499.591 1492.84 499.591ZM1509.4 492.909V503H1504.56V485.545H1509.17V488.625H1509.38C1509.76 487.61 1510.41 486.807 1511.32 486.216C1512.23 485.617 1513.33 485.318 1514.62 485.318C1515.84 485.318 1516.89 485.583 1517.8 486.114C1518.7 486.644 1519.4 487.402 1519.9 488.386C1520.4 489.364 1520.65 490.53 1520.65 491.886V503H1515.81V492.75C1515.81 491.682 1515.54 490.848 1514.99 490.25C1514.44 489.644 1513.67 489.341 1512.7 489.341C1512.05 489.341 1511.48 489.481 1510.98 489.761C1510.48 490.042 1510.1 490.451 1509.82 490.989C1509.55 491.519 1509.41 492.159 1509.4 492.909ZM1531.87 503V485.545H1536.71V503H1531.87ZM1534.3 483.295C1533.58 483.295 1532.96 483.057 1532.45 482.58C1531.94 482.095 1531.69 481.515 1531.69 480.841C1531.69 480.174 1531.94 479.602 1532.45 479.125C1532.96 478.64 1533.58 478.398 1534.3 478.398C1535.02 478.398 1535.63 478.64 1536.14 479.125C1536.66 479.602 1536.91 480.174 1536.91 480.841C1536.91 481.515 1536.66 482.095 1536.14 482.58C1535.63 483.057 1535.02 483.295 1534.3 483.295ZM1555.11 490.523L1550.68 490.795C1550.6 490.417 1550.44 490.076 1550.19 489.773C1549.94 489.462 1549.61 489.216 1549.2 489.034C1548.8 488.845 1548.32 488.75 1547.76 488.75C1547.01 488.75 1546.38 488.909 1545.86 489.227C1545.35 489.538 1545.09 489.955 1545.09 490.477C1545.09 490.894 1545.25 491.246 1545.59 491.534C1545.92 491.822 1546.49 492.053 1547.3 492.227L1550.46 492.864C1552.16 493.212 1553.43 493.773 1554.26 494.545C1555.09 495.318 1555.51 496.333 1555.51 497.591C1555.51 498.735 1555.17 499.739 1554.5 500.602C1553.83 501.466 1552.91 502.14 1551.75 502.625C1550.59 503.102 1549.25 503.341 1547.74 503.341C1545.43 503.341 1543.58 502.86 1542.21 501.898C1540.85 500.928 1540.05 499.61 1539.82 497.943L1544.58 497.693C1544.72 498.398 1545.07 498.936 1545.62 499.307C1546.18 499.67 1546.88 499.852 1547.75 499.852C1548.6 499.852 1549.28 499.689 1549.79 499.364C1550.32 499.03 1550.58 498.602 1550.59 498.08C1550.58 497.64 1550.39 497.28 1550.03 497C1549.67 496.712 1549.11 496.492 1548.35 496.341L1545.33 495.739C1543.62 495.398 1542.35 494.807 1541.52 493.966C1540.69 493.125 1540.28 492.053 1540.28 490.75C1540.28 489.629 1540.58 488.663 1541.19 487.852C1541.8 487.042 1542.66 486.417 1543.77 485.977C1544.88 485.538 1546.19 485.318 1547.68 485.318C1549.88 485.318 1551.62 485.784 1552.88 486.716C1554.16 487.648 1554.9 488.917 1555.11 490.523ZM1570.94 503.33C1569.83 503.33 1568.83 503.136 1567.96 502.75C1567.09 502.356 1566.4 501.777 1565.89 501.011C1565.39 500.239 1565.14 499.277 1565.14 498.125C1565.14 497.155 1565.32 496.341 1565.68 495.682C1566.04 495.023 1566.52 494.492 1567.13 494.091C1567.75 493.689 1568.44 493.386 1569.22 493.182C1570.01 492.977 1570.84 492.833 1571.7 492.75C1572.72 492.644 1573.54 492.545 1574.16 492.455C1574.78 492.356 1575.23 492.212 1575.51 492.023C1575.79 491.833 1575.93 491.553 1575.93 491.182V491.114C1575.93 490.394 1575.7 489.837 1575.25 489.443C1574.8 489.049 1574.16 488.852 1573.34 488.852C1572.47 488.852 1571.77 489.045 1571.26 489.432C1570.74 489.811 1570.4 490.288 1570.24 490.864L1565.76 490.5C1565.99 489.439 1566.43 488.523 1567.1 487.75C1567.77 486.97 1568.63 486.371 1569.68 485.955C1570.74 485.53 1571.97 485.318 1573.36 485.318C1574.33 485.318 1575.26 485.432 1576.14 485.659C1577.04 485.886 1577.83 486.239 1578.52 486.716C1579.22 487.193 1579.77 487.807 1580.17 488.557C1580.57 489.299 1580.77 490.189 1580.77 491.227V503H1576.18V500.58H1576.04C1575.76 501.125 1575.39 501.606 1574.92 502.023C1574.45 502.432 1573.88 502.754 1573.22 502.989C1572.57 503.216 1571.8 503.33 1570.94 503.33ZM1572.33 499.989C1573.04 499.989 1573.67 499.848 1574.21 499.568C1574.76 499.28 1575.19 498.894 1575.5 498.409C1575.81 497.924 1575.96 497.375 1575.96 496.761V494.909C1575.81 495.008 1575.6 495.098 1575.34 495.182C1575.08 495.258 1574.79 495.33 1574.46 495.398C1574.14 495.458 1573.81 495.515 1573.49 495.568C1573.16 495.614 1572.86 495.655 1572.6 495.693C1572.03 495.777 1571.54 495.909 1571.11 496.091C1570.69 496.273 1570.36 496.519 1570.12 496.83C1569.89 497.133 1569.77 497.511 1569.77 497.966C1569.77 498.625 1570.01 499.129 1570.49 499.477C1570.97 499.818 1571.58 499.989 1572.33 499.989ZM1589.37 479.727V503H1584.53V479.727H1589.37ZM1596.69 503L1591.94 485.545H1596.84L1599.54 497.273H1599.7L1602.52 485.545H1607.32L1610.19 497.205H1610.34L1612.99 485.545H1617.88L1613.14 503H1608.02L1605.02 492.023H1604.8L1601.8 503H1596.69ZM1625.44 503.33C1624.33 503.33 1623.33 503.136 1622.46 502.75C1621.59 502.356 1620.9 501.777 1620.39 501.011C1619.89 500.239 1619.64 499.277 1619.64 498.125C1619.64 497.155 1619.82 496.341 1620.18 495.682C1620.54 495.023 1621.02 494.492 1621.63 494.091C1622.25 493.689 1622.94 493.386 1623.72 493.182C1624.51 492.977 1625.34 492.833 1626.2 492.75C1627.22 492.644 1628.04 492.545 1628.66 492.455C1629.28 492.356 1629.73 492.212 1630.01 492.023C1630.29 491.833 1630.43 491.553 1630.43 491.182V491.114C1630.43 490.394 1630.2 489.837 1629.75 489.443C1629.3 489.049 1628.66 488.852 1627.84 488.852C1626.97 488.852 1626.27 489.045 1625.76 489.432C1625.24 489.811 1624.9 490.288 1624.74 490.864L1620.26 490.5C1620.49 489.439 1620.93 488.523 1621.6 487.75C1622.27 486.97 1623.13 486.371 1624.18 485.955C1625.24 485.53 1626.47 485.318 1627.86 485.318C1628.83 485.318 1629.76 485.432 1630.64 485.659C1631.54 485.886 1632.33 486.239 1633.02 486.716C1633.72 487.193 1634.27 487.807 1634.67 488.557C1635.07 489.299 1635.27 490.189 1635.27 491.227V503H1630.68V500.58H1630.54C1630.26 501.125 1629.89 501.606 1629.42 502.023C1628.95 502.432 1628.38 502.754 1627.72 502.989C1627.07 503.216 1626.3 503.33 1625.44 503.33ZM1626.83 499.989C1627.54 499.989 1628.17 499.848 1628.71 499.568C1629.26 499.28 1629.69 498.894 1630 498.409C1630.31 497.924 1630.46 497.375 1630.46 496.761V494.909C1630.31 495.008 1630.1 495.098 1629.84 495.182C1629.58 495.258 1629.29 495.33 1628.96 495.398C1628.64 495.458 1628.31 495.515 1627.99 495.568C1627.66 495.614 1627.36 495.655 1627.1 495.693C1626.53 495.777 1626.04 495.909 1625.61 496.091C1625.19 496.273 1624.86 496.519 1624.62 496.83C1624.39 497.133 1624.27 497.511 1624.27 497.966C1624.27 498.625 1624.51 499.129 1624.99 499.477C1625.47 499.818 1626.08 499.989 1626.83 499.989ZM1641.39 509.545C1640.78 509.545 1640.2 509.496 1639.66 509.398C1639.13 509.307 1638.69 509.189 1638.34 509.045L1639.43 505.432C1640 505.606 1640.51 505.701 1640.97 505.716C1641.43 505.731 1641.83 505.625 1642.16 505.398C1642.5 505.17 1642.78 504.784 1642.99 504.239L1643.28 503.5L1637.01 485.545H1642.11L1645.72 498.364H1645.9L1649.55 485.545H1654.67L1647.89 504.886C1647.56 505.826 1647.12 506.644 1646.56 507.341C1646.01 508.045 1645.31 508.587 1644.46 508.966C1643.61 509.352 1642.59 509.545 1641.39 509.545ZM1671.67 490.523L1667.24 490.795C1667.17 490.417 1667 490.076 1666.75 489.773C1666.5 489.462 1666.17 489.216 1665.76 489.034C1665.36 488.845 1664.88 488.75 1664.32 488.75C1663.57 488.75 1662.94 488.909 1662.42 489.227C1661.91 489.538 1661.65 489.955 1661.65 490.477C1661.65 490.894 1661.82 491.246 1662.15 491.534C1662.48 491.822 1663.06 492.053 1663.87 492.227L1667.03 492.864C1668.72 493.212 1669.99 493.773 1670.82 494.545C1671.65 495.318 1672.07 496.333 1672.07 497.591C1672.07 498.735 1671.73 499.739 1671.06 500.602C1670.39 501.466 1669.48 502.14 1668.31 502.625C1667.15 503.102 1665.81 503.341 1664.3 503.341C1661.99 503.341 1660.15 502.86 1658.78 501.898C1657.41 500.928 1656.61 499.61 1656.38 497.943L1661.14 497.693C1661.28 498.398 1661.63 498.936 1662.18 499.307C1662.74 499.67 1663.45 499.852 1664.31 499.852C1665.16 499.852 1665.84 499.689 1666.36 499.364C1666.88 499.03 1667.14 498.602 1667.15 498.08C1667.14 497.64 1666.96 497.28 1666.59 497C1666.23 496.712 1665.67 496.492 1664.91 496.341L1661.89 495.739C1660.18 495.398 1658.92 494.807 1658.08 493.966C1657.26 493.125 1656.84 492.053 1656.84 490.75C1656.84 489.629 1657.15 488.663 1657.75 487.852C1658.37 487.042 1659.23 486.417 1660.33 485.977C1661.45 485.538 1662.75 485.318 1664.24 485.318C1666.45 485.318 1668.18 485.784 1669.45 486.716C1670.72 487.648 1671.46 488.917 1671.67 490.523ZM1241.93 548.545V524.545H1246.7V527.477H1246.92C1247.13 527.008 1247.44 526.53 1247.84 526.045C1248.25 525.553 1248.78 525.144 1249.43 524.818C1250.09 524.485 1250.91 524.318 1251.89 524.318C1253.16 524.318 1254.33 524.652 1255.41 525.318C1256.48 525.977 1257.34 526.973 1257.99 528.307C1258.63 529.633 1258.95 531.295 1258.95 533.295C1258.95 535.242 1258.64 536.886 1258.01 538.227C1257.39 539.561 1256.54 540.572 1255.47 541.261C1254.4 541.943 1253.2 542.284 1251.88 542.284C1250.94 542.284 1250.14 542.129 1249.48 541.818C1248.83 541.508 1248.29 541.117 1247.88 540.648C1247.46 540.17 1247.14 539.689 1246.92 539.205H1246.77V548.545H1241.93ZM1246.67 533.273C1246.67 534.311 1246.81 535.216 1247.1 535.989C1247.39 536.761 1247.81 537.364 1248.35 537.795C1248.9 538.22 1249.56 538.432 1250.34 538.432C1251.13 538.432 1251.8 538.216 1252.34 537.784C1252.89 537.345 1253.3 536.739 1253.58 535.966C1253.87 535.186 1254.01 534.288 1254.01 533.273C1254.01 532.265 1253.87 531.379 1253.59 530.614C1253.31 529.848 1252.9 529.25 1252.35 528.818C1251.81 528.386 1251.14 528.17 1250.34 528.17C1249.55 528.17 1248.89 528.379 1248.34 528.795C1247.8 529.212 1247.39 529.803 1247.1 530.568C1246.81 531.333 1246.67 532.235 1246.67 533.273ZM1270.14 542.341C1268.34 542.341 1266.8 541.977 1265.5 541.25C1264.21 540.515 1263.22 539.477 1262.52 538.136C1261.83 536.788 1261.48 535.193 1261.48 533.352C1261.48 531.557 1261.83 529.981 1262.52 528.625C1263.22 527.269 1264.2 526.212 1265.47 525.455C1266.74 524.697 1268.23 524.318 1269.94 524.318C1271.09 524.318 1272.17 524.504 1273.16 524.875C1274.16 525.239 1275.03 525.788 1275.77 526.523C1276.52 527.258 1277.11 528.182 1277.52 529.295C1277.94 530.402 1278.15 531.697 1278.15 533.182V534.511H1263.41V531.511H1273.59C1273.59 530.814 1273.44 530.197 1273.14 529.659C1272.83 529.121 1272.41 528.701 1271.88 528.398C1271.34 528.087 1270.73 527.932 1270.02 527.932C1269.29 527.932 1268.64 528.102 1268.07 528.443C1267.51 528.777 1267.07 529.227 1266.75 529.795C1266.43 530.356 1266.27 530.981 1266.26 531.67V534.523C1266.26 535.386 1266.42 536.133 1266.74 536.761C1267.06 537.39 1267.52 537.875 1268.11 538.216C1268.7 538.557 1269.41 538.727 1270.22 538.727C1270.75 538.727 1271.25 538.652 1271.69 538.5C1272.14 538.348 1272.52 538.121 1272.84 537.818C1273.16 537.515 1273.4 537.144 1273.57 536.705L1278.05 537C1277.82 538.076 1277.35 539.015 1276.65 539.818C1275.95 540.614 1275.05 541.235 1273.94 541.682C1272.84 542.121 1271.58 542.341 1270.14 542.341ZM1281.31 542V524.545H1286V527.591H1286.18C1286.5 526.508 1287.03 525.689 1287.78 525.136C1288.53 524.576 1289.4 524.295 1290.38 524.295C1290.62 524.295 1290.88 524.311 1291.16 524.341C1291.44 524.371 1291.69 524.413 1291.9 524.466V528.761C1291.67 528.693 1291.36 528.633 1290.95 528.58C1290.55 528.527 1290.19 528.5 1289.85 528.5C1289.14 528.5 1288.5 528.655 1287.94 528.966C1287.39 529.269 1286.95 529.693 1286.62 530.239C1286.31 530.784 1286.15 531.413 1286.15 532.125V542H1281.31ZM1304.66 524.545V528.182H1293.89V524.545H1304.66ZM1296.36 542V523.284C1296.36 522.019 1296.6 520.97 1297.09 520.136C1297.59 519.303 1298.28 518.678 1299.14 518.261C1300 517.845 1300.98 517.636 1302.08 517.636C1302.82 517.636 1303.5 517.693 1304.12 517.807C1304.74 517.92 1305.2 518.023 1305.5 518.114L1304.64 521.75C1304.45 521.689 1304.21 521.633 1303.93 521.58C1303.66 521.527 1303.38 521.5 1303.09 521.5C1302.38 521.5 1301.89 521.667 1301.61 522C1301.32 522.326 1301.18 522.784 1301.18 523.375V542H1296.36ZM1314.88 542.341C1313.12 542.341 1311.59 541.966 1310.3 541.216C1309.02 540.458 1308.03 539.405 1307.34 538.057C1306.64 536.701 1306.29 535.129 1306.29 533.341C1306.29 531.538 1306.64 529.962 1307.34 528.614C1308.03 527.258 1309.02 526.205 1310.3 525.455C1311.59 524.697 1313.12 524.318 1314.88 524.318C1316.65 524.318 1318.17 524.697 1319.45 525.455C1320.74 526.205 1321.73 527.258 1322.43 528.614C1323.12 529.962 1323.47 531.538 1323.47 533.341C1323.47 535.129 1323.12 536.701 1322.43 538.057C1321.73 539.405 1320.74 540.458 1319.45 541.216C1318.17 541.966 1316.65 542.341 1314.88 542.341ZM1314.9 538.591C1315.71 538.591 1316.38 538.364 1316.91 537.909C1317.45 537.447 1317.86 536.818 1318.13 536.023C1318.41 535.227 1318.55 534.322 1318.55 533.307C1318.55 532.292 1318.41 531.386 1318.13 530.591C1317.86 529.795 1317.45 529.167 1316.91 528.705C1316.38 528.242 1315.71 528.011 1314.9 528.011C1314.09 528.011 1313.41 528.242 1312.86 528.705C1312.31 529.167 1311.9 529.795 1311.62 530.591C1311.35 531.386 1311.21 532.292 1311.21 533.307C1311.21 534.322 1311.35 535.227 1311.62 536.023C1311.9 536.818 1312.31 537.447 1312.86 537.909C1313.41 538.364 1314.09 538.591 1314.9 538.591ZM1326.62 542V524.545H1331.31V527.591H1331.49C1331.81 526.508 1332.35 525.689 1333.1 525.136C1333.85 524.576 1334.71 524.295 1335.69 524.295C1335.93 524.295 1336.19 524.311 1336.47 524.341C1336.75 524.371 1337 524.413 1337.21 524.466V528.761C1336.98 528.693 1336.67 528.633 1336.27 528.58C1335.87 528.527 1335.5 528.5 1335.16 528.5C1334.45 528.5 1333.82 528.655 1333.26 528.966C1332.7 529.269 1332.26 529.693 1331.94 530.239C1331.62 530.784 1331.46 531.413 1331.46 532.125V542H1326.62ZM1339.71 542V524.545H1344.33V527.625H1344.53C1344.89 526.602 1345.5 525.795 1346.35 525.205C1347.2 524.614 1348.21 524.318 1349.39 524.318C1350.59 524.318 1351.61 524.617 1352.45 525.216C1353.29 525.807 1353.85 526.61 1354.13 527.625H1354.32C1354.67 526.625 1355.32 525.826 1356.25 525.227C1357.19 524.621 1358.3 524.318 1359.58 524.318C1361.21 524.318 1362.53 524.837 1363.54 525.875C1364.57 526.905 1365.08 528.367 1365.08 530.261V542H1360.25V531.216C1360.25 530.246 1359.99 529.519 1359.47 529.034C1358.96 528.549 1358.32 528.307 1357.54 528.307C1356.66 528.307 1355.98 528.587 1355.49 529.148C1354.99 529.701 1354.75 530.432 1354.75 531.341V542H1350.05V531.114C1350.05 530.258 1349.81 529.576 1349.32 529.068C1348.83 528.561 1348.19 528.307 1347.39 528.307C1346.86 528.307 1346.37 528.443 1345.94 528.716C1345.52 528.981 1345.18 529.356 1344.93 529.841C1344.68 530.318 1344.55 530.879 1344.55 531.523V542H1339.71ZM1376.86 542.341C1375.06 542.341 1373.51 541.977 1372.22 541.25C1370.93 540.515 1369.94 539.477 1369.24 538.136C1368.54 536.788 1368.2 535.193 1368.2 533.352C1368.2 531.557 1368.54 529.981 1369.24 528.625C1369.94 527.269 1370.92 526.212 1372.18 525.455C1373.46 524.697 1374.95 524.318 1376.66 524.318C1377.81 524.318 1378.89 524.504 1379.88 524.875C1380.88 525.239 1381.75 525.788 1382.49 526.523C1383.24 527.258 1383.82 528.182 1384.24 529.295C1384.66 530.402 1384.87 531.697 1384.87 533.182V534.511H1370.13V531.511H1380.31C1380.31 530.814 1380.16 530.197 1379.86 529.659C1379.55 529.121 1379.13 528.701 1378.59 528.398C1378.06 528.087 1377.45 527.932 1376.74 527.932C1376.01 527.932 1375.36 528.102 1374.79 528.443C1374.23 528.777 1373.79 529.227 1373.47 529.795C1373.15 530.356 1372.99 530.981 1372.98 531.67V534.523C1372.98 535.386 1373.14 536.133 1373.46 536.761C1373.78 537.39 1374.24 537.875 1374.83 538.216C1375.42 538.557 1376.12 538.727 1376.93 538.727C1377.47 538.727 1377.96 538.652 1378.41 538.5C1378.86 538.348 1379.24 538.121 1379.56 537.818C1379.88 537.515 1380.12 537.144 1380.29 536.705L1384.76 537C1384.54 538.076 1384.07 539.015 1383.37 539.818C1382.67 540.614 1381.77 541.235 1380.66 541.682C1379.56 542.121 1378.29 542.341 1376.86 542.341ZM1394.46 542.284C1393.13 542.284 1391.93 541.943 1390.86 541.261C1389.79 540.572 1388.94 539.561 1388.31 538.227C1387.69 536.886 1387.38 535.242 1387.38 533.295C1387.38 531.295 1387.7 529.633 1388.34 528.307C1388.99 526.973 1389.84 525.977 1390.91 525.318C1391.99 524.652 1393.17 524.318 1394.45 524.318C1395.42 524.318 1396.24 524.485 1396.89 524.818C1397.55 525.144 1398.08 525.553 1398.48 526.045C1398.89 526.53 1399.2 527.008 1399.41 527.477H1399.56V518.727H1404.39V542H1399.62V539.205H1399.41C1399.18 539.689 1398.86 540.17 1398.45 540.648C1398.04 541.117 1397.5 541.508 1396.84 541.818C1396.19 542.129 1395.4 542.284 1394.46 542.284ZM1395.99 538.432C1396.77 538.432 1397.43 538.22 1397.97 537.795C1398.51 537.364 1398.93 536.761 1399.22 535.989C1399.51 535.216 1399.66 534.311 1399.66 533.273C1399.66 532.235 1399.52 531.333 1399.23 530.568C1398.94 529.803 1398.53 529.212 1397.98 528.795C1397.43 528.379 1396.77 528.17 1395.99 528.17C1395.2 528.17 1394.53 528.386 1393.98 528.818C1393.43 529.25 1393.02 529.848 1392.74 530.614C1392.46 531.379 1392.32 532.265 1392.32 533.273C1392.32 534.288 1392.46 535.186 1392.74 535.966C1393.03 536.739 1393.44 537.345 1393.98 537.784C1394.53 538.216 1395.2 538.432 1395.99 538.432ZM1415.78 542V524.545H1420.62V542H1415.78ZM1418.21 522.295C1417.49 522.295 1416.87 522.057 1416.36 521.58C1415.85 521.095 1415.59 520.515 1415.59 519.841C1415.59 519.174 1415.85 518.602 1416.36 518.125C1416.87 517.64 1417.49 517.398 1418.21 517.398C1418.93 517.398 1419.54 517.64 1420.05 518.125C1420.56 518.602 1420.82 519.174 1420.82 519.841C1420.82 520.515 1420.56 521.095 1420.05 521.58C1419.54 522.057 1418.93 522.295 1418.21 522.295ZM1429.34 531.909V542H1424.49V524.545H1429.11V527.625H1429.31C1429.7 526.61 1430.35 525.807 1431.26 525.216C1432.16 524.617 1433.27 524.318 1434.56 524.318C1435.77 524.318 1436.83 524.583 1437.73 525.114C1438.63 525.644 1439.34 526.402 1439.84 527.386C1440.34 528.364 1440.59 529.53 1440.59 530.886V542H1435.74V531.75C1435.75 530.682 1435.48 529.848 1434.93 529.25C1434.37 528.644 1433.61 528.341 1432.64 528.341C1431.99 528.341 1431.41 528.481 1430.91 528.761C1430.42 529.042 1430.04 529.451 1429.76 529.989C1429.48 530.519 1429.34 531.159 1429.34 531.909ZM1461.09 524.545V528.182H1450.58V524.545H1461.09ZM1452.97 520.364H1457.81V536.636C1457.81 537.083 1457.88 537.432 1458.01 537.682C1458.15 537.924 1458.34 538.095 1458.58 538.193C1458.83 538.292 1459.12 538.341 1459.44 538.341C1459.67 538.341 1459.9 538.322 1460.12 538.284C1460.35 538.239 1460.53 538.205 1460.65 538.182L1461.41 541.784C1461.17 541.86 1460.83 541.947 1460.39 542.045C1459.95 542.152 1459.41 542.216 1458.78 542.239C1457.62 542.284 1456.59 542.129 1455.72 541.773C1454.84 541.417 1454.17 540.864 1453.68 540.114C1453.2 539.364 1452.96 538.417 1452.97 537.273V520.364ZM1469.46 531.909V542H1464.62V518.727H1469.32V527.625H1469.53C1469.92 526.595 1470.56 525.788 1471.44 525.205C1472.32 524.614 1473.42 524.318 1474.74 524.318C1475.96 524.318 1477.01 524.583 1477.91 525.114C1478.82 525.636 1479.53 526.39 1480.03 527.375C1480.54 528.352 1480.79 529.523 1480.78 530.886V542H1475.94V531.75C1475.95 530.674 1475.67 529.837 1475.12 529.239C1474.57 528.64 1473.81 528.341 1472.82 528.341C1472.16 528.341 1471.58 528.481 1471.07 528.761C1470.57 529.042 1470.18 529.451 1469.89 529.989C1469.61 530.519 1469.47 531.159 1469.46 531.909ZM1492.54 542.341C1490.75 542.341 1489.2 541.977 1487.91 541.25C1486.62 540.515 1485.63 539.477 1484.93 538.136C1484.23 536.788 1483.88 535.193 1483.88 533.352C1483.88 531.557 1484.23 529.981 1484.93 528.625C1485.63 527.269 1486.61 526.212 1487.87 525.455C1489.14 524.697 1490.64 524.318 1492.35 524.318C1493.5 524.318 1494.57 524.504 1495.57 524.875C1496.57 525.239 1497.44 525.788 1498.18 526.523C1498.93 527.258 1499.51 528.182 1499.93 529.295C1500.35 530.402 1500.55 531.697 1500.55 533.182V534.511H1485.82V531.511H1496C1496 530.814 1495.85 530.197 1495.54 529.659C1495.24 529.121 1494.82 528.701 1494.28 528.398C1493.75 528.087 1493.13 527.932 1492.43 527.932C1491.69 527.932 1491.04 528.102 1490.47 528.443C1489.91 528.777 1489.47 529.227 1489.16 529.795C1488.84 530.356 1488.68 530.981 1488.67 531.67V534.523C1488.67 535.386 1488.83 536.133 1489.14 536.761C1489.47 537.39 1489.93 537.875 1490.52 538.216C1491.11 538.557 1491.81 538.727 1492.62 538.727C1493.16 538.727 1493.65 538.652 1494.1 538.5C1494.55 538.348 1494.93 538.121 1495.25 537.818C1495.57 537.515 1495.81 537.144 1495.97 536.705L1500.45 537C1500.22 538.076 1499.76 539.015 1499.05 539.818C1498.36 540.614 1497.46 541.235 1496.35 541.682C1495.25 542.121 1493.98 542.341 1492.54 542.341ZM1525.64 529.523L1521.21 529.795C1521.13 529.417 1520.97 529.076 1520.72 528.773C1520.47 528.462 1520.14 528.216 1519.73 528.034C1519.33 527.845 1518.85 527.75 1518.29 527.75C1517.54 527.75 1516.91 527.909 1516.39 528.227C1515.88 528.538 1515.62 528.955 1515.62 529.477C1515.62 529.894 1515.79 530.246 1516.12 530.534C1516.45 530.822 1517.02 531.053 1517.84 531.227L1520.99 531.864C1522.69 532.212 1523.96 532.773 1524.79 533.545C1525.62 534.318 1526.04 535.333 1526.04 536.591C1526.04 537.735 1525.7 538.739 1525.03 539.602C1524.36 540.466 1523.45 541.14 1522.28 541.625C1521.12 542.102 1519.78 542.341 1518.27 542.341C1515.96 542.341 1514.12 541.86 1512.74 540.898C1511.38 539.928 1510.58 538.61 1510.35 536.943L1515.11 536.693C1515.25 537.398 1515.6 537.936 1516.15 538.307C1516.71 538.67 1517.41 538.852 1518.28 538.852C1519.13 538.852 1519.81 538.689 1520.32 538.364C1520.85 538.03 1521.11 537.602 1521.12 537.08C1521.11 536.64 1520.93 536.28 1520.56 536C1520.2 535.712 1519.64 535.492 1518.88 535.341L1515.86 534.739C1514.15 534.398 1512.88 533.807 1512.05 532.966C1511.23 532.125 1510.81 531.053 1510.81 529.75C1510.81 528.629 1511.12 527.663 1511.72 526.852C1512.34 526.042 1513.2 525.417 1514.3 524.977C1515.41 524.538 1516.72 524.318 1518.21 524.318C1520.41 524.318 1522.15 524.784 1523.41 525.716C1524.69 526.648 1525.43 527.917 1525.64 529.523ZM1534.07 542.33C1532.95 542.33 1531.96 542.136 1531.09 541.75C1530.22 541.356 1529.53 540.777 1529.02 540.011C1528.52 539.239 1528.27 538.277 1528.27 537.125C1528.27 536.155 1528.45 535.341 1528.8 534.682C1529.16 534.023 1529.64 533.492 1530.26 533.091C1530.87 532.689 1531.57 532.386 1532.35 532.182C1533.14 531.977 1533.96 531.833 1534.83 531.75C1535.84 531.644 1536.66 531.545 1537.28 531.455C1537.9 531.356 1538.35 531.212 1538.63 531.023C1538.91 530.833 1539.05 530.553 1539.05 530.182V530.114C1539.05 529.394 1538.83 528.837 1538.37 528.443C1537.93 528.049 1537.29 527.852 1536.46 527.852C1535.59 527.852 1534.9 528.045 1534.38 528.432C1533.87 528.811 1533.53 529.288 1533.36 529.864L1528.88 529.5C1529.11 528.439 1529.56 527.523 1530.22 526.75C1530.89 525.97 1531.75 525.371 1532.8 524.955C1533.86 524.53 1535.09 524.318 1536.49 524.318C1537.46 524.318 1538.38 524.432 1539.27 524.659C1540.16 524.886 1540.96 525.239 1541.64 525.716C1542.34 526.193 1542.89 526.807 1543.29 527.557C1543.69 528.299 1543.89 529.189 1543.89 530.227V542H1539.3V539.58H1539.17C1538.89 540.125 1538.51 540.606 1538.04 541.023C1537.57 541.432 1537.01 541.754 1536.35 541.989C1535.69 542.216 1534.93 542.33 1534.07 542.33ZM1535.45 538.989C1536.16 538.989 1536.79 538.848 1537.34 538.568C1537.88 538.28 1538.31 537.894 1538.62 537.409C1538.93 536.924 1539.09 536.375 1539.09 535.761V533.909C1538.94 534.008 1538.73 534.098 1538.46 534.182C1538.21 534.258 1537.91 534.33 1537.59 534.398C1537.26 534.458 1536.94 534.515 1536.61 534.568C1536.29 534.614 1535.99 534.655 1535.72 534.693C1535.16 534.777 1534.66 534.909 1534.24 535.091C1533.81 535.273 1533.48 535.519 1533.25 535.83C1533.01 536.133 1532.89 536.511 1532.89 536.966C1532.89 537.625 1533.13 538.129 1533.61 538.477C1534.1 538.818 1534.71 538.989 1535.45 538.989ZM1547.65 542V524.545H1552.26V527.625H1552.47C1552.83 526.602 1553.44 525.795 1554.29 525.205C1555.14 524.614 1556.15 524.318 1557.33 524.318C1558.53 524.318 1559.55 524.617 1560.39 525.216C1561.23 525.807 1561.79 526.61 1562.07 527.625H1562.25C1562.61 526.625 1563.25 525.826 1564.18 525.227C1565.12 524.621 1566.23 524.318 1567.51 524.318C1569.14 524.318 1570.46 524.837 1571.48 525.875C1572.5 526.905 1573.01 528.367 1573.01 530.261V542H1568.18V531.216C1568.18 530.246 1567.93 529.519 1567.41 529.034C1566.9 528.549 1566.25 528.307 1565.48 528.307C1564.6 528.307 1563.92 528.587 1563.42 529.148C1562.93 529.701 1562.68 530.432 1562.68 531.341V542H1557.99V531.114C1557.99 530.258 1557.75 529.576 1557.25 529.068C1556.77 528.561 1556.13 528.307 1555.33 528.307C1554.79 528.307 1554.31 528.443 1553.88 528.716C1553.45 528.981 1553.12 529.356 1552.87 529.841C1552.62 530.318 1552.49 530.879 1552.49 531.523V542H1547.65ZM1584.79 542.341C1583 542.341 1581.45 541.977 1580.16 541.25C1578.87 540.515 1577.88 539.477 1577.18 538.136C1576.48 536.788 1576.13 535.193 1576.13 533.352C1576.13 531.557 1576.48 529.981 1577.18 528.625C1577.88 527.269 1578.86 526.212 1580.12 525.455C1581.39 524.697 1582.89 524.318 1584.6 524.318C1585.75 524.318 1586.82 524.504 1587.82 524.875C1588.82 525.239 1589.69 525.788 1590.43 526.523C1591.18 527.258 1591.76 528.182 1592.18 529.295C1592.6 530.402 1592.8 531.697 1592.8 533.182V534.511H1578.07V531.511H1588.25C1588.25 530.814 1588.1 530.197 1587.79 529.659C1587.49 529.121 1587.07 528.701 1586.53 528.398C1586 528.087 1585.38 527.932 1584.68 527.932C1583.94 527.932 1583.29 528.102 1582.72 528.443C1582.16 528.777 1581.72 529.227 1581.41 529.795C1581.09 530.356 1580.93 530.981 1580.92 531.67V534.523C1580.92 535.386 1581.08 536.133 1581.39 536.761C1581.72 537.39 1582.18 537.875 1582.77 538.216C1583.36 538.557 1584.06 538.727 1584.87 538.727C1585.41 538.727 1585.9 538.652 1586.35 538.5C1586.8 538.348 1587.18 538.121 1587.5 537.818C1587.82 537.515 1588.06 537.144 1588.22 536.705L1592.7 537C1592.47 538.076 1592.01 539.015 1591.3 539.818C1590.61 540.614 1589.71 541.235 1588.6 541.682C1587.5 542.121 1586.23 542.341 1584.79 542.341ZM1611.26 542.341C1609.49 542.341 1607.96 541.966 1606.68 541.216C1605.4 540.458 1604.41 539.405 1603.71 538.057C1603.01 536.701 1602.66 535.129 1602.66 533.341C1602.66 531.538 1603.01 529.962 1603.71 528.614C1604.41 527.258 1605.4 526.205 1606.68 525.455C1607.96 524.697 1609.49 524.318 1611.26 524.318C1613.02 524.318 1614.54 524.697 1615.82 525.455C1617.11 526.205 1618.1 527.258 1618.8 528.614C1619.5 529.962 1619.85 531.538 1619.85 533.341C1619.85 535.129 1619.5 536.701 1618.8 538.057C1618.1 539.405 1617.11 540.458 1615.82 541.216C1614.54 541.966 1613.02 542.341 1611.26 542.341ZM1611.28 538.591C1612.08 538.591 1612.75 538.364 1613.29 537.909C1613.83 537.447 1614.23 536.818 1614.51 536.023C1614.79 535.227 1614.93 534.322 1614.93 533.307C1614.93 532.292 1614.79 531.386 1614.51 530.591C1614.23 529.795 1613.83 529.167 1613.29 528.705C1612.75 528.242 1612.08 528.011 1611.28 528.011C1610.47 528.011 1609.79 528.242 1609.23 528.705C1608.69 529.167 1608.27 529.795 1607.99 530.591C1607.72 531.386 1607.59 532.292 1607.59 533.307C1607.59 534.322 1607.72 535.227 1607.99 536.023C1608.27 536.818 1608.69 537.447 1609.23 537.909C1609.79 538.364 1610.47 538.591 1611.28 538.591ZM1622.99 542V524.545H1627.69V527.591H1627.87C1628.19 526.508 1628.72 525.689 1629.47 525.136C1630.22 524.576 1631.09 524.295 1632.06 524.295C1632.3 524.295 1632.57 524.311 1632.85 524.341C1633.13 524.371 1633.37 524.413 1633.59 524.466V528.761C1633.36 528.693 1633.04 528.633 1632.64 528.58C1632.24 528.527 1631.87 528.5 1631.54 528.5C1630.83 528.5 1630.19 528.655 1629.63 528.966C1629.08 529.269 1628.64 529.693 1628.31 530.239C1627.99 530.784 1627.84 531.413 1627.84 532.125V542H1622.99ZM1641.71 542.284C1640.38 542.284 1639.18 541.943 1638.11 541.261C1637.04 540.572 1636.19 539.561 1635.56 538.227C1634.94 536.886 1634.63 535.242 1634.63 533.295C1634.63 531.295 1634.95 529.633 1635.59 528.307C1636.24 526.973 1637.09 525.977 1638.16 525.318C1639.24 524.652 1640.42 524.318 1641.7 524.318C1642.67 524.318 1643.49 524.485 1644.14 524.818C1644.8 525.144 1645.33 525.553 1645.73 526.045C1646.14 526.53 1646.45 527.008 1646.66 527.477H1646.81V518.727H1651.64V542H1646.87V539.205H1646.66C1646.43 539.689 1646.11 540.17 1645.7 540.648C1645.29 541.117 1644.75 541.508 1644.09 541.818C1643.44 542.129 1642.65 542.284 1641.71 542.284ZM1643.24 538.432C1644.02 538.432 1644.68 538.22 1645.22 537.795C1645.76 537.364 1646.18 536.761 1646.47 535.989C1646.76 535.216 1646.91 534.311 1646.91 533.273C1646.91 532.235 1646.77 531.333 1646.48 530.568C1646.19 529.803 1645.78 529.212 1645.23 528.795C1644.68 528.379 1644.02 528.17 1643.24 528.17C1642.45 528.17 1641.78 528.386 1641.23 528.818C1640.68 529.25 1640.27 529.848 1639.99 530.614C1639.71 531.379 1639.57 532.265 1639.57 533.273C1639.57 534.288 1639.71 535.186 1639.99 535.966C1640.28 536.739 1640.69 537.345 1641.23 537.784C1641.78 538.216 1642.45 538.432 1643.24 538.432ZM1663.57 542.341C1661.78 542.341 1660.23 541.977 1658.94 541.25C1657.65 540.515 1656.66 539.477 1655.96 538.136C1655.26 536.788 1654.91 535.193 1654.91 533.352C1654.91 531.557 1655.26 529.981 1655.96 528.625C1656.66 527.269 1657.64 526.212 1658.9 525.455C1660.18 524.697 1661.67 524.318 1663.38 524.318C1664.53 524.318 1665.6 524.504 1666.6 524.875C1667.6 525.239 1668.47 525.788 1669.21 526.523C1669.96 527.258 1670.54 528.182 1670.96 529.295C1671.38 530.402 1671.59 531.697 1671.59 533.182V534.511H1656.85V531.511H1667.03C1667.03 530.814 1666.88 530.197 1666.57 529.659C1666.27 529.121 1665.85 528.701 1665.31 528.398C1664.78 528.087 1664.16 527.932 1663.46 527.932C1662.73 527.932 1662.07 528.102 1661.51 528.443C1660.95 528.777 1660.51 529.227 1660.19 529.795C1659.87 530.356 1659.71 530.981 1659.7 531.67V534.523C1659.7 535.386 1659.86 536.133 1660.18 536.761C1660.5 537.39 1660.96 537.875 1661.55 538.216C1662.14 538.557 1662.84 538.727 1663.65 538.727C1664.19 538.727 1664.68 538.652 1665.13 538.5C1665.58 538.348 1665.96 538.121 1666.28 537.818C1666.6 537.515 1666.84 537.144 1667.01 536.705L1671.48 537C1671.26 538.076 1670.79 539.015 1670.09 539.818C1669.39 540.614 1668.49 541.235 1667.38 541.682C1666.28 542.121 1665.01 542.341 1663.57 542.341ZM1674.74 542V524.545H1679.44V527.591H1679.62C1679.94 526.508 1680.47 525.689 1681.22 525.136C1681.97 524.576 1682.84 524.295 1683.81 524.295C1684.05 524.295 1684.32 524.311 1684.6 524.341C1684.88 524.371 1685.12 524.413 1685.34 524.466V528.761C1685.11 528.693 1684.79 528.633 1684.39 528.58C1683.99 528.527 1683.62 528.5 1683.29 528.5C1682.58 528.5 1681.94 528.655 1681.38 528.966C1680.83 529.269 1680.39 529.693 1680.06 530.239C1679.74 530.784 1679.59 531.413 1679.59 532.125V542H1674.74ZM1256.45 568.523L1252.02 568.795C1251.95 568.417 1251.78 568.076 1251.53 567.773C1251.28 567.462 1250.95 567.216 1250.55 567.034C1250.14 566.845 1249.66 566.75 1249.1 566.75C1248.35 566.75 1247.72 566.909 1247.2 567.227C1246.69 567.538 1246.43 567.955 1246.43 568.477C1246.43 568.894 1246.6 569.246 1246.93 569.534C1247.27 569.822 1247.84 570.053 1248.65 570.227L1251.81 570.864C1253.5 571.212 1254.77 571.773 1255.6 572.545C1256.44 573.318 1256.85 574.333 1256.85 575.591C1256.85 576.735 1256.52 577.739 1255.84 578.602C1255.17 579.466 1254.26 580.14 1253.09 580.625C1251.93 581.102 1250.59 581.341 1249.08 581.341C1246.77 581.341 1244.93 580.86 1243.56 579.898C1242.19 578.928 1241.39 577.61 1241.16 575.943L1245.92 575.693C1246.06 576.398 1246.41 576.936 1246.97 577.307C1247.52 577.67 1248.23 577.852 1249.09 577.852C1249.94 577.852 1250.62 577.689 1251.14 577.364C1251.66 577.03 1251.92 576.602 1251.93 576.08C1251.92 575.64 1251.74 575.28 1251.38 575C1251.01 574.712 1250.45 574.492 1249.69 574.341L1246.67 573.739C1244.97 573.398 1243.7 572.807 1242.86 571.966C1242.04 571.125 1241.62 570.053 1241.62 568.75C1241.62 567.629 1241.93 566.663 1242.53 565.852C1243.15 565.042 1244.01 564.417 1245.11 563.977C1246.23 563.538 1247.53 563.318 1249.02 563.318C1251.23 563.318 1252.96 563.784 1254.23 564.716C1255.5 565.648 1256.24 566.917 1256.45 568.523ZM1269.18 563.545V567.182H1258.67V563.545H1269.18ZM1261.06 559.364H1265.9V575.636C1265.9 576.083 1265.97 576.432 1266.11 576.682C1266.24 576.924 1266.43 577.095 1266.67 577.193C1266.92 577.292 1267.21 577.341 1267.54 577.341C1267.76 577.341 1267.99 577.322 1268.22 577.284C1268.45 577.239 1268.62 577.205 1268.74 577.182L1269.5 580.784C1269.26 580.86 1268.92 580.947 1268.48 581.045C1268.04 581.152 1267.51 581.216 1266.88 581.239C1265.71 581.284 1264.69 581.129 1263.81 580.773C1262.94 580.417 1262.26 579.864 1261.78 579.114C1261.29 578.364 1261.05 577.417 1261.06 576.273V559.364ZM1277.32 581.33C1276.2 581.33 1275.21 581.136 1274.34 580.75C1273.47 580.356 1272.78 579.777 1272.27 579.011C1271.77 578.239 1271.52 577.277 1271.52 576.125C1271.52 575.155 1271.7 574.341 1272.05 573.682C1272.41 573.023 1272.89 572.492 1273.51 572.091C1274.12 571.689 1274.82 571.386 1275.6 571.182C1276.39 570.977 1277.21 570.833 1278.08 570.75C1279.09 570.644 1279.91 570.545 1280.53 570.455C1281.15 570.356 1281.6 570.212 1281.88 570.023C1282.16 569.833 1282.3 569.553 1282.3 569.182V569.114C1282.3 568.394 1282.08 567.837 1281.62 567.443C1281.18 567.049 1280.54 566.852 1279.71 566.852C1278.84 566.852 1278.15 567.045 1277.63 567.432C1277.12 567.811 1276.78 568.288 1276.61 568.864L1272.13 568.5C1272.36 567.439 1272.81 566.523 1273.47 565.75C1274.14 564.97 1275 564.371 1276.05 563.955C1277.11 563.53 1278.34 563.318 1279.74 563.318C1280.71 563.318 1281.63 563.432 1282.52 563.659C1283.41 563.886 1284.21 564.239 1284.89 564.716C1285.59 565.193 1286.14 565.807 1286.54 566.557C1286.94 567.299 1287.14 568.189 1287.14 569.227V581H1282.55V578.58H1282.42C1282.14 579.125 1281.76 579.606 1281.29 580.023C1280.82 580.432 1280.26 580.754 1279.6 580.989C1278.94 581.216 1278.18 581.33 1277.32 581.33ZM1278.7 577.989C1279.41 577.989 1280.04 577.848 1280.59 577.568C1281.13 577.28 1281.56 576.894 1281.87 576.409C1282.18 575.924 1282.34 575.375 1282.34 574.761V572.909C1282.19 573.008 1281.98 573.098 1281.71 573.182C1281.46 573.258 1281.16 573.33 1280.84 573.398C1280.51 573.458 1280.19 573.515 1279.86 573.568C1279.54 573.614 1279.24 573.655 1278.97 573.693C1278.41 573.777 1277.91 573.909 1277.49 574.091C1277.06 574.273 1276.73 574.519 1276.5 574.83C1276.26 575.133 1276.14 575.511 1276.14 575.966C1276.14 576.625 1276.38 577.129 1276.86 577.477C1277.35 577.818 1277.96 577.989 1278.7 577.989ZM1290.9 581V563.545H1295.59V566.591H1295.78C1296.09 565.508 1296.63 564.689 1297.38 564.136C1298.13 563.576 1298.99 563.295 1299.97 563.295C1300.21 563.295 1300.47 563.311 1300.75 563.341C1301.03 563.371 1301.28 563.413 1301.49 563.466V567.761C1301.26 567.693 1300.95 567.633 1300.55 567.58C1300.15 567.527 1299.78 567.5 1299.45 567.5C1298.73 567.5 1298.1 567.655 1297.54 567.966C1296.98 568.269 1296.54 568.693 1296.22 569.239C1295.9 569.784 1295.74 570.413 1295.74 571.125V581H1290.9ZM1314.15 563.545V567.182H1303.64V563.545H1314.15ZM1306.03 559.364H1310.87V575.636C1310.87 576.083 1310.94 576.432 1311.07 576.682C1311.21 576.924 1311.4 577.095 1311.64 577.193C1311.89 577.292 1312.18 577.341 1312.51 577.341C1312.73 577.341 1312.96 577.322 1313.19 577.284C1313.41 577.239 1313.59 577.205 1313.71 577.182L1314.47 580.784C1314.23 580.86 1313.89 580.947 1313.45 581.045C1313.01 581.152 1312.48 581.216 1311.85 581.239C1310.68 581.284 1309.66 581.129 1308.78 580.773C1307.91 580.417 1307.23 579.864 1306.74 579.114C1306.26 578.364 1306.02 577.417 1306.03 576.273V559.364ZM1317.31 581V563.545H1322.15V581H1317.31ZM1319.74 561.295C1319.02 561.295 1318.4 561.057 1317.89 560.58C1317.38 560.095 1317.12 559.515 1317.12 558.841C1317.12 558.174 1317.38 557.602 1317.89 557.125C1318.4 556.64 1319.02 556.398 1319.74 556.398C1320.46 556.398 1321.07 556.64 1321.58 557.125C1322.09 557.602 1322.35 558.174 1322.35 558.841C1322.35 559.515 1322.09 560.095 1321.58 560.58C1321.07 561.057 1320.46 561.295 1319.74 561.295ZM1330.87 570.909V581H1326.03V563.545H1330.64V566.625H1330.84C1331.23 565.61 1331.88 564.807 1332.79 564.216C1333.7 563.617 1334.8 563.318 1336.09 563.318C1337.31 563.318 1338.36 563.583 1339.26 564.114C1340.17 564.644 1340.87 565.402 1341.37 566.386C1341.87 567.364 1342.12 568.53 1342.12 569.886V581H1337.28V570.75C1337.28 569.682 1337.01 568.848 1336.46 568.25C1335.9 567.644 1335.14 567.341 1334.17 567.341C1333.52 567.341 1332.95 567.481 1332.45 567.761C1331.95 568.042 1331.57 568.451 1331.29 568.989C1331.01 569.519 1330.87 570.159 1330.87 570.909ZM1353.8 587.909C1352.23 587.909 1350.88 587.693 1349.76 587.261C1348.65 586.837 1347.76 586.258 1347.1 585.523C1346.44 584.788 1346.02 583.962 1345.82 583.045L1350.3 582.443C1350.43 582.792 1350.65 583.117 1350.94 583.42C1351.24 583.723 1351.63 583.966 1352.11 584.148C1352.61 584.337 1353.2 584.432 1353.91 584.432C1354.96 584.432 1355.83 584.174 1356.51 583.659C1357.2 583.152 1357.55 582.299 1357.55 581.102V577.909H1357.34C1357.13 578.394 1356.81 578.852 1356.39 579.284C1355.96 579.716 1355.42 580.068 1354.75 580.341C1354.08 580.614 1353.29 580.75 1352.36 580.75C1351.05 580.75 1349.86 580.447 1348.78 579.841C1347.72 579.227 1346.86 578.292 1346.23 577.034C1345.6 575.769 1345.28 574.17 1345.28 572.239C1345.28 570.261 1345.61 568.61 1346.25 567.284C1346.89 565.958 1347.75 564.966 1348.82 564.307C1349.89 563.648 1351.07 563.318 1352.35 563.318C1353.33 563.318 1354.15 563.485 1354.81 563.818C1355.47 564.144 1356 564.553 1356.4 565.045C1356.81 565.53 1357.12 566.008 1357.34 566.477H1357.52V563.545H1362.33V581.17C1362.33 582.655 1361.97 583.898 1361.24 584.898C1360.51 585.898 1359.5 586.648 1358.22 587.148C1356.94 587.655 1355.46 587.909 1353.8 587.909ZM1353.9 577.114C1354.68 577.114 1355.34 576.92 1355.88 576.534C1356.42 576.14 1356.84 575.58 1357.12 574.852C1357.42 574.117 1357.57 573.239 1357.57 572.216C1357.57 571.193 1357.42 570.307 1357.14 569.557C1356.85 568.799 1356.43 568.212 1355.89 567.795C1355.34 567.379 1354.68 567.17 1353.9 567.17C1353.1 567.17 1352.43 567.386 1351.89 567.818C1351.34 568.242 1350.93 568.833 1350.65 569.591C1350.37 570.348 1350.23 571.223 1350.23 572.216C1350.23 573.223 1350.37 574.095 1350.65 574.83C1350.94 575.557 1351.35 576.121 1351.89 576.523C1352.43 576.917 1353.1 577.114 1353.9 577.114ZM1382.97 563.545V567.182H1372.2V563.545H1382.97ZM1374.67 581V562.284C1374.67 561.019 1374.91 559.97 1375.41 559.136C1375.91 558.303 1376.59 557.678 1377.45 557.261C1378.32 556.845 1379.3 556.636 1380.39 556.636C1381.14 556.636 1381.82 556.693 1382.43 556.807C1383.05 556.92 1383.51 557.023 1383.82 557.114L1382.95 560.75C1382.76 560.689 1382.53 560.633 1382.25 560.58C1381.97 560.527 1381.69 560.5 1381.41 560.5C1380.69 560.5 1380.2 560.667 1379.92 561C1379.64 561.326 1379.5 561.784 1379.5 562.375V581H1374.67ZM1385.93 581V563.545H1390.62V566.591H1390.81C1391.13 565.508 1391.66 564.689 1392.41 564.136C1393.16 563.576 1394.02 563.295 1395 563.295C1395.24 563.295 1395.5 563.311 1395.78 563.341C1396.06 563.371 1396.31 563.413 1396.52 563.466V567.761C1396.3 567.693 1395.98 567.633 1395.58 567.58C1395.18 567.527 1394.81 567.5 1394.48 567.5C1393.77 567.5 1393.13 567.655 1392.57 567.966C1392.02 568.269 1391.58 568.693 1391.25 569.239C1390.93 569.784 1390.77 570.413 1390.77 571.125V581H1385.93ZM1406.1 581.341C1404.33 581.341 1402.81 580.966 1401.52 580.216C1400.24 579.458 1399.25 578.405 1398.55 577.057C1397.86 575.701 1397.51 574.129 1397.51 572.341C1397.51 570.538 1397.86 568.962 1398.55 567.614C1399.25 566.258 1400.24 565.205 1401.52 564.455C1402.81 563.697 1404.33 563.318 1406.1 563.318C1407.86 563.318 1409.39 563.697 1410.67 564.455C1411.96 565.205 1412.95 566.258 1413.64 567.614C1414.34 568.962 1414.69 570.538 1414.69 572.341C1414.69 574.129 1414.34 575.701 1413.64 577.057C1412.95 578.405 1411.96 579.458 1410.67 580.216C1409.39 580.966 1407.86 581.341 1406.1 581.341ZM1406.12 577.591C1406.93 577.591 1407.6 577.364 1408.13 576.909C1408.67 576.447 1409.08 575.818 1409.35 575.023C1409.63 574.227 1409.77 573.322 1409.77 572.307C1409.77 571.292 1409.63 570.386 1409.35 569.591C1409.08 568.795 1408.67 568.167 1408.13 567.705C1407.6 567.242 1406.93 567.011 1406.12 567.011C1405.31 567.011 1404.63 567.242 1404.08 567.705C1403.53 568.167 1403.12 568.795 1402.84 569.591C1402.57 570.386 1402.43 571.292 1402.43 572.307C1402.43 573.322 1402.57 574.227 1402.84 575.023C1403.12 575.818 1403.53 576.447 1404.08 576.909C1404.63 577.364 1405.31 577.591 1406.12 577.591ZM1417.84 581V563.545H1422.45V566.625H1422.66C1423.02 565.602 1423.63 564.795 1424.47 564.205C1425.32 563.614 1426.34 563.318 1427.52 563.318C1428.72 563.318 1429.74 563.617 1430.58 564.216C1431.42 564.807 1431.98 565.61 1432.26 566.625H1432.44C1432.8 565.625 1433.44 564.826 1434.37 564.227C1435.31 563.621 1436.42 563.318 1437.7 563.318C1439.33 563.318 1440.65 563.837 1441.67 564.875C1442.69 565.905 1443.2 567.367 1443.2 569.261V581H1438.37V570.216C1438.37 569.246 1438.11 568.519 1437.6 568.034C1437.08 567.549 1436.44 567.307 1435.67 567.307C1434.79 567.307 1434.1 567.587 1433.61 568.148C1433.12 568.701 1432.87 569.432 1432.87 570.341V581H1428.18V570.114C1428.18 569.258 1427.93 568.576 1427.44 568.068C1426.96 567.561 1426.32 567.307 1425.52 567.307C1424.98 567.307 1424.5 567.443 1424.07 567.716C1423.64 567.981 1423.3 568.356 1423.05 568.841C1422.8 569.318 1422.68 569.879 1422.68 570.523V581H1417.84ZM1454.43 581V563.545H1459.12V566.591H1459.31C1459.63 565.508 1460.16 564.689 1460.91 564.136C1461.66 563.576 1462.52 563.295 1463.5 563.295C1463.74 563.295 1464 563.311 1464.28 563.341C1464.56 563.371 1464.81 563.413 1465.02 563.466V567.761C1464.8 567.693 1464.48 567.633 1464.08 567.58C1463.68 567.527 1463.31 567.5 1462.98 567.5C1462.27 567.5 1461.63 567.655 1461.07 567.966C1460.52 568.269 1460.08 568.693 1459.75 569.239C1459.43 569.784 1459.27 570.413 1459.27 571.125V581H1454.43ZM1474.6 581.341C1472.83 581.341 1471.31 580.966 1470.02 580.216C1468.74 579.458 1467.75 578.405 1467.05 577.057C1466.36 575.701 1466.01 574.129 1466.01 572.341C1466.01 570.538 1466.36 568.962 1467.05 567.614C1467.75 566.258 1468.74 565.205 1470.02 564.455C1471.31 563.697 1472.83 563.318 1474.6 563.318C1476.36 563.318 1477.89 563.697 1479.17 564.455C1480.46 565.205 1481.45 566.258 1482.14 567.614C1482.84 568.962 1483.19 570.538 1483.19 572.341C1483.19 574.129 1482.84 575.701 1482.14 577.057C1481.45 578.405 1480.46 579.458 1479.17 580.216C1477.89 580.966 1476.36 581.341 1474.6 581.341ZM1474.62 577.591C1475.43 577.591 1476.1 577.364 1476.63 576.909C1477.17 576.447 1477.58 575.818 1477.85 575.023C1478.13 574.227 1478.27 573.322 1478.27 572.307C1478.27 571.292 1478.13 570.386 1477.85 569.591C1477.58 568.795 1477.17 568.167 1476.63 567.705C1476.1 567.242 1475.43 567.011 1474.62 567.011C1473.81 567.011 1473.13 567.242 1472.58 567.705C1472.03 568.167 1471.62 568.795 1471.34 569.591C1471.07 570.386 1470.93 571.292 1470.93 572.307C1470.93 573.322 1471.07 574.227 1471.34 575.023C1471.62 575.818 1472.03 576.447 1472.58 576.909C1473.13 577.364 1473.81 577.591 1474.62 577.591ZM1494.22 581.341C1492.46 581.341 1490.93 580.966 1489.64 580.216C1488.36 579.458 1487.38 578.405 1486.68 577.057C1485.98 575.701 1485.63 574.129 1485.63 572.341C1485.63 570.538 1485.98 568.962 1486.68 567.614C1487.38 566.258 1488.36 565.205 1489.64 564.455C1490.93 563.697 1492.46 563.318 1494.22 563.318C1495.99 563.318 1497.51 563.697 1498.79 564.455C1500.08 565.205 1501.07 566.258 1501.77 567.614C1502.47 568.962 1502.82 570.538 1502.82 572.341C1502.82 574.129 1502.47 575.701 1501.77 577.057C1501.07 578.405 1500.08 579.458 1498.79 580.216C1497.51 580.966 1495.99 581.341 1494.22 581.341ZM1494.25 577.591C1495.05 577.591 1495.72 577.364 1496.26 576.909C1496.8 576.447 1497.2 575.818 1497.47 575.023C1497.75 574.227 1497.89 573.322 1497.89 572.307C1497.89 571.292 1497.75 570.386 1497.47 569.591C1497.2 568.795 1496.8 568.167 1496.26 567.705C1495.72 567.242 1495.05 567.011 1494.25 567.011C1493.44 567.011 1492.75 567.242 1492.2 567.705C1491.66 568.167 1491.24 568.795 1490.96 569.591C1490.69 570.386 1490.55 571.292 1490.55 572.307C1490.55 573.322 1490.69 574.227 1490.96 575.023C1491.24 575.818 1491.66 576.447 1492.2 576.909C1492.75 577.364 1493.44 577.591 1494.25 577.591ZM1515.25 563.545V567.182H1504.74V563.545H1515.25ZM1507.12 559.364H1511.96V575.636C1511.96 576.083 1512.03 576.432 1512.17 576.682C1512.3 576.924 1512.49 577.095 1512.74 577.193C1512.99 577.292 1513.27 577.341 1513.6 577.341C1513.83 577.341 1514.05 577.322 1514.28 577.284C1514.51 577.239 1514.68 577.205 1514.8 577.182L1515.57 580.784C1515.32 580.86 1514.98 580.947 1514.54 581.045C1514.1 581.152 1513.57 581.216 1512.94 581.239C1511.77 581.284 1510.75 581.129 1509.87 580.773C1509 580.417 1508.32 579.864 1507.84 579.114C1507.35 578.364 1507.11 577.417 1507.12 576.273V559.364Z" fill="white"/>
</g>
<defs>
<linearGradient id="paint0_linear_701_901" x1="542" y1="393.145" x2="718" y2="393.145" gradientUnits="userSpaceOnUse">
<stop stop-color="#DD0032"/>
<stop offset="1" stop-color="#C3012F"/>
</linearGradient>
<linearGradient id="paint1_linear_701_901" x1="422" y1="560.145" x2="598" y2="560.145" gradientUnits="userSpaceOnUse">
<stop stop-color="#DD0032"/>
<stop offset="1" stop-color="#C3012F"/>
</linearGradient>
<linearGradient id="paint2_linear_701_901" x1="662" y1="560.145" x2="838" y2="560.145" gradientUnits="userSpaceOnUse">
<stop stop-color="#DD0032"/>
<stop offset="1" stop-color="#C3012F"/>
</linearGradient>
<linearGradient id="paint3_linear_701_901" x1="135" y1="727.145" x2="311" y2="727.145" gradientUnits="userSpaceOnUse">
<stop stop-color="#DD0032"/>
<stop offset="1" stop-color="#C3012F"/>
</linearGradient>
<linearGradient id="paint4_linear_701_901" x1="375" y1="727.145" x2="551" y2="727.145" gradientUnits="userSpaceOnUse">
<stop stop-color="#DD0032"/>
<stop offset="1" stop-color="#C3012F"/>
</linearGradient>
<linearGradient id="paint5_linear_701_901" x1="135" y1="894.145" x2="311" y2="894.145" gradientUnits="userSpaceOnUse">
<stop stop-color="#DD0032"/>
<stop offset="1" stop-color="#C3012F"/>
</linearGradient>
<linearGradient id="paint6_linear_701_901" x1="375" y1="894.145" x2="551" y2="894.145" gradientUnits="userSpaceOnUse">
<stop stop-color="#DD0032"/>
<stop offset="1" stop-color="#C3012F"/>
</linearGradient>
<linearGradient id="paint7_linear_701_901" x1="677" y1="727.145" x2="853" y2="727.145" gradientUnits="userSpaceOnUse">
<stop stop-color="#DD0032"/>
<stop offset="1" stop-color="#C3012F"/>
</linearGradient>
<linearGradient id="paint8_linear_701_901" x1="917" y1="727.145" x2="1093" y2="727.145" gradientUnits="userSpaceOnUse">
<stop stop-color="#DD0032"/>
<stop offset="1" stop-color="#C3012F"/>
</linearGradient>
<linearGradient id="paint9_linear_701_901" x1="677" y1="894.145" x2="853" y2="894.145" gradientUnits="userSpaceOnUse">
<stop stop-color="#DD0032"/>
<stop offset="1" stop-color="#C3012F"/>
</linearGradient>
<linearGradient id="paint10_linear_701_901" x1="917" y1="894.145" x2="1093" y2="894.145" gradientUnits="userSpaceOnUse">
<stop stop-color="#DD0032"/>
<stop offset="1" stop-color="#C3012F"/>
</linearGradient>
<clipPath id="clip0_701_901">
<rect width="1920" height="1080" fill="white"/>
</clipPath>
</defs>
</svg>
