<svg width="1920" height="1080" viewBox="0 0 1920 1080" fill="none" xmlns="http://www.w3.org/2000/svg">
<g clip-path="url(#clip0_701_1013)">
<rect x="557" y="314" width="174" height="101" rx="11" fill="white"/>
<rect x="557" y="314" width="174" height="101" rx="11" stroke="white" stroke-width="2"/>
<rect x="437" y="481" width="174" height="101" rx="11" fill="white" fill-opacity="0.8"/>
<rect x="437" y="481" width="174" height="101" rx="11" stroke="white" stroke-width="2"/>
<rect x="667" y="481" width="174" height="101" rx="11" fill="white"/>
<rect x="667" y="481" width="174" height="101" rx="11" stroke="white" stroke-width="2"/>
<rect x="150" y="648" width="174" height="101" rx="11" fill="white" fill-opacity="0.8"/>
<rect x="150" y="648" width="174" height="101" rx="11" stroke="white" stroke-width="2"/>
<rect x="390" y="648" width="174" height="101" rx="11" fill="white" fill-opacity="0.8"/>
<rect x="390" y="648" width="174" height="101" rx="11" stroke="white" stroke-width="2"/>
<rect x="150" y="815" width="174" height="101" rx="11" fill="white" fill-opacity="0.8"/>
<rect x="150" y="815" width="174" height="101" rx="11" stroke="white" stroke-width="2"/>
<rect x="390" y="815" width="174" height="101" rx="11" fill="white" fill-opacity="0.8"/>
<rect x="390" y="815" width="174" height="101" rx="11" stroke="white" stroke-width="2"/>
<rect x="692" y="648" width="174" height="101" rx="11" fill="white"/>
<rect x="692" y="648" width="174" height="101" rx="11" stroke="white" stroke-width="2"/>
<rect x="932" y="648" width="174" height="101" rx="11" fill="white" fill-opacity="0.8"/>
<rect x="932" y="648" width="174" height="101" rx="11" stroke="white" stroke-width="2"/>
<rect x="692" y="815" width="174" height="101" rx="11" fill="white"/>
<rect x="692" y="815" width="174" height="101" rx="11" stroke="white" stroke-width="2"/>
<rect x="932" y="815" width="174" height="101" rx="11" fill="white" fill-opacity="0.8"/>
<rect x="932" y="815" width="174" height="101" rx="11" stroke="white" stroke-width="2"/>
<line x1="646" y1="415.414" x2="580.414" y2="481" stroke="white" stroke-width="2" stroke-linecap="round"/>
<line x1="711.586" y1="481" x2="646" y2="415.414" stroke="white" stroke-width="2" stroke-linecap="round"/>
<line x1="765.359" y1="582.392" x2="801.392" y2="647.641" stroke="white" stroke-width="2" stroke-linecap="round"/>
<line x1="1017.78" y1="647.716" x2="765.716" y2="582.219" stroke="white" stroke-width="2" stroke-linecap="round"/>
<line x1="521.247" y1="583.197" x2="238.197" y2="647.753" stroke="white" stroke-width="2" stroke-linecap="round"/>
<line x1="473.787" y1="648.602" x2="522.602" y2="582.213" stroke="white" stroke-width="2" stroke-linecap="round"/>
<line x1="476" y1="815" x2="476" y2="749" stroke="white" stroke-width="2" stroke-linecap="round"/>
<line x1="1038" y1="815" x2="1038" y2="749" stroke="white" stroke-width="2" stroke-linecap="round"/>
<line x1="783" y1="815" x2="783" y2="749" stroke="white" stroke-width="2" stroke-linecap="round"/>
<line x1="236" y1="815" x2="236" y2="749" stroke="white" stroke-width="2" stroke-linecap="round"/>
<path d="M1232.02 637.727H1238.09L1244.5 653.364H1244.77L1251.18 637.727H1257.25V661H1252.48V645.852H1252.28L1246.26 660.886H1243.01L1236.99 645.795H1236.8V661H1232.02V637.727ZM1266.19 661.33C1265.08 661.33 1264.08 661.136 1263.21 660.75C1262.34 660.356 1261.65 659.777 1261.14 659.011C1260.64 658.239 1260.39 657.277 1260.39 656.125C1260.39 655.155 1260.57 654.341 1260.93 653.682C1261.29 653.023 1261.77 652.492 1262.38 652.091C1263 651.689 1263.69 651.386 1264.47 651.182C1265.26 650.977 1266.09 650.833 1266.95 650.75C1267.97 650.644 1268.79 650.545 1269.41 650.455C1270.03 650.356 1270.48 650.212 1270.76 650.023C1271.04 649.833 1271.18 649.553 1271.18 649.182V649.114C1271.18 648.394 1270.95 647.837 1270.5 647.443C1270.05 647.049 1269.41 646.852 1268.59 646.852C1267.72 646.852 1267.02 647.045 1266.51 647.432C1265.99 647.811 1265.65 648.288 1265.49 648.864L1261.01 648.5C1261.24 647.439 1261.68 646.523 1262.35 645.75C1263.02 644.97 1263.88 644.371 1264.93 643.955C1265.99 643.53 1267.22 643.318 1268.61 643.318C1269.58 643.318 1270.51 643.432 1271.39 643.659C1272.29 643.886 1273.08 644.239 1273.77 644.716C1274.47 645.193 1275.02 645.807 1275.42 646.557C1275.82 647.299 1276.02 648.189 1276.02 649.227V661H1271.43V658.58H1271.29C1271.01 659.125 1270.64 659.606 1270.17 660.023C1269.7 660.432 1269.13 660.754 1268.47 660.989C1267.82 661.216 1267.05 661.33 1266.19 661.33ZM1267.58 657.989C1268.29 657.989 1268.92 657.848 1269.46 657.568C1270.01 657.28 1270.44 656.894 1270.75 656.409C1271.06 655.924 1271.21 655.375 1271.21 654.761V652.909C1271.06 653.008 1270.85 653.098 1270.59 653.182C1270.33 653.258 1270.04 653.33 1269.71 653.398C1269.39 653.458 1269.06 653.515 1268.74 653.568C1268.41 653.614 1268.11 653.655 1267.85 653.693C1267.28 653.777 1266.79 653.909 1266.36 654.091C1265.94 654.273 1265.61 654.519 1265.37 654.83C1265.14 655.133 1265.02 655.511 1265.02 655.966C1265.02 656.625 1265.26 657.129 1265.74 657.477C1266.22 657.818 1266.83 657.989 1267.58 657.989ZM1279.78 661V643.545H1284.47V646.591H1284.65C1284.97 645.508 1285.5 644.689 1286.25 644.136C1287 643.576 1287.87 643.295 1288.84 643.295C1289.09 643.295 1289.35 643.311 1289.63 643.341C1289.91 643.371 1290.15 643.413 1290.37 643.466V647.761C1290.14 647.693 1289.82 647.633 1289.42 647.58C1289.02 647.527 1288.65 647.5 1288.32 647.5C1287.61 647.5 1286.97 647.655 1286.41 647.966C1285.86 648.269 1285.42 648.693 1285.09 649.239C1284.78 649.784 1284.62 650.413 1284.62 651.125V661H1279.78ZM1297.26 655.977L1297.27 650.17H1297.97L1303.56 643.545H1309.12L1301.61 652.318H1300.46L1297.26 655.977ZM1292.87 661V637.727H1297.71V661H1292.87ZM1303.78 661L1298.64 653.398L1301.87 649.977L1309.45 661H1303.78ZM1318.9 667.545V643.545H1323.67V646.477H1323.89C1324.1 646.008 1324.41 645.53 1324.81 645.045C1325.22 644.553 1325.75 644.144 1326.4 643.818C1327.06 643.485 1327.88 643.318 1328.86 643.318C1330.13 643.318 1331.3 643.652 1332.38 644.318C1333.45 644.977 1334.31 645.973 1334.96 647.307C1335.6 648.633 1335.92 650.295 1335.92 652.295C1335.92 654.242 1335.61 655.886 1334.98 657.227C1334.36 658.561 1333.51 659.572 1332.43 660.261C1331.37 660.943 1330.17 661.284 1328.84 661.284C1327.9 661.284 1327.11 661.129 1326.45 660.818C1325.79 660.508 1325.26 660.117 1324.84 659.648C1324.43 659.17 1324.11 658.689 1323.89 658.205H1323.74V667.545H1318.9ZM1323.64 652.273C1323.64 653.311 1323.78 654.216 1324.07 654.989C1324.36 655.761 1324.78 656.364 1325.32 656.795C1325.87 657.22 1326.53 657.432 1327.31 657.432C1328.1 657.432 1328.76 657.216 1329.31 656.784C1329.86 656.345 1330.27 655.739 1330.55 654.966C1330.84 654.186 1330.98 653.288 1330.98 652.273C1330.98 651.265 1330.84 650.379 1330.56 649.614C1330.28 648.848 1329.87 648.25 1329.32 647.818C1328.78 647.386 1328.11 647.17 1327.31 647.17C1326.52 647.17 1325.86 647.379 1325.31 647.795C1324.77 648.212 1324.36 648.803 1324.07 649.568C1323.78 650.333 1323.64 651.235 1323.64 652.273ZM1344.13 661.33C1343.01 661.33 1342.02 661.136 1341.15 660.75C1340.28 660.356 1339.59 659.777 1339.08 659.011C1338.58 658.239 1338.33 657.277 1338.33 656.125C1338.33 655.155 1338.51 654.341 1338.87 653.682C1339.22 653.023 1339.71 652.492 1340.32 652.091C1340.93 651.689 1341.63 651.386 1342.41 651.182C1343.2 650.977 1344.03 650.833 1344.89 650.75C1345.9 650.644 1346.72 650.545 1347.34 650.455C1347.96 650.356 1348.42 650.212 1348.7 650.023C1348.98 649.833 1349.12 649.553 1349.12 649.182V649.114C1349.12 648.394 1348.89 647.837 1348.43 647.443C1347.99 647.049 1347.35 646.852 1346.53 646.852C1345.65 646.852 1344.96 647.045 1344.45 647.432C1343.93 647.811 1343.59 648.288 1343.42 648.864L1338.95 648.5C1339.17 647.439 1339.62 646.523 1340.29 645.75C1340.95 644.97 1341.81 644.371 1342.87 643.955C1343.93 643.53 1345.15 643.318 1346.55 643.318C1347.52 643.318 1348.45 643.432 1349.33 643.659C1350.23 643.886 1351.02 644.239 1351.71 644.716C1352.4 645.193 1352.95 645.807 1353.36 646.557C1353.76 647.299 1353.96 648.189 1353.96 649.227V661H1349.37V658.58H1349.23C1348.95 659.125 1348.57 659.606 1348.11 660.023C1347.64 660.432 1347.07 660.754 1346.41 660.989C1345.75 661.216 1344.99 661.33 1344.13 661.33ZM1345.51 657.989C1346.23 657.989 1346.86 657.848 1347.4 657.568C1347.95 657.28 1348.37 656.894 1348.68 656.409C1349 655.924 1349.15 655.375 1349.15 654.761V652.909C1349 653.008 1348.79 653.098 1348.53 653.182C1348.27 653.258 1347.98 653.33 1347.65 653.398C1347.32 653.458 1347 653.515 1346.67 653.568C1346.35 653.614 1346.05 653.655 1345.79 653.693C1345.22 653.777 1344.72 653.909 1344.3 654.091C1343.87 654.273 1343.54 654.519 1343.31 654.83C1343.07 655.133 1342.96 655.511 1342.96 655.966C1342.96 656.625 1343.2 657.129 1343.67 657.477C1344.16 657.818 1344.77 657.989 1345.51 657.989ZM1367 643.545V647.182H1356.49V643.545H1367ZM1358.87 639.364H1363.71V655.636C1363.71 656.083 1363.78 656.432 1363.92 656.682C1364.05 656.924 1364.24 657.095 1364.49 657.193C1364.74 657.292 1365.02 657.341 1365.35 657.341C1365.58 657.341 1365.8 657.322 1366.03 657.284C1366.26 657.239 1366.43 657.205 1366.55 657.182L1367.32 660.784C1367.07 660.86 1366.73 660.947 1366.29 661.045C1365.85 661.152 1365.32 661.216 1364.69 661.239C1363.52 661.284 1362.5 661.129 1361.62 660.773C1360.75 660.417 1360.07 659.864 1359.59 659.114C1359.1 658.364 1358.86 657.417 1358.87 656.273V639.364ZM1375.37 650.909V661H1370.53V637.727H1375.23V646.625H1375.43C1375.83 645.595 1376.46 644.788 1377.34 644.205C1378.22 643.614 1379.32 643.318 1380.65 643.318C1381.86 643.318 1382.92 643.583 1383.82 644.114C1384.73 644.636 1385.43 645.39 1385.93 646.375C1386.44 647.352 1386.69 648.523 1386.68 649.886V661H1381.84V650.75C1381.85 649.674 1381.58 648.837 1381.03 648.239C1380.48 647.64 1379.71 647.341 1378.73 647.341C1378.07 647.341 1377.49 647.481 1376.98 647.761C1376.48 648.042 1376.09 648.451 1375.8 648.989C1375.52 649.519 1375.37 650.159 1375.37 650.909ZM1409.09 653.568V643.545H1413.93V661H1409.29V657.83H1409.11C1408.71 658.852 1408.06 659.674 1407.14 660.295C1406.23 660.917 1405.12 661.227 1403.81 661.227C1402.64 661.227 1401.62 660.962 1400.73 660.432C1399.84 659.902 1399.15 659.148 1398.65 658.17C1398.16 657.193 1397.91 656.023 1397.9 654.659V643.545H1402.74V653.795C1402.75 654.826 1403.03 655.64 1403.57 656.239C1404.12 656.837 1404.85 657.136 1405.76 657.136C1406.35 657.136 1406.89 657.004 1407.4 656.739C1407.91 656.466 1408.32 656.064 1408.63 655.534C1408.95 655.004 1409.1 654.348 1409.09 653.568ZM1422.65 650.909V661H1417.81V643.545H1422.42V646.625H1422.62C1423.01 645.61 1423.66 644.807 1424.57 644.216C1425.48 643.617 1426.58 643.318 1427.88 643.318C1429.09 643.318 1430.14 643.583 1431.05 644.114C1431.95 644.644 1432.65 645.402 1433.15 646.386C1433.65 647.364 1433.9 648.53 1433.9 649.886V661H1429.06V650.75C1429.06 649.682 1428.79 648.848 1428.24 648.25C1427.69 647.644 1426.92 647.341 1425.95 647.341C1425.3 647.341 1424.73 647.481 1424.23 647.761C1423.73 648.042 1423.35 648.451 1423.07 648.989C1422.8 649.519 1422.66 650.159 1422.65 650.909ZM1447 643.545V647.182H1436.49V643.545H1447ZM1438.87 639.364H1443.71V655.636C1443.71 656.083 1443.78 656.432 1443.92 656.682C1444.05 656.924 1444.24 657.095 1444.49 657.193C1444.74 657.292 1445.02 657.341 1445.35 657.341C1445.58 657.341 1445.8 657.322 1446.03 657.284C1446.26 657.239 1446.43 657.205 1446.55 657.182L1447.32 660.784C1447.07 660.86 1446.73 660.947 1446.29 661.045C1445.85 661.152 1445.32 661.216 1444.69 661.239C1443.52 661.284 1442.5 661.129 1441.62 660.773C1440.75 660.417 1440.07 659.864 1439.59 659.114C1439.1 658.364 1438.86 657.417 1438.87 656.273V639.364ZM1450.15 661V643.545H1454.99V661H1450.15ZM1452.58 641.295C1451.86 641.295 1451.25 641.057 1450.73 640.58C1450.22 640.095 1449.97 639.515 1449.97 638.841C1449.97 638.174 1450.22 637.602 1450.73 637.125C1451.25 636.64 1451.86 636.398 1452.58 636.398C1453.3 636.398 1453.92 636.64 1454.42 637.125C1454.94 637.602 1455.2 638.174 1455.2 638.841C1455.2 639.515 1454.94 640.095 1454.42 640.58C1453.92 641.057 1453.3 641.295 1452.58 641.295ZM1463.71 637.727V661H1458.87V637.727H1463.71ZM1474.99 661V643.545H1479.69V646.591H1479.87C1480.19 645.508 1480.72 644.689 1481.47 644.136C1482.22 643.576 1483.09 643.295 1484.06 643.295C1484.3 643.295 1484.57 643.311 1484.85 643.341C1485.13 643.371 1485.37 643.413 1485.59 643.466V647.761C1485.36 647.693 1485.04 647.633 1484.64 647.58C1484.24 647.527 1483.87 647.5 1483.54 647.5C1482.83 647.5 1482.19 647.655 1481.63 647.966C1481.08 648.269 1480.64 648.693 1480.31 649.239C1479.99 649.784 1479.84 650.413 1479.84 651.125V661H1474.99ZM1495.16 661.341C1493.4 661.341 1491.87 660.966 1490.58 660.216C1489.3 659.458 1488.31 658.405 1487.62 657.057C1486.92 655.701 1486.57 654.129 1486.57 652.341C1486.57 650.538 1486.92 648.962 1487.62 647.614C1488.31 646.258 1489.3 645.205 1490.58 644.455C1491.87 643.697 1493.4 643.318 1495.16 643.318C1496.93 643.318 1498.45 643.697 1499.73 644.455C1501.02 645.205 1502.01 646.258 1502.71 647.614C1503.4 648.962 1503.75 650.538 1503.75 652.341C1503.75 654.129 1503.4 655.701 1502.71 657.057C1502.01 658.405 1501.02 659.458 1499.73 660.216C1498.45 660.966 1496.93 661.341 1495.16 661.341ZM1495.18 657.591C1495.99 657.591 1496.66 657.364 1497.2 656.909C1497.73 656.447 1498.14 655.818 1498.41 655.023C1498.69 654.227 1498.83 653.322 1498.83 652.307C1498.83 651.292 1498.69 650.386 1498.41 649.591C1498.14 648.795 1497.73 648.167 1497.2 647.705C1496.66 647.242 1495.99 647.011 1495.18 647.011C1494.37 647.011 1493.69 647.242 1493.14 647.705C1492.59 648.167 1492.18 648.795 1491.9 649.591C1491.63 650.386 1491.49 651.292 1491.49 652.307C1491.49 653.322 1491.63 654.227 1491.9 655.023C1492.18 655.818 1492.59 656.447 1493.14 656.909C1493.69 657.364 1494.37 657.591 1495.18 657.591ZM1514.79 661.341C1513.02 661.341 1511.5 660.966 1510.21 660.216C1508.93 659.458 1507.94 658.405 1507.24 657.057C1506.54 655.701 1506.2 654.129 1506.2 652.341C1506.2 650.538 1506.54 648.962 1507.24 647.614C1507.94 646.258 1508.93 645.205 1510.21 644.455C1511.5 643.697 1513.02 643.318 1514.79 643.318C1516.55 643.318 1518.07 643.697 1519.36 644.455C1520.64 645.205 1521.64 646.258 1522.33 647.614C1523.03 648.962 1523.38 650.538 1523.38 652.341C1523.38 654.129 1523.03 655.701 1522.33 657.057C1521.64 658.405 1520.64 659.458 1519.36 660.216C1518.07 660.966 1516.55 661.341 1514.79 661.341ZM1514.81 657.591C1515.61 657.591 1516.28 657.364 1516.82 656.909C1517.36 656.447 1517.76 655.818 1518.04 655.023C1518.32 654.227 1518.46 653.322 1518.46 652.307C1518.46 651.292 1518.32 650.386 1518.04 649.591C1517.76 648.795 1517.36 648.167 1516.82 647.705C1516.28 647.242 1515.61 647.011 1514.81 647.011C1514 647.011 1513.32 647.242 1512.76 647.705C1512.22 648.167 1511.81 648.795 1511.53 649.591C1511.25 650.386 1511.12 651.292 1511.12 652.307C1511.12 653.322 1511.25 654.227 1511.53 655.023C1511.81 655.818 1512.22 656.447 1512.76 656.909C1513.32 657.364 1514 657.591 1514.81 657.591ZM1535.81 643.545V647.182H1525.3V643.545H1535.81ZM1527.68 639.364H1532.53V655.636C1532.53 656.083 1532.59 656.432 1532.73 656.682C1532.87 656.924 1533.06 657.095 1533.3 657.193C1533.55 657.292 1533.84 657.341 1534.16 657.341C1534.39 657.341 1534.62 657.322 1534.84 657.284C1535.07 657.239 1535.25 657.205 1535.37 657.182L1536.13 660.784C1535.89 660.86 1535.54 660.947 1535.11 661.045C1534.67 661.152 1534.13 661.216 1533.5 661.239C1532.34 661.284 1531.31 661.129 1530.43 660.773C1529.56 660.417 1528.89 659.864 1528.4 659.114C1527.92 658.364 1527.68 657.417 1527.68 656.273V639.364ZM1555.76 643.545V647.182H1544.98V643.545H1555.76ZM1547.45 661V642.284C1547.45 641.019 1547.7 639.97 1548.19 639.136C1548.69 638.303 1549.37 637.678 1550.23 637.261C1551.1 636.845 1552.08 636.636 1553.18 636.636C1553.92 636.636 1554.6 636.693 1555.21 636.807C1555.83 636.92 1556.29 637.023 1556.6 637.114L1555.73 640.75C1555.54 640.689 1555.31 640.633 1555.03 640.58C1554.76 640.527 1554.48 640.5 1554.19 640.5C1553.48 640.5 1552.98 640.667 1552.7 641C1552.42 641.326 1552.28 641.784 1552.28 642.375V661H1547.45ZM1565.97 661.341C1564.21 661.341 1562.68 660.966 1561.39 660.216C1560.11 659.458 1559.13 658.405 1558.43 657.057C1557.73 655.701 1557.38 654.129 1557.38 652.341C1557.38 650.538 1557.73 648.962 1558.43 647.614C1559.13 646.258 1560.11 645.205 1561.39 644.455C1562.68 643.697 1564.21 643.318 1565.97 643.318C1567.74 643.318 1569.26 643.697 1570.54 644.455C1571.83 645.205 1572.82 646.258 1573.52 647.614C1574.22 648.962 1574.57 650.538 1574.57 652.341C1574.57 654.129 1574.22 655.701 1573.52 657.057C1572.82 658.405 1571.83 659.458 1570.54 660.216C1569.26 660.966 1567.74 661.341 1565.97 661.341ZM1566 657.591C1566.8 657.591 1567.47 657.364 1568.01 656.909C1568.55 656.447 1568.95 655.818 1569.22 655.023C1569.5 654.227 1569.64 653.322 1569.64 652.307C1569.64 651.292 1569.5 650.386 1569.22 649.591C1568.95 648.795 1568.55 648.167 1568.01 647.705C1567.47 647.242 1566.8 647.011 1566 647.011C1565.19 647.011 1564.5 647.242 1563.95 647.705C1563.41 648.167 1562.99 648.795 1562.71 649.591C1562.44 650.386 1562.3 651.292 1562.3 652.307C1562.3 653.322 1562.44 654.227 1562.71 655.023C1562.99 655.818 1563.41 656.447 1563.95 656.909C1564.5 657.364 1565.19 657.591 1566 657.591ZM1577.71 661V643.545H1582.41V646.591H1582.59C1582.91 645.508 1583.44 644.689 1584.19 644.136C1584.94 643.576 1585.8 643.295 1586.78 643.295C1587.02 643.295 1587.29 643.311 1587.57 643.341C1587.85 643.371 1588.09 643.413 1588.3 643.466V647.761C1588.08 647.693 1587.76 647.633 1587.36 647.58C1586.96 647.527 1586.59 647.5 1586.26 647.5C1585.55 647.5 1584.91 647.655 1584.35 647.966C1583.8 648.269 1583.36 648.693 1583.03 649.239C1582.71 649.784 1582.55 650.413 1582.55 651.125V661H1577.71ZM1606.1 661.341C1604.31 661.341 1602.77 660.962 1601.49 660.205C1600.21 659.439 1599.22 658.379 1598.53 657.023C1597.85 655.667 1597.51 654.106 1597.51 652.341C1597.51 650.553 1597.85 648.985 1598.54 647.636C1599.24 646.28 1600.23 645.223 1601.51 644.466C1602.79 643.701 1604.31 643.318 1606.08 643.318C1607.6 643.318 1608.93 643.595 1610.08 644.148C1611.22 644.701 1612.13 645.477 1612.79 646.477C1613.46 647.477 1613.83 648.652 1613.89 650H1609.33C1609.2 649.129 1608.86 648.428 1608.3 647.898C1607.76 647.36 1607.04 647.091 1606.16 647.091C1605.41 647.091 1604.75 647.295 1604.19 647.705C1603.64 648.106 1603.21 648.693 1602.89 649.466C1602.58 650.239 1602.43 651.174 1602.43 652.273C1602.43 653.386 1602.58 654.333 1602.88 655.114C1603.19 655.894 1603.63 656.489 1604.19 656.898C1604.75 657.307 1605.41 657.511 1606.16 657.511C1606.71 657.511 1607.21 657.398 1607.64 657.17C1608.09 656.943 1608.46 656.614 1608.75 656.182C1609.04 655.742 1609.24 655.216 1609.33 654.602H1613.89C1613.82 655.936 1613.46 657.11 1612.8 658.125C1612.16 659.133 1611.27 659.92 1610.13 660.489C1609 661.057 1607.65 661.341 1606.1 661.341ZM1621.84 650.909V661H1616.99V637.727H1621.7V646.625H1621.9C1622.3 645.595 1622.93 644.788 1623.81 644.205C1624.69 643.614 1625.79 643.318 1627.12 643.318C1628.33 643.318 1629.39 643.583 1630.29 644.114C1631.2 644.636 1631.9 645.39 1632.4 646.375C1632.91 647.352 1633.16 648.523 1633.15 649.886V661H1628.31V650.75C1628.32 649.674 1628.05 648.837 1627.49 648.239C1626.95 647.64 1626.18 647.341 1625.2 647.341C1624.54 647.341 1623.96 647.481 1623.45 647.761C1622.95 648.042 1622.55 648.451 1622.27 648.989C1621.99 649.519 1621.84 650.159 1621.84 650.909ZM1644.92 661.341C1643.12 661.341 1641.58 660.977 1640.28 660.25C1638.99 659.515 1638 658.477 1637.3 657.136C1636.61 655.788 1636.26 654.193 1636.26 652.352C1636.26 650.557 1636.61 648.981 1637.3 647.625C1638 646.269 1638.98 645.212 1640.25 644.455C1641.52 643.697 1643.01 643.318 1644.72 643.318C1645.88 643.318 1646.95 643.504 1647.94 643.875C1648.94 644.239 1649.81 644.788 1650.55 645.523C1651.3 646.258 1651.89 647.182 1652.3 648.295C1652.72 649.402 1652.93 650.697 1652.93 652.182V653.511H1638.19V650.511H1648.37C1648.37 649.814 1648.22 649.197 1647.92 648.659C1647.61 648.121 1647.19 647.701 1646.66 647.398C1646.13 647.087 1645.51 646.932 1644.8 646.932C1644.07 646.932 1643.42 647.102 1642.85 647.443C1642.29 647.777 1641.85 648.227 1641.53 648.795C1641.21 649.356 1641.05 649.981 1641.04 650.67V653.523C1641.04 654.386 1641.2 655.133 1641.52 655.761C1641.85 656.39 1642.3 656.875 1642.89 657.216C1643.49 657.557 1644.19 657.727 1645 657.727C1645.54 657.727 1646.03 657.652 1646.47 657.5C1646.92 657.348 1647.3 657.121 1647.62 656.818C1647.94 656.515 1648.18 656.144 1648.35 655.705L1652.83 656C1652.6 657.076 1652.13 658.015 1651.43 658.818C1650.73 659.614 1649.83 660.235 1648.72 660.682C1647.63 661.121 1646.36 661.341 1644.92 661.341ZM1663.97 661.341C1662.19 661.341 1660.65 660.962 1659.36 660.205C1658.08 659.439 1657.1 658.379 1656.41 657.023C1655.72 655.667 1655.38 654.106 1655.38 652.341C1655.38 650.553 1655.73 648.985 1656.42 647.636C1657.11 646.28 1658.1 645.223 1659.38 644.466C1660.66 643.701 1662.19 643.318 1663.95 643.318C1665.47 643.318 1666.81 643.595 1667.95 644.148C1669.1 644.701 1670 645.477 1670.67 646.477C1671.33 647.477 1671.7 648.652 1671.77 650H1667.2C1667.07 649.129 1666.73 648.428 1666.18 647.898C1665.63 647.36 1664.92 647.091 1664.03 647.091C1663.28 647.091 1662.63 647.295 1662.07 647.705C1661.51 648.106 1661.08 648.693 1660.77 649.466C1660.46 650.239 1660.3 651.174 1660.3 652.273C1660.3 653.386 1660.46 654.333 1660.76 655.114C1661.07 655.894 1661.5 656.489 1662.07 656.898C1662.63 657.307 1663.28 657.511 1664.03 657.511C1664.58 657.511 1665.08 657.398 1665.52 657.17C1665.97 656.943 1666.33 656.614 1666.62 656.182C1666.92 655.742 1667.11 655.216 1667.2 654.602H1671.77C1671.69 655.936 1671.33 657.11 1670.68 658.125C1670.04 659.133 1669.14 659.92 1668.01 660.489C1666.87 661.057 1665.53 661.341 1663.97 661.341ZM1679.26 655.977L1679.27 650.17H1679.97L1685.56 643.545H1691.12L1683.61 652.318H1682.46L1679.26 655.977ZM1674.87 661V637.727H1679.71V661H1674.87ZM1685.78 661L1680.64 653.398L1683.87 649.977L1691.45 661H1685.78Z" fill="white"/>
</g>
<defs>
<clipPath id="clip0_701_1013">
<rect width="1920" height="1080" fill="white"/>
</clipPath>
</defs>
</svg>
