<svg width="1920" height="1080" viewBox="0 0 1920 1080" fill="none" xmlns="http://www.w3.org/2000/svg">
<g clip-path="url(#clip0_701_1241)">
<rect width="1920" height="1080" fill="white"/>
<rect width="1920" height="1080" transform="translate(-23)" fill="#1A1A1A"/>
<path d="M121.136 392H100.045L132.182 298.909H157.545L189.636 392H168.545L145.227 320.182H144.5L121.136 392ZM119.818 355.409H169.636V370.773H119.818V355.409ZM219.841 351.636V392H200.477V322.182H218.932V334.5H219.75C221.295 330.439 223.886 327.227 227.523 324.864C231.159 322.47 235.568 321.273 240.75 321.273C245.598 321.273 249.826 322.333 253.432 324.455C257.038 326.576 259.841 329.606 261.841 333.545C263.841 337.455 264.841 342.121 264.841 347.545V392H245.477V351C245.508 346.727 244.417 343.394 242.205 341C239.992 338.576 236.947 337.364 233.068 337.364C230.462 337.364 228.159 337.924 226.159 339.045C224.189 340.167 222.644 341.803 221.523 343.955C220.432 346.076 219.871 348.636 219.841 351.636ZM289.557 418.182C287.102 418.182 284.799 417.985 282.648 417.591C280.527 417.227 278.769 416.758 277.375 416.182L281.739 401.727C284.011 402.424 286.057 402.803 287.875 402.864C289.723 402.924 291.314 402.5 292.648 401.591C294.011 400.682 295.117 399.136 295.966 396.955L297.102 394L272.057 322.182H292.42L306.875 373.455H307.602L322.193 322.182H342.693L315.557 399.545C314.254 403.303 312.481 406.576 310.239 409.364C308.027 412.182 305.223 414.348 301.83 415.864C298.436 417.409 294.345 418.182 289.557 418.182ZM140.227 514.636H156.955L165.364 525.455L173.636 535.091L189.227 554.636H170.864L160.136 541.455L154.636 533.636L140.227 514.636ZM190.636 500.455C190.636 510.606 188.712 519.242 184.864 526.364C181.045 533.485 175.833 538.924 169.227 542.682C162.652 546.409 155.258 548.273 147.045 548.273C138.773 548.273 131.348 546.394 124.773 542.636C118.197 538.879 113 533.439 109.182 526.318C105.364 519.197 103.455 510.576 103.455 500.455C103.455 490.303 105.364 481.667 109.182 474.545C113 467.424 118.197 462 124.773 458.273C131.348 454.515 138.773 452.636 147.045 452.636C155.258 452.636 162.652 454.515 169.227 458.273C175.833 462 181.045 467.424 184.864 474.545C188.712 481.667 190.636 490.303 190.636 500.455ZM170.682 500.455C170.682 493.879 169.697 488.333 167.727 483.818C165.788 479.303 163.045 475.879 159.5 473.545C155.955 471.212 151.803 470.045 147.045 470.045C142.288 470.045 138.136 471.212 134.591 473.545C131.045 475.879 128.288 479.303 126.318 483.818C124.379 488.333 123.409 493.879 123.409 500.455C123.409 507.03 124.379 512.576 126.318 517.091C128.288 521.606 131.045 525.03 134.591 527.364C138.136 529.697 142.288 530.864 147.045 530.864C151.803 530.864 155.955 529.697 159.5 527.364C163.045 525.03 165.788 521.606 167.727 517.091C169.697 512.576 170.682 507.03 170.682 500.455ZM249.625 517.273V477.182H268.989V547H250.398V534.318H249.67C248.095 538.409 245.473 541.697 241.807 544.182C238.17 546.667 233.731 547.909 228.489 547.909C223.822 547.909 219.716 546.848 216.17 544.727C212.625 542.606 209.852 539.591 207.852 535.682C205.883 531.773 204.883 527.091 204.852 521.636V477.182H224.216V518.182C224.246 522.303 225.352 525.561 227.534 527.955C229.716 530.348 232.64 531.545 236.307 531.545C238.64 531.545 240.822 531.015 242.852 529.955C244.883 528.864 246.519 527.258 247.761 525.136C249.034 523.015 249.655 520.394 249.625 517.273ZM316.295 548.364C309.114 548.364 302.932 546.909 297.75 544C292.598 541.061 288.629 536.909 285.841 531.545C283.053 526.152 281.659 519.773 281.659 512.409C281.659 505.227 283.053 498.924 285.841 493.5C288.629 488.076 292.553 483.848 297.614 480.818C302.705 477.788 308.674 476.273 315.523 476.273C320.129 476.273 324.417 477.015 328.386 478.5C332.386 479.955 335.871 482.152 338.841 485.091C341.841 488.03 344.174 491.727 345.841 496.182C347.508 500.606 348.341 505.788 348.341 511.727V517.045H289.386V505.045H330.114C330.114 502.258 329.508 499.788 328.295 497.636C327.083 495.485 325.402 493.803 323.25 492.591C321.129 491.348 318.659 490.727 315.841 490.727C312.902 490.727 310.295 491.409 308.023 492.773C305.78 494.106 304.023 495.909 302.75 498.182C301.477 500.424 300.826 502.924 300.795 505.682V517.091C300.795 520.545 301.432 523.53 302.705 526.045C304.008 528.561 305.841 530.5 308.205 531.864C310.568 533.227 313.371 533.909 316.614 533.909C318.765 533.909 320.735 533.606 322.523 533C324.311 532.394 325.841 531.485 327.114 530.273C328.386 529.061 329.356 527.576 330.023 525.818L347.932 527C347.023 531.303 345.159 535.061 342.341 538.273C339.553 541.455 335.947 543.939 331.523 545.727C327.129 547.485 322.053 548.364 316.295 548.364ZM419.068 497.091L401.341 498.182C401.038 496.667 400.386 495.303 399.386 494.091C398.386 492.848 397.068 491.864 395.432 491.136C393.826 490.379 391.902 490 389.659 490C386.659 490 384.129 490.636 382.068 491.909C380.008 493.152 378.977 494.818 378.977 496.909C378.977 498.576 379.644 499.985 380.977 501.136C382.311 502.288 384.598 503.212 387.841 503.909L400.477 506.455C407.265 507.848 412.326 510.091 415.659 513.182C418.992 516.273 420.659 520.333 420.659 525.364C420.659 529.939 419.311 533.955 416.614 537.409C413.947 540.864 410.28 543.561 405.614 545.5C400.977 547.409 395.629 548.364 389.568 548.364C380.326 548.364 372.962 546.439 367.477 542.591C362.023 538.712 358.826 533.439 357.886 526.773L376.932 525.773C377.508 528.591 378.902 530.742 381.114 532.227C383.326 533.682 386.159 534.409 389.614 534.409C393.008 534.409 395.735 533.758 397.795 532.455C399.886 531.121 400.947 529.409 400.977 527.318C400.947 525.561 400.205 524.121 398.75 523C397.295 521.848 395.053 520.97 392.023 520.364L379.932 517.955C373.114 516.591 368.038 514.227 364.705 510.864C361.402 507.5 359.75 503.212 359.75 498C359.75 493.515 360.962 489.652 363.386 486.409C365.841 483.167 369.28 480.667 373.705 478.909C378.159 477.152 383.371 476.273 389.341 476.273C398.159 476.273 405.098 478.136 410.159 481.864C415.25 485.591 418.22 490.667 419.068 497.091ZM469.989 477.182V491.727H427.943V477.182H469.989ZM437.489 460.455H456.852V525.545C456.852 527.333 457.125 528.727 457.67 529.727C458.216 530.697 458.973 531.379 459.943 531.773C460.943 532.167 462.095 532.364 463.398 532.364C464.307 532.364 465.216 532.288 466.125 532.136C467.034 531.955 467.731 531.818 468.216 531.727L471.261 546.136C470.292 546.439 468.928 546.788 467.17 547.182C465.413 547.606 463.277 547.864 460.761 547.955C456.095 548.136 452.004 547.515 448.489 546.091C445.004 544.667 442.292 542.455 440.352 539.455C438.413 536.455 437.458 532.667 437.489 528.091V460.455ZM482.602 547V477.182H501.966V547H482.602ZM492.33 468.182C489.451 468.182 486.981 467.227 484.92 465.318C482.89 463.379 481.875 461.061 481.875 458.364C481.875 455.697 482.89 453.409 484.92 451.5C486.981 449.561 489.451 448.591 492.33 448.591C495.208 448.591 497.663 449.561 499.693 451.5C501.754 453.409 502.784 455.697 502.784 458.364C502.784 461.061 501.754 463.379 499.693 465.318C497.663 467.227 495.208 468.182 492.33 468.182ZM549.023 548.364C541.962 548.364 535.856 546.864 530.705 543.864C525.583 540.833 521.629 536.621 518.841 531.227C516.053 525.803 514.659 519.515 514.659 512.364C514.659 505.152 516.053 498.848 518.841 493.455C521.629 488.03 525.583 483.818 530.705 480.818C535.856 477.788 541.962 476.273 549.023 476.273C556.083 476.273 562.174 477.788 567.295 480.818C572.447 483.818 576.417 488.03 579.205 493.455C581.992 498.848 583.386 505.152 583.386 512.364C583.386 519.515 581.992 525.803 579.205 531.227C576.417 536.621 572.447 540.833 567.295 543.864C562.174 546.864 556.083 548.364 549.023 548.364ZM549.114 533.364C552.326 533.364 555.008 532.455 557.159 530.636C559.311 528.788 560.932 526.273 562.023 523.091C563.144 519.909 563.705 516.288 563.705 512.227C563.705 508.167 563.144 504.545 562.023 501.364C560.932 498.182 559.311 495.667 557.159 493.818C555.008 491.97 552.326 491.045 549.114 491.045C545.871 491.045 543.144 491.97 540.932 493.818C538.75 495.667 537.098 498.182 535.977 501.364C534.886 504.545 534.341 508.167 534.341 512.227C534.341 516.288 534.886 519.909 535.977 523.091C537.098 526.273 538.75 528.788 540.932 530.636C543.144 532.455 545.871 533.364 549.114 533.364ZM615.341 506.636V547H595.977V477.182H614.432V489.5H615.25C616.795 485.439 619.386 482.227 623.023 479.864C626.659 477.47 631.068 476.273 636.25 476.273C641.098 476.273 645.326 477.333 648.932 479.455C652.538 481.576 655.341 484.606 657.341 488.545C659.341 492.455 660.341 497.121 660.341 502.545V547H640.977V506C641.008 501.727 639.917 498.394 637.705 496C635.492 493.576 632.447 492.364 628.568 492.364C625.962 492.364 623.659 492.924 621.659 494.045C619.689 495.167 618.144 496.803 617.023 498.955C615.932 501.076 615.371 503.636 615.341 506.636ZM733.693 497.091L715.966 498.182C715.663 496.667 715.011 495.303 714.011 494.091C713.011 492.848 711.693 491.864 710.057 491.136C708.451 490.379 706.527 490 704.284 490C701.284 490 698.754 490.636 696.693 491.909C694.633 493.152 693.602 494.818 693.602 496.909C693.602 498.576 694.269 499.985 695.602 501.136C696.936 502.288 699.223 503.212 702.466 503.909L715.102 506.455C721.89 507.848 726.951 510.091 730.284 513.182C733.617 516.273 735.284 520.333 735.284 525.364C735.284 529.939 733.936 533.955 731.239 537.409C728.572 540.864 724.905 543.561 720.239 545.5C715.602 547.409 710.254 548.364 704.193 548.364C694.951 548.364 687.587 546.439 682.102 542.591C676.648 538.712 673.451 533.439 672.511 526.773L691.557 525.773C692.133 528.591 693.527 530.742 695.739 532.227C697.951 533.682 700.784 534.409 704.239 534.409C707.633 534.409 710.36 533.758 712.42 532.455C714.511 531.121 715.572 529.409 715.602 527.318C715.572 525.561 714.83 524.121 713.375 523C711.92 521.848 709.678 520.97 706.648 520.364L694.557 517.955C687.739 516.591 682.663 514.227 679.33 510.864C676.027 507.5 674.375 503.212 674.375 498C674.375 493.515 675.587 489.652 678.011 486.409C680.466 483.167 683.905 480.667 688.33 478.909C692.784 477.152 697.996 476.273 703.966 476.273C712.784 476.273 719.723 478.136 724.784 481.864C729.875 485.591 732.845 490.667 733.693 497.091Z" fill="url(#paint0_linear_701_1241)"/>
<path d="M1637.12 -52.3486H1350.8C1210.84 -52.3486 1097 61.5249 1097 201.526C1097 248.255 1134.83 283.771 1181.6 283.771C1228.37 283.771 1266.2 245.902 1266.2 201.526C1266.2 154.877 1304.11 116.901 1350.8 116.901H1637.12C1712.47 116.901 1773.8 178.228 1773.8 253.862C1773.8 306.012 1744.8 352.952 1693.17 379.027L1434.87 530.48C1406.58 545.818 1393.1 573.586 1393.1 603.469V709.25C1393.1 755.979 1430.93 793.849 1477.7 793.849C1524.47 793.849 1562.3 755.979 1562.3 709.25V651.864L1773.8 527.571C1878.15 475.341 1943 370.433 1943 253.862C1943 85.0084 1805.79 -52.3486 1637.12 -52.3486ZM1477.7 920.812C1419.3 920.812 1371.95 968.176 1371.95 1026.59C1371.95 1085.01 1419.3 1129.99 1477.7 1129.99C1536.1 1129.99 1583.45 1082.66 1583.45 1026.59C1583.45 970.53 1536.13 920.812 1477.7 920.812Z" fill="white" fill-opacity="0.32"/>
</g>
<defs>
<linearGradient id="paint0_linear_701_1241" x1="97" y1="421.931" x2="740" y2="421.931" gradientUnits="userSpaceOnUse">
<stop stop-color="#DD0032"/>
<stop offset="1" stop-color="#C3012F"/>
</linearGradient>
<clipPath id="clip0_701_1241">
<rect width="1920" height="1080" fill="white"/>
</clipPath>
</defs>
</svg>
