<svg width="1920" height="1080" viewBox="0 0 1920 1080" fill="none" xmlns="http://www.w3.org/2000/svg">
<g clip-path="url(#clip0_701_967)">
<rect x="803" y="140" width="333" height="153" rx="23" fill="white"/>
<path d="M894.227 204.727L899.852 222.409H900.068L905.705 204.727H911.159L903.136 228H896.795L888.761 204.727H894.227ZM933.182 212.875H928.205C928.114 212.231 927.928 211.659 927.648 211.159C927.367 210.652 927.008 210.22 926.568 209.864C926.129 209.508 925.621 209.235 925.045 209.045C924.477 208.856 923.86 208.761 923.193 208.761C921.989 208.761 920.939 209.061 920.045 209.659C919.152 210.25 918.458 211.114 917.966 212.25C917.473 213.379 917.227 214.75 917.227 216.364C917.227 218.023 917.473 219.417 917.966 220.545C918.466 221.674 919.163 222.527 920.057 223.102C920.951 223.678 921.985 223.966 923.159 223.966C923.818 223.966 924.428 223.879 924.989 223.705C925.557 223.53 926.061 223.277 926.5 222.943C926.939 222.602 927.303 222.189 927.591 221.705C927.886 221.22 928.091 220.667 928.205 220.045L933.182 220.068C933.053 221.136 932.731 222.167 932.216 223.159C931.708 224.144 931.023 225.027 930.159 225.807C929.303 226.58 928.28 227.193 927.091 227.648C925.909 228.095 924.572 228.318 923.08 228.318C921.004 228.318 919.148 227.848 917.511 226.909C915.883 225.97 914.595 224.61 913.648 222.83C912.708 221.049 912.239 218.894 912.239 216.364C912.239 213.826 912.716 211.667 913.67 209.886C914.625 208.106 915.92 206.75 917.557 205.818C919.193 204.879 921.034 204.409 923.08 204.409C924.428 204.409 925.678 204.598 926.83 204.977C927.989 205.356 929.015 205.909 929.909 206.636C930.803 207.356 931.53 208.239 932.091 209.284C932.659 210.33 933.023 211.527 933.182 212.875ZM941.597 228.33C940.483 228.33 939.491 228.136 938.619 227.75C937.748 227.356 937.059 226.777 936.551 226.011C936.051 225.239 935.801 224.277 935.801 223.125C935.801 222.155 935.979 221.341 936.335 220.682C936.691 220.023 937.176 219.492 937.79 219.091C938.403 218.689 939.1 218.386 939.881 218.182C940.669 217.977 941.494 217.833 942.358 217.75C943.373 217.644 944.191 217.545 944.812 217.455C945.434 217.356 945.884 217.212 946.165 217.023C946.445 216.833 946.585 216.553 946.585 216.182V216.114C946.585 215.394 946.358 214.837 945.903 214.443C945.456 214.049 944.82 213.852 943.994 213.852C943.123 213.852 942.43 214.045 941.915 214.432C941.4 214.811 941.059 215.288 940.892 215.864L936.415 215.5C936.642 214.439 937.089 213.523 937.756 212.75C938.422 211.97 939.282 211.371 940.335 210.955C941.396 210.53 942.623 210.318 944.017 210.318C944.987 210.318 945.915 210.432 946.801 210.659C947.695 210.886 948.487 211.239 949.176 211.716C949.873 212.193 950.422 212.807 950.824 213.557C951.225 214.299 951.426 215.189 951.426 216.227V228H946.835V225.58H946.699C946.419 226.125 946.044 226.606 945.574 227.023C945.104 227.432 944.54 227.754 943.881 227.989C943.222 228.216 942.46 228.33 941.597 228.33ZM942.983 224.989C943.695 224.989 944.324 224.848 944.869 224.568C945.415 224.28 945.843 223.894 946.153 223.409C946.464 222.924 946.619 222.375 946.619 221.761V219.909C946.468 220.008 946.259 220.098 945.994 220.182C945.737 220.258 945.445 220.33 945.119 220.398C944.794 220.458 944.468 220.515 944.142 220.568C943.816 220.614 943.521 220.655 943.256 220.693C942.688 220.777 942.191 220.909 941.767 221.091C941.343 221.273 941.013 221.519 940.778 221.83C940.544 222.133 940.426 222.511 940.426 222.966C940.426 223.625 940.665 224.129 941.142 224.477C941.627 224.818 942.241 224.989 942.983 224.989ZM955.182 228V210.545H959.875V213.591H960.057C960.375 212.508 960.909 211.689 961.659 211.136C962.409 210.576 963.273 210.295 964.25 210.295C964.492 210.295 964.754 210.311 965.034 210.341C965.314 210.371 965.561 210.413 965.773 210.466V214.761C965.545 214.693 965.231 214.633 964.83 214.58C964.428 214.527 964.061 214.5 963.727 214.5C963.015 214.5 962.379 214.655 961.818 214.966C961.265 215.269 960.826 215.693 960.5 216.239C960.182 216.784 960.023 217.413 960.023 218.125V228H955.182ZM973.895 228.284C972.569 228.284 971.368 227.943 970.293 227.261C969.224 226.572 968.376 225.561 967.747 224.227C967.126 222.886 966.815 221.242 966.815 219.295C966.815 217.295 967.137 215.633 967.781 214.307C968.425 212.973 969.281 211.977 970.349 211.318C971.425 210.652 972.603 210.318 973.884 210.318C974.861 210.318 975.675 210.485 976.327 210.818C976.986 211.144 977.516 211.553 977.918 212.045C978.327 212.53 978.637 213.008 978.849 213.477H978.997V204.727H983.827V228H979.054V225.205H978.849C978.622 225.689 978.3 226.17 977.884 226.648C977.474 227.117 976.94 227.508 976.281 227.818C975.63 228.129 974.834 228.284 973.895 228.284ZM975.429 224.432C976.209 224.432 976.868 224.22 977.406 223.795C977.952 223.364 978.368 222.761 978.656 221.989C978.952 221.216 979.099 220.311 979.099 219.273C979.099 218.235 978.955 217.333 978.668 216.568C978.38 215.803 977.963 215.212 977.418 214.795C976.872 214.379 976.209 214.17 975.429 214.17C974.634 214.17 973.963 214.386 973.418 214.818C972.872 215.25 972.459 215.848 972.179 216.614C971.899 217.379 971.759 218.265 971.759 219.273C971.759 220.288 971.899 221.186 972.179 221.966C972.467 222.739 972.88 223.345 973.418 223.784C973.963 224.216 974.634 224.432 975.429 224.432ZM991.909 228H986.636L994.67 204.727H1001.01L1009.03 228H1003.76L997.932 210.045H997.75L991.909 228ZM991.58 218.852H1004.03V222.693H991.58V218.852ZM1011.74 234.545V210.545H1016.52V213.477H1016.73C1016.95 213.008 1017.25 212.53 1017.65 212.045C1018.06 211.553 1018.59 211.144 1019.24 210.818C1019.9 210.485 1020.72 210.318 1021.7 210.318C1022.97 210.318 1024.15 210.652 1025.22 211.318C1026.3 211.977 1027.16 212.973 1027.8 214.307C1028.45 215.633 1028.77 217.295 1028.77 219.295C1028.77 221.242 1028.45 222.886 1027.82 224.227C1027.2 225.561 1026.35 226.572 1025.28 227.261C1024.21 227.943 1023.01 228.284 1021.69 228.284C1020.75 228.284 1019.95 228.129 1019.29 227.818C1018.64 227.508 1018.1 227.117 1017.69 226.648C1017.27 226.17 1016.95 225.689 1016.73 225.205H1016.59V234.545H1011.74ZM1016.48 219.273C1016.48 220.311 1016.63 221.216 1016.91 221.989C1017.2 222.761 1017.62 223.364 1018.16 223.795C1018.71 224.22 1019.37 224.432 1020.15 224.432C1020.94 224.432 1021.61 224.216 1022.15 223.784C1022.7 223.345 1023.11 222.739 1023.39 221.966C1023.68 221.186 1023.82 220.288 1023.82 219.273C1023.82 218.265 1023.68 217.379 1023.4 216.614C1023.12 215.848 1022.71 215.25 1022.16 214.818C1021.62 214.386 1020.95 214.17 1020.15 214.17C1019.37 214.17 1018.7 214.379 1018.15 214.795C1017.62 215.212 1017.2 215.803 1016.91 216.568C1016.63 217.333 1016.48 218.235 1016.48 219.273ZM1031.99 234.545V210.545H1036.77V213.477H1036.98C1037.2 213.008 1037.5 212.53 1037.9 212.045C1038.31 211.553 1038.84 211.144 1039.49 210.818C1040.15 210.485 1040.97 210.318 1041.95 210.318C1043.22 210.318 1044.4 210.652 1045.47 211.318C1046.55 211.977 1047.41 212.973 1048.05 214.307C1048.7 215.633 1049.02 217.295 1049.02 219.295C1049.02 221.242 1048.7 222.886 1048.07 224.227C1047.45 225.561 1046.6 226.572 1045.53 227.261C1044.46 227.943 1043.26 228.284 1041.94 228.284C1041 228.284 1040.2 228.129 1039.54 227.818C1038.89 227.508 1038.35 227.117 1037.94 226.648C1037.52 226.17 1037.2 225.689 1036.98 225.205H1036.84V234.545H1031.99ZM1036.73 219.273C1036.73 220.311 1036.88 221.216 1037.16 221.989C1037.45 222.761 1037.87 223.364 1038.41 223.795C1038.96 224.22 1039.62 224.432 1040.4 224.432C1041.19 224.432 1041.86 224.216 1042.4 223.784C1042.95 223.345 1043.36 222.739 1043.64 221.966C1043.93 221.186 1044.07 220.288 1044.07 219.273C1044.07 218.265 1043.93 217.379 1043.65 216.614C1043.37 215.848 1042.96 215.25 1042.41 214.818C1041.87 214.386 1041.2 214.17 1040.4 214.17C1039.62 214.17 1038.95 214.379 1038.4 214.795C1037.87 215.212 1037.45 215.803 1037.16 216.568C1036.88 217.333 1036.73 218.235 1036.73 219.273Z" fill="#1A1A1A"/>
<rect x="803" y="626" width="342" height="153" rx="23" fill="white"/>
<path d="M894.227 690.727L899.852 708.409H900.068L905.705 690.727H911.159L903.136 714H896.795L888.761 690.727H894.227ZM933.182 698.875H928.205C928.114 698.231 927.928 697.659 927.648 697.159C927.367 696.652 927.008 696.22 926.568 695.864C926.129 695.508 925.621 695.235 925.045 695.045C924.477 694.856 923.86 694.761 923.193 694.761C921.989 694.761 920.939 695.061 920.045 695.659C919.152 696.25 918.458 697.114 917.966 698.25C917.473 699.379 917.227 700.75 917.227 702.364C917.227 704.023 917.473 705.417 917.966 706.545C918.466 707.674 919.163 708.527 920.057 709.102C920.951 709.678 921.985 709.966 923.159 709.966C923.818 709.966 924.428 709.879 924.989 709.705C925.557 709.53 926.061 709.277 926.5 708.943C926.939 708.602 927.303 708.189 927.591 707.705C927.886 707.22 928.091 706.667 928.205 706.045L933.182 706.068C933.053 707.136 932.731 708.167 932.216 709.159C931.708 710.144 931.023 711.027 930.159 711.807C929.303 712.58 928.28 713.193 927.091 713.648C925.909 714.095 924.572 714.318 923.08 714.318C921.004 714.318 919.148 713.848 917.511 712.909C915.883 711.97 914.595 710.61 913.648 708.83C912.708 707.049 912.239 704.894 912.239 702.364C912.239 699.826 912.716 697.667 913.67 695.886C914.625 694.106 915.92 692.75 917.557 691.818C919.193 690.879 921.034 690.409 923.08 690.409C924.428 690.409 925.678 690.598 926.83 690.977C927.989 691.356 929.015 691.909 929.909 692.636C930.803 693.356 931.53 694.239 932.091 695.284C932.659 696.33 933.023 697.527 933.182 698.875ZM941.597 714.33C940.483 714.33 939.491 714.136 938.619 713.75C937.748 713.356 937.059 712.777 936.551 712.011C936.051 711.239 935.801 710.277 935.801 709.125C935.801 708.155 935.979 707.341 936.335 706.682C936.691 706.023 937.176 705.492 937.79 705.091C938.403 704.689 939.1 704.386 939.881 704.182C940.669 703.977 941.494 703.833 942.358 703.75C943.373 703.644 944.191 703.545 944.812 703.455C945.434 703.356 945.884 703.212 946.165 703.023C946.445 702.833 946.585 702.553 946.585 702.182V702.114C946.585 701.394 946.358 700.837 945.903 700.443C945.456 700.049 944.82 699.852 943.994 699.852C943.123 699.852 942.43 700.045 941.915 700.432C941.4 700.811 941.059 701.288 940.892 701.864L936.415 701.5C936.642 700.439 937.089 699.523 937.756 698.75C938.422 697.97 939.282 697.371 940.335 696.955C941.396 696.53 942.623 696.318 944.017 696.318C944.987 696.318 945.915 696.432 946.801 696.659C947.695 696.886 948.487 697.239 949.176 697.716C949.873 698.193 950.422 698.807 950.824 699.557C951.225 700.299 951.426 701.189 951.426 702.227V714H946.835V711.58H946.699C946.419 712.125 946.044 712.606 945.574 713.023C945.104 713.432 944.54 713.754 943.881 713.989C943.222 714.216 942.46 714.33 941.597 714.33ZM942.983 710.989C943.695 710.989 944.324 710.848 944.869 710.568C945.415 710.28 945.843 709.894 946.153 709.409C946.464 708.924 946.619 708.375 946.619 707.761V705.909C946.468 706.008 946.259 706.098 945.994 706.182C945.737 706.258 945.445 706.33 945.119 706.398C944.794 706.458 944.468 706.515 944.142 706.568C943.816 706.614 943.521 706.655 943.256 706.693C942.688 706.777 942.191 706.909 941.767 707.091C941.343 707.273 941.013 707.519 940.778 707.83C940.544 708.133 940.426 708.511 940.426 708.966C940.426 709.625 940.665 710.129 941.142 710.477C941.627 710.818 942.241 710.989 942.983 710.989ZM955.182 714V696.545H959.875V699.591H960.057C960.375 698.508 960.909 697.689 961.659 697.136C962.409 696.576 963.273 696.295 964.25 696.295C964.492 696.295 964.754 696.311 965.034 696.341C965.314 696.371 965.561 696.413 965.773 696.466V700.761C965.545 700.693 965.231 700.633 964.83 700.58C964.428 700.527 964.061 700.5 963.727 700.5C963.015 700.5 962.379 700.655 961.818 700.966C961.265 701.269 960.826 701.693 960.5 702.239C960.182 702.784 960.023 703.413 960.023 704.125V714H955.182ZM973.895 714.284C972.569 714.284 971.368 713.943 970.293 713.261C969.224 712.572 968.376 711.561 967.747 710.227C967.126 708.886 966.815 707.242 966.815 705.295C966.815 703.295 967.137 701.633 967.781 700.307C968.425 698.973 969.281 697.977 970.349 697.318C971.425 696.652 972.603 696.318 973.884 696.318C974.861 696.318 975.675 696.485 976.327 696.818C976.986 697.144 977.516 697.553 977.918 698.045C978.327 698.53 978.637 699.008 978.849 699.477H978.997V690.727H983.827V714H979.054V711.205H978.849C978.622 711.689 978.3 712.17 977.884 712.648C977.474 713.117 976.94 713.508 976.281 713.818C975.63 714.129 974.834 714.284 973.895 714.284ZM975.429 710.432C976.209 710.432 976.868 710.22 977.406 709.795C977.952 709.364 978.368 708.761 978.656 707.989C978.952 707.216 979.099 706.311 979.099 705.273C979.099 704.235 978.955 703.333 978.668 702.568C978.38 701.803 977.963 701.212 977.418 700.795C976.872 700.379 976.209 700.17 975.429 700.17C974.634 700.17 973.963 700.386 973.418 700.818C972.872 701.25 972.459 701.848 972.179 702.614C971.899 703.379 971.759 704.265 971.759 705.273C971.759 706.288 971.899 707.186 972.179 707.966C972.467 708.739 972.88 709.345 973.418 709.784C973.963 710.216 974.634 710.432 975.429 710.432ZM1008.43 698.875H1003.45C1003.36 698.231 1003.18 697.659 1002.9 697.159C1002.62 696.652 1002.26 696.22 1001.82 695.864C1001.38 695.508 1000.87 695.235 1000.3 695.045C999.727 694.856 999.11 694.761 998.443 694.761C997.239 694.761 996.189 695.061 995.295 695.659C994.402 696.25 993.708 697.114 993.216 698.25C992.723 699.379 992.477 700.75 992.477 702.364C992.477 704.023 992.723 705.417 993.216 706.545C993.716 707.674 994.413 708.527 995.307 709.102C996.201 709.678 997.235 709.966 998.409 709.966C999.068 709.966 999.678 709.879 1000.24 709.705C1000.81 709.53 1001.31 709.277 1001.75 708.943C1002.19 708.602 1002.55 708.189 1002.84 707.705C1003.14 707.22 1003.34 706.667 1003.45 706.045L1008.43 706.068C1008.3 707.136 1007.98 708.167 1007.47 709.159C1006.96 710.144 1006.27 711.027 1005.41 711.807C1004.55 712.58 1003.53 713.193 1002.34 713.648C1001.16 714.095 999.822 714.318 998.33 714.318C996.254 714.318 994.398 713.848 992.761 712.909C991.133 711.97 989.845 710.61 988.898 708.83C987.958 707.049 987.489 704.894 987.489 702.364C987.489 699.826 987.966 697.667 988.92 695.886C989.875 694.106 991.17 692.75 992.807 691.818C994.443 690.879 996.284 690.409 998.33 690.409C999.678 690.409 1000.93 690.598 1002.08 690.977C1003.24 691.356 1004.27 691.909 1005.16 692.636C1006.05 693.356 1006.78 694.239 1007.34 695.284C1007.91 696.33 1008.27 697.527 1008.43 698.875ZM1011.87 714V696.545H1016.48V699.625H1016.69C1017.05 698.602 1017.66 697.795 1018.51 697.205C1019.35 696.614 1020.37 696.318 1021.55 696.318C1022.75 696.318 1023.77 696.617 1024.61 697.216C1025.45 697.807 1026.01 698.61 1026.29 699.625H1026.47C1026.83 698.625 1027.47 697.826 1028.4 697.227C1029.34 696.621 1030.45 696.318 1031.73 696.318C1033.36 696.318 1034.68 696.837 1035.7 697.875C1036.72 698.905 1037.23 700.367 1037.23 702.261V714H1032.4V703.216C1032.4 702.246 1032.15 701.519 1031.63 701.034C1031.12 700.549 1030.47 700.307 1029.7 700.307C1028.82 700.307 1028.13 700.587 1027.64 701.148C1027.15 701.701 1026.9 702.432 1026.9 703.341V714H1022.21V703.114C1022.21 702.258 1021.96 701.576 1021.47 701.068C1020.99 700.561 1020.35 700.307 1019.55 700.307C1019.01 700.307 1018.53 700.443 1018.1 700.716C1017.67 700.981 1017.34 701.356 1017.09 701.841C1016.84 702.318 1016.71 702.879 1016.71 703.523V714H1011.87ZM1041.06 720.545V696.545H1045.83V699.477H1046.05C1046.26 699.008 1046.56 698.53 1046.97 698.045C1047.38 697.553 1047.91 697.144 1048.56 696.818C1049.22 696.485 1050.03 696.318 1051.01 696.318C1052.28 696.318 1053.46 696.652 1054.53 697.318C1055.61 697.977 1056.47 698.973 1057.11 700.307C1057.76 701.633 1058.08 703.295 1058.08 705.295C1058.08 707.242 1057.77 708.886 1057.14 710.227C1056.52 711.561 1055.67 712.572 1054.59 713.261C1053.52 713.943 1052.33 714.284 1051 714.284C1050.06 714.284 1049.26 714.129 1048.6 713.818C1047.95 713.508 1047.42 713.117 1047 712.648C1046.58 712.17 1046.27 711.689 1046.05 711.205H1045.9V720.545H1041.06ZM1045.8 705.273C1045.8 706.311 1045.94 707.216 1046.23 707.989C1046.52 708.761 1046.93 709.364 1047.48 709.795C1048.02 710.22 1048.69 710.432 1049.47 710.432C1050.25 710.432 1050.92 710.216 1051.47 709.784C1052.01 709.345 1052.42 708.739 1052.7 707.966C1052.99 707.186 1053.14 706.288 1053.14 705.273C1053.14 704.265 1053 703.379 1052.72 702.614C1052.44 701.848 1052.02 701.25 1051.48 700.818C1050.93 700.386 1050.26 700.17 1049.47 700.17C1048.68 700.17 1048.01 700.379 1047.47 700.795C1046.93 701.212 1046.52 701.803 1046.23 702.568C1045.94 703.333 1045.8 704.235 1045.8 705.273Z" fill="#1A1A1A"/>
<path d="M976 626L987.547 606L964.453 606L976 626ZM974 293L974 608L978 608L978 293L974 293Z" fill="white"/>
<path d="M222.875 444.693V440.693L238.875 433.648V438.25L227.92 442.648L228.068 442.409V442.977L227.92 442.739L238.875 447.136V451.739L222.875 444.693ZM259.955 434.545L253.852 452H248.398L242.295 434.545H247.409L251.034 447.034H251.216L254.83 434.545H259.955ZM273.307 440.523V444.364H262.693V440.523H273.307ZM285.318 452.341C283.53 452.341 281.992 451.962 280.705 451.205C279.424 450.439 278.439 449.379 277.75 448.023C277.068 446.667 276.727 445.106 276.727 443.341C276.727 441.553 277.072 439.985 277.761 438.636C278.458 437.28 279.447 436.223 280.727 435.466C282.008 434.701 283.53 434.318 285.295 434.318C286.818 434.318 288.152 434.595 289.295 435.148C290.439 435.701 291.345 436.477 292.011 437.477C292.678 438.477 293.045 439.652 293.114 441H288.545C288.417 440.129 288.076 439.428 287.523 438.898C286.977 438.36 286.261 438.091 285.375 438.091C284.625 438.091 283.97 438.295 283.409 438.705C282.856 439.106 282.424 439.693 282.114 440.466C281.803 441.239 281.648 442.174 281.648 443.273C281.648 444.386 281.799 445.333 282.102 446.114C282.413 446.894 282.848 447.489 283.409 447.898C283.97 448.307 284.625 448.511 285.375 448.511C285.928 448.511 286.424 448.398 286.864 448.17C287.311 447.943 287.678 447.614 287.966 447.182C288.261 446.742 288.455 446.216 288.545 445.602H293.114C293.038 446.936 292.674 448.11 292.023 449.125C291.379 450.133 290.489 450.92 289.352 451.489C288.216 452.057 286.871 452.341 285.318 452.341ZM301.19 452.33C300.077 452.33 299.084 452.136 298.213 451.75C297.342 451.356 296.652 450.777 296.145 450.011C295.645 449.239 295.395 448.277 295.395 447.125C295.395 446.155 295.573 445.341 295.929 444.682C296.285 444.023 296.77 443.492 297.384 443.091C297.997 442.689 298.694 442.386 299.474 442.182C300.262 441.977 301.088 441.833 301.952 441.75C302.967 441.644 303.785 441.545 304.406 441.455C305.027 441.356 305.478 441.212 305.759 441.023C306.039 440.833 306.179 440.553 306.179 440.182V440.114C306.179 439.394 305.952 438.837 305.497 438.443C305.05 438.049 304.414 437.852 303.588 437.852C302.717 437.852 302.024 438.045 301.509 438.432C300.993 438.811 300.652 439.288 300.486 439.864L296.009 439.5C296.236 438.439 296.683 437.523 297.349 436.75C298.016 435.97 298.876 435.371 299.929 434.955C300.99 434.53 302.217 434.318 303.611 434.318C304.58 434.318 305.509 434.432 306.395 434.659C307.289 434.886 308.08 435.239 308.77 435.716C309.467 436.193 310.016 436.807 310.418 437.557C310.819 438.299 311.02 439.189 311.02 440.227V452H306.429V449.58H306.293C306.012 450.125 305.637 450.606 305.168 451.023C304.698 451.432 304.134 451.754 303.474 451.989C302.815 452.216 302.054 452.33 301.19 452.33ZM302.577 448.989C303.289 448.989 303.918 448.848 304.463 448.568C305.009 448.28 305.437 447.894 305.747 447.409C306.058 446.924 306.213 446.375 306.213 445.761V443.909C306.062 444.008 305.853 444.098 305.588 444.182C305.33 444.258 305.039 444.33 304.713 444.398C304.387 444.458 304.062 444.515 303.736 444.568C303.41 444.614 303.115 444.655 302.849 444.693C302.281 444.777 301.785 444.909 301.361 445.091C300.937 445.273 300.607 445.519 300.372 445.83C300.137 446.133 300.02 446.511 300.02 446.966C300.02 447.625 300.259 448.129 300.736 448.477C301.221 448.818 301.834 448.989 302.577 448.989ZM314.776 452V434.545H319.469V437.591H319.651C319.969 436.508 320.503 435.689 321.253 435.136C322.003 434.576 322.866 434.295 323.844 434.295C324.086 434.295 324.348 434.311 324.628 434.341C324.908 434.371 325.154 434.413 325.366 434.466V438.761C325.139 438.693 324.825 438.633 324.423 438.58C324.022 438.527 323.654 438.5 323.321 438.5C322.609 438.5 321.973 438.655 321.412 438.966C320.859 439.269 320.42 439.693 320.094 440.239C319.776 440.784 319.616 441.413 319.616 442.125V452H314.776ZM333.489 452.284C332.163 452.284 330.962 451.943 329.886 451.261C328.818 450.572 327.97 449.561 327.341 448.227C326.72 446.886 326.409 445.242 326.409 443.295C326.409 441.295 326.731 439.633 327.375 438.307C328.019 436.973 328.875 435.977 329.943 435.318C331.019 434.652 332.197 434.318 333.477 434.318C334.455 434.318 335.269 434.485 335.92 434.818C336.58 435.144 337.11 435.553 337.511 436.045C337.92 436.53 338.231 437.008 338.443 437.477H338.591V428.727H343.42V452H338.648V449.205H338.443C338.216 449.689 337.894 450.17 337.477 450.648C337.068 451.117 336.534 451.508 335.875 451.818C335.223 452.129 334.428 452.284 333.489 452.284ZM335.023 448.432C335.803 448.432 336.462 448.22 337 447.795C337.545 447.364 337.962 446.761 338.25 445.989C338.545 445.216 338.693 444.311 338.693 443.273C338.693 442.235 338.549 441.333 338.261 440.568C337.973 439.803 337.557 439.212 337.011 438.795C336.466 438.379 335.803 438.17 335.023 438.17C334.227 438.17 333.557 438.386 333.011 438.818C332.466 439.25 332.053 439.848 331.773 440.614C331.492 441.379 331.352 442.265 331.352 443.273C331.352 444.288 331.492 445.186 331.773 445.966C332.061 446.739 332.473 447.345 333.011 447.784C333.557 448.216 334.227 448.432 335.023 448.432ZM356.261 457.057V428.295H365.227V431.909H360.943V453.432H365.227V457.057H356.261ZM384.173 434.545L378.071 452H372.616L366.514 434.545H371.628L375.253 447.034H375.435L379.048 434.545H384.173ZM394.991 452H386.741V428.727H395.06C397.401 428.727 399.416 429.193 401.105 430.125C402.795 431.049 404.094 432.379 405.003 434.114C405.92 435.848 406.378 437.924 406.378 440.341C406.378 442.765 405.92 444.848 405.003 446.591C404.094 448.333 402.787 449.67 401.082 450.602C399.385 451.534 397.355 452 394.991 452ZM391.662 447.784H394.787C396.241 447.784 397.465 447.527 398.457 447.011C399.457 446.489 400.207 445.682 400.707 444.591C401.215 443.492 401.469 442.076 401.469 440.341C401.469 438.621 401.215 437.216 400.707 436.125C400.207 435.034 399.461 434.231 398.469 433.716C397.476 433.201 396.253 432.943 394.798 432.943H391.662V447.784ZM414.909 452.33C413.795 452.33 412.803 452.136 411.932 451.75C411.061 451.356 410.371 450.777 409.864 450.011C409.364 449.239 409.114 448.277 409.114 447.125C409.114 446.155 409.292 445.341 409.648 444.682C410.004 444.023 410.489 443.492 411.102 443.091C411.716 442.689 412.413 442.386 413.193 442.182C413.981 441.977 414.807 441.833 415.67 441.75C416.686 441.644 417.504 441.545 418.125 441.455C418.746 441.356 419.197 441.212 419.477 441.023C419.758 440.833 419.898 440.553 419.898 440.182V440.114C419.898 439.394 419.67 438.837 419.216 438.443C418.769 438.049 418.133 437.852 417.307 437.852C416.436 437.852 415.742 438.045 415.227 438.432C414.712 438.811 414.371 439.288 414.205 439.864L409.727 439.5C409.955 438.439 410.402 437.523 411.068 436.75C411.735 435.97 412.595 435.371 413.648 434.955C414.708 434.53 415.936 434.318 417.33 434.318C418.299 434.318 419.227 434.432 420.114 434.659C421.008 434.886 421.799 435.239 422.489 435.716C423.186 436.193 423.735 436.807 424.136 437.557C424.538 438.299 424.739 439.189 424.739 440.227V452H420.148V449.58H420.011C419.731 450.125 419.356 450.606 418.886 451.023C418.417 451.432 417.852 451.754 417.193 451.989C416.534 452.216 415.773 452.33 414.909 452.33ZM416.295 448.989C417.008 448.989 417.636 448.848 418.182 448.568C418.727 448.28 419.155 447.894 419.466 447.409C419.777 446.924 419.932 446.375 419.932 445.761V443.909C419.78 444.008 419.572 444.098 419.307 444.182C419.049 444.258 418.758 444.33 418.432 444.398C418.106 444.458 417.78 444.515 417.455 444.568C417.129 444.614 416.833 444.655 416.568 444.693C416 444.777 415.504 444.909 415.08 445.091C414.655 445.273 414.326 445.519 414.091 445.83C413.856 446.133 413.739 446.511 413.739 446.966C413.739 447.625 413.977 448.129 414.455 448.477C414.939 448.818 415.553 448.989 416.295 448.989ZM437.778 434.545V438.182H427.267V434.545H437.778ZM429.653 430.364H434.494V446.636C434.494 447.083 434.563 447.432 434.699 447.682C434.835 447.924 435.025 448.095 435.267 448.193C435.517 448.292 435.805 448.341 436.131 448.341C436.358 448.341 436.585 448.322 436.812 448.284C437.04 448.239 437.214 448.205 437.335 448.182L438.097 451.784C437.854 451.86 437.513 451.947 437.074 452.045C436.634 452.152 436.1 452.216 435.472 452.239C434.305 452.284 433.282 452.129 432.403 451.773C431.532 451.417 430.854 450.864 430.369 450.114C429.884 449.364 429.646 448.417 429.653 447.273V430.364ZM445.909 452.33C444.795 452.33 443.803 452.136 442.932 451.75C442.061 451.356 441.371 450.777 440.864 450.011C440.364 449.239 440.114 448.277 440.114 447.125C440.114 446.155 440.292 445.341 440.648 444.682C441.004 444.023 441.489 443.492 442.102 443.091C442.716 442.689 443.413 442.386 444.193 442.182C444.981 441.977 445.807 441.833 446.67 441.75C447.686 441.644 448.504 441.545 449.125 441.455C449.746 441.356 450.197 441.212 450.477 441.023C450.758 440.833 450.898 440.553 450.898 440.182V440.114C450.898 439.394 450.67 438.837 450.216 438.443C449.769 438.049 449.133 437.852 448.307 437.852C447.436 437.852 446.742 438.045 446.227 438.432C445.712 438.811 445.371 439.288 445.205 439.864L440.727 439.5C440.955 438.439 441.402 437.523 442.068 436.75C442.735 435.97 443.595 435.371 444.648 434.955C445.708 434.53 446.936 434.318 448.33 434.318C449.299 434.318 450.227 434.432 451.114 434.659C452.008 434.886 452.799 435.239 453.489 435.716C454.186 436.193 454.735 436.807 455.136 437.557C455.538 438.299 455.739 439.189 455.739 440.227V452H451.148V449.58H451.011C450.731 450.125 450.356 450.606 449.886 451.023C449.417 451.432 448.852 451.754 448.193 451.989C447.534 452.216 446.773 452.33 445.909 452.33ZM447.295 448.989C448.008 448.989 448.636 448.848 449.182 448.568C449.727 448.28 450.155 447.894 450.466 447.409C450.777 446.924 450.932 446.375 450.932 445.761V443.909C450.78 444.008 450.572 444.098 450.307 444.182C450.049 444.258 449.758 444.33 449.432 444.398C449.106 444.458 448.78 444.515 448.455 444.568C448.129 444.614 447.833 444.655 447.568 444.693C447 444.777 446.504 444.909 446.08 445.091C445.655 445.273 445.326 445.519 445.091 445.83C444.856 446.133 444.739 446.511 444.739 446.966C444.739 447.625 444.977 448.129 445.455 448.477C445.939 448.818 446.553 448.989 447.295 448.989ZM467.267 428.295V457.057H458.301V453.432H462.585V431.909H458.301V428.295H467.267ZM473.679 440.932V436.898H489.372V440.932H473.679ZM473.679 448.477V444.443H489.372V448.477H473.679ZM498.395 428.727V431.182C498.395 431.879 498.259 432.591 497.986 433.318C497.721 434.038 497.365 434.72 496.918 435.364C496.471 436 495.982 436.542 495.452 436.989L493.315 435.727C493.694 435.129 494.027 434.466 494.315 433.739C494.611 433.011 494.759 432.167 494.759 431.205V428.727H498.395ZM504.111 428.727V431.182C504.111 431.879 503.974 432.591 503.702 433.318C503.437 434.038 503.08 434.72 502.634 435.364C502.187 436 501.694 436.542 501.156 436.989L499.02 435.727C499.406 435.129 499.743 434.466 500.031 433.739C500.327 433.011 500.474 432.167 500.474 431.205V428.727H504.111ZM524.83 434.545L518.727 452H513.273L507.17 434.545H512.284L515.909 447.034H516.091L519.705 434.545H524.83ZM535.648 452H527.398V428.727H535.716C538.057 428.727 540.072 429.193 541.761 430.125C543.451 431.049 544.75 432.379 545.659 434.114C546.576 435.848 547.034 437.924 547.034 440.341C547.034 442.765 546.576 444.848 545.659 446.591C544.75 448.333 543.443 449.67 541.739 450.602C540.042 451.534 538.011 452 535.648 452ZM532.318 447.784H535.443C536.898 447.784 538.121 447.527 539.114 447.011C540.114 446.489 540.864 445.682 541.364 444.591C541.871 443.492 542.125 442.076 542.125 440.341C542.125 438.621 541.871 437.216 541.364 436.125C540.864 435.034 540.117 434.231 539.125 433.716C538.133 433.201 536.909 432.943 535.455 432.943H532.318V447.784ZM555.565 452.33C554.452 452.33 553.459 452.136 552.588 451.75C551.717 451.356 551.027 450.777 550.52 450.011C550.02 449.239 549.77 448.277 549.77 447.125C549.77 446.155 549.948 445.341 550.304 444.682C550.66 444.023 551.145 443.492 551.759 443.091C552.372 442.689 553.069 442.386 553.849 442.182C554.637 441.977 555.463 441.833 556.327 441.75C557.342 441.644 558.16 441.545 558.781 441.455C559.402 441.356 559.853 441.212 560.134 441.023C560.414 440.833 560.554 440.553 560.554 440.182V440.114C560.554 439.394 560.327 438.837 559.872 438.443C559.425 438.049 558.789 437.852 557.963 437.852C557.092 437.852 556.399 438.045 555.884 438.432C555.368 438.811 555.027 439.288 554.861 439.864L550.384 439.5C550.611 438.439 551.058 437.523 551.724 436.75C552.391 435.97 553.251 435.371 554.304 434.955C555.365 434.53 556.592 434.318 557.986 434.318C558.955 434.318 559.884 434.432 560.77 434.659C561.664 434.886 562.455 435.239 563.145 435.716C563.842 436.193 564.391 436.807 564.793 437.557C565.194 438.299 565.395 439.189 565.395 440.227V452H560.804V449.58H560.668C560.387 450.125 560.012 450.606 559.543 451.023C559.073 451.432 558.509 451.754 557.849 451.989C557.19 452.216 556.429 452.33 555.565 452.33ZM556.952 448.989C557.664 448.989 558.293 448.848 558.838 448.568C559.384 448.28 559.812 447.894 560.122 447.409C560.433 446.924 560.588 446.375 560.588 445.761V443.909C560.437 444.008 560.228 444.098 559.963 444.182C559.705 444.258 559.414 444.33 559.088 444.398C558.762 444.458 558.437 444.515 558.111 444.568C557.785 444.614 557.49 444.655 557.224 444.693C556.656 444.777 556.16 444.909 555.736 445.091C555.312 445.273 554.982 445.519 554.747 445.83C554.512 446.133 554.395 446.511 554.395 446.966C554.395 447.625 554.634 448.129 555.111 448.477C555.596 448.818 556.209 448.989 556.952 448.989ZM578.435 434.545V438.182H567.923V434.545H578.435ZM570.31 430.364H575.151V446.636C575.151 447.083 575.219 447.432 575.355 447.682C575.491 447.924 575.681 448.095 575.923 448.193C576.173 448.292 576.461 448.341 576.787 448.341C577.014 448.341 577.241 448.322 577.469 448.284C577.696 448.239 577.87 448.205 577.991 448.182L578.753 451.784C578.51 451.86 578.17 451.947 577.73 452.045C577.291 452.152 576.757 452.216 576.128 452.239C574.961 452.284 573.938 452.129 573.06 451.773C572.188 451.417 571.51 450.864 571.026 450.114C570.541 449.364 570.302 448.417 570.31 447.273V430.364ZM586.565 452.33C585.452 452.33 584.459 452.136 583.588 451.75C582.717 451.356 582.027 450.777 581.52 450.011C581.02 449.239 580.77 448.277 580.77 447.125C580.77 446.155 580.948 445.341 581.304 444.682C581.66 444.023 582.145 443.492 582.759 443.091C583.372 442.689 584.069 442.386 584.849 442.182C585.637 441.977 586.463 441.833 587.327 441.75C588.342 441.644 589.16 441.545 589.781 441.455C590.402 441.356 590.853 441.212 591.134 441.023C591.414 440.833 591.554 440.553 591.554 440.182V440.114C591.554 439.394 591.327 438.837 590.872 438.443C590.425 438.049 589.789 437.852 588.963 437.852C588.092 437.852 587.399 438.045 586.884 438.432C586.368 438.811 586.027 439.288 585.861 439.864L581.384 439.5C581.611 438.439 582.058 437.523 582.724 436.75C583.391 435.97 584.251 435.371 585.304 434.955C586.365 434.53 587.592 434.318 588.986 434.318C589.955 434.318 590.884 434.432 591.77 434.659C592.664 434.886 593.455 435.239 594.145 435.716C594.842 436.193 595.391 436.807 595.793 437.557C596.194 438.299 596.395 439.189 596.395 440.227V452H591.804V449.58H591.668C591.387 450.125 591.012 450.606 590.543 451.023C590.073 451.432 589.509 451.754 588.849 451.989C588.19 452.216 587.429 452.33 586.565 452.33ZM587.952 448.989C588.664 448.989 589.293 448.848 589.838 448.568C590.384 448.28 590.812 447.894 591.122 447.409C591.433 446.924 591.588 446.375 591.588 445.761V443.909C591.437 444.008 591.228 444.098 590.963 444.182C590.705 444.258 590.414 444.33 590.088 444.398C589.762 444.458 589.437 444.515 589.111 444.568C588.785 444.614 588.49 444.655 588.224 444.693C587.656 444.777 587.16 444.909 586.736 445.091C586.312 445.273 585.982 445.519 585.747 445.83C585.512 446.133 585.395 446.511 585.395 446.966C585.395 447.625 585.634 448.129 586.111 448.477C586.596 448.818 587.209 448.989 587.952 448.989ZM604.207 428.727V431.182C604.207 431.879 604.071 432.591 603.798 433.318C603.533 434.038 603.177 434.72 602.73 435.364C602.283 436 601.795 436.542 601.264 436.989L599.128 435.727C599.507 435.129 599.84 434.466 600.128 433.739C600.423 433.011 600.571 432.167 600.571 431.205V428.727H604.207ZM609.923 428.727V431.182C609.923 431.879 609.787 432.591 609.514 433.318C609.249 434.038 608.893 434.72 608.446 435.364C607.999 436 607.507 436.542 606.969 436.989L604.832 435.727C605.219 435.129 605.556 434.466 605.844 433.739C606.139 433.011 606.287 432.167 606.287 431.205V428.727H609.923ZM630.562 444.693L614.562 451.739V447.136L625.517 442.739L625.369 442.977V442.409L625.517 442.648L614.562 438.25V433.648L630.562 440.693V444.693ZM636.312 444.693V440.693L652.312 433.648V438.25L641.358 442.648L641.506 442.409V442.977L641.358 442.739L652.312 447.136V451.739L636.312 444.693ZM667.256 427.636L659.756 455.5H655.585L663.085 427.636H667.256ZM685.861 434.545L679.759 452H674.304L668.202 434.545H673.315L676.94 447.034H677.122L680.736 434.545H685.861ZM699.213 440.523V444.364H688.599V440.523H699.213ZM711.224 452.341C709.437 452.341 707.899 451.962 706.611 451.205C705.33 450.439 704.346 449.379 703.656 448.023C702.974 446.667 702.634 445.106 702.634 443.341C702.634 441.553 702.978 439.985 703.668 438.636C704.365 437.28 705.353 436.223 706.634 435.466C707.914 434.701 709.437 434.318 711.202 434.318C712.724 434.318 714.058 434.595 715.202 435.148C716.346 435.701 717.251 436.477 717.918 437.477C718.584 438.477 718.952 439.652 719.02 441H714.452C714.323 440.129 713.982 439.428 713.429 438.898C712.884 438.36 712.168 438.091 711.281 438.091C710.531 438.091 709.876 438.295 709.315 438.705C708.762 439.106 708.33 439.693 708.02 440.466C707.709 441.239 707.554 442.174 707.554 443.273C707.554 444.386 707.705 445.333 708.009 446.114C708.319 446.894 708.755 447.489 709.315 447.898C709.876 448.307 710.531 448.511 711.281 448.511C711.834 448.511 712.33 448.398 712.77 448.17C713.217 447.943 713.584 447.614 713.872 447.182C714.168 446.742 714.361 446.216 714.452 445.602H719.02C718.944 446.936 718.58 448.11 717.929 449.125C717.285 450.133 716.395 450.92 715.259 451.489C714.122 452.057 712.777 452.341 711.224 452.341ZM727.097 452.33C725.983 452.33 724.991 452.136 724.119 451.75C723.248 451.356 722.559 450.777 722.051 450.011C721.551 449.239 721.301 448.277 721.301 447.125C721.301 446.155 721.479 445.341 721.835 444.682C722.191 444.023 722.676 443.492 723.29 443.091C723.903 442.689 724.6 442.386 725.381 442.182C726.169 441.977 726.994 441.833 727.858 441.75C728.873 441.644 729.691 441.545 730.312 441.455C730.934 441.356 731.384 441.212 731.665 441.023C731.945 440.833 732.085 440.553 732.085 440.182V440.114C732.085 439.394 731.858 438.837 731.403 438.443C730.956 438.049 730.32 437.852 729.494 437.852C728.623 437.852 727.93 438.045 727.415 438.432C726.9 438.811 726.559 439.288 726.392 439.864L721.915 439.5C722.142 438.439 722.589 437.523 723.256 436.75C723.922 435.97 724.782 435.371 725.835 434.955C726.896 434.53 728.123 434.318 729.517 434.318C730.487 434.318 731.415 434.432 732.301 434.659C733.195 434.886 733.987 435.239 734.676 435.716C735.373 436.193 735.922 436.807 736.324 437.557C736.725 438.299 736.926 439.189 736.926 440.227V452H732.335V449.58H732.199C731.919 450.125 731.544 450.606 731.074 451.023C730.604 451.432 730.04 451.754 729.381 451.989C728.722 452.216 727.96 452.33 727.097 452.33ZM728.483 448.989C729.195 448.989 729.824 448.848 730.369 448.568C730.915 448.28 731.343 447.894 731.653 447.409C731.964 446.924 732.119 446.375 732.119 445.761V443.909C731.968 444.008 731.759 444.098 731.494 444.182C731.237 444.258 730.945 444.33 730.619 444.398C730.294 444.458 729.968 444.515 729.642 444.568C729.316 444.614 729.021 444.655 728.756 444.693C728.188 444.777 727.691 444.909 727.267 445.091C726.843 445.273 726.513 445.519 726.278 445.83C726.044 446.133 725.926 446.511 725.926 446.966C725.926 447.625 726.165 448.129 726.642 448.477C727.127 448.818 727.741 448.989 728.483 448.989ZM740.682 452V434.545H745.375V437.591H745.557C745.875 436.508 746.409 435.689 747.159 435.136C747.909 434.576 748.773 434.295 749.75 434.295C749.992 434.295 750.254 434.311 750.534 434.341C750.814 434.371 751.061 434.413 751.273 434.466V438.761C751.045 438.693 750.731 438.633 750.33 438.58C749.928 438.527 749.561 438.5 749.227 438.5C748.515 438.5 747.879 438.655 747.318 438.966C746.765 439.269 746.326 439.693 746 440.239C745.682 440.784 745.523 441.413 745.523 442.125V452H740.682ZM759.395 452.284C758.069 452.284 756.868 451.943 755.793 451.261C754.724 450.572 753.876 449.561 753.247 448.227C752.626 446.886 752.315 445.242 752.315 443.295C752.315 441.295 752.637 439.633 753.281 438.307C753.925 436.973 754.781 435.977 755.849 435.318C756.925 434.652 758.103 434.318 759.384 434.318C760.361 434.318 761.175 434.485 761.827 434.818C762.486 435.144 763.016 435.553 763.418 436.045C763.827 436.53 764.137 437.008 764.349 437.477H764.497V428.727H769.327V452H764.554V449.205H764.349C764.122 449.689 763.8 450.17 763.384 450.648C762.974 451.117 762.44 451.508 761.781 451.818C761.13 452.129 760.334 452.284 759.395 452.284ZM760.929 448.432C761.709 448.432 762.368 448.22 762.906 447.795C763.452 447.364 763.868 446.761 764.156 445.989C764.452 445.216 764.599 444.311 764.599 443.273C764.599 442.235 764.455 441.333 764.168 440.568C763.88 439.803 763.463 439.212 762.918 438.795C762.372 438.379 761.709 438.17 760.929 438.17C760.134 438.17 759.463 438.386 758.918 438.818C758.372 439.25 757.959 439.848 757.679 440.614C757.399 441.379 757.259 442.265 757.259 443.273C757.259 444.288 757.399 445.186 757.679 445.966C757.967 446.739 758.38 447.345 758.918 447.784C759.463 448.216 760.134 448.432 760.929 448.432ZM790.25 444.693L774.25 451.739V447.136L785.205 442.739L785.057 442.977V442.409L785.205 442.648L774.25 438.25V433.648L790.25 440.693V444.693Z" fill="white"/>
<path d="M1300.2 151.545L1294.1 169H1288.65L1282.55 151.545H1287.66L1291.28 164.034H1291.47L1295.08 151.545H1300.2ZM1311.02 169H1302.77V145.727H1311.09C1313.43 145.727 1315.45 146.193 1317.14 147.125C1318.83 148.049 1320.13 149.379 1321.03 151.114C1321.95 152.848 1322.41 154.924 1322.41 157.341C1322.41 159.765 1321.95 161.848 1321.03 163.591C1320.13 165.333 1318.82 166.67 1317.11 167.602C1315.42 168.534 1313.39 169 1311.02 169ZM1307.69 164.784H1310.82C1312.27 164.784 1313.5 164.527 1314.49 164.011C1315.49 163.489 1316.24 162.682 1316.74 161.591C1317.25 160.492 1317.5 159.076 1317.5 157.341C1317.5 155.621 1317.25 154.216 1316.74 153.125C1316.24 152.034 1315.49 151.231 1314.5 150.716C1313.51 150.201 1312.28 149.943 1310.83 149.943H1307.69V164.784ZM1330.94 169.33C1329.83 169.33 1328.83 169.136 1327.96 168.75C1327.09 168.356 1326.4 167.777 1325.89 167.011C1325.39 166.239 1325.14 165.277 1325.14 164.125C1325.14 163.155 1325.32 162.341 1325.68 161.682C1326.04 161.023 1326.52 160.492 1327.13 160.091C1327.75 159.689 1328.44 159.386 1329.22 159.182C1330.01 158.977 1330.84 158.833 1331.7 158.75C1332.72 158.644 1333.54 158.545 1334.16 158.455C1334.78 158.356 1335.23 158.212 1335.51 158.023C1335.79 157.833 1335.93 157.553 1335.93 157.182V157.114C1335.93 156.394 1335.7 155.837 1335.25 155.443C1334.8 155.049 1334.16 154.852 1333.34 154.852C1332.47 154.852 1331.77 155.045 1331.26 155.432C1330.74 155.811 1330.4 156.288 1330.24 156.864L1325.76 156.5C1325.99 155.439 1326.43 154.523 1327.1 153.75C1327.77 152.97 1328.63 152.371 1329.68 151.955C1330.74 151.53 1331.97 151.318 1333.36 151.318C1334.33 151.318 1335.26 151.432 1336.14 151.659C1337.04 151.886 1337.83 152.239 1338.52 152.716C1339.22 153.193 1339.77 153.807 1340.17 154.557C1340.57 155.299 1340.77 156.189 1340.77 157.227V169H1336.18V166.58H1336.04C1335.76 167.125 1335.39 167.606 1334.92 168.023C1334.45 168.432 1333.88 168.754 1333.22 168.989C1332.57 169.216 1331.8 169.33 1330.94 169.33ZM1332.33 165.989C1333.04 165.989 1333.67 165.848 1334.21 165.568C1334.76 165.28 1335.19 164.894 1335.5 164.409C1335.81 163.924 1335.96 163.375 1335.96 162.761V160.909C1335.81 161.008 1335.6 161.098 1335.34 161.182C1335.08 161.258 1334.79 161.33 1334.46 161.398C1334.14 161.458 1333.81 161.515 1333.49 161.568C1333.16 161.614 1332.86 161.655 1332.6 161.693C1332.03 161.777 1331.54 161.909 1331.11 162.091C1330.69 162.273 1330.36 162.519 1330.12 162.83C1329.89 163.133 1329.77 163.511 1329.77 163.966C1329.77 164.625 1330.01 165.129 1330.49 165.477C1330.97 165.818 1331.58 165.989 1332.33 165.989ZM1353.81 151.545V155.182H1343.3V151.545H1353.81ZM1345.68 147.364H1350.53V163.636C1350.53 164.083 1350.59 164.432 1350.73 164.682C1350.87 164.924 1351.06 165.095 1351.3 165.193C1351.55 165.292 1351.84 165.341 1352.16 165.341C1352.39 165.341 1352.62 165.322 1352.84 165.284C1353.07 165.239 1353.25 165.205 1353.37 165.182L1354.13 168.784C1353.89 168.86 1353.54 168.947 1353.11 169.045C1352.67 169.152 1352.13 169.216 1351.5 169.239C1350.34 169.284 1349.31 169.129 1348.43 168.773C1347.56 168.417 1346.89 167.864 1346.4 167.114C1345.92 166.364 1345.68 165.417 1345.68 164.273V147.364ZM1361.94 169.33C1360.83 169.33 1359.83 169.136 1358.96 168.75C1358.09 168.356 1357.4 167.777 1356.89 167.011C1356.39 166.239 1356.14 165.277 1356.14 164.125C1356.14 163.155 1356.32 162.341 1356.68 161.682C1357.04 161.023 1357.52 160.492 1358.13 160.091C1358.75 159.689 1359.44 159.386 1360.22 159.182C1361.01 158.977 1361.84 158.833 1362.7 158.75C1363.72 158.644 1364.54 158.545 1365.16 158.455C1365.78 158.356 1366.23 158.212 1366.51 158.023C1366.79 157.833 1366.93 157.553 1366.93 157.182V157.114C1366.93 156.394 1366.7 155.837 1366.25 155.443C1365.8 155.049 1365.16 154.852 1364.34 154.852C1363.47 154.852 1362.77 155.045 1362.26 155.432C1361.74 155.811 1361.4 156.288 1361.24 156.864L1356.76 156.5C1356.99 155.439 1357.43 154.523 1358.1 153.75C1358.77 152.97 1359.63 152.371 1360.68 151.955C1361.74 151.53 1362.97 151.318 1364.36 151.318C1365.33 151.318 1366.26 151.432 1367.14 151.659C1368.04 151.886 1368.83 152.239 1369.52 152.716C1370.22 153.193 1370.77 153.807 1371.17 154.557C1371.57 155.299 1371.77 156.189 1371.77 157.227V169H1367.18V166.58H1367.04C1366.76 167.125 1366.39 167.606 1365.92 168.023C1365.45 168.432 1364.88 168.754 1364.22 168.989C1363.57 169.216 1362.8 169.33 1361.94 169.33ZM1363.33 165.989C1364.04 165.989 1364.67 165.848 1365.21 165.568C1365.76 165.28 1366.19 164.894 1366.5 164.409C1366.81 163.924 1366.96 163.375 1366.96 162.761V160.909C1366.81 161.008 1366.6 161.098 1366.34 161.182C1366.08 161.258 1365.79 161.33 1365.46 161.398C1365.14 161.458 1364.81 161.515 1364.49 161.568C1364.16 161.614 1363.86 161.655 1363.6 161.693C1363.03 161.777 1362.54 161.909 1362.11 162.091C1361.69 162.273 1361.36 162.519 1361.12 162.83C1360.89 163.133 1360.77 163.511 1360.77 163.966C1360.77 164.625 1361.01 165.129 1361.49 165.477C1361.97 165.818 1362.58 165.989 1363.33 165.989ZM1384.02 157.932V153.898H1399.72V157.932H1384.02ZM1384.02 165.477V161.443H1399.72V165.477H1384.02ZM1411.14 159.773V157.489C1412.46 157.489 1413.36 157.227 1413.87 156.705C1414.38 156.182 1414.63 155.337 1414.63 154.17V151.659C1414.63 150.258 1414.83 149.136 1415.21 148.295C1415.61 147.447 1416.15 146.807 1416.85 146.375C1417.55 145.943 1418.39 145.655 1419.35 145.511C1420.31 145.367 1421.36 145.295 1422.51 145.295V148.909C1421.61 148.909 1420.93 149.027 1420.46 149.261C1420 149.489 1419.69 149.845 1419.52 150.33C1419.35 150.807 1419.27 151.413 1419.27 152.148V155.466C1419.27 156.042 1419.16 156.591 1418.95 157.114C1418.74 157.629 1418.35 158.087 1417.77 158.489C1417.19 158.883 1416.37 159.197 1415.3 159.432C1414.24 159.659 1412.85 159.773 1411.14 159.773ZM1422.51 174.057C1421.36 174.057 1420.31 173.985 1419.35 173.841C1418.39 173.697 1417.55 173.409 1416.85 172.977C1416.15 172.545 1415.61 171.905 1415.21 171.057C1414.83 170.216 1414.63 169.095 1414.63 167.693V165.17C1414.63 164.004 1414.38 163.159 1413.87 162.636C1413.36 162.114 1412.46 161.852 1411.14 161.852V159.568C1412.85 159.568 1414.24 159.686 1415.3 159.92C1416.37 160.148 1417.19 160.462 1417.77 160.864C1418.35 161.258 1418.74 161.716 1418.95 162.239C1419.16 162.754 1419.27 163.303 1419.27 163.886V167.205C1419.27 167.932 1419.35 168.534 1419.52 169.011C1419.69 169.496 1420 169.852 1420.46 170.08C1420.93 170.314 1421.61 170.432 1422.51 170.432V174.057ZM1411.14 161.852V157.489H1415.22V161.852H1411.14ZM1310.99 197.909V208H1306.15V190.545H1310.76V193.625H1310.97C1311.36 192.61 1312 191.807 1312.91 191.216C1313.82 190.617 1314.92 190.318 1316.22 190.318C1317.43 190.318 1318.49 190.583 1319.39 191.114C1320.29 191.644 1320.99 192.402 1321.49 193.386C1321.99 194.364 1322.24 195.53 1322.24 196.886V208H1317.4V197.75C1317.41 196.682 1317.14 195.848 1316.58 195.25C1316.03 194.644 1315.27 194.341 1314.3 194.341C1313.65 194.341 1313.07 194.481 1312.57 194.761C1312.08 195.042 1311.69 195.451 1311.41 195.989C1311.14 196.519 1311 197.159 1310.99 197.909ZM1331.03 208.33C1329.92 208.33 1328.93 208.136 1328.06 207.75C1327.19 207.356 1326.5 206.777 1325.99 206.011C1325.49 205.239 1325.24 204.277 1325.24 203.125C1325.24 202.155 1325.42 201.341 1325.77 200.682C1326.13 200.023 1326.61 199.492 1327.23 199.091C1327.84 198.689 1328.54 198.386 1329.32 198.182C1330.11 197.977 1330.93 197.833 1331.8 197.75C1332.81 197.644 1333.63 197.545 1334.25 197.455C1334.87 197.356 1335.32 197.212 1335.6 197.023C1335.88 196.833 1336.02 196.553 1336.02 196.182V196.114C1336.02 195.394 1335.8 194.837 1335.34 194.443C1334.89 194.049 1334.26 193.852 1333.43 193.852C1332.56 193.852 1331.87 194.045 1331.35 194.432C1330.84 194.811 1330.5 195.288 1330.33 195.864L1325.85 195.5C1326.08 194.439 1326.53 193.523 1327.19 192.75C1327.86 191.97 1328.72 191.371 1329.77 190.955C1330.83 190.53 1332.06 190.318 1333.45 190.318C1334.42 190.318 1335.35 190.432 1336.24 190.659C1337.13 190.886 1337.92 191.239 1338.61 191.716C1339.31 192.193 1339.86 192.807 1340.26 193.557C1340.66 194.299 1340.86 195.189 1340.86 196.227V208H1336.27V205.58H1336.14C1335.86 206.125 1335.48 206.606 1335.01 207.023C1334.54 207.432 1333.98 207.754 1333.32 207.989C1332.66 208.216 1331.9 208.33 1331.03 208.33ZM1332.42 204.989C1333.13 204.989 1333.76 204.848 1334.31 204.568C1334.85 204.28 1335.28 203.894 1335.59 203.409C1335.9 202.924 1336.06 202.375 1336.06 201.761V199.909C1335.91 200.008 1335.7 200.098 1335.43 200.182C1335.17 200.258 1334.88 200.33 1334.56 200.398C1334.23 200.458 1333.91 200.515 1333.58 200.568C1333.25 200.614 1332.96 200.655 1332.69 200.693C1332.13 200.777 1331.63 200.909 1331.2 201.091C1330.78 201.273 1330.45 201.519 1330.22 201.83C1329.98 202.133 1329.86 202.511 1329.86 202.966C1329.86 203.625 1330.1 204.129 1330.58 204.477C1331.06 204.818 1331.68 204.989 1332.42 204.989ZM1344.62 208V190.545H1349.23V193.625H1349.44C1349.8 192.602 1350.41 191.795 1351.26 191.205C1352.1 190.614 1353.12 190.318 1354.3 190.318C1355.5 190.318 1356.52 190.617 1357.36 191.216C1358.2 191.807 1358.76 192.61 1359.04 193.625H1359.22C1359.58 192.625 1360.22 191.826 1361.15 191.227C1362.09 190.621 1363.2 190.318 1364.48 190.318C1366.11 190.318 1367.43 190.837 1368.45 191.875C1369.47 192.905 1369.98 194.367 1369.98 196.261V208H1365.15V197.216C1365.15 196.246 1364.9 195.519 1364.38 195.034C1363.87 194.549 1363.22 194.307 1362.45 194.307C1361.57 194.307 1360.88 194.587 1360.39 195.148C1359.9 195.701 1359.65 196.432 1359.65 197.341V208H1354.96V197.114C1354.96 196.258 1354.71 195.576 1354.22 195.068C1353.74 194.561 1353.1 194.307 1352.3 194.307C1351.76 194.307 1351.28 194.443 1350.85 194.716C1350.42 194.981 1350.09 195.356 1349.84 195.841C1349.59 196.318 1349.46 196.879 1349.46 197.523V208H1344.62ZM1381.76 208.341C1379.97 208.341 1378.42 207.977 1377.12 207.25C1375.84 206.515 1374.84 205.477 1374.15 204.136C1373.45 202.788 1373.1 201.193 1373.1 199.352C1373.1 197.557 1373.45 195.981 1374.15 194.625C1374.84 193.269 1375.83 192.212 1377.09 191.455C1378.36 190.697 1379.86 190.318 1381.57 190.318C1382.72 190.318 1383.79 190.504 1384.78 190.875C1385.78 191.239 1386.66 191.788 1387.4 192.523C1388.15 193.258 1388.73 194.182 1389.15 195.295C1389.56 196.402 1389.77 197.697 1389.77 199.182V200.511H1375.03V197.511H1385.22C1385.22 196.814 1385.06 196.197 1384.76 195.659C1384.46 195.121 1384.04 194.701 1383.5 194.398C1382.97 194.087 1382.35 193.932 1381.65 193.932C1380.91 193.932 1380.26 194.102 1379.69 194.443C1379.13 194.777 1378.69 195.227 1378.38 195.795C1378.06 196.356 1377.89 196.981 1377.89 197.67V200.523C1377.89 201.386 1378.05 202.133 1378.36 202.761C1378.69 203.39 1379.15 203.875 1379.74 204.216C1380.33 204.557 1381.03 204.727 1381.84 204.727C1382.38 204.727 1382.87 204.652 1383.32 204.5C1383.77 204.348 1384.15 204.121 1384.47 203.818C1384.78 203.515 1385.03 203.144 1385.19 202.705L1389.67 203C1389.44 204.076 1388.98 205.015 1388.27 205.818C1387.58 206.614 1386.67 207.235 1385.57 207.682C1384.47 208.121 1383.2 208.341 1381.76 208.341ZM1395.76 208.295C1395.01 208.295 1394.37 208.03 1393.83 207.5C1393.3 206.962 1393.03 206.318 1393.03 205.568C1393.03 204.826 1393.3 204.189 1393.83 203.659C1394.37 203.129 1395.01 202.864 1395.76 202.864C1396.49 202.864 1397.13 203.129 1397.67 203.659C1398.22 204.189 1398.49 204.826 1398.49 205.568C1398.49 206.068 1398.36 206.527 1398.1 206.943C1397.85 207.352 1397.52 207.682 1397.11 207.932C1396.7 208.174 1396.25 208.295 1395.76 208.295ZM1395.76 196.068C1395.01 196.068 1394.37 195.803 1393.83 195.273C1393.3 194.742 1393.03 194.098 1393.03 193.341C1393.03 192.598 1393.3 191.966 1393.83 191.443C1394.37 190.913 1395.01 190.648 1395.76 190.648C1396.49 190.648 1397.13 190.913 1397.67 191.443C1398.22 191.966 1398.49 192.598 1398.49 193.341C1398.49 193.848 1398.36 194.311 1398.1 194.727C1397.85 195.136 1397.52 195.462 1397.11 195.705C1396.7 195.947 1396.25 196.068 1395.76 196.068ZM1409.7 192V189.545C1409.7 188.848 1409.84 188.136 1410.11 187.409C1410.38 186.682 1410.74 185.996 1411.19 185.352C1411.63 184.708 1412.12 184.17 1412.64 183.739L1414.78 185C1414.35 185.667 1414.01 186.364 1413.73 187.091C1413.47 187.818 1413.34 188.629 1413.34 189.523V192H1409.7ZM1417.71 208V184.727H1426.89C1428.65 184.727 1430.15 185.042 1431.39 185.67C1432.64 186.292 1433.59 187.174 1434.24 188.318C1434.9 189.455 1435.23 190.792 1435.23 192.33C1435.23 193.875 1434.9 195.205 1434.23 196.318C1433.57 197.424 1432.6 198.273 1431.34 198.864C1430.08 199.455 1428.55 199.75 1426.77 199.75H1420.62V195.795H1425.97C1426.91 195.795 1427.69 195.667 1428.31 195.409C1428.93 195.152 1429.4 194.765 1429.7 194.25C1430.01 193.735 1430.16 193.095 1430.16 192.33C1430.16 191.557 1430.01 190.905 1429.7 190.375C1429.4 189.845 1428.93 189.443 1428.3 189.17C1427.68 188.89 1426.9 188.75 1425.95 188.75H1422.63V208H1417.71ZM1430.28 197.409L1436.06 208H1430.63L1424.97 197.409H1430.28ZM1446.22 208.341C1444.46 208.341 1442.93 207.966 1441.64 207.216C1440.36 206.458 1439.38 205.405 1438.68 204.057C1437.98 202.701 1437.63 201.129 1437.63 199.341C1437.63 197.538 1437.98 195.962 1438.68 194.614C1439.38 193.258 1440.36 192.205 1441.64 191.455C1442.93 190.697 1444.46 190.318 1446.22 190.318C1447.99 190.318 1449.51 190.697 1450.79 191.455C1452.08 192.205 1453.07 193.258 1453.77 194.614C1454.47 195.962 1454.82 197.538 1454.82 199.341C1454.82 201.129 1454.47 202.701 1453.77 204.057C1453.07 205.405 1452.08 206.458 1450.79 207.216C1449.51 207.966 1447.99 208.341 1446.22 208.341ZM1446.25 204.591C1447.05 204.591 1447.72 204.364 1448.26 203.909C1448.8 203.447 1449.2 202.818 1449.47 202.023C1449.75 201.227 1449.89 200.322 1449.89 199.307C1449.89 198.292 1449.75 197.386 1449.47 196.591C1449.2 195.795 1448.8 195.167 1448.26 194.705C1447.72 194.242 1447.05 194.011 1446.25 194.011C1445.44 194.011 1444.75 194.242 1444.2 194.705C1443.66 195.167 1443.24 195.795 1442.96 196.591C1442.69 197.386 1442.55 198.292 1442.55 199.307C1442.55 200.322 1442.69 201.227 1442.96 202.023C1443.24 202.818 1443.66 203.447 1444.2 203.909C1444.75 204.364 1445.44 204.591 1446.25 204.591ZM1465.83 214.909C1464.26 214.909 1462.91 214.693 1461.79 214.261C1460.68 213.837 1459.79 213.258 1459.13 212.523C1458.47 211.788 1458.05 210.962 1457.85 210.045L1462.33 209.443C1462.46 209.792 1462.68 210.117 1462.97 210.42C1463.27 210.723 1463.66 210.966 1464.14 211.148C1464.64 211.337 1465.24 211.432 1465.94 211.432C1466.99 211.432 1467.86 211.174 1468.54 210.659C1469.23 210.152 1469.58 209.299 1469.58 208.102V204.909H1469.37C1469.16 205.394 1468.84 205.852 1468.42 206.284C1467.99 206.716 1467.45 207.068 1466.78 207.341C1466.11 207.614 1465.32 207.75 1464.39 207.75C1463.08 207.75 1461.89 207.447 1460.82 206.841C1459.75 206.227 1458.89 205.292 1458.26 204.034C1457.63 202.769 1457.32 201.17 1457.32 199.239C1457.32 197.261 1457.64 195.61 1458.28 194.284C1458.93 192.958 1459.78 191.966 1460.85 191.307C1461.93 190.648 1463.1 190.318 1464.38 190.318C1465.36 190.318 1466.18 190.485 1466.84 190.818C1467.5 191.144 1468.03 191.553 1468.43 192.045C1468.84 192.53 1469.15 193.008 1469.37 193.477H1469.55V190.545H1474.36V208.17C1474.36 209.655 1474 210.898 1473.27 211.898C1472.54 212.898 1471.54 213.648 1470.25 214.148C1468.97 214.655 1467.49 214.909 1465.83 214.909ZM1465.93 204.114C1466.71 204.114 1467.37 203.92 1467.91 203.534C1468.45 203.14 1468.87 202.58 1469.16 201.852C1469.45 201.117 1469.6 200.239 1469.6 199.216C1469.6 198.193 1469.46 197.307 1469.17 196.557C1468.88 195.799 1468.46 195.212 1467.92 194.795C1467.37 194.379 1466.71 194.17 1465.93 194.17C1465.13 194.17 1464.46 194.386 1463.92 194.818C1463.37 195.242 1462.96 195.833 1462.68 196.591C1462.4 197.348 1462.26 198.223 1462.26 199.216C1462.26 200.223 1462.4 201.095 1462.68 201.83C1462.97 202.557 1463.38 203.121 1463.92 203.523C1464.46 203.917 1465.13 204.114 1465.93 204.114ZM1486.17 208.341C1484.37 208.341 1482.83 207.977 1481.53 207.25C1480.24 206.515 1479.25 205.477 1478.55 204.136C1477.86 202.788 1477.51 201.193 1477.51 199.352C1477.51 197.557 1477.86 195.981 1478.55 194.625C1479.25 193.269 1480.23 192.212 1481.5 191.455C1482.77 190.697 1484.26 190.318 1485.97 190.318C1487.13 190.318 1488.2 190.504 1489.19 190.875C1490.19 191.239 1491.06 191.788 1491.8 192.523C1492.55 193.258 1493.14 194.182 1493.55 195.295C1493.97 196.402 1494.18 197.697 1494.18 199.182V200.511H1479.44V197.511H1489.62C1489.62 196.814 1489.47 196.197 1489.17 195.659C1488.86 195.121 1488.44 194.701 1487.91 194.398C1487.38 194.087 1486.76 193.932 1486.05 193.932C1485.32 193.932 1484.67 194.102 1484.1 194.443C1483.54 194.777 1483.1 195.227 1482.78 195.795C1482.46 196.356 1482.3 196.981 1482.29 197.67V200.523C1482.29 201.386 1482.45 202.133 1482.77 202.761C1483.1 203.39 1483.55 203.875 1484.14 204.216C1484.74 204.557 1485.44 204.727 1486.25 204.727C1486.79 204.727 1487.28 204.652 1487.72 204.5C1488.17 204.348 1488.55 204.121 1488.87 203.818C1489.19 203.515 1489.43 203.144 1489.6 202.705L1494.08 203C1493.85 204.076 1493.38 205.015 1492.68 205.818C1491.98 206.614 1491.08 207.235 1489.97 207.682C1488.88 208.121 1487.61 208.341 1486.17 208.341ZM1497.34 208V190.545H1502.03V193.591H1502.21C1502.53 192.508 1503.07 191.689 1503.82 191.136C1504.57 190.576 1505.43 190.295 1506.41 190.295C1506.65 190.295 1506.91 190.311 1507.19 190.341C1507.47 190.371 1507.72 190.413 1507.93 190.466V194.761C1507.7 194.693 1507.39 194.633 1506.99 194.58C1506.58 194.527 1506.22 194.5 1505.88 194.5C1505.17 194.5 1504.54 194.655 1503.97 194.966C1503.42 195.269 1502.98 195.693 1502.66 196.239C1502.34 196.784 1502.18 197.413 1502.18 198.125V208H1497.34ZM1517.93 208V184.727H1533.34V188.784H1522.85V194.33H1532.32V198.386H1522.85V208H1517.93ZM1543.23 208.341C1541.43 208.341 1539.89 207.977 1538.59 207.25C1537.31 206.515 1536.31 205.477 1535.62 204.136C1534.92 202.788 1534.57 201.193 1534.57 199.352C1534.57 197.557 1534.92 195.981 1535.62 194.625C1536.31 193.269 1537.29 192.212 1538.56 191.455C1539.83 190.697 1541.32 190.318 1543.04 190.318C1544.19 190.318 1545.26 190.504 1546.25 190.875C1547.25 191.239 1548.12 191.788 1548.87 192.523C1549.62 193.258 1550.2 194.182 1550.62 195.295C1551.03 196.402 1551.24 197.697 1551.24 199.182V200.511H1536.5V197.511H1546.68C1546.68 196.814 1546.53 196.197 1546.23 195.659C1545.93 195.121 1545.51 194.701 1544.97 194.398C1544.44 194.087 1543.82 193.932 1543.12 193.932C1542.38 193.932 1541.73 194.102 1541.16 194.443C1540.6 194.777 1540.16 195.227 1539.84 195.795C1539.53 196.356 1539.36 196.981 1539.36 197.67V200.523C1539.36 201.386 1539.51 202.133 1539.83 202.761C1540.16 203.39 1540.62 203.875 1541.21 204.216C1541.8 204.557 1542.5 204.727 1543.31 204.727C1543.85 204.727 1544.34 204.652 1544.79 204.5C1545.23 204.348 1545.62 204.121 1545.93 203.818C1546.25 203.515 1546.5 203.144 1546.66 202.705L1551.14 203C1550.91 204.076 1550.45 205.015 1549.74 205.818C1549.04 206.614 1548.14 207.235 1547.04 207.682C1545.94 208.121 1544.67 208.341 1543.23 208.341ZM1560.83 208.284C1559.51 208.284 1558.31 207.943 1557.23 207.261C1556.16 206.572 1555.31 205.561 1554.68 204.227C1554.06 202.886 1553.75 201.242 1553.75 199.295C1553.75 197.295 1554.07 195.633 1554.72 194.307C1555.36 192.973 1556.22 191.977 1557.29 191.318C1558.36 190.652 1559.54 190.318 1560.82 190.318C1561.8 190.318 1562.61 190.485 1563.26 190.818C1563.92 191.144 1564.45 191.553 1564.86 192.045C1565.26 192.53 1565.57 193.008 1565.79 193.477H1565.93V184.727H1570.76V208H1565.99V205.205H1565.79C1565.56 205.689 1565.24 206.17 1564.82 206.648C1564.41 207.117 1563.88 207.508 1563.22 207.818C1562.57 208.129 1561.77 208.284 1560.83 208.284ZM1562.37 204.432C1563.15 204.432 1563.81 204.22 1564.34 203.795C1564.89 203.364 1565.31 202.761 1565.59 201.989C1565.89 201.216 1566.04 200.311 1566.04 199.273C1566.04 198.235 1565.89 197.333 1565.61 196.568C1565.32 195.803 1564.9 195.212 1564.36 194.795C1563.81 194.379 1563.15 194.17 1562.37 194.17C1561.57 194.17 1560.9 194.386 1560.36 194.818C1559.81 195.25 1559.4 195.848 1559.12 196.614C1558.84 197.379 1558.7 198.265 1558.7 199.273C1558.7 200.288 1558.84 201.186 1559.12 201.966C1559.4 202.739 1559.82 203.345 1560.36 203.784C1560.9 204.216 1561.57 204.432 1562.37 204.432ZM1582.7 208.341C1580.9 208.341 1579.36 207.977 1578.06 207.25C1576.77 206.515 1575.78 205.477 1575.09 204.136C1574.39 202.788 1574.04 201.193 1574.04 199.352C1574.04 197.557 1574.39 195.981 1575.09 194.625C1575.78 193.269 1576.76 192.212 1578.03 191.455C1579.3 190.697 1580.79 190.318 1582.51 190.318C1583.66 190.318 1584.73 190.504 1585.72 190.875C1586.72 191.239 1587.59 191.788 1588.34 192.523C1589.09 193.258 1589.67 194.182 1590.09 195.295C1590.5 196.402 1590.71 197.697 1590.71 199.182V200.511H1575.97V197.511H1586.15C1586.15 196.814 1586 196.197 1585.7 195.659C1585.4 195.121 1584.98 194.701 1584.44 194.398C1583.91 194.087 1583.29 193.932 1582.59 193.932C1581.85 193.932 1581.2 194.102 1580.63 194.443C1580.07 194.777 1579.63 195.227 1579.31 195.795C1578.99 196.356 1578.83 196.981 1578.82 197.67V200.523C1578.82 201.386 1578.98 202.133 1579.3 202.761C1579.63 203.39 1580.09 203.875 1580.68 204.216C1581.27 204.557 1581.97 204.727 1582.78 204.727C1583.32 204.727 1583.81 204.652 1584.26 204.5C1584.7 204.348 1585.09 204.121 1585.4 203.818C1585.72 203.515 1585.96 203.144 1586.13 202.705L1590.61 203C1590.38 204.076 1589.91 205.015 1589.21 205.818C1588.51 206.614 1587.61 207.235 1586.51 207.682C1585.41 208.121 1584.14 208.341 1582.7 208.341ZM1593.87 208V190.545H1598.56V193.591H1598.74C1599.06 192.508 1599.6 191.689 1600.35 191.136C1601.1 190.576 1601.96 190.295 1602.94 190.295C1603.18 190.295 1603.44 190.311 1603.72 190.341C1604 190.371 1604.25 190.413 1604.46 190.466V194.761C1604.23 194.693 1603.92 194.633 1603.52 194.58C1603.12 194.527 1602.75 194.5 1602.41 194.5C1601.7 194.5 1601.07 194.655 1600.51 194.966C1599.95 195.269 1599.51 195.693 1599.19 196.239C1598.87 196.784 1598.71 197.413 1598.71 198.125V208H1593.87ZM1614.11 208.341C1612.31 208.341 1610.76 207.977 1609.47 207.25C1608.18 206.515 1607.19 205.477 1606.49 204.136C1605.79 202.788 1605.45 201.193 1605.45 199.352C1605.45 197.557 1605.79 195.981 1606.49 194.625C1607.19 193.269 1608.17 192.212 1609.43 191.455C1610.71 190.697 1612.2 190.318 1613.91 190.318C1615.06 190.318 1616.14 190.504 1617.13 190.875C1618.13 191.239 1619 191.788 1619.74 192.523C1620.49 193.258 1621.07 194.182 1621.49 195.295C1621.91 196.402 1622.12 197.697 1622.12 199.182V200.511H1607.38V197.511H1617.56C1617.56 196.814 1617.41 196.197 1617.11 195.659C1616.8 195.121 1616.38 194.701 1615.84 194.398C1615.31 194.087 1614.7 193.932 1613.99 193.932C1613.26 193.932 1612.61 194.102 1612.04 194.443C1611.48 194.777 1611.04 195.227 1610.72 195.795C1610.4 196.356 1610.24 196.981 1610.23 197.67V200.523C1610.23 201.386 1610.39 202.133 1610.71 202.761C1611.03 203.39 1611.49 203.875 1612.08 204.216C1612.67 204.557 1613.37 204.727 1614.18 204.727C1614.72 204.727 1615.21 204.652 1615.66 204.5C1616.11 204.348 1616.49 204.121 1616.81 203.818C1617.13 203.515 1617.37 203.144 1617.54 202.705L1622.01 203C1621.79 204.076 1621.32 205.015 1620.62 205.818C1619.92 206.614 1619.02 207.235 1617.91 207.682C1616.81 208.121 1615.54 208.341 1614.11 208.341ZM1625.28 208V190.545H1629.97V193.591H1630.15C1630.47 192.508 1631 191.689 1631.75 191.136C1632.5 190.576 1633.37 190.295 1634.34 190.295C1634.59 190.295 1634.85 190.311 1635.13 190.341C1635.41 190.371 1635.65 190.413 1635.87 190.466V194.761C1635.64 194.693 1635.32 194.633 1634.92 194.58C1634.52 194.527 1634.15 194.5 1633.82 194.5C1633.11 194.5 1632.47 194.655 1631.91 194.966C1631.36 195.269 1630.92 195.693 1630.59 196.239C1630.28 196.784 1630.12 197.413 1630.12 198.125V208H1625.28ZM1642.96 184.727V187.182C1642.96 187.879 1642.82 188.591 1642.55 189.318C1642.28 190.038 1641.93 190.72 1641.48 191.364C1641.03 192 1640.54 192.542 1640.01 192.989L1637.88 191.727C1638.26 191.129 1638.59 190.466 1638.88 189.739C1639.17 189.011 1639.32 188.167 1639.32 187.205V184.727H1642.96ZM1314.11 247.341C1312.31 247.341 1310.76 246.977 1309.47 246.25C1308.18 245.515 1307.19 244.477 1306.49 243.136C1305.79 241.788 1305.45 240.193 1305.45 238.352C1305.45 236.557 1305.79 234.981 1306.49 233.625C1307.19 232.269 1308.17 231.212 1309.43 230.455C1310.71 229.697 1312.2 229.318 1313.91 229.318C1315.06 229.318 1316.14 229.504 1317.13 229.875C1318.13 230.239 1319 230.788 1319.74 231.523C1320.49 232.258 1321.07 233.182 1321.49 234.295C1321.91 235.402 1322.12 236.697 1322.12 238.182V239.511H1307.38V236.511H1317.56C1317.56 235.814 1317.41 235.197 1317.11 234.659C1316.8 234.121 1316.38 233.701 1315.84 233.398C1315.31 233.087 1314.7 232.932 1313.99 232.932C1313.26 232.932 1312.61 233.102 1312.04 233.443C1311.48 233.777 1311.04 234.227 1310.72 234.795C1310.4 235.356 1310.24 235.981 1310.23 236.67V239.523C1310.23 240.386 1310.39 241.133 1310.71 241.761C1311.03 242.39 1311.49 242.875 1312.08 243.216C1312.67 243.557 1313.37 243.727 1314.18 243.727C1314.72 243.727 1315.21 243.652 1315.66 243.5C1316.11 243.348 1316.49 243.121 1316.81 242.818C1317.13 242.515 1317.37 242.144 1317.54 241.705L1322.01 242C1321.79 243.076 1321.32 244.015 1320.62 244.818C1319.92 245.614 1319.02 246.235 1317.91 246.682C1316.81 247.121 1315.54 247.341 1314.11 247.341ZM1325.28 247V229.545H1329.89V232.625H1330.09C1330.46 231.602 1331.06 230.795 1331.91 230.205C1332.76 229.614 1333.78 229.318 1334.96 229.318C1336.15 229.318 1337.17 229.617 1338.01 230.216C1338.86 230.807 1339.42 231.61 1339.7 232.625H1339.88C1340.23 231.625 1340.88 230.826 1341.81 230.227C1342.75 229.621 1343.86 229.318 1345.14 229.318C1346.77 229.318 1348.09 229.837 1349.11 230.875C1350.13 231.905 1350.64 233.367 1350.64 235.261V247H1345.81V236.216C1345.81 235.246 1345.55 234.519 1345.04 234.034C1344.52 233.549 1343.88 233.307 1343.11 233.307C1342.23 233.307 1341.54 233.587 1341.05 234.148C1340.56 234.701 1340.31 235.432 1340.31 236.341V247H1335.62V236.114C1335.62 235.258 1335.37 234.576 1334.88 234.068C1334.39 233.561 1333.75 233.307 1332.96 233.307C1332.42 233.307 1331.93 233.443 1331.5 233.716C1331.08 233.981 1330.74 234.356 1330.49 234.841C1330.24 235.318 1330.12 235.879 1330.12 236.523V247H1325.28ZM1359.44 247.33C1358.33 247.33 1357.33 247.136 1356.46 246.75C1355.59 246.356 1354.9 245.777 1354.39 245.011C1353.89 244.239 1353.64 243.277 1353.64 242.125C1353.64 241.155 1353.82 240.341 1354.18 239.682C1354.54 239.023 1355.02 238.492 1355.63 238.091C1356.25 237.689 1356.94 237.386 1357.72 237.182C1358.51 236.977 1359.34 236.833 1360.2 236.75C1361.22 236.644 1362.04 236.545 1362.66 236.455C1363.28 236.356 1363.73 236.212 1364.01 236.023C1364.29 235.833 1364.43 235.553 1364.43 235.182V235.114C1364.43 234.394 1364.2 233.837 1363.75 233.443C1363.3 233.049 1362.66 232.852 1361.84 232.852C1360.97 232.852 1360.27 233.045 1359.76 233.432C1359.24 233.811 1358.9 234.288 1358.74 234.864L1354.26 234.5C1354.49 233.439 1354.93 232.523 1355.6 231.75C1356.27 230.97 1357.13 230.371 1358.18 229.955C1359.24 229.53 1360.47 229.318 1361.86 229.318C1362.83 229.318 1363.76 229.432 1364.64 229.659C1365.54 229.886 1366.33 230.239 1367.02 230.716C1367.72 231.193 1368.27 231.807 1368.67 232.557C1369.07 233.299 1369.27 234.189 1369.27 235.227V247H1364.68V244.58H1364.54C1364.26 245.125 1363.89 245.606 1363.42 246.023C1362.95 246.432 1362.38 246.754 1361.72 246.989C1361.07 247.216 1360.3 247.33 1359.44 247.33ZM1360.83 243.989C1361.54 243.989 1362.17 243.848 1362.71 243.568C1363.26 243.28 1363.69 242.894 1364 242.409C1364.31 241.924 1364.46 241.375 1364.46 240.761V238.909C1364.31 239.008 1364.1 239.098 1363.84 239.182C1363.58 239.258 1363.29 239.33 1362.96 239.398C1362.64 239.458 1362.31 239.515 1361.99 239.568C1361.66 239.614 1361.36 239.655 1361.1 239.693C1360.53 239.777 1360.04 239.909 1359.61 240.091C1359.19 240.273 1358.86 240.519 1358.62 240.83C1358.39 241.133 1358.27 241.511 1358.27 241.966C1358.27 242.625 1358.51 243.129 1358.99 243.477C1359.47 243.818 1360.08 243.989 1360.83 243.989ZM1373.03 247V229.545H1377.87V247H1373.03ZM1375.46 227.295C1374.74 227.295 1374.12 227.057 1373.61 226.58C1373.1 226.095 1372.84 225.515 1372.84 224.841C1372.84 224.174 1373.1 223.602 1373.61 223.125C1374.12 222.64 1374.74 222.398 1375.46 222.398C1376.18 222.398 1376.79 222.64 1377.3 223.125C1377.81 223.602 1378.07 224.174 1378.07 224.841C1378.07 225.515 1377.81 226.095 1377.3 226.58C1376.79 227.057 1376.18 227.295 1375.46 227.295ZM1386.59 223.727V247H1381.74V223.727H1386.59ZM1393.29 247.295C1392.54 247.295 1391.9 247.03 1391.36 246.5C1390.83 245.962 1390.57 245.318 1390.57 244.568C1390.57 243.826 1390.83 243.189 1391.36 242.659C1391.9 242.129 1392.54 241.864 1393.29 241.864C1394.02 241.864 1394.66 242.129 1395.2 242.659C1395.75 243.189 1396.02 243.826 1396.02 244.568C1396.02 245.068 1395.89 245.527 1395.63 245.943C1395.38 246.352 1395.05 246.682 1394.64 246.932C1394.24 247.174 1393.79 247.295 1393.29 247.295ZM1393.29 235.068C1392.54 235.068 1391.9 234.803 1391.36 234.273C1390.83 233.742 1390.57 233.098 1390.57 232.341C1390.57 231.598 1390.83 230.966 1391.36 230.443C1391.9 229.913 1392.54 229.648 1393.29 229.648C1394.02 229.648 1394.66 229.913 1395.2 230.443C1395.75 230.966 1396.02 231.598 1396.02 232.341C1396.02 232.848 1395.89 233.311 1395.63 233.727C1395.38 234.136 1395.05 234.462 1394.64 234.705C1394.24 234.947 1393.79 235.068 1393.29 235.068ZM1407.23 231V228.545C1407.23 227.848 1407.37 227.136 1407.64 226.409C1407.91 225.682 1408.27 224.996 1408.72 224.352C1409.17 223.708 1409.65 223.17 1410.17 222.739L1412.31 224C1411.89 224.667 1411.54 225.364 1411.26 226.091C1411 226.818 1410.87 227.629 1410.87 228.523V231H1407.23ZM1414.51 247.295C1413.76 247.295 1413.12 247.03 1412.58 246.5C1412.05 245.962 1411.78 245.318 1411.78 244.568C1411.78 243.826 1412.05 243.189 1412.58 242.659C1413.12 242.129 1413.76 241.864 1414.51 241.864C1415.24 241.864 1415.88 242.129 1416.42 242.659C1416.97 243.189 1417.24 243.826 1417.24 244.568C1417.24 245.068 1417.11 245.527 1416.85 245.943C1416.6 246.352 1416.27 246.682 1415.86 246.932C1415.45 247.174 1415 247.295 1414.51 247.295ZM1424.04 247.295C1423.29 247.295 1422.65 247.03 1422.11 246.5C1421.58 245.962 1421.32 245.318 1421.32 244.568C1421.32 243.826 1421.58 243.189 1422.11 242.659C1422.65 242.129 1423.29 241.864 1424.04 241.864C1424.77 241.864 1425.41 242.129 1425.95 242.659C1426.5 243.189 1426.77 243.826 1426.77 244.568C1426.77 245.068 1426.64 245.527 1426.38 245.943C1426.13 246.352 1425.8 246.682 1425.39 246.932C1424.99 247.174 1424.54 247.295 1424.04 247.295ZM1433.57 247.295C1432.82 247.295 1432.18 247.03 1431.64 246.5C1431.11 245.962 1430.85 245.318 1430.85 244.568C1430.85 243.826 1431.11 243.189 1431.64 242.659C1432.18 242.129 1432.82 241.864 1433.57 241.864C1434.3 241.864 1434.94 242.129 1435.48 242.659C1436.03 243.189 1436.3 243.826 1436.3 244.568C1436.3 245.068 1436.17 245.527 1435.91 245.943C1435.66 246.352 1435.34 246.682 1434.93 246.932C1434.52 247.174 1434.07 247.295 1433.57 247.295ZM1441.14 223.727V226.182C1441.14 226.879 1441.01 227.591 1440.74 228.318C1440.47 229.038 1440.11 229.72 1439.67 230.364C1439.22 231 1438.73 231.542 1438.2 231.989L1436.07 230.727C1436.44 230.129 1436.78 229.466 1437.07 228.739C1437.36 228.011 1437.51 227.167 1437.51 226.205V223.727H1441.14ZM1294.1 276.568V278.852C1292.8 278.852 1291.89 279.114 1291.38 279.636C1290.87 280.159 1290.61 281.004 1290.61 282.17V284.693C1290.61 286.095 1290.42 287.216 1290.02 288.057C1289.64 288.905 1289.09 289.545 1288.39 289.977C1287.69 290.409 1286.86 290.697 1285.9 290.841C1284.94 290.985 1283.89 291.057 1282.74 291.057V287.432C1283.63 287.432 1284.31 287.314 1284.77 287.08C1285.24 286.852 1285.56 286.496 1285.73 286.011C1285.89 285.534 1285.98 284.932 1285.98 284.205V280.886C1285.98 280.303 1286.08 279.754 1286.3 279.239C1286.51 278.716 1286.9 278.258 1287.48 277.864C1288.05 277.462 1288.88 277.148 1289.94 276.92C1291.01 276.686 1292.4 276.568 1294.1 276.568ZM1282.74 262.295C1283.89 262.295 1284.94 262.367 1285.9 262.511C1286.86 262.655 1287.69 262.943 1288.39 263.375C1289.09 263.807 1289.64 264.447 1290.02 265.295C1290.42 266.136 1290.61 267.258 1290.61 268.659V271.17C1290.61 272.337 1290.87 273.182 1291.38 273.705C1291.89 274.227 1292.8 274.489 1294.1 274.489V276.773C1292.4 276.773 1291.01 276.659 1289.94 276.432C1288.88 276.197 1288.05 275.883 1287.48 275.489C1286.9 275.087 1286.51 274.629 1286.3 274.114C1286.08 273.591 1285.98 273.042 1285.98 272.466V269.148C1285.98 268.413 1285.89 267.807 1285.73 267.33C1285.56 266.845 1285.24 266.489 1284.77 266.261C1284.31 266.027 1283.63 265.909 1282.74 265.909V262.295ZM1294.1 274.489V278.852H1290.02V274.489H1294.1Z" fill="white"/>
</g>
<defs>
<clipPath id="clip0_701_967">
<rect width="1920" height="1080" fill="white"/>
</clipPath>
</defs>
</svg>
