<svg width="1920" height="1080" viewBox="0 0 1920 1080" fill="none" xmlns="http://www.w3.org/2000/svg">
<g clip-path="url(#clip0_701_891)">
<rect x="572" y="340" width="174" height="101" rx="11" fill="#E61010"/>
<rect x="572" y="340" width="174" height="101" rx="11" stroke="white" stroke-width="2"/>
<path d="M657.557 386.875H652.58C652.489 386.231 652.303 385.659 652.023 385.159C651.742 384.652 651.383 384.22 650.943 383.864C650.504 383.508 649.996 383.235 649.42 383.045C648.852 382.856 648.235 382.761 647.568 382.761C646.364 382.761 645.314 383.061 644.42 383.659C643.527 384.25 642.833 385.114 642.341 386.25C641.848 387.379 641.602 388.75 641.602 390.364C641.602 392.023 641.848 393.417 642.341 394.545C642.841 395.674 643.538 396.527 644.432 397.102C645.326 397.678 646.36 397.966 647.534 397.966C648.193 397.966 648.803 397.879 649.364 397.705C649.932 397.53 650.436 397.277 650.875 396.943C651.314 396.602 651.678 396.189 651.966 395.705C652.261 395.22 652.466 394.667 652.58 394.045L657.557 394.068C657.428 395.136 657.106 396.167 656.591 397.159C656.083 398.144 655.398 399.027 654.534 399.807C653.678 400.58 652.655 401.193 651.466 401.648C650.284 402.095 648.947 402.318 647.455 402.318C645.379 402.318 643.523 401.848 641.886 400.909C640.258 399.97 638.97 398.61 638.023 396.83C637.083 395.049 636.614 392.894 636.614 390.364C636.614 387.826 637.091 385.667 638.045 383.886C639 382.106 640.295 380.75 641.932 379.818C643.568 378.879 645.409 378.409 647.455 378.409C648.803 378.409 650.053 378.598 651.205 378.977C652.364 379.356 653.39 379.909 654.284 380.636C655.178 381.356 655.905 382.239 656.466 383.284C657.034 384.33 657.398 385.527 657.557 386.875ZM669.335 402H661.085V378.727H669.403C671.744 378.727 673.759 379.193 675.449 380.125C677.138 381.049 678.438 382.379 679.347 384.114C680.263 385.848 680.722 387.924 680.722 390.341C680.722 392.765 680.263 394.848 679.347 396.591C678.438 398.333 677.131 399.67 675.426 400.602C673.729 401.534 671.699 402 669.335 402ZM666.006 397.784H669.131C670.585 397.784 671.809 397.527 672.801 397.011C673.801 396.489 674.551 395.682 675.051 394.591C675.559 393.492 675.812 392.076 675.812 390.341C675.812 388.621 675.559 387.216 675.051 386.125C674.551 385.034 673.805 384.231 672.812 383.716C671.82 383.201 670.597 382.943 669.142 382.943H666.006V397.784Z" fill="white"/>
<rect x="572" y="340" width="174" height="101" rx="11" fill="#EEEEEE"/>
<rect x="572" y="340" width="174" height="101" rx="11" stroke="white" stroke-width="2"/>
<rect x="452" y="507" width="174" height="101" rx="11" fill="#EEEEEE"/>
<rect x="452" y="507" width="174" height="101" rx="11" stroke="white" stroke-width="2"/>
<rect x="692" y="507" width="174" height="101" rx="11" fill="#EEEEEE"/>
<rect x="692" y="507" width="174" height="101" rx="11" stroke="white" stroke-width="2"/>
<rect x="165" y="674" width="174" height="101" rx="11" fill="#EEEEEE"/>
<rect x="165" y="674" width="174" height="101" rx="11" stroke="white" stroke-width="2"/>
<rect x="405" y="674" width="174" height="101" rx="11" fill="#EEEEEE"/>
<rect x="405" y="674" width="174" height="101" rx="11" stroke="white" stroke-width="2"/>
<rect x="165" y="841" width="174" height="101" rx="11" fill="#EEEEEE"/>
<rect x="165" y="841" width="174" height="101" rx="11" stroke="white" stroke-width="2"/>
<rect x="405" y="841" width="174" height="101" rx="11" fill="#EEEEEE"/>
<rect x="405" y="841" width="174" height="101" rx="11" stroke="white" stroke-width="2"/>
<rect x="707" y="674" width="174" height="101" rx="11" fill="#EEEEEE"/>
<rect x="707" y="674" width="174" height="101" rx="11" stroke="white" stroke-width="2"/>
<rect x="947" y="674" width="174" height="101" rx="11" fill="#EEEEEE"/>
<rect x="947" y="674" width="174" height="101" rx="11" stroke="white" stroke-width="2"/>
<rect x="707" y="841" width="174" height="101" rx="11" fill="#EEEEEE"/>
<rect x="707" y="841" width="174" height="101" rx="11" stroke="white" stroke-width="2"/>
<rect x="947" y="841" width="174" height="101" rx="11" fill="#EEEEEE"/>
<rect x="947" y="841" width="174" height="101" rx="11" stroke="white" stroke-width="2"/>
<line x1="661" y1="441.414" x2="595.414" y2="507" stroke="white" stroke-width="2" stroke-linecap="round"/>
<line x1="726.586" y1="507" x2="661" y2="441.414" stroke="white" stroke-width="2" stroke-linecap="round"/>
<line x1="780.359" y1="608.392" x2="816.392" y2="673.641" stroke="white" stroke-width="2" stroke-linecap="round"/>
<line x1="1032.78" y1="673.716" x2="780.716" y2="608.219" stroke="white" stroke-width="2" stroke-linecap="round"/>
<line x1="536.247" y1="609.197" x2="253.197" y2="673.753" stroke="white" stroke-width="2" stroke-linecap="round"/>
<line x1="488.787" y1="674.602" x2="537.602" y2="608.213" stroke="white" stroke-width="2" stroke-linecap="round"/>
<line x1="491" y1="841" x2="491" y2="775" stroke="white" stroke-width="2" stroke-linecap="round"/>
<line x1="1053" y1="841" x2="1053" y2="775" stroke="white" stroke-width="2" stroke-linecap="round"/>
<line x1="798" y1="841" x2="798" y2="775" stroke="white" stroke-width="2" stroke-linecap="round"/>
<line x1="251" y1="841" x2="251" y2="775" stroke="white" stroke-width="2" stroke-linecap="round"/>
</g>
<defs>
<clipPath id="clip0_701_891">
<rect width="1920" height="1080" fill="white"/>
</clipPath>
</defs>
</svg>
