<svg width="1920" height="1080" viewBox="0 0 1920 1080" fill="none" xmlns="http://www.w3.org/2000/svg">
<g clip-path="url(#clip0_701_992)">
<rect x="557" y="314" width="174" height="101" rx="11" fill="#E61010"/>
<rect x="557" y="314" width="174" height="101" rx="11" stroke="white" stroke-width="2"/>
<path d="M642.557 360.875H637.58C637.489 360.231 637.303 359.659 637.023 359.159C636.742 358.652 636.383 358.22 635.943 357.864C635.504 357.508 634.996 357.235 634.42 357.045C633.852 356.856 633.235 356.761 632.568 356.761C631.364 356.761 630.314 357.061 629.42 357.659C628.527 358.25 627.833 359.114 627.341 360.25C626.848 361.379 626.602 362.75 626.602 364.364C626.602 366.023 626.848 367.417 627.341 368.545C627.841 369.674 628.538 370.527 629.432 371.102C630.326 371.678 631.36 371.966 632.534 371.966C633.193 371.966 633.803 371.879 634.364 371.705C634.932 371.53 635.436 371.277 635.875 370.943C636.314 370.602 636.678 370.189 636.966 369.705C637.261 369.22 637.466 368.667 637.58 368.045L642.557 368.068C642.428 369.136 642.106 370.167 641.591 371.159C641.083 372.144 640.398 373.027 639.534 373.807C638.678 374.58 637.655 375.193 636.466 375.648C635.284 376.095 633.947 376.318 632.455 376.318C630.379 376.318 628.523 375.848 626.886 374.909C625.258 373.97 623.97 372.61 623.023 370.83C622.083 369.049 621.614 366.894 621.614 364.364C621.614 361.826 622.091 359.667 623.045 357.886C624 356.106 625.295 354.75 626.932 353.818C628.568 352.879 630.409 352.409 632.455 352.409C633.803 352.409 635.053 352.598 636.205 352.977C637.364 353.356 638.39 353.909 639.284 354.636C640.178 355.356 640.905 356.239 641.466 357.284C642.034 358.33 642.398 359.527 642.557 360.875ZM654.335 376H646.085V352.727H654.403C656.744 352.727 658.759 353.193 660.449 354.125C662.138 355.049 663.438 356.379 664.347 358.114C665.263 359.848 665.722 361.924 665.722 364.341C665.722 366.765 665.263 368.848 664.347 370.591C663.438 372.333 662.131 373.67 660.426 374.602C658.729 375.534 656.699 376 654.335 376ZM651.006 371.784H654.131C655.585 371.784 656.809 371.527 657.801 371.011C658.801 370.489 659.551 369.682 660.051 368.591C660.559 367.492 660.812 366.076 660.812 364.341C660.812 362.621 660.559 361.216 660.051 360.125C659.551 359.034 658.805 358.231 657.812 357.716C656.82 357.201 655.597 356.943 654.142 356.943H651.006V371.784Z" fill="white"/>
<rect x="557" y="314" width="174" height="101" rx="11" fill="#EEEEEE"/>
<rect x="557" y="314" width="174" height="101" rx="11" stroke="white" stroke-width="2"/>
<rect x="437" y="481" width="174" height="101" rx="11" fill="#EEEEEE"/>
<rect x="437" y="481" width="174" height="101" rx="11" stroke="white" stroke-width="2"/>
<rect x="667" y="481" width="174" height="101" rx="11" fill="#EEEEEE"/>
<rect x="667" y="481" width="174" height="101" rx="11" stroke="white" stroke-width="2"/>
<rect x="150" y="648" width="174" height="101" rx="11" fill="#EEEEEE"/>
<rect x="150" y="648" width="174" height="101" rx="11" stroke="white" stroke-width="2"/>
<rect x="390" y="648" width="174" height="101" rx="11" fill="#EEEEEE"/>
<rect x="390" y="648" width="174" height="101" rx="11" stroke="white" stroke-width="2"/>
<rect x="150" y="815" width="174" height="101" rx="11" fill="#EEEEEE"/>
<rect x="150" y="815" width="174" height="101" rx="11" stroke="white" stroke-width="2"/>
<rect x="390" y="815" width="174" height="101" rx="11" fill="#EEEEEE"/>
<rect x="390" y="815" width="174" height="101" rx="11" stroke="white" stroke-width="2"/>
<rect x="692" y="648" width="174" height="101" rx="11" fill="white"/>
<rect x="692" y="648" width="174" height="101" rx="11" stroke="white" stroke-width="2"/>
<path d="M777.557 694.875H772.58C772.489 694.231 772.303 693.659 772.023 693.159C771.742 692.652 771.383 692.22 770.943 691.864C770.504 691.508 769.996 691.235 769.42 691.045C768.852 690.856 768.235 690.761 767.568 690.761C766.364 690.761 765.314 691.061 764.42 691.659C763.527 692.25 762.833 693.114 762.341 694.25C761.848 695.379 761.602 696.75 761.602 698.364C761.602 700.023 761.848 701.417 762.341 702.545C762.841 703.674 763.538 704.527 764.432 705.102C765.326 705.678 766.36 705.966 767.534 705.966C768.193 705.966 768.803 705.879 769.364 705.705C769.932 705.53 770.436 705.277 770.875 704.943C771.314 704.602 771.678 704.189 771.966 703.705C772.261 703.22 772.466 702.667 772.58 702.045L777.557 702.068C777.428 703.136 777.106 704.167 776.591 705.159C776.083 706.144 775.398 707.027 774.534 707.807C773.678 708.58 772.655 709.193 771.466 709.648C770.284 710.095 768.947 710.318 767.455 710.318C765.379 710.318 763.523 709.848 761.886 708.909C760.258 707.97 758.97 706.61 758.023 704.83C757.083 703.049 756.614 700.894 756.614 698.364C756.614 695.826 757.091 693.667 758.045 691.886C759 690.106 760.295 688.75 761.932 687.818C763.568 686.879 765.409 686.409 767.455 686.409C768.803 686.409 770.053 686.598 771.205 686.977C772.364 687.356 773.39 687.909 774.284 688.636C775.178 689.356 775.905 690.239 776.466 691.284C777.034 692.33 777.398 693.527 777.557 694.875ZM789.335 710H781.085V686.727H789.403C791.744 686.727 793.759 687.193 795.449 688.125C797.138 689.049 798.438 690.379 799.347 692.114C800.263 693.848 800.722 695.924 800.722 698.341C800.722 700.765 800.263 702.848 799.347 704.591C798.438 706.333 797.131 707.67 795.426 708.602C793.729 709.534 791.699 710 789.335 710ZM786.006 705.784H789.131C790.585 705.784 791.809 705.527 792.801 705.011C793.801 704.489 794.551 703.682 795.051 702.591C795.559 701.492 795.812 700.076 795.812 698.341C795.812 696.621 795.559 695.216 795.051 694.125C794.551 693.034 793.805 692.231 792.812 691.716C791.82 691.201 790.597 690.943 789.142 690.943H786.006V705.784Z" fill="white"/>
<rect x="932" y="648" width="174" height="101" rx="11" fill="white"/>
<rect x="932" y="648" width="174" height="101" rx="11" stroke="white" stroke-width="2"/>
<path d="M1017.56 694.875H1012.58C1012.49 694.231 1012.3 693.659 1012.02 693.159C1011.74 692.652 1011.38 692.22 1010.94 691.864C1010.5 691.508 1010 691.235 1009.42 691.045C1008.85 690.856 1008.23 690.761 1007.57 690.761C1006.36 690.761 1005.31 691.061 1004.42 691.659C1003.53 692.25 1002.83 693.114 1002.34 694.25C1001.85 695.379 1001.6 696.75 1001.6 698.364C1001.6 700.023 1001.85 701.417 1002.34 702.545C1002.84 703.674 1003.54 704.527 1004.43 705.102C1005.33 705.678 1006.36 705.966 1007.53 705.966C1008.19 705.966 1008.8 705.879 1009.36 705.705C1009.93 705.53 1010.44 705.277 1010.88 704.943C1011.31 704.602 1011.68 704.189 1011.97 703.705C1012.26 703.22 1012.47 702.667 1012.58 702.045L1017.56 702.068C1017.43 703.136 1017.11 704.167 1016.59 705.159C1016.08 706.144 1015.4 707.027 1014.53 707.807C1013.68 708.58 1012.66 709.193 1011.47 709.648C1010.28 710.095 1008.95 710.318 1007.45 710.318C1005.38 710.318 1003.52 709.848 1001.89 708.909C1000.26 707.97 998.97 706.61 998.023 704.83C997.083 703.049 996.614 700.894 996.614 698.364C996.614 695.826 997.091 693.667 998.045 691.886C999 690.106 1000.3 688.75 1001.93 687.818C1003.57 686.879 1005.41 686.409 1007.45 686.409C1008.8 686.409 1010.05 686.598 1011.2 686.977C1012.36 687.356 1013.39 687.909 1014.28 688.636C1015.18 689.356 1015.91 690.239 1016.47 691.284C1017.03 692.33 1017.4 693.527 1017.56 694.875ZM1029.34 710H1021.09V686.727H1029.4C1031.74 686.727 1033.76 687.193 1035.45 688.125C1037.14 689.049 1038.44 690.379 1039.35 692.114C1040.26 693.848 1040.72 695.924 1040.72 698.341C1040.72 700.765 1040.26 702.848 1039.35 704.591C1038.44 706.333 1037.13 707.67 1035.43 708.602C1033.73 709.534 1031.7 710 1029.34 710ZM1026.01 705.784H1029.13C1030.59 705.784 1031.81 705.527 1032.8 705.011C1033.8 704.489 1034.55 703.682 1035.05 702.591C1035.56 701.492 1035.81 700.076 1035.81 698.341C1035.81 696.621 1035.56 695.216 1035.05 694.125C1034.55 693.034 1033.8 692.231 1032.81 691.716C1031.82 691.201 1030.6 690.943 1029.14 690.943H1026.01V705.784Z" fill="white"/>
<rect x="692" y="815" width="174" height="101" rx="11" fill="#EDB56E"/>
<rect x="692" y="815" width="174" height="101" rx="11" stroke="white" stroke-width="2"/>
<rect x="932" y="815" width="174" height="101" rx="11" fill="white"/>
<rect x="932" y="815" width="174" height="101" rx="11" stroke="white" stroke-width="2"/>
<path d="M1017.56 861.875H1012.58C1012.49 861.231 1012.3 860.659 1012.02 860.159C1011.74 859.652 1011.38 859.22 1010.94 858.864C1010.5 858.508 1010 858.235 1009.42 858.045C1008.85 857.856 1008.23 857.761 1007.57 857.761C1006.36 857.761 1005.31 858.061 1004.42 858.659C1003.53 859.25 1002.83 860.114 1002.34 861.25C1001.85 862.379 1001.6 863.75 1001.6 865.364C1001.6 867.023 1001.85 868.417 1002.34 869.545C1002.84 870.674 1003.54 871.527 1004.43 872.102C1005.33 872.678 1006.36 872.966 1007.53 872.966C1008.19 872.966 1008.8 872.879 1009.36 872.705C1009.93 872.53 1010.44 872.277 1010.88 871.943C1011.31 871.602 1011.68 871.189 1011.97 870.705C1012.26 870.22 1012.47 869.667 1012.58 869.045L1017.56 869.068C1017.43 870.136 1017.11 871.167 1016.59 872.159C1016.08 873.144 1015.4 874.027 1014.53 874.807C1013.68 875.58 1012.66 876.193 1011.47 876.648C1010.28 877.095 1008.95 877.318 1007.45 877.318C1005.38 877.318 1003.52 876.848 1001.89 875.909C1000.26 874.97 998.97 873.61 998.023 871.83C997.083 870.049 996.614 867.894 996.614 865.364C996.614 862.826 997.091 860.667 998.045 858.886C999 857.106 1000.3 855.75 1001.93 854.818C1003.57 853.879 1005.41 853.409 1007.45 853.409C1008.8 853.409 1010.05 853.598 1011.2 853.977C1012.36 854.356 1013.39 854.909 1014.28 855.636C1015.18 856.356 1015.91 857.239 1016.47 858.284C1017.03 859.33 1017.4 860.527 1017.56 861.875ZM1029.34 877H1021.09V853.727H1029.4C1031.74 853.727 1033.76 854.193 1035.45 855.125C1037.14 856.049 1038.44 857.379 1039.35 859.114C1040.26 860.848 1040.72 862.924 1040.72 865.341C1040.72 867.765 1040.26 869.848 1039.35 871.591C1038.44 873.333 1037.13 874.67 1035.43 875.602C1033.73 876.534 1031.7 877 1029.34 877ZM1026.01 872.784H1029.13C1030.59 872.784 1031.81 872.527 1032.8 872.011C1033.8 871.489 1034.55 870.682 1035.05 869.591C1035.56 868.492 1035.81 867.076 1035.81 865.341C1035.81 863.621 1035.56 862.216 1035.05 861.125C1034.55 860.034 1033.8 859.231 1032.81 858.716C1031.82 858.201 1030.6 857.943 1029.14 857.943H1026.01V872.784Z" fill="white"/>
<line x1="646" y1="415.414" x2="580.414" y2="481" stroke="white" stroke-width="2" stroke-linecap="round"/>
<line x1="711.586" y1="481" x2="646" y2="415.414" stroke="white" stroke-width="2" stroke-linecap="round"/>
<line x1="765.359" y1="582.392" x2="801.392" y2="647.641" stroke="white" stroke-width="2" stroke-linecap="round"/>
<line x1="1017.78" y1="647.716" x2="765.716" y2="582.219" stroke="white" stroke-width="2" stroke-linecap="round"/>
<line x1="521.247" y1="583.197" x2="238.197" y2="647.753" stroke="white" stroke-width="2" stroke-linecap="round"/>
<line x1="473.787" y1="648.602" x2="522.602" y2="582.213" stroke="white" stroke-width="2" stroke-linecap="round"/>
<line x1="476" y1="815" x2="476" y2="749" stroke="white" stroke-width="2" stroke-linecap="round"/>
<line x1="1038" y1="815" x2="1038" y2="749" stroke="white" stroke-width="2" stroke-linecap="round"/>
<line x1="783" y1="815" x2="783" y2="749" stroke="white" stroke-width="2" stroke-linecap="round"/>
<line x1="236" y1="815" x2="236" y2="749" stroke="white" stroke-width="2" stroke-linecap="round"/>
<path d="M669.409 968.364C669.409 970.902 668.928 973.061 667.966 974.841C667.011 976.621 665.708 977.981 664.057 978.92C662.413 979.852 660.564 980.318 658.511 980.318C656.443 980.318 654.587 979.848 652.943 978.909C651.299 977.97 650 976.61 649.045 974.83C648.091 973.049 647.614 970.894 647.614 968.364C647.614 965.826 648.091 963.667 649.045 961.886C650 960.106 651.299 958.75 652.943 957.818C654.587 956.879 656.443 956.409 658.511 956.409C660.564 956.409 662.413 956.879 664.057 957.818C665.708 958.75 667.011 960.106 667.966 961.886C668.928 963.667 669.409 965.826 669.409 968.364ZM664.42 968.364C664.42 966.72 664.174 965.333 663.682 964.205C663.197 963.076 662.511 962.22 661.625 961.636C660.739 961.053 659.701 960.761 658.511 960.761C657.322 960.761 656.284 961.053 655.398 961.636C654.511 962.22 653.822 963.076 653.33 964.205C652.845 965.333 652.602 966.72 652.602 968.364C652.602 970.008 652.845 971.394 653.33 972.523C653.822 973.652 654.511 974.508 655.398 975.091C656.284 975.674 657.322 975.966 658.511 975.966C659.701 975.966 660.739 975.674 661.625 975.091C662.511 974.508 663.197 973.652 663.682 972.523C664.174 971.394 664.42 970.008 664.42 968.364ZM673.054 980V956.727H677.895V965.477H678.043C678.255 965.008 678.562 964.53 678.963 964.045C679.372 963.553 679.902 963.144 680.554 962.818C681.213 962.485 682.031 962.318 683.009 962.318C684.281 962.318 685.455 962.652 686.531 963.318C687.607 963.977 688.467 964.973 689.111 966.307C689.755 967.633 690.077 969.295 690.077 971.295C690.077 973.242 689.762 974.886 689.134 976.227C688.512 977.561 687.664 978.572 686.588 979.261C685.52 979.943 684.323 980.284 682.997 980.284C682.058 980.284 681.259 980.129 680.599 979.818C679.948 979.508 679.414 979.117 678.997 978.648C678.58 978.17 678.262 977.689 678.043 977.205H677.827V980H673.054ZM677.793 971.273C677.793 972.311 677.937 973.216 678.224 973.989C678.512 974.761 678.929 975.364 679.474 975.795C680.02 976.22 680.683 976.432 681.463 976.432C682.251 976.432 682.918 976.216 683.463 975.784C684.009 975.345 684.421 974.739 684.702 973.966C684.99 973.186 685.134 972.288 685.134 971.273C685.134 970.265 684.993 969.379 684.713 968.614C684.433 967.848 684.02 967.25 683.474 966.818C682.929 966.386 682.259 966.17 681.463 966.17C680.675 966.17 680.009 966.379 679.463 966.795C678.925 967.212 678.512 967.803 678.224 968.568C677.937 969.333 677.793 970.235 677.793 971.273ZM707.83 967.523L703.398 967.795C703.322 967.417 703.159 967.076 702.909 966.773C702.659 966.462 702.33 966.216 701.92 966.034C701.519 965.845 701.038 965.75 700.477 965.75C699.727 965.75 699.095 965.909 698.58 966.227C698.064 966.538 697.807 966.955 697.807 967.477C697.807 967.894 697.973 968.246 698.307 968.534C698.64 968.822 699.212 969.053 700.023 969.227L703.182 969.864C704.879 970.212 706.144 970.773 706.977 971.545C707.811 972.318 708.227 973.333 708.227 974.591C708.227 975.735 707.89 976.739 707.216 977.602C706.549 978.466 705.633 979.14 704.466 979.625C703.307 980.102 701.97 980.341 700.455 980.341C698.144 980.341 696.303 979.86 694.932 978.898C693.568 977.928 692.769 976.61 692.534 974.943L697.295 974.693C697.439 975.398 697.788 975.936 698.341 976.307C698.894 976.67 699.602 976.852 700.466 976.852C701.314 976.852 701.996 976.689 702.511 976.364C703.034 976.03 703.299 975.602 703.307 975.08C703.299 974.64 703.114 974.28 702.75 974C702.386 973.712 701.826 973.492 701.068 973.341L698.045 972.739C696.341 972.398 695.072 971.807 694.239 970.966C693.413 970.125 693 969.053 693 967.75C693 966.629 693.303 965.663 693.909 964.852C694.523 964.042 695.383 963.417 696.489 962.977C697.602 962.538 698.905 962.318 700.398 962.318C702.602 962.318 704.337 962.784 705.602 963.716C706.875 964.648 707.617 965.917 707.83 967.523ZM719.23 980.341C717.435 980.341 715.889 979.977 714.594 979.25C713.306 978.515 712.313 977.477 711.616 976.136C710.92 974.788 710.571 973.193 710.571 971.352C710.571 969.557 710.92 967.981 711.616 966.625C712.313 965.269 713.295 964.212 714.56 963.455C715.832 962.697 717.325 962.318 719.037 962.318C720.188 962.318 721.26 962.504 722.253 962.875C723.253 963.239 724.124 963.788 724.866 964.523C725.616 965.258 726.2 966.182 726.616 967.295C727.033 968.402 727.241 969.697 727.241 971.182V972.511H712.503V969.511H722.685C722.685 968.814 722.533 968.197 722.23 967.659C721.927 967.121 721.507 966.701 720.969 966.398C720.438 966.087 719.821 965.932 719.116 965.932C718.382 965.932 717.73 966.102 717.162 966.443C716.601 966.777 716.162 967.227 715.844 967.795C715.526 968.356 715.363 968.981 715.355 969.67V972.523C715.355 973.386 715.514 974.133 715.832 974.761C716.158 975.39 716.616 975.875 717.207 976.216C717.798 976.557 718.499 976.727 719.31 976.727C719.848 976.727 720.34 976.652 720.787 976.5C721.234 976.348 721.616 976.121 721.935 975.818C722.253 975.515 722.495 975.144 722.662 974.705L727.139 975C726.912 976.076 726.446 977.015 725.741 977.818C725.045 978.614 724.143 979.235 723.037 979.682C721.938 980.121 720.67 980.341 719.23 980.341ZM730.401 980V962.545H735.094V965.591H735.276C735.594 964.508 736.128 963.689 736.878 963.136C737.628 962.576 738.491 962.295 739.469 962.295C739.711 962.295 739.973 962.311 740.253 962.341C740.533 962.371 740.779 962.413 740.991 962.466V966.761C740.764 966.693 740.45 966.633 740.048 966.58C739.647 966.527 739.279 966.5 738.946 966.5C738.234 966.5 737.598 966.655 737.037 966.966C736.484 967.269 736.045 967.693 735.719 968.239C735.401 968.784 735.241 969.413 735.241 970.125V980H730.401ZM760.298 962.545L754.196 980H748.741L742.639 962.545H747.753L751.378 975.034H751.56L755.173 962.545H760.298ZM767.284 980.33C766.17 980.33 765.178 980.136 764.307 979.75C763.436 979.356 762.746 978.777 762.239 978.011C761.739 977.239 761.489 976.277 761.489 975.125C761.489 974.155 761.667 973.341 762.023 972.682C762.379 972.023 762.864 971.492 763.477 971.091C764.091 970.689 764.788 970.386 765.568 970.182C766.356 969.977 767.182 969.833 768.045 969.75C769.061 969.644 769.879 969.545 770.5 969.455C771.121 969.356 771.572 969.212 771.852 969.023C772.133 968.833 772.273 968.553 772.273 968.182V968.114C772.273 967.394 772.045 966.837 771.591 966.443C771.144 966.049 770.508 965.852 769.682 965.852C768.811 965.852 768.117 966.045 767.602 966.432C767.087 966.811 766.746 967.288 766.58 967.864L762.102 967.5C762.33 966.439 762.777 965.523 763.443 964.75C764.11 963.97 764.97 963.371 766.023 962.955C767.083 962.53 768.311 962.318 769.705 962.318C770.674 962.318 771.602 962.432 772.489 962.659C773.383 962.886 774.174 963.239 774.864 963.716C775.561 964.193 776.11 964.807 776.511 965.557C776.913 966.299 777.114 967.189 777.114 968.227V980H772.523V977.58H772.386C772.106 978.125 771.731 978.606 771.261 979.023C770.792 979.432 770.227 979.754 769.568 979.989C768.909 980.216 768.148 980.33 767.284 980.33ZM768.67 976.989C769.383 976.989 770.011 976.848 770.557 976.568C771.102 976.28 771.53 975.894 771.841 975.409C772.152 974.924 772.307 974.375 772.307 973.761V971.909C772.155 972.008 771.947 972.098 771.682 972.182C771.424 972.258 771.133 972.33 770.807 972.398C770.481 972.458 770.155 972.515 769.83 972.568C769.504 972.614 769.208 972.655 768.943 972.693C768.375 972.777 767.879 972.909 767.455 973.091C767.03 973.273 766.701 973.519 766.466 973.83C766.231 974.133 766.114 974.511 766.114 974.966C766.114 975.625 766.352 976.129 766.83 976.477C767.314 976.818 767.928 976.989 768.67 976.989ZM780.96 980V956.727H785.801V965.477H785.949C786.161 965.008 786.468 964.53 786.869 964.045C787.278 963.553 787.809 963.144 788.46 962.818C789.119 962.485 789.938 962.318 790.915 962.318C792.188 962.318 793.362 962.652 794.438 963.318C795.513 963.977 796.373 964.973 797.017 966.307C797.661 967.633 797.983 969.295 797.983 971.295C797.983 973.242 797.669 974.886 797.04 976.227C796.419 977.561 795.57 978.572 794.494 979.261C793.426 979.943 792.229 980.284 790.903 980.284C789.964 980.284 789.165 980.129 788.506 979.818C787.854 979.508 787.32 979.117 786.903 978.648C786.487 978.17 786.169 977.689 785.949 977.205H785.733V980H780.96ZM785.699 971.273C785.699 972.311 785.843 973.216 786.131 973.989C786.419 974.761 786.835 975.364 787.381 975.795C787.926 976.22 788.589 976.432 789.369 976.432C790.157 976.432 790.824 976.216 791.369 975.784C791.915 975.345 792.328 974.739 792.608 973.966C792.896 973.186 793.04 972.288 793.04 971.273C793.04 970.265 792.9 969.379 792.619 968.614C792.339 967.848 791.926 967.25 791.381 966.818C790.835 966.386 790.165 966.17 789.369 966.17C788.581 966.17 787.915 966.379 787.369 966.795C786.831 967.212 786.419 967.803 786.131 968.568C785.843 969.333 785.699 970.235 785.699 971.273ZM806.054 956.727V980H801.213V956.727H806.054ZM817.886 980.341C816.091 980.341 814.545 979.977 813.25 979.25C811.962 978.515 810.97 977.477 810.273 976.136C809.576 974.788 809.227 973.193 809.227 971.352C809.227 969.557 809.576 967.981 810.273 966.625C810.97 965.269 811.951 964.212 813.216 963.455C814.489 962.697 815.981 962.318 817.693 962.318C818.845 962.318 819.917 962.504 820.909 962.875C821.909 963.239 822.78 963.788 823.523 964.523C824.273 965.258 824.856 966.182 825.273 967.295C825.689 968.402 825.898 969.697 825.898 971.182V972.511H811.159V969.511H821.341C821.341 968.814 821.189 968.197 820.886 967.659C820.583 967.121 820.163 966.701 819.625 966.398C819.095 966.087 818.477 965.932 817.773 965.932C817.038 965.932 816.386 966.102 815.818 966.443C815.258 966.777 814.818 967.227 814.5 967.795C814.182 968.356 814.019 968.981 814.011 969.67V972.523C814.011 973.386 814.17 974.133 814.489 974.761C814.814 975.39 815.273 975.875 815.864 976.216C816.455 976.557 817.155 976.727 817.966 976.727C818.504 976.727 818.996 976.652 819.443 976.5C819.89 976.348 820.273 976.121 820.591 975.818C820.909 975.515 821.152 975.144 821.318 974.705L825.795 975C825.568 976.076 825.102 977.015 824.398 977.818C823.701 978.614 822.799 979.235 821.693 979.682C820.595 980.121 819.326 980.341 817.886 980.341ZM836.554 980V956.727H852.236V960.784H841.474V966.33H851.429V970.386H841.474V975.943H852.281V980H836.554ZM872.33 962.545L866.227 980H860.773L854.67 962.545H859.784L863.409 975.034H863.591L867.205 962.545H872.33ZM882.199 980.341C880.403 980.341 878.858 979.977 877.562 979.25C876.275 978.515 875.282 977.477 874.585 976.136C873.888 974.788 873.54 973.193 873.54 971.352C873.54 969.557 873.888 967.981 874.585 966.625C875.282 965.269 876.263 964.212 877.528 963.455C878.801 962.697 880.294 962.318 882.006 962.318C883.157 962.318 884.229 962.504 885.222 962.875C886.222 963.239 887.093 963.788 887.835 964.523C888.585 965.258 889.169 966.182 889.585 967.295C890.002 968.402 890.21 969.697 890.21 971.182V972.511H875.472V969.511H885.653C885.653 968.814 885.502 968.197 885.199 967.659C884.896 967.121 884.475 966.701 883.938 966.398C883.407 966.087 882.79 965.932 882.085 965.932C881.35 965.932 880.699 966.102 880.131 966.443C879.57 966.777 879.131 967.227 878.812 967.795C878.494 968.356 878.331 968.981 878.324 969.67V972.523C878.324 973.386 878.483 974.133 878.801 974.761C879.127 975.39 879.585 975.875 880.176 976.216C880.767 976.557 881.468 976.727 882.278 976.727C882.816 976.727 883.309 976.652 883.756 976.5C884.203 976.348 884.585 976.121 884.903 975.818C885.222 975.515 885.464 975.144 885.631 974.705L890.108 975C889.881 976.076 889.415 977.015 888.71 977.818C888.013 978.614 887.112 979.235 886.006 979.682C884.907 980.121 883.638 980.341 882.199 980.341ZM898.21 969.909V980H893.369V962.545H897.983V965.625H898.188C898.574 964.61 899.222 963.807 900.131 963.216C901.04 962.617 902.142 962.318 903.438 962.318C904.65 962.318 905.706 962.583 906.608 963.114C907.509 963.644 908.21 964.402 908.71 965.386C909.21 966.364 909.46 967.53 909.46 968.886V980H904.619V969.75C904.627 968.682 904.354 967.848 903.801 967.25C903.248 966.644 902.487 966.341 901.517 966.341C900.866 966.341 900.29 966.481 899.79 966.761C899.297 967.042 898.911 967.451 898.631 967.989C898.358 968.519 898.218 969.159 898.21 969.909ZM922.56 962.545V966.182H912.048V962.545H922.56ZM914.435 958.364H919.276V974.636C919.276 975.083 919.344 975.432 919.48 975.682C919.616 975.924 919.806 976.095 920.048 976.193C920.298 976.292 920.586 976.341 920.912 976.341C921.139 976.341 921.366 976.322 921.594 976.284C921.821 976.239 921.995 976.205 922.116 976.182L922.878 979.784C922.635 979.86 922.295 979.947 921.855 980.045C921.416 980.152 920.882 980.216 920.253 980.239C919.086 980.284 918.063 980.129 917.185 979.773C916.313 979.417 915.635 978.864 915.151 978.114C914.666 977.364 914.427 976.417 914.435 975.273V958.364ZM931.497 956.727L931.054 973.023H926.895L926.44 956.727H931.497ZM928.974 980.295C928.224 980.295 927.58 980.03 927.043 979.5C926.505 978.962 926.24 978.318 926.247 977.568C926.24 976.826 926.505 976.189 927.043 975.659C927.58 975.129 928.224 974.864 928.974 974.864C929.694 974.864 930.327 975.129 930.872 975.659C931.418 976.189 931.694 976.826 931.702 977.568C931.694 978.068 931.562 978.527 931.304 978.943C931.054 979.352 930.724 979.682 930.315 979.932C929.906 980.174 929.459 980.295 928.974 980.295Z" fill="white"/>
</g>
<defs>
<clipPath id="clip0_701_992">
<rect width="1920" height="1080" fill="white"/>
</clipPath>
</defs>
</svg>
