<svg width="1225" height="795" viewBox="0 0 1225 795" fill="none" xmlns="http://www.w3.org/2000/svg">
<path d="M455.979 548.469L433.989 650.013M353.142 657.775L293.638 573.693" stroke="white" stroke-width="2"/>
<path d="M326.624 503.841L430.755 477.323" stroke="white" stroke-width="2"/>
<circle cx="76.9667" cy="162.342" r="76.4667" fill="white" stroke="white"/>
<circle cx="249.01" cy="510.309" r="76.4667" fill="white" stroke="white"/>
<circle cx="76.9667" cy="400.356" r="76.4667" fill="white" stroke="white"/>
<path d="M73.0861 323.39L82.141 236.721M151.346 175.277L213.437 201.148M277.468 296.225L265.826 436.576" stroke="white" stroke-width="2"/>
<circle cx="477.97" cy="476.676" r="76.4667" fill="white" stroke="white"/>
<circle cx="401.65" cy="717.278" r="75.9667" fill="white" stroke="white" stroke-width="2"/>
<circle cx="285.23" cy="219.258" r="76.4667" fill="white" stroke="white"/>
<path d="M187.634 17.4545H195.598L204.01 37.9773H204.368L212.78 17.4545H220.745V48H214.48V28.1186H214.227L206.322 47.8509H202.056L194.151 28.044H193.898V48H187.634V17.4545ZM236.297 48.4474C233.98 48.4474 231.977 47.9553 230.286 46.9709C228.606 45.9766 227.308 44.5945 226.393 42.8246C225.479 41.0447 225.021 38.9815 225.021 36.6349C225.021 34.2685 225.479 32.2003 226.393 30.4304C227.308 28.6506 228.606 27.2685 230.286 26.2841C231.977 25.2898 233.98 24.7926 236.297 24.7926C238.614 24.7926 240.612 25.2898 242.293 26.2841C243.983 27.2685 245.286 28.6506 246.2 30.4304C247.115 32.2003 247.572 34.2685 247.572 36.6349C247.572 38.9815 247.115 41.0447 246.2 42.8246C245.286 44.5945 243.983 45.9766 242.293 46.9709C240.612 47.9553 238.614 48.4474 236.297 48.4474ZM236.327 43.5256C237.381 43.5256 238.261 43.2273 238.967 42.6307C239.673 42.0241 240.205 41.1989 240.563 40.1548C240.93 39.1108 241.114 37.9226 241.114 36.5902C241.114 35.2578 240.93 34.0696 240.563 33.0256C240.205 31.9815 239.673 31.1562 238.967 30.5497C238.261 29.9432 237.381 29.6399 236.327 29.6399C235.263 29.6399 234.368 29.9432 233.642 30.5497C232.926 31.1562 232.384 31.9815 232.016 33.0256C231.658 34.0696 231.479 35.2578 231.479 36.5902C231.479 37.9226 231.658 39.1108 232.016 40.1548C232.384 41.1989 232.926 42.0241 233.642 42.6307C234.368 43.2273 235.263 43.5256 236.327 43.5256ZM260.146 48.3729C258.406 48.3729 256.83 47.9254 255.418 47.0305C254.016 46.1257 252.902 44.7983 252.077 43.0483C251.261 41.2884 250.854 39.1307 250.854 36.5753C250.854 33.9503 251.276 31.7678 252.121 30.0277C252.967 28.2777 254.09 26.9702 255.492 26.1051C256.904 25.2301 258.45 24.7926 260.131 24.7926C261.413 24.7926 262.482 25.0114 263.337 25.4489C264.202 25.8764 264.898 26.4134 265.425 27.0597C265.962 27.696 266.37 28.3224 266.648 28.9389H266.842V17.4545H273.181V48H266.917V44.331H266.648C266.35 44.9673 265.928 45.5987 265.381 46.2251C264.844 46.8416 264.143 47.3537 263.278 47.7614C262.423 48.169 261.379 48.3729 260.146 48.3729ZM262.159 43.3168C263.183 43.3168 264.048 43.0384 264.754 42.4815C265.47 41.9148 266.017 41.1243 266.395 40.1101C266.783 39.0959 266.977 37.9077 266.977 36.5455C266.977 35.1832 266.788 34 266.41 32.9957C266.032 31.9915 265.485 31.2159 264.769 30.669C264.053 30.1222 263.183 29.8487 262.159 29.8487C261.115 29.8487 260.235 30.1321 259.519 30.6989C258.803 31.2656 258.261 32.0511 257.893 33.0554C257.526 34.0597 257.342 35.223 257.342 36.5455C257.342 37.8778 257.526 39.0561 257.893 40.0803C258.271 41.0945 258.813 41.8899 259.519 42.4666C260.235 43.0334 261.115 43.3168 262.159 43.3168ZM288.845 48.4474C286.489 48.4474 284.46 47.9702 282.76 47.0156C281.07 46.0511 279.767 44.6889 278.852 42.929C277.938 41.1591 277.48 39.0661 277.48 36.6499C277.48 34.2933 277.938 32.2251 278.852 30.4453C279.767 28.6655 281.055 27.2784 282.715 26.2841C284.386 25.2898 286.345 24.7926 288.592 24.7926C290.103 24.7926 291.51 25.0362 292.813 25.5234C294.125 26.0007 295.269 26.7216 296.243 27.6861C297.227 28.6506 297.993 29.8636 298.54 31.3253C299.087 32.777 299.36 34.4773 299.36 36.4261V38.1712H280.016V34.2337H293.379C293.379 33.3189 293.181 32.5085 292.783 31.8026C292.385 31.0966 291.833 30.5447 291.127 30.147C290.431 29.7393 289.621 29.5355 288.696 29.5355C287.732 29.5355 286.877 29.7592 286.131 30.2067C285.395 30.6442 284.818 31.2358 284.401 31.9815C283.983 32.7173 283.769 33.5376 283.759 34.4425V38.1861C283.759 39.3196 283.968 40.299 284.386 41.1243C284.813 41.9496 285.415 42.5859 286.191 43.0334C286.966 43.4808 287.886 43.7045 288.95 43.7045C289.656 43.7045 290.302 43.6051 290.889 43.4062C291.475 43.2074 291.977 42.9091 292.395 42.5114C292.813 42.1136 293.131 41.6264 293.35 41.0497L299.226 41.4375C298.928 42.8494 298.316 44.0824 297.392 45.1364C296.477 46.1804 295.294 46.9957 293.842 47.5824C292.4 48.1591 290.735 48.4474 288.845 48.4474ZM309.86 17.4545V48H303.507V17.4545H309.86Z" fill="white"/>
<path d="M900.864 48H890.036V17.4545H900.954C904.026 17.4545 906.671 18.0661 908.888 19.2891C911.106 20.5021 912.811 22.2472 914.004 24.5241C915.207 26.8011 915.809 29.5256 915.809 32.6974C915.809 35.8793 915.207 38.6136 914.004 40.9006C912.811 43.1875 911.096 44.9425 908.859 46.1655C906.631 47.3885 903.967 48 900.864 48ZM896.494 42.4666H900.596C902.505 42.4666 904.111 42.1286 905.413 41.4524C906.726 40.7663 907.71 39.7074 908.366 38.2756C909.033 36.8338 909.366 34.9744 909.366 32.6974C909.366 30.4403 909.033 28.5959 908.366 27.1641C907.71 25.7322 906.731 24.6783 905.428 24.0021C904.126 23.326 902.52 22.9879 900.611 22.9879H896.494V42.4666ZM948.662 32.7273C948.662 36.0582 948.031 38.892 946.768 41.2287C945.515 43.5653 943.805 45.3501 941.638 46.5831C939.48 47.8061 937.054 48.4176 934.359 48.4176C931.645 48.4176 929.209 47.8011 927.051 46.5682C924.893 45.3352 923.188 43.5504 921.935 41.2138C920.682 38.8771 920.056 36.0483 920.056 32.7273C920.056 29.3963 920.682 26.5625 921.935 24.2259C923.188 21.8892 924.893 20.1094 927.051 18.8864C929.209 17.6534 931.645 17.0369 934.359 17.0369C937.054 17.0369 939.48 17.6534 941.638 18.8864C943.805 20.1094 945.515 21.8892 946.768 24.2259C948.031 26.5625 948.662 29.3963 948.662 32.7273ZM942.115 32.7273C942.115 30.5696 941.792 28.75 941.145 27.2685C940.509 25.7869 939.609 24.6634 938.446 23.8977C937.282 23.1321 935.92 22.7493 934.359 22.7493C932.798 22.7493 931.436 23.1321 930.273 23.8977C929.109 24.6634 928.204 25.7869 927.558 27.2685C926.922 28.75 926.603 30.5696 926.603 32.7273C926.603 34.8849 926.922 36.7045 927.558 38.1861C928.204 39.6676 929.109 40.7912 930.273 41.5568C931.436 42.3224 932.798 42.7053 934.359 42.7053C935.92 42.7053 937.282 42.3224 938.446 41.5568C939.609 40.7912 940.509 39.6676 941.145 38.1861C941.792 36.7045 942.115 34.8849 942.115 32.7273ZM953.446 17.4545H961.411L969.823 37.9773H970.181L978.593 17.4545H986.557V48H980.293V28.1186H980.039L972.135 47.8509H967.869L959.964 28.044H959.711V48H953.446V17.4545Z" fill="white"/>
<rect x="854.249" y="94.9298" width="231.841" height="128.356" rx="11.5" fill="white" stroke="#808080"/>
<rect x="714.544" y="270.854" width="231.841" height="128.356" rx="11.5" fill="white" stroke="#808080"/>
<rect x="627.876" y="455.833" width="231.841" height="128.356" rx="11.5" fill="white" stroke="#808080"/>
<rect x="983.604" y="270.854" width="231.841" height="128.356" rx="11.5" fill="white" stroke="#808080"/>
<rect x="897.436" y="456.333" width="230.841" height="127.356" rx="11" fill="white" stroke="white" stroke-width="2"/>
<rect x="992.659" y="640.812" width="231.841" height="128.356" rx="11.5" fill="white" stroke="#808080"/>
<path d="M867.978 270.354L964.348 223.786L1063.95 270.354" stroke="white" stroke-width="2"/>
<path d="M750.264 454.039L825.29 398.416L922.954 454.039M1016.09 584.042L1097.58 639.665" stroke="white" stroke-width="2"/>
</svg>
