<svg width="1920" height="1080" viewBox="0 0 1920 1080" fill="none" xmlns="http://www.w3.org/2000/svg">
<g clip-path="url(#clip0_701_1008)">
<rect x="557" y="314" width="174" height="101" rx="11" fill="white" fill-opacity="0.8"/>
<rect x="557" y="314" width="174" height="101" rx="11" stroke="white" stroke-width="2"/>
<rect x="437" y="481" width="174" height="101" rx="11" fill="white" fill-opacity="0.8"/>
<rect x="437" y="481" width="174" height="101" rx="11" stroke="white" stroke-width="2"/>
<rect x="667" y="481" width="174" height="101" rx="11" fill="white" fill-opacity="0.8"/>
<rect x="667" y="481" width="174" height="101" rx="11" stroke="white" stroke-width="2"/>
<rect x="150" y="648" width="174" height="101" rx="11" fill="white" fill-opacity="0.8"/>
<rect x="150" y="648" width="174" height="101" rx="11" stroke="white" stroke-width="2"/>
<rect x="390" y="648" width="174" height="101" rx="11" fill="white" fill-opacity="0.8"/>
<rect x="390" y="648" width="174" height="101" rx="11" stroke="white" stroke-width="2"/>
<rect x="150" y="815" width="174" height="101" rx="11" fill="white" fill-opacity="0.8"/>
<rect x="150" y="815" width="174" height="101" rx="11" stroke="white" stroke-width="2"/>
<rect x="390" y="815" width="174" height="101" rx="11" fill="white" fill-opacity="0.8"/>
<rect x="390" y="815" width="174" height="101" rx="11" stroke="white" stroke-width="2"/>
<rect x="692" y="648" width="174" height="101" rx="11" fill="white" fill-opacity="0.8"/>
<rect x="692" y="648" width="174" height="101" rx="11" stroke="white" stroke-width="2"/>
<rect x="932" y="648" width="174" height="101" rx="11" fill="white" fill-opacity="0.8"/>
<rect x="932" y="648" width="174" height="101" rx="11" stroke="white" stroke-width="2"/>
<rect x="692" y="815" width="174" height="101" rx="11" fill="#F0B86F"/>
<rect x="692" y="815" width="174" height="101" rx="11" stroke="white" stroke-width="2"/>
<rect x="932" y="815" width="174" height="101" rx="11" fill="white" fill-opacity="0.8"/>
<rect x="932" y="815" width="174" height="101" rx="11" stroke="white" stroke-width="2"/>
<line x1="646" y1="415.414" x2="580.414" y2="481" stroke="white" stroke-width="2" stroke-linecap="round"/>
<line x1="711.586" y1="481" x2="646" y2="415.414" stroke="white" stroke-width="2" stroke-linecap="round"/>
<line x1="765.359" y1="582.392" x2="801.392" y2="647.641" stroke="white" stroke-width="2" stroke-linecap="round"/>
<line x1="1017.78" y1="647.716" x2="765.716" y2="582.219" stroke="white" stroke-width="2" stroke-linecap="round"/>
<line x1="521.247" y1="583.197" x2="238.197" y2="647.753" stroke="white" stroke-width="2" stroke-linecap="round"/>
<line x1="473.787" y1="648.602" x2="522.602" y2="582.213" stroke="white" stroke-width="2" stroke-linecap="round"/>
<line x1="476" y1="815" x2="476" y2="749" stroke="white" stroke-width="2" stroke-linecap="round"/>
<line x1="1038" y1="815" x2="1038" y2="749" stroke="white" stroke-width="2" stroke-linecap="round"/>
<line x1="783" y1="815" x2="783" y2="749" stroke="white" stroke-width="2" stroke-linecap="round"/>
<line x1="236" y1="815" x2="236" y2="749" stroke="white" stroke-width="2" stroke-linecap="round"/>
<path d="M653.409 975.364C653.409 977.902 652.928 980.061 651.966 981.841C651.011 983.621 649.708 984.981 648.057 985.92C646.413 986.852 644.564 987.318 642.511 987.318C640.443 987.318 638.587 986.848 636.943 985.909C635.299 984.97 634 983.61 633.045 981.83C632.091 980.049 631.614 977.894 631.614 975.364C631.614 972.826 632.091 970.667 633.045 968.886C634 967.106 635.299 965.75 636.943 964.818C638.587 963.879 640.443 963.409 642.511 963.409C644.564 963.409 646.413 963.879 648.057 964.818C649.708 965.75 651.011 967.106 651.966 968.886C652.928 970.667 653.409 972.826 653.409 975.364ZM648.42 975.364C648.42 973.72 648.174 972.333 647.682 971.205C647.197 970.076 646.511 969.22 645.625 968.636C644.739 968.053 643.701 967.761 642.511 967.761C641.322 967.761 640.284 968.053 639.398 968.636C638.511 969.22 637.822 970.076 637.33 971.205C636.845 972.333 636.602 973.72 636.602 975.364C636.602 977.008 636.845 978.394 637.33 979.523C637.822 980.652 638.511 981.508 639.398 982.091C640.284 982.674 641.322 982.966 642.511 982.966C643.701 982.966 644.739 982.674 645.625 982.091C646.511 981.508 647.197 980.652 647.682 979.523C648.174 978.394 648.42 977.008 648.42 975.364ZM657.054 987V963.727H661.895V972.477H662.043C662.255 972.008 662.562 971.53 662.963 971.045C663.372 970.553 663.902 970.144 664.554 969.818C665.213 969.485 666.031 969.318 667.009 969.318C668.281 969.318 669.455 969.652 670.531 970.318C671.607 970.977 672.467 971.973 673.111 973.307C673.755 974.633 674.077 976.295 674.077 978.295C674.077 980.242 673.762 981.886 673.134 983.227C672.512 984.561 671.664 985.572 670.588 986.261C669.52 986.943 668.323 987.284 666.997 987.284C666.058 987.284 665.259 987.129 664.599 986.818C663.948 986.508 663.414 986.117 662.997 985.648C662.58 985.17 662.262 984.689 662.043 984.205H661.827V987H657.054ZM661.793 978.273C661.793 979.311 661.937 980.216 662.224 980.989C662.512 981.761 662.929 982.364 663.474 982.795C664.02 983.22 664.683 983.432 665.463 983.432C666.251 983.432 666.918 983.216 667.463 982.784C668.009 982.345 668.421 981.739 668.702 980.966C668.99 980.186 669.134 979.288 669.134 978.273C669.134 977.265 668.993 976.379 668.713 975.614C668.433 974.848 668.02 974.25 667.474 973.818C666.929 973.386 666.259 973.17 665.463 973.17C664.675 973.17 664.009 973.379 663.463 973.795C662.925 974.212 662.512 974.803 662.224 975.568C661.937 976.333 661.793 977.235 661.793 978.273ZM691.83 974.523L687.398 974.795C687.322 974.417 687.159 974.076 686.909 973.773C686.659 973.462 686.33 973.216 685.92 973.034C685.519 972.845 685.038 972.75 684.477 972.75C683.727 972.75 683.095 972.909 682.58 973.227C682.064 973.538 681.807 973.955 681.807 974.477C681.807 974.894 681.973 975.246 682.307 975.534C682.64 975.822 683.212 976.053 684.023 976.227L687.182 976.864C688.879 977.212 690.144 977.773 690.977 978.545C691.811 979.318 692.227 980.333 692.227 981.591C692.227 982.735 691.89 983.739 691.216 984.602C690.549 985.466 689.633 986.14 688.466 986.625C687.307 987.102 685.97 987.341 684.455 987.341C682.144 987.341 680.303 986.86 678.932 985.898C677.568 984.928 676.769 983.61 676.534 981.943L681.295 981.693C681.439 982.398 681.788 982.936 682.341 983.307C682.894 983.67 683.602 983.852 684.466 983.852C685.314 983.852 685.996 983.689 686.511 983.364C687.034 983.03 687.299 982.602 687.307 982.08C687.299 981.64 687.114 981.28 686.75 981C686.386 980.712 685.826 980.492 685.068 980.341L682.045 979.739C680.341 979.398 679.072 978.807 678.239 977.966C677.413 977.125 677 976.053 677 974.75C677 973.629 677.303 972.663 677.909 971.852C678.523 971.042 679.383 970.417 680.489 969.977C681.602 969.538 682.905 969.318 684.398 969.318C686.602 969.318 688.337 969.784 689.602 970.716C690.875 971.648 691.617 972.917 691.83 974.523ZM703.23 987.341C701.435 987.341 699.889 986.977 698.594 986.25C697.306 985.515 696.313 984.477 695.616 983.136C694.92 981.788 694.571 980.193 694.571 978.352C694.571 976.557 694.92 974.981 695.616 973.625C696.313 972.269 697.295 971.212 698.56 970.455C699.832 969.697 701.325 969.318 703.037 969.318C704.188 969.318 705.26 969.504 706.253 969.875C707.253 970.239 708.124 970.788 708.866 971.523C709.616 972.258 710.2 973.182 710.616 974.295C711.033 975.402 711.241 976.697 711.241 978.182V979.511H696.503V976.511H706.685C706.685 975.814 706.533 975.197 706.23 974.659C705.927 974.121 705.507 973.701 704.969 973.398C704.438 973.087 703.821 972.932 703.116 972.932C702.382 972.932 701.73 973.102 701.162 973.443C700.601 973.777 700.162 974.227 699.844 974.795C699.526 975.356 699.363 975.981 699.355 976.67V979.523C699.355 980.386 699.514 981.133 699.832 981.761C700.158 982.39 700.616 982.875 701.207 983.216C701.798 983.557 702.499 983.727 703.31 983.727C703.848 983.727 704.34 983.652 704.787 983.5C705.234 983.348 705.616 983.121 705.935 982.818C706.253 982.515 706.495 982.144 706.662 981.705L711.139 982C710.912 983.076 710.446 984.015 709.741 984.818C709.045 985.614 708.143 986.235 707.037 986.682C705.938 987.121 704.67 987.341 703.23 987.341ZM714.401 987V969.545H719.094V972.591H719.276C719.594 971.508 720.128 970.689 720.878 970.136C721.628 969.576 722.491 969.295 723.469 969.295C723.711 969.295 723.973 969.311 724.253 969.341C724.533 969.371 724.779 969.413 724.991 969.466V973.761C724.764 973.693 724.45 973.633 724.048 973.58C723.647 973.527 723.279 973.5 722.946 973.5C722.234 973.5 721.598 973.655 721.037 973.966C720.484 974.269 720.045 974.693 719.719 975.239C719.401 975.784 719.241 976.413 719.241 977.125V987H714.401ZM744.298 969.545L738.196 987H732.741L726.639 969.545H731.753L735.378 982.034H735.56L739.173 969.545H744.298ZM751.284 987.33C750.17 987.33 749.178 987.136 748.307 986.75C747.436 986.356 746.746 985.777 746.239 985.011C745.739 984.239 745.489 983.277 745.489 982.125C745.489 981.155 745.667 980.341 746.023 979.682C746.379 979.023 746.864 978.492 747.477 978.091C748.091 977.689 748.788 977.386 749.568 977.182C750.356 976.977 751.182 976.833 752.045 976.75C753.061 976.644 753.879 976.545 754.5 976.455C755.121 976.356 755.572 976.212 755.852 976.023C756.133 975.833 756.273 975.553 756.273 975.182V975.114C756.273 974.394 756.045 973.837 755.591 973.443C755.144 973.049 754.508 972.852 753.682 972.852C752.811 972.852 752.117 973.045 751.602 973.432C751.087 973.811 750.746 974.288 750.58 974.864L746.102 974.5C746.33 973.439 746.777 972.523 747.443 971.75C748.11 970.97 748.97 970.371 750.023 969.955C751.083 969.53 752.311 969.318 753.705 969.318C754.674 969.318 755.602 969.432 756.489 969.659C757.383 969.886 758.174 970.239 758.864 970.716C759.561 971.193 760.11 971.807 760.511 972.557C760.913 973.299 761.114 974.189 761.114 975.227V987H756.523V984.58H756.386C756.106 985.125 755.731 985.606 755.261 986.023C754.792 986.432 754.227 986.754 753.568 986.989C752.909 987.216 752.148 987.33 751.284 987.33ZM752.67 983.989C753.383 983.989 754.011 983.848 754.557 983.568C755.102 983.28 755.53 982.894 755.841 982.409C756.152 981.924 756.307 981.375 756.307 980.761V978.909C756.155 979.008 755.947 979.098 755.682 979.182C755.424 979.258 755.133 979.33 754.807 979.398C754.481 979.458 754.155 979.515 753.83 979.568C753.504 979.614 753.208 979.655 752.943 979.693C752.375 979.777 751.879 979.909 751.455 980.091C751.03 980.273 750.701 980.519 750.466 980.83C750.231 981.133 750.114 981.511 750.114 981.966C750.114 982.625 750.352 983.129 750.83 983.477C751.314 983.818 751.928 983.989 752.67 983.989ZM764.96 987V963.727H769.801V972.477H769.949C770.161 972.008 770.468 971.53 770.869 971.045C771.278 970.553 771.809 970.144 772.46 969.818C773.119 969.485 773.938 969.318 774.915 969.318C776.188 969.318 777.362 969.652 778.438 970.318C779.513 970.977 780.373 971.973 781.017 973.307C781.661 974.633 781.983 976.295 781.983 978.295C781.983 980.242 781.669 981.886 781.04 983.227C780.419 984.561 779.57 985.572 778.494 986.261C777.426 986.943 776.229 987.284 774.903 987.284C773.964 987.284 773.165 987.129 772.506 986.818C771.854 986.508 771.32 986.117 770.903 985.648C770.487 985.17 770.169 984.689 769.949 984.205H769.733V987H764.96ZM769.699 978.273C769.699 979.311 769.843 980.216 770.131 980.989C770.419 981.761 770.835 982.364 771.381 982.795C771.926 983.22 772.589 983.432 773.369 983.432C774.157 983.432 774.824 983.216 775.369 982.784C775.915 982.345 776.328 981.739 776.608 980.966C776.896 980.186 777.04 979.288 777.04 978.273C777.04 977.265 776.9 976.379 776.619 975.614C776.339 974.848 775.926 974.25 775.381 973.818C774.835 973.386 774.165 973.17 773.369 973.17C772.581 973.17 771.915 973.379 771.369 973.795C770.831 974.212 770.419 974.803 770.131 975.568C769.843 976.333 769.699 977.235 769.699 978.273ZM790.054 963.727V987H785.213V963.727H790.054ZM801.886 987.341C800.091 987.341 798.545 986.977 797.25 986.25C795.962 985.515 794.97 984.477 794.273 983.136C793.576 981.788 793.227 980.193 793.227 978.352C793.227 976.557 793.576 974.981 794.273 973.625C794.97 972.269 795.951 971.212 797.216 970.455C798.489 969.697 799.981 969.318 801.693 969.318C802.845 969.318 803.917 969.504 804.909 969.875C805.909 970.239 806.78 970.788 807.523 971.523C808.273 972.258 808.856 973.182 809.273 974.295C809.689 975.402 809.898 976.697 809.898 978.182V979.511H795.159V976.511H805.341C805.341 975.814 805.189 975.197 804.886 974.659C804.583 974.121 804.163 973.701 803.625 973.398C803.095 973.087 802.477 972.932 801.773 972.932C801.038 972.932 800.386 973.102 799.818 973.443C799.258 973.777 798.818 974.227 798.5 974.795C798.182 975.356 798.019 975.981 798.011 976.67V979.523C798.011 980.386 798.17 981.133 798.489 981.761C798.814 982.39 799.273 982.875 799.864 983.216C800.455 983.557 801.155 983.727 801.966 983.727C802.504 983.727 802.996 983.652 803.443 983.5C803.89 983.348 804.273 983.121 804.591 982.818C804.909 982.515 805.152 982.144 805.318 981.705L809.795 982C809.568 983.076 809.102 984.015 808.398 984.818C807.701 985.614 806.799 986.235 805.693 986.682C804.595 987.121 803.326 987.341 801.886 987.341ZM820.554 987V963.727H836.236V967.784H825.474V973.33H835.429V977.386H825.474V982.943H836.281V987H820.554ZM856.33 969.545L850.227 987H844.773L838.67 969.545H843.784L847.409 982.034H847.591L851.205 969.545H856.33ZM866.199 987.341C864.403 987.341 862.858 986.977 861.562 986.25C860.275 985.515 859.282 984.477 858.585 983.136C857.888 981.788 857.54 980.193 857.54 978.352C857.54 976.557 857.888 974.981 858.585 973.625C859.282 972.269 860.263 971.212 861.528 970.455C862.801 969.697 864.294 969.318 866.006 969.318C867.157 969.318 868.229 969.504 869.222 969.875C870.222 970.239 871.093 970.788 871.835 971.523C872.585 972.258 873.169 973.182 873.585 974.295C874.002 975.402 874.21 976.697 874.21 978.182V979.511H859.472V976.511H869.653C869.653 975.814 869.502 975.197 869.199 974.659C868.896 974.121 868.475 973.701 867.938 973.398C867.407 973.087 866.79 972.932 866.085 972.932C865.35 972.932 864.699 973.102 864.131 973.443C863.57 973.777 863.131 974.227 862.812 974.795C862.494 975.356 862.331 975.981 862.324 976.67V979.523C862.324 980.386 862.483 981.133 862.801 981.761C863.127 982.39 863.585 982.875 864.176 983.216C864.767 983.557 865.468 983.727 866.278 983.727C866.816 983.727 867.309 983.652 867.756 983.5C868.203 983.348 868.585 983.121 868.903 982.818C869.222 982.515 869.464 982.144 869.631 981.705L874.108 982C873.881 983.076 873.415 984.015 872.71 984.818C872.013 985.614 871.112 986.235 870.006 986.682C868.907 987.121 867.638 987.341 866.199 987.341ZM882.21 976.909V987H877.369V969.545H881.983V972.625H882.188C882.574 971.61 883.222 970.807 884.131 970.216C885.04 969.617 886.142 969.318 887.438 969.318C888.65 969.318 889.706 969.583 890.608 970.114C891.509 970.644 892.21 971.402 892.71 972.386C893.21 973.364 893.46 974.53 893.46 975.886V987H888.619V976.75C888.627 975.682 888.354 974.848 887.801 974.25C887.248 973.644 886.487 973.341 885.517 973.341C884.866 973.341 884.29 973.481 883.79 973.761C883.297 974.042 882.911 974.451 882.631 974.989C882.358 975.519 882.218 976.159 882.21 976.909ZM906.56 969.545V973.182H896.048V969.545H906.56ZM898.435 965.364H903.276V981.636C903.276 982.083 903.344 982.432 903.48 982.682C903.616 982.924 903.806 983.095 904.048 983.193C904.298 983.292 904.586 983.341 904.912 983.341C905.139 983.341 905.366 983.322 905.594 983.284C905.821 983.239 905.995 983.205 906.116 983.182L906.878 986.784C906.635 986.86 906.295 986.947 905.855 987.045C905.416 987.152 904.882 987.216 904.253 987.239C903.086 987.284 902.063 987.129 901.185 986.773C900.313 986.417 899.635 985.864 899.151 985.114C898.666 984.364 898.427 983.417 898.435 982.273V965.364ZM915.497 963.727L915.054 980.023H910.895L910.44 963.727H915.497ZM912.974 987.295C912.224 987.295 911.58 987.03 911.043 986.5C910.505 985.962 910.24 985.318 910.247 984.568C910.24 983.826 910.505 983.189 911.043 982.659C911.58 982.129 912.224 981.864 912.974 981.864C913.694 981.864 914.327 982.129 914.872 982.659C915.418 983.189 915.694 983.826 915.702 984.568C915.694 985.068 915.562 985.527 915.304 985.943C915.054 986.352 914.724 986.682 914.315 986.932C913.906 987.174 913.459 987.295 912.974 987.295Z" fill="white"/>
</g>
<defs>
<clipPath id="clip0_701_1008">
<rect width="1920" height="1080" fill="white"/>
</clipPath>
</defs>
</svg>
