<svg width="1920" height="1080" viewBox="0 0 1920 1080" fill="none" xmlns="http://www.w3.org/2000/svg">
<g clip-path="url(#clip0_701_997)">
<rect x="557" y="314" width="174" height="101" rx="11" fill="white" fill-opacity="0.8"/>
<rect x="557" y="314" width="174" height="101" rx="11" stroke="white" stroke-width="2"/>
<rect x="437" y="481" width="174" height="101" rx="11" fill="white" fill-opacity="0.8"/>
<rect x="437" y="481" width="174" height="101" rx="11" stroke="white" stroke-width="2"/>
<rect x="667" y="481" width="174" height="101" rx="11" fill="white" fill-opacity="0.8"/>
<rect x="667" y="481" width="174" height="101" rx="11" stroke="white" stroke-width="2"/>
<rect x="150" y="648" width="174" height="101" rx="11" fill="white" fill-opacity="0.8"/>
<rect x="150" y="648" width="174" height="101" rx="11" stroke="white" stroke-width="2"/>
<rect x="390" y="648" width="174" height="101" rx="11" fill="white" fill-opacity="0.8"/>
<rect x="390" y="648" width="174" height="101" rx="11" stroke="white" stroke-width="2"/>
<rect x="150" y="815" width="174" height="101" rx="11" fill="white" fill-opacity="0.8"/>
<rect x="150" y="815" width="174" height="101" rx="11" stroke="white" stroke-width="2"/>
<rect x="390" y="815" width="174" height="101" rx="11" fill="white" fill-opacity="0.8"/>
<rect x="390" y="815" width="174" height="101" rx="11" stroke="white" stroke-width="2"/>
<rect x="692" y="648" width="174" height="101" rx="11" fill="white" fill-opacity="0.8"/>
<rect x="692" y="648" width="174" height="101" rx="11" stroke="white" stroke-width="2"/>
<rect x="932" y="648" width="174" height="101" rx="11" fill="white" fill-opacity="0.8"/>
<rect x="932" y="648" width="174" height="101" rx="11" stroke="white" stroke-width="2"/>
<rect x="692" y="815" width="174" height="101" rx="11" fill="white" fill-opacity="0.8"/>
<rect x="692" y="815" width="174" height="101" rx="11" stroke="white" stroke-width="2"/>
<rect x="932" y="815" width="174" height="101" rx="11" fill="white" fill-opacity="0.8"/>
<rect x="932" y="815" width="174" height="101" rx="11" stroke="white" stroke-width="2"/>
<line x1="646" y1="415.414" x2="580.414" y2="481" stroke="white" stroke-width="2" stroke-linecap="round"/>
<line x1="711.586" y1="481" x2="646" y2="415.414" stroke="white" stroke-width="2" stroke-linecap="round"/>
<line x1="765.359" y1="582.392" x2="801.392" y2="647.641" stroke="white" stroke-width="2" stroke-linecap="round"/>
<line x1="1017.78" y1="647.716" x2="765.716" y2="582.219" stroke="white" stroke-width="2" stroke-linecap="round"/>
<line x1="521.247" y1="583.197" x2="238.197" y2="647.753" stroke="white" stroke-width="2" stroke-linecap="round"/>
<line x1="473.787" y1="648.602" x2="522.602" y2="582.213" stroke="white" stroke-width="2" stroke-linecap="round"/>
<line x1="476" y1="815" x2="476" y2="749" stroke="white" stroke-width="2" stroke-linecap="round"/>
<line x1="1038" y1="815" x2="1038" y2="749" stroke="white" stroke-width="2" stroke-linecap="round"/>
<line x1="783" y1="815" x2="783" y2="749" stroke="white" stroke-width="2" stroke-linecap="round"/>
<line x1="236" y1="815" x2="236" y2="749" stroke="white" stroke-width="2" stroke-linecap="round"/>
<path d="M1233.41 613.364C1233.41 615.902 1232.93 618.061 1231.97 619.841C1231.01 621.621 1229.71 622.981 1228.06 623.92C1226.41 624.852 1224.56 625.318 1222.51 625.318C1220.44 625.318 1218.59 624.848 1216.94 623.909C1215.3 622.97 1214 621.61 1213.05 619.83C1212.09 618.049 1211.61 615.894 1211.61 613.364C1211.61 610.826 1212.09 608.667 1213.05 606.886C1214 605.106 1215.3 603.75 1216.94 602.818C1218.59 601.879 1220.44 601.409 1222.51 601.409C1224.56 601.409 1226.41 601.879 1228.06 602.818C1229.71 603.75 1231.01 605.106 1231.97 606.886C1232.93 608.667 1233.41 610.826 1233.41 613.364ZM1228.42 613.364C1228.42 611.72 1228.17 610.333 1227.68 609.205C1227.2 608.076 1226.51 607.22 1225.62 606.636C1224.74 606.053 1223.7 605.761 1222.51 605.761C1221.32 605.761 1220.28 606.053 1219.4 606.636C1218.51 607.22 1217.82 608.076 1217.33 609.205C1216.84 610.333 1216.6 611.72 1216.6 613.364C1216.6 615.008 1216.84 616.394 1217.33 617.523C1217.82 618.652 1218.51 619.508 1219.4 620.091C1220.28 620.674 1221.32 620.966 1222.51 620.966C1223.7 620.966 1224.74 620.674 1225.62 620.091C1226.51 619.508 1227.2 618.652 1227.68 617.523C1228.17 616.394 1228.42 615.008 1228.42 613.364ZM1237.05 625V601.727H1241.89V610.477H1242.04C1242.25 610.008 1242.56 609.53 1242.96 609.045C1243.37 608.553 1243.9 608.144 1244.55 607.818C1245.21 607.485 1246.03 607.318 1247.01 607.318C1248.28 607.318 1249.46 607.652 1250.53 608.318C1251.61 608.977 1252.47 609.973 1253.11 611.307C1253.75 612.633 1254.08 614.295 1254.08 616.295C1254.08 618.242 1253.76 619.886 1253.13 621.227C1252.51 622.561 1251.66 623.572 1250.59 624.261C1249.52 624.943 1248.32 625.284 1247 625.284C1246.06 625.284 1245.26 625.129 1244.6 624.818C1243.95 624.508 1243.41 624.117 1243 623.648C1242.58 623.17 1242.26 622.689 1242.04 622.205H1241.83V625H1237.05ZM1241.79 616.273C1241.79 617.311 1241.94 618.216 1242.22 618.989C1242.51 619.761 1242.93 620.364 1243.47 620.795C1244.02 621.22 1244.68 621.432 1245.46 621.432C1246.25 621.432 1246.92 621.216 1247.46 620.784C1248.01 620.345 1248.42 619.739 1248.7 618.966C1248.99 618.186 1249.13 617.288 1249.13 616.273C1249.13 615.265 1248.99 614.379 1248.71 613.614C1248.43 612.848 1248.02 612.25 1247.47 611.818C1246.93 611.386 1246.26 611.17 1245.46 611.17C1244.68 611.17 1244.01 611.379 1243.46 611.795C1242.93 612.212 1242.51 612.803 1242.22 613.568C1241.94 614.333 1241.79 615.235 1241.79 616.273ZM1271.83 612.523L1267.4 612.795C1267.32 612.417 1267.16 612.076 1266.91 611.773C1266.66 611.462 1266.33 611.216 1265.92 611.034C1265.52 610.845 1265.04 610.75 1264.48 610.75C1263.73 610.75 1263.09 610.909 1262.58 611.227C1262.06 611.538 1261.81 611.955 1261.81 612.477C1261.81 612.894 1261.97 613.246 1262.31 613.534C1262.64 613.822 1263.21 614.053 1264.02 614.227L1267.18 614.864C1268.88 615.212 1270.14 615.773 1270.98 616.545C1271.81 617.318 1272.23 618.333 1272.23 619.591C1272.23 620.735 1271.89 621.739 1271.22 622.602C1270.55 623.466 1269.63 624.14 1268.47 624.625C1267.31 625.102 1265.97 625.341 1264.45 625.341C1262.14 625.341 1260.3 624.86 1258.93 623.898C1257.57 622.928 1256.77 621.61 1256.53 619.943L1261.3 619.693C1261.44 620.398 1261.79 620.936 1262.34 621.307C1262.89 621.67 1263.6 621.852 1264.47 621.852C1265.31 621.852 1266 621.689 1266.51 621.364C1267.03 621.03 1267.3 620.602 1267.31 620.08C1267.3 619.64 1267.11 619.28 1266.75 619C1266.39 618.712 1265.83 618.492 1265.07 618.341L1262.05 617.739C1260.34 617.398 1259.07 616.807 1258.24 615.966C1257.41 615.125 1257 614.053 1257 612.75C1257 611.629 1257.3 610.663 1257.91 609.852C1258.52 609.042 1259.38 608.417 1260.49 607.977C1261.6 607.538 1262.91 607.318 1264.4 607.318C1266.6 607.318 1268.34 607.784 1269.6 608.716C1270.88 609.648 1271.62 610.917 1271.83 612.523ZM1283.23 625.341C1281.43 625.341 1279.89 624.977 1278.59 624.25C1277.31 623.515 1276.31 622.477 1275.62 621.136C1274.92 619.788 1274.57 618.193 1274.57 616.352C1274.57 614.557 1274.92 612.981 1275.62 611.625C1276.31 610.269 1277.29 609.212 1278.56 608.455C1279.83 607.697 1281.32 607.318 1283.04 607.318C1284.19 607.318 1285.26 607.504 1286.25 607.875C1287.25 608.239 1288.12 608.788 1288.87 609.523C1289.62 610.258 1290.2 611.182 1290.62 612.295C1291.03 613.402 1291.24 614.697 1291.24 616.182V617.511H1276.5V614.511H1286.68C1286.68 613.814 1286.53 613.197 1286.23 612.659C1285.93 612.121 1285.51 611.701 1284.97 611.398C1284.44 611.087 1283.82 610.932 1283.12 610.932C1282.38 610.932 1281.73 611.102 1281.16 611.443C1280.6 611.777 1280.16 612.227 1279.84 612.795C1279.53 613.356 1279.36 613.981 1279.36 614.67V617.523C1279.36 618.386 1279.51 619.133 1279.83 619.761C1280.16 620.39 1280.62 620.875 1281.21 621.216C1281.8 621.557 1282.5 621.727 1283.31 621.727C1283.85 621.727 1284.34 621.652 1284.79 621.5C1285.23 621.348 1285.62 621.121 1285.93 620.818C1286.25 620.515 1286.5 620.144 1286.66 619.705L1291.14 620C1290.91 621.076 1290.45 622.015 1289.74 622.818C1289.04 623.614 1288.14 624.235 1287.04 624.682C1285.94 625.121 1284.67 625.341 1283.23 625.341ZM1294.4 625V607.545H1299.09V610.591H1299.28C1299.59 609.508 1300.13 608.689 1300.88 608.136C1301.63 607.576 1302.49 607.295 1303.47 607.295C1303.71 607.295 1303.97 607.311 1304.25 607.341C1304.53 607.371 1304.78 607.413 1304.99 607.466V611.761C1304.76 611.693 1304.45 611.633 1304.05 611.58C1303.65 611.527 1303.28 611.5 1302.95 611.5C1302.23 611.5 1301.6 611.655 1301.04 611.966C1300.48 612.269 1300.04 612.693 1299.72 613.239C1299.4 613.784 1299.24 614.413 1299.24 615.125V625H1294.4ZM1324.3 607.545L1318.2 625H1312.74L1306.64 607.545H1311.75L1315.38 620.034H1315.56L1319.17 607.545H1324.3ZM1331.28 625.33C1330.17 625.33 1329.18 625.136 1328.31 624.75C1327.44 624.356 1326.75 623.777 1326.24 623.011C1325.74 622.239 1325.49 621.277 1325.49 620.125C1325.49 619.155 1325.67 618.341 1326.02 617.682C1326.38 617.023 1326.86 616.492 1327.48 616.091C1328.09 615.689 1328.79 615.386 1329.57 615.182C1330.36 614.977 1331.18 614.833 1332.05 614.75C1333.06 614.644 1333.88 614.545 1334.5 614.455C1335.12 614.356 1335.57 614.212 1335.85 614.023C1336.13 613.833 1336.27 613.553 1336.27 613.182V613.114C1336.27 612.394 1336.05 611.837 1335.59 611.443C1335.14 611.049 1334.51 610.852 1333.68 610.852C1332.81 610.852 1332.12 611.045 1331.6 611.432C1331.09 611.811 1330.75 612.288 1330.58 612.864L1326.1 612.5C1326.33 611.439 1326.78 610.523 1327.44 609.75C1328.11 608.97 1328.97 608.371 1330.02 607.955C1331.08 607.53 1332.31 607.318 1333.7 607.318C1334.67 607.318 1335.6 607.432 1336.49 607.659C1337.38 607.886 1338.17 608.239 1338.86 608.716C1339.56 609.193 1340.11 609.807 1340.51 610.557C1340.91 611.299 1341.11 612.189 1341.11 613.227V625H1336.52V622.58H1336.39C1336.11 623.125 1335.73 623.606 1335.26 624.023C1334.79 624.432 1334.23 624.754 1333.57 624.989C1332.91 625.216 1332.15 625.33 1331.28 625.33ZM1332.67 621.989C1333.38 621.989 1334.01 621.848 1334.56 621.568C1335.1 621.28 1335.53 620.894 1335.84 620.409C1336.15 619.924 1336.31 619.375 1336.31 618.761V616.909C1336.16 617.008 1335.95 617.098 1335.68 617.182C1335.42 617.258 1335.13 617.33 1334.81 617.398C1334.48 617.458 1334.16 617.515 1333.83 617.568C1333.5 617.614 1333.21 617.655 1332.94 617.693C1332.38 617.777 1331.88 617.909 1331.45 618.091C1331.03 618.273 1330.7 618.519 1330.47 618.83C1330.23 619.133 1330.11 619.511 1330.11 619.966C1330.11 620.625 1330.35 621.129 1330.83 621.477C1331.31 621.818 1331.93 621.989 1332.67 621.989ZM1344.96 625V601.727H1349.8V610.477H1349.95C1350.16 610.008 1350.47 609.53 1350.87 609.045C1351.28 608.553 1351.81 608.144 1352.46 607.818C1353.12 607.485 1353.94 607.318 1354.91 607.318C1356.19 607.318 1357.36 607.652 1358.44 608.318C1359.51 608.977 1360.37 609.973 1361.02 611.307C1361.66 612.633 1361.98 614.295 1361.98 616.295C1361.98 618.242 1361.67 619.886 1361.04 621.227C1360.42 622.561 1359.57 623.572 1358.49 624.261C1357.43 624.943 1356.23 625.284 1354.9 625.284C1353.96 625.284 1353.16 625.129 1352.51 624.818C1351.85 624.508 1351.32 624.117 1350.9 623.648C1350.49 623.17 1350.17 622.689 1349.95 622.205H1349.73V625H1344.96ZM1349.7 616.273C1349.7 617.311 1349.84 618.216 1350.13 618.989C1350.42 619.761 1350.84 620.364 1351.38 620.795C1351.93 621.22 1352.59 621.432 1353.37 621.432C1354.16 621.432 1354.82 621.216 1355.37 620.784C1355.91 620.345 1356.33 619.739 1356.61 618.966C1356.9 618.186 1357.04 617.288 1357.04 616.273C1357.04 615.265 1356.9 614.379 1356.62 613.614C1356.34 612.848 1355.93 612.25 1355.38 611.818C1354.84 611.386 1354.16 611.17 1353.37 611.17C1352.58 611.17 1351.91 611.379 1351.37 611.795C1350.83 612.212 1350.42 612.803 1350.13 613.568C1349.84 614.333 1349.7 615.235 1349.7 616.273ZM1370.05 601.727V625H1365.21V601.727H1370.05ZM1381.89 625.341C1380.09 625.341 1378.55 624.977 1377.25 624.25C1375.96 623.515 1374.97 622.477 1374.27 621.136C1373.58 619.788 1373.23 618.193 1373.23 616.352C1373.23 614.557 1373.58 612.981 1374.27 611.625C1374.97 610.269 1375.95 609.212 1377.22 608.455C1378.49 607.697 1379.98 607.318 1381.69 607.318C1382.84 607.318 1383.92 607.504 1384.91 607.875C1385.91 608.239 1386.78 608.788 1387.52 609.523C1388.27 610.258 1388.86 611.182 1389.27 612.295C1389.69 613.402 1389.9 614.697 1389.9 616.182V617.511H1375.16V614.511H1385.34C1385.34 613.814 1385.19 613.197 1384.89 612.659C1384.58 612.121 1384.16 611.701 1383.62 611.398C1383.09 611.087 1382.48 610.932 1381.77 610.932C1381.04 610.932 1380.39 611.102 1379.82 611.443C1379.26 611.777 1378.82 612.227 1378.5 612.795C1378.18 613.356 1378.02 613.981 1378.01 614.67V617.523C1378.01 618.386 1378.17 619.133 1378.49 619.761C1378.81 620.39 1379.27 620.875 1379.86 621.216C1380.45 621.557 1381.16 621.727 1381.97 621.727C1382.5 621.727 1383 621.652 1383.44 621.5C1383.89 621.348 1384.27 621.121 1384.59 620.818C1384.91 620.515 1385.15 620.144 1385.32 619.705L1389.8 620C1389.57 621.076 1389.1 622.015 1388.4 622.818C1387.7 623.614 1386.8 624.235 1385.69 624.682C1384.59 625.121 1383.33 625.341 1381.89 625.341ZM1400.46 625V607.545H1405.16V610.591H1405.34C1405.66 609.508 1406.19 608.689 1406.94 608.136C1407.69 607.576 1408.55 607.295 1409.53 607.295C1409.77 607.295 1410.04 607.311 1410.32 607.341C1410.6 607.371 1410.84 607.413 1411.05 607.466V611.761C1410.83 611.693 1410.51 611.633 1410.11 611.58C1409.71 611.527 1409.34 611.5 1409.01 611.5C1408.3 611.5 1407.66 611.655 1407.1 611.966C1406.55 612.269 1406.11 612.693 1405.78 613.239C1405.46 613.784 1405.3 614.413 1405.3 615.125V625H1400.46ZM1420.7 625.341C1418.9 625.341 1417.36 624.977 1416.06 624.25C1414.77 623.515 1413.78 622.477 1413.09 621.136C1412.39 619.788 1412.04 618.193 1412.04 616.352C1412.04 614.557 1412.39 612.981 1413.09 611.625C1413.78 610.269 1414.76 609.212 1416.03 608.455C1417.3 607.697 1418.79 607.318 1420.51 607.318C1421.66 607.318 1422.73 607.504 1423.72 607.875C1424.72 608.239 1425.59 608.788 1426.34 609.523C1427.09 610.258 1427.67 611.182 1428.09 612.295C1428.5 613.402 1428.71 614.697 1428.71 616.182V617.511H1413.97V614.511H1424.15C1424.15 613.814 1424 613.197 1423.7 612.659C1423.4 612.121 1422.98 611.701 1422.44 611.398C1421.91 611.087 1421.29 610.932 1420.59 610.932C1419.85 610.932 1419.2 611.102 1418.63 611.443C1418.07 611.777 1417.63 612.227 1417.31 612.795C1416.99 613.356 1416.83 613.981 1416.82 614.67V617.523C1416.82 618.386 1416.98 619.133 1417.3 619.761C1417.63 620.39 1418.09 620.875 1418.68 621.216C1419.27 621.557 1419.97 621.727 1420.78 621.727C1421.32 621.727 1421.81 621.652 1422.26 621.5C1422.7 621.348 1423.09 621.121 1423.4 620.818C1423.72 620.515 1423.96 620.144 1424.13 619.705L1428.61 620C1428.38 621.076 1427.91 622.015 1427.21 622.818C1426.51 623.614 1425.61 624.235 1424.51 624.682C1423.41 625.121 1422.14 625.341 1420.7 625.341ZM1441.26 607.545V611.182H1430.48V607.545H1441.26ZM1432.95 625V606.284C1432.95 605.019 1433.2 603.97 1433.69 603.136C1434.19 602.303 1434.87 601.678 1435.73 601.261C1436.6 600.845 1437.58 600.636 1438.68 600.636C1439.42 600.636 1440.1 600.693 1440.71 600.807C1441.33 600.92 1441.79 601.023 1442.1 601.114L1441.23 604.75C1441.04 604.689 1440.81 604.633 1440.53 604.58C1440.26 604.527 1439.98 604.5 1439.69 604.5C1438.98 604.5 1438.48 604.667 1438.2 605C1437.92 605.326 1437.78 605.784 1437.78 606.375V625H1432.95ZM1451.54 625.341C1449.75 625.341 1448.2 624.977 1446.91 624.25C1445.62 623.515 1444.63 622.477 1443.93 621.136C1443.23 619.788 1442.88 618.193 1442.88 616.352C1442.88 614.557 1443.23 612.981 1443.93 611.625C1444.63 610.269 1445.61 609.212 1446.87 608.455C1448.14 607.697 1449.64 607.318 1451.35 607.318C1452.5 607.318 1453.57 607.504 1454.57 607.875C1455.57 608.239 1456.44 608.788 1457.18 609.523C1457.93 610.258 1458.51 611.182 1458.93 612.295C1459.35 613.402 1459.55 614.697 1459.55 616.182V617.511H1444.82V614.511H1455C1455 613.814 1454.85 613.197 1454.54 612.659C1454.24 612.121 1453.82 611.701 1453.28 611.398C1452.75 611.087 1452.13 610.932 1451.43 610.932C1450.69 610.932 1450.04 611.102 1449.47 611.443C1448.91 611.777 1448.47 612.227 1448.16 612.795C1447.84 613.356 1447.68 613.981 1447.67 614.67V617.523C1447.67 618.386 1447.83 619.133 1448.14 619.761C1448.47 620.39 1448.93 620.875 1449.52 621.216C1450.11 621.557 1450.81 621.727 1451.62 621.727C1452.16 621.727 1452.65 621.652 1453.1 621.5C1453.55 621.348 1453.93 621.121 1454.25 620.818C1454.57 620.515 1454.81 620.144 1454.97 619.705L1459.45 620C1459.22 621.076 1458.76 622.015 1458.05 622.818C1457.36 623.614 1456.46 624.235 1455.35 624.682C1454.25 625.121 1452.98 625.341 1451.54 625.341ZM1462.71 625V607.545H1467.41V610.591H1467.59C1467.91 609.508 1468.44 608.689 1469.19 608.136C1469.94 607.576 1470.8 607.295 1471.78 607.295C1472.02 607.295 1472.29 607.311 1472.57 607.341C1472.85 607.371 1473.09 607.413 1473.3 607.466V611.761C1473.08 611.693 1472.76 611.633 1472.36 611.58C1471.96 611.527 1471.59 611.5 1471.26 611.5C1470.55 611.5 1469.91 611.655 1469.35 611.966C1468.8 612.269 1468.36 612.693 1468.03 613.239C1467.71 613.784 1467.55 614.413 1467.55 615.125V625H1462.71ZM1482.95 625.341C1481.15 625.341 1479.61 624.977 1478.31 624.25C1477.02 623.515 1476.03 622.477 1475.34 621.136C1474.64 619.788 1474.29 618.193 1474.29 616.352C1474.29 614.557 1474.64 612.981 1475.34 611.625C1476.03 610.269 1477.01 609.212 1478.28 608.455C1479.55 607.697 1481.04 607.318 1482.76 607.318C1483.91 607.318 1484.98 607.504 1485.97 607.875C1486.97 608.239 1487.84 608.788 1488.59 609.523C1489.34 610.258 1489.92 611.182 1490.34 612.295C1490.75 613.402 1490.96 614.697 1490.96 616.182V617.511H1476.22V614.511H1486.4C1486.4 613.814 1486.25 613.197 1485.95 612.659C1485.65 612.121 1485.23 611.701 1484.69 611.398C1484.16 611.087 1483.54 610.932 1482.84 610.932C1482.1 610.932 1481.45 611.102 1480.88 611.443C1480.32 611.777 1479.88 612.227 1479.56 612.795C1479.24 613.356 1479.08 613.981 1479.07 614.67V617.523C1479.07 618.386 1479.23 619.133 1479.55 619.761C1479.88 620.39 1480.34 620.875 1480.93 621.216C1481.52 621.557 1482.22 621.727 1483.03 621.727C1483.57 621.727 1484.06 621.652 1484.51 621.5C1484.95 621.348 1485.34 621.121 1485.65 620.818C1485.97 620.515 1486.21 620.144 1486.38 619.705L1490.86 620C1490.63 621.076 1490.16 622.015 1489.46 622.818C1488.76 623.614 1487.86 624.235 1486.76 624.682C1485.66 625.121 1484.39 625.341 1482.95 625.341ZM1498.96 614.909V625H1494.12V607.545H1498.73V610.625H1498.94C1499.32 609.61 1499.97 608.807 1500.88 608.216C1501.79 607.617 1502.89 607.318 1504.19 607.318C1505.4 607.318 1506.46 607.583 1507.36 608.114C1508.26 608.644 1508.96 609.402 1509.46 610.386C1509.96 611.364 1510.21 612.53 1510.21 613.886V625H1505.37V614.75C1505.38 613.682 1505.1 612.848 1504.55 612.25C1504 611.644 1503.24 611.341 1502.27 611.341C1501.62 611.341 1501.04 611.481 1500.54 611.761C1500.05 612.042 1499.66 612.451 1499.38 612.989C1499.11 613.519 1498.97 614.159 1498.96 614.909ZM1521.91 625.341C1520.12 625.341 1518.59 624.962 1517.3 624.205C1516.02 623.439 1515.03 622.379 1514.34 621.023C1513.66 619.667 1513.32 618.106 1513.32 616.341C1513.32 614.553 1513.67 612.985 1514.36 611.636C1515.05 610.28 1516.04 609.223 1517.32 608.466C1518.6 607.701 1520.12 607.318 1521.89 607.318C1523.41 607.318 1524.75 607.595 1525.89 608.148C1527.03 608.701 1527.94 609.477 1528.61 610.477C1529.27 611.477 1529.64 612.652 1529.71 614H1525.14C1525.01 613.129 1524.67 612.428 1524.12 611.898C1523.57 611.36 1522.86 611.091 1521.97 611.091C1521.22 611.091 1520.56 611.295 1520 611.705C1519.45 612.106 1519.02 612.693 1518.71 613.466C1518.4 614.239 1518.24 615.174 1518.24 616.273C1518.24 617.386 1518.39 618.333 1518.7 619.114C1519.01 619.894 1519.44 620.489 1520 620.898C1520.56 621.307 1521.22 621.511 1521.97 621.511C1522.52 621.511 1523.02 621.398 1523.46 621.17C1523.9 620.943 1524.27 620.614 1524.56 620.182C1524.86 619.742 1525.05 619.216 1525.14 618.602H1529.71C1529.63 619.936 1529.27 621.11 1528.62 622.125C1527.97 623.133 1527.08 623.92 1525.95 624.489C1524.81 625.057 1523.46 625.341 1521.91 625.341ZM1540.76 625.341C1538.97 625.341 1537.42 624.977 1536.12 624.25C1534.84 623.515 1533.84 622.477 1533.15 621.136C1532.45 619.788 1532.1 618.193 1532.1 616.352C1532.1 614.557 1532.45 612.981 1533.15 611.625C1533.84 610.269 1534.83 609.212 1536.09 608.455C1537.36 607.697 1538.86 607.318 1540.57 607.318C1541.72 607.318 1542.79 607.504 1543.78 607.875C1544.78 608.239 1545.66 608.788 1546.4 609.523C1547.15 610.258 1547.73 611.182 1548.15 612.295C1548.56 613.402 1548.77 614.697 1548.77 616.182V617.511H1534.03V614.511H1544.22C1544.22 613.814 1544.06 613.197 1543.76 612.659C1543.46 612.121 1543.04 611.701 1542.5 611.398C1541.97 611.087 1541.35 610.932 1540.65 610.932C1539.91 610.932 1539.26 611.102 1538.69 611.443C1538.13 611.777 1537.69 612.227 1537.38 612.795C1537.06 613.356 1536.89 613.981 1536.89 614.67V617.523C1536.89 618.386 1537.05 619.133 1537.36 619.761C1537.69 620.39 1538.15 620.875 1538.74 621.216C1539.33 621.557 1540.03 621.727 1540.84 621.727C1541.38 621.727 1541.87 621.652 1542.32 621.5C1542.77 621.348 1543.15 621.121 1543.47 620.818C1543.78 620.515 1544.03 620.144 1544.19 619.705L1548.67 620C1548.44 621.076 1547.98 622.015 1547.27 622.818C1546.58 623.614 1545.67 624.235 1544.57 624.682C1543.47 625.121 1542.2 625.341 1540.76 625.341ZM1559.34 625V607.545H1564.18V625H1559.34ZM1561.77 605.295C1561.05 605.295 1560.43 605.057 1559.92 604.58C1559.41 604.095 1559.16 603.515 1559.16 602.841C1559.16 602.174 1559.41 601.602 1559.92 601.125C1560.43 600.64 1561.05 600.398 1561.77 600.398C1562.49 600.398 1563.1 600.64 1563.61 601.125C1564.13 601.602 1564.38 602.174 1564.38 602.841C1564.38 603.515 1564.13 604.095 1563.61 604.58C1563.1 605.057 1562.49 605.295 1561.77 605.295ZM1582.58 612.523L1578.15 612.795C1578.07 612.417 1577.91 612.076 1577.66 611.773C1577.41 611.462 1577.08 611.216 1576.67 611.034C1576.27 610.845 1575.79 610.75 1575.23 610.75C1574.48 610.75 1573.84 610.909 1573.33 611.227C1572.81 611.538 1572.56 611.955 1572.56 612.477C1572.56 612.894 1572.72 613.246 1573.06 613.534C1573.39 613.822 1573.96 614.053 1574.77 614.227L1577.93 614.864C1579.63 615.212 1580.89 615.773 1581.73 616.545C1582.56 617.318 1582.98 618.333 1582.98 619.591C1582.98 620.735 1582.64 621.739 1581.97 622.602C1581.3 623.466 1580.38 624.14 1579.22 624.625C1578.06 625.102 1576.72 625.341 1575.2 625.341C1572.89 625.341 1571.05 624.86 1569.68 623.898C1568.32 622.928 1567.52 621.61 1567.28 619.943L1572.05 619.693C1572.19 620.398 1572.54 620.936 1573.09 621.307C1573.64 621.67 1574.35 621.852 1575.22 621.852C1576.06 621.852 1576.75 621.689 1577.26 621.364C1577.78 621.03 1578.05 620.602 1578.06 620.08C1578.05 619.64 1577.86 619.28 1577.5 619C1577.14 618.712 1576.58 618.492 1575.82 618.341L1572.8 617.739C1571.09 617.398 1569.82 616.807 1568.99 615.966C1568.16 615.125 1567.75 614.053 1567.75 612.75C1567.75 611.629 1568.05 610.663 1568.66 609.852C1569.27 609.042 1570.13 608.417 1571.24 607.977C1572.35 607.538 1573.66 607.318 1575.15 607.318C1577.35 607.318 1579.09 607.784 1580.35 608.716C1581.63 609.648 1582.37 610.917 1582.58 612.523ZM1607.95 612.523L1603.52 612.795C1603.45 612.417 1603.28 612.076 1603.03 611.773C1602.78 611.462 1602.45 611.216 1602.05 611.034C1601.64 610.845 1601.16 610.75 1600.6 610.75C1599.85 610.75 1599.22 610.909 1598.7 611.227C1598.19 611.538 1597.93 611.955 1597.93 612.477C1597.93 612.894 1598.1 613.246 1598.43 613.534C1598.77 613.822 1599.34 614.053 1600.15 614.227L1603.31 614.864C1605 615.212 1606.27 615.773 1607.1 616.545C1607.94 617.318 1608.35 618.333 1608.35 619.591C1608.35 620.735 1608.02 621.739 1607.34 622.602C1606.67 623.466 1605.76 624.14 1604.59 624.625C1603.43 625.102 1602.09 625.341 1600.58 625.341C1598.27 625.341 1596.43 624.86 1595.06 623.898C1593.69 622.928 1592.89 621.61 1592.66 619.943L1597.42 619.693C1597.56 620.398 1597.91 620.936 1598.47 621.307C1599.02 621.67 1599.73 621.852 1600.59 621.852C1601.44 621.852 1602.12 621.689 1602.64 621.364C1603.16 621.03 1603.42 620.602 1603.43 620.08C1603.42 619.64 1603.24 619.28 1602.88 619C1602.51 618.712 1601.95 618.492 1601.19 618.341L1598.17 617.739C1596.47 617.398 1595.2 616.807 1594.36 615.966C1593.54 615.125 1593.12 614.053 1593.12 612.75C1593.12 611.629 1593.43 610.663 1594.03 609.852C1594.65 609.042 1595.51 608.417 1596.61 607.977C1597.73 607.538 1599.03 607.318 1600.52 607.318C1602.73 607.318 1604.46 607.784 1605.73 608.716C1607 609.648 1607.74 610.917 1607.95 612.523ZM1620.68 607.545V611.182H1610.17V607.545H1620.68ZM1612.56 603.364H1617.4V619.636C1617.4 620.083 1617.47 620.432 1617.61 620.682C1617.74 620.924 1617.93 621.095 1618.17 621.193C1618.42 621.292 1618.71 621.341 1619.04 621.341C1619.26 621.341 1619.49 621.322 1619.72 621.284C1619.95 621.239 1620.12 621.205 1620.24 621.182L1621 624.784C1620.76 624.86 1620.42 624.947 1619.98 625.045C1619.54 625.152 1619.01 625.216 1618.38 625.239C1617.21 625.284 1616.19 625.129 1615.31 624.773C1614.44 624.417 1613.76 623.864 1613.28 623.114C1612.79 622.364 1612.55 621.417 1612.56 620.273V603.364ZM1623.84 625V607.545H1628.68V625H1623.84ZM1626.27 605.295C1625.55 605.295 1624.93 605.057 1624.42 604.58C1623.91 604.095 1623.66 603.515 1623.66 602.841C1623.66 602.174 1623.91 601.602 1624.42 601.125C1624.93 600.64 1625.55 600.398 1626.27 600.398C1626.99 600.398 1627.6 600.64 1628.11 601.125C1628.63 601.602 1628.88 602.174 1628.88 602.841C1628.88 603.515 1628.63 604.095 1628.11 604.58C1627.6 605.057 1626.99 605.295 1626.27 605.295ZM1637.4 601.727V625H1632.56V601.727H1637.4ZM1646.12 601.727V625H1641.28V601.727H1646.12ZM1665.36 625.341C1663.56 625.341 1662.01 624.977 1660.72 624.25C1659.43 623.515 1658.44 622.477 1657.74 621.136C1657.04 619.788 1656.7 618.193 1656.7 616.352C1656.7 614.557 1657.04 612.981 1657.74 611.625C1658.44 610.269 1659.42 609.212 1660.68 608.455C1661.96 607.697 1663.45 607.318 1665.16 607.318C1666.31 607.318 1667.39 607.504 1668.38 607.875C1669.38 608.239 1670.25 608.788 1670.99 609.523C1671.74 610.258 1672.32 611.182 1672.74 612.295C1673.16 613.402 1673.37 614.697 1673.37 616.182V617.511H1658.63V614.511H1668.81C1668.81 613.814 1668.66 613.197 1668.36 612.659C1668.05 612.121 1667.63 611.701 1667.09 611.398C1666.56 611.087 1665.95 610.932 1665.24 610.932C1664.51 610.932 1663.86 611.102 1663.29 611.443C1662.73 611.777 1662.29 612.227 1661.97 612.795C1661.65 613.356 1661.49 613.981 1661.48 614.67V617.523C1661.48 618.386 1661.64 619.133 1661.96 619.761C1662.28 620.39 1662.74 620.875 1663.33 621.216C1663.92 621.557 1664.62 621.727 1665.43 621.727C1665.97 621.727 1666.46 621.652 1666.91 621.5C1667.36 621.348 1667.74 621.121 1668.06 620.818C1668.38 620.515 1668.62 620.144 1668.79 619.705L1673.26 620C1673.04 621.076 1672.57 622.015 1671.87 622.818C1671.17 623.614 1670.27 624.235 1669.16 624.682C1668.06 625.121 1666.79 625.341 1665.36 625.341ZM1680.26 607.545L1683.46 613.648L1686.75 607.545H1691.71L1686.66 616.273L1691.85 625H1686.91L1683.46 618.966L1680.08 625H1675.08L1680.26 616.273L1675.26 607.545H1680.26ZM1699.47 625.33C1698.36 625.33 1697.37 625.136 1696.49 624.75C1695.62 624.356 1694.93 623.777 1694.43 623.011C1693.93 622.239 1693.68 621.277 1693.68 620.125C1693.68 619.155 1693.85 618.341 1694.21 617.682C1694.57 617.023 1695.05 616.492 1695.66 616.091C1696.28 615.689 1696.98 615.386 1697.76 615.182C1698.54 614.977 1699.37 614.833 1700.23 614.75C1701.25 614.644 1702.07 614.545 1702.69 614.455C1703.31 614.356 1703.76 614.212 1704.04 614.023C1704.32 613.833 1704.46 613.553 1704.46 613.182V613.114C1704.46 612.394 1704.23 611.837 1703.78 611.443C1703.33 611.049 1702.7 610.852 1701.87 610.852C1701 610.852 1700.3 611.045 1699.79 611.432C1699.27 611.811 1698.93 612.288 1698.77 612.864L1694.29 612.5C1694.52 611.439 1694.96 610.523 1695.63 609.75C1696.3 608.97 1697.16 608.371 1698.21 607.955C1699.27 607.53 1700.5 607.318 1701.89 607.318C1702.86 607.318 1703.79 607.432 1704.68 607.659C1705.57 607.886 1706.36 608.239 1707.05 608.716C1707.75 609.193 1708.3 609.807 1708.7 610.557C1709.1 611.299 1709.3 612.189 1709.3 613.227V625H1704.71V622.58H1704.57C1704.29 623.125 1703.92 623.606 1703.45 624.023C1702.98 624.432 1702.41 624.754 1701.76 624.989C1701.1 625.216 1700.34 625.33 1699.47 625.33ZM1700.86 621.989C1701.57 621.989 1702.2 621.848 1702.74 621.568C1703.29 621.28 1703.72 620.894 1704.03 620.409C1704.34 619.924 1704.49 619.375 1704.49 618.761V616.909C1704.34 617.008 1704.13 617.098 1703.87 617.182C1703.61 617.258 1703.32 617.33 1702.99 617.398C1702.67 617.458 1702.34 617.515 1702.02 617.568C1701.69 617.614 1701.4 617.655 1701.13 617.693C1700.56 617.777 1700.07 617.909 1699.64 618.091C1699.22 618.273 1698.89 618.519 1698.65 618.83C1698.42 619.133 1698.3 619.511 1698.3 619.966C1698.3 620.625 1698.54 621.129 1699.02 621.477C1699.5 621.818 1700.12 621.989 1700.86 621.989ZM1720.94 625.341C1719.16 625.341 1717.62 624.962 1716.33 624.205C1715.05 623.439 1714.06 622.379 1713.38 621.023C1712.69 619.667 1712.35 618.106 1712.35 616.341C1712.35 614.553 1712.7 612.985 1713.39 611.636C1714.08 610.28 1715.07 609.223 1716.35 608.466C1717.63 607.701 1719.16 607.318 1720.92 607.318C1722.44 607.318 1723.78 607.595 1724.92 608.148C1726.06 608.701 1726.97 609.477 1727.64 610.477C1728.3 611.477 1728.67 612.652 1728.74 614H1724.17C1724.04 613.129 1723.7 612.428 1723.15 611.898C1722.6 611.36 1721.89 611.091 1721 611.091C1720.25 611.091 1719.59 611.295 1719.03 611.705C1718.48 612.106 1718.05 612.693 1717.74 613.466C1717.43 614.239 1717.27 615.174 1717.27 616.273C1717.27 617.386 1717.42 618.333 1717.73 619.114C1718.04 619.894 1718.47 620.489 1719.03 620.898C1719.59 621.307 1720.25 621.511 1721 621.511C1721.55 621.511 1722.05 621.398 1722.49 621.17C1722.94 620.943 1723.3 620.614 1723.59 620.182C1723.89 619.742 1724.08 619.216 1724.17 618.602H1728.74C1728.66 619.936 1728.3 621.11 1727.65 622.125C1727 623.133 1726.11 623.92 1724.98 624.489C1723.84 625.057 1722.5 625.341 1720.94 625.341ZM1741.12 607.545V611.182H1730.61V607.545H1741.12ZM1733 603.364H1737.84V619.636C1737.84 620.083 1737.91 620.432 1738.04 620.682C1738.18 620.924 1738.37 621.095 1738.61 621.193C1738.86 621.292 1739.15 621.341 1739.47 621.341C1739.7 621.341 1739.93 621.322 1740.16 621.284C1740.38 621.239 1740.56 621.205 1740.68 621.182L1741.44 624.784C1741.2 624.86 1740.86 624.947 1740.42 625.045C1739.98 625.152 1739.44 625.216 1738.82 625.239C1737.65 625.284 1736.63 625.129 1735.75 624.773C1734.88 624.417 1734.2 623.864 1733.71 623.114C1733.23 622.364 1732.99 621.417 1733 620.273V603.364ZM1749.49 601.727V625H1744.65V601.727H1749.49ZM1756.36 631.545C1755.74 631.545 1755.17 631.496 1754.63 631.398C1754.1 631.307 1753.66 631.189 1753.31 631.045L1754.4 627.432C1754.97 627.606 1755.48 627.701 1755.94 627.716C1756.4 627.731 1756.8 627.625 1757.13 627.398C1757.47 627.17 1757.75 626.784 1757.96 626.239L1758.24 625.5L1751.98 607.545H1757.07L1760.69 620.364H1760.87L1764.52 607.545H1769.64L1762.86 626.886C1762.53 627.826 1762.09 628.644 1761.53 629.341C1760.98 630.045 1760.27 630.587 1759.43 630.966C1758.58 631.352 1757.55 631.545 1756.36 631.545ZM1788.81 607.545V611.182H1778.3V607.545H1788.81ZM1780.68 603.364H1785.53V619.636C1785.53 620.083 1785.59 620.432 1785.73 620.682C1785.87 620.924 1786.06 621.095 1786.3 621.193C1786.55 621.292 1786.84 621.341 1787.16 621.341C1787.39 621.341 1787.62 621.322 1787.84 621.284C1788.07 621.239 1788.25 621.205 1788.37 621.182L1789.13 624.784C1788.89 624.86 1788.54 624.947 1788.11 625.045C1787.67 625.152 1787.13 625.216 1786.5 625.239C1785.34 625.284 1784.31 625.129 1783.43 624.773C1782.56 624.417 1781.89 623.864 1781.4 623.114C1780.92 622.364 1780.68 621.417 1780.68 620.273V603.364ZM1797.18 614.909V625H1792.34V601.727H1797.04V610.625H1797.25C1797.64 609.595 1798.28 608.788 1799.16 608.205C1800.04 607.614 1801.14 607.318 1802.46 607.318C1803.68 607.318 1804.73 607.583 1805.63 608.114C1806.54 608.636 1807.25 609.39 1807.75 610.375C1808.25 611.352 1808.5 612.523 1808.5 613.886V625H1803.66V614.75C1803.66 613.674 1803.39 612.837 1802.84 612.239C1802.29 611.64 1801.53 611.341 1800.54 611.341C1799.88 611.341 1799.3 611.481 1798.79 611.761C1798.29 612.042 1797.9 612.451 1797.61 612.989C1797.33 613.519 1797.19 614.159 1797.18 614.909ZM1820.26 625.341C1818.47 625.341 1816.92 624.977 1815.62 624.25C1814.34 623.515 1813.34 622.477 1812.65 621.136C1811.95 619.788 1811.6 618.193 1811.6 616.352C1811.6 614.557 1811.95 612.981 1812.65 611.625C1813.34 610.269 1814.33 609.212 1815.59 608.455C1816.86 607.697 1818.36 607.318 1820.07 607.318C1821.22 607.318 1822.29 607.504 1823.28 607.875C1824.28 608.239 1825.16 608.788 1825.9 609.523C1826.65 610.258 1827.23 611.182 1827.65 612.295C1828.06 613.402 1828.27 614.697 1828.27 616.182V617.511H1813.53V614.511H1823.72C1823.72 613.814 1823.56 613.197 1823.26 612.659C1822.96 612.121 1822.54 611.701 1822 611.398C1821.47 611.087 1820.85 610.932 1820.15 610.932C1819.41 610.932 1818.76 611.102 1818.19 611.443C1817.63 611.777 1817.19 612.227 1816.88 612.795C1816.56 613.356 1816.39 613.981 1816.39 614.67V617.523C1816.39 618.386 1816.55 619.133 1816.86 619.761C1817.19 620.39 1817.65 620.875 1818.24 621.216C1818.83 621.557 1819.53 621.727 1820.34 621.727C1820.88 621.727 1821.37 621.652 1821.82 621.5C1822.27 621.348 1822.65 621.121 1822.97 620.818C1823.28 620.515 1823.53 620.144 1823.69 619.705L1828.17 620C1827.94 621.076 1827.48 622.015 1826.77 622.818C1826.08 623.614 1825.17 624.235 1824.07 624.682C1822.97 625.121 1821.7 625.341 1820.26 625.341ZM1226.45 651.523L1222.02 651.795C1221.95 651.417 1221.78 651.076 1221.53 650.773C1221.28 650.462 1220.95 650.216 1220.55 650.034C1220.14 649.845 1219.66 649.75 1219.1 649.75C1218.35 649.75 1217.72 649.909 1217.2 650.227C1216.69 650.538 1216.43 650.955 1216.43 651.477C1216.43 651.894 1216.6 652.246 1216.93 652.534C1217.27 652.822 1217.84 653.053 1218.65 653.227L1221.81 653.864C1223.5 654.212 1224.77 654.773 1225.6 655.545C1226.44 656.318 1226.85 657.333 1226.85 658.591C1226.85 659.735 1226.52 660.739 1225.84 661.602C1225.17 662.466 1224.26 663.14 1223.09 663.625C1221.93 664.102 1220.59 664.341 1219.08 664.341C1216.77 664.341 1214.93 663.86 1213.56 662.898C1212.19 661.928 1211.39 660.61 1211.16 658.943L1215.92 658.693C1216.06 659.398 1216.41 659.936 1216.97 660.307C1217.52 660.67 1218.23 660.852 1219.09 660.852C1219.94 660.852 1220.62 660.689 1221.14 660.364C1221.66 660.03 1221.92 659.602 1221.93 659.08C1221.92 658.64 1221.74 658.28 1221.38 658C1221.01 657.712 1220.45 657.492 1219.69 657.341L1216.67 656.739C1214.97 656.398 1213.7 655.807 1212.86 654.966C1212.04 654.125 1211.62 653.053 1211.62 651.75C1211.62 650.629 1211.93 649.663 1212.53 648.852C1213.15 648.042 1214.01 647.417 1215.11 646.977C1216.23 646.538 1217.53 646.318 1219.02 646.318C1221.23 646.318 1222.96 646.784 1224.23 647.716C1225.5 648.648 1226.24 649.917 1226.45 651.523ZM1234.88 664.33C1233.76 664.33 1232.77 664.136 1231.9 663.75C1231.03 663.356 1230.34 662.777 1229.83 662.011C1229.33 661.239 1229.08 660.277 1229.08 659.125C1229.08 658.155 1229.26 657.341 1229.62 656.682C1229.97 656.023 1230.46 655.492 1231.07 655.091C1231.68 654.689 1232.38 654.386 1233.16 654.182C1233.95 653.977 1234.78 653.833 1235.64 653.75C1236.65 653.644 1237.47 653.545 1238.09 653.455C1238.71 653.356 1239.17 653.212 1239.45 653.023C1239.73 652.833 1239.87 652.553 1239.87 652.182V652.114C1239.87 651.394 1239.64 650.837 1239.18 650.443C1238.74 650.049 1238.1 649.852 1237.28 649.852C1236.4 649.852 1235.71 650.045 1235.2 650.432C1234.68 650.811 1234.34 651.288 1234.17 651.864L1229.7 651.5C1229.92 650.439 1230.37 649.523 1231.04 648.75C1231.7 647.97 1232.56 647.371 1233.62 646.955C1234.68 646.53 1235.9 646.318 1237.3 646.318C1238.27 646.318 1239.2 646.432 1240.08 646.659C1240.98 646.886 1241.77 647.239 1242.46 647.716C1243.15 648.193 1243.7 648.807 1244.11 649.557C1244.51 650.299 1244.71 651.189 1244.71 652.227V664H1240.12V661.58H1239.98C1239.7 662.125 1239.32 662.606 1238.86 663.023C1238.39 663.432 1237.82 663.754 1237.16 663.989C1236.5 664.216 1235.74 664.33 1234.88 664.33ZM1236.26 660.989C1236.98 660.989 1237.61 660.848 1238.15 660.568C1238.7 660.28 1239.12 659.894 1239.43 659.409C1239.75 658.924 1239.9 658.375 1239.9 657.761V655.909C1239.75 656.008 1239.54 656.098 1239.28 656.182C1239.02 656.258 1238.73 656.33 1238.4 656.398C1238.07 656.458 1237.75 656.515 1237.42 656.568C1237.1 656.614 1236.8 656.655 1236.54 656.693C1235.97 656.777 1235.47 656.909 1235.05 657.091C1234.62 657.273 1234.29 657.519 1234.06 657.83C1233.82 658.133 1233.71 658.511 1233.71 658.966C1233.71 659.625 1233.95 660.129 1234.42 660.477C1234.91 660.818 1235.52 660.989 1236.26 660.989ZM1248.46 664V646.545H1253.08V649.625H1253.28C1253.64 648.602 1254.25 647.795 1255.1 647.205C1255.95 646.614 1256.96 646.318 1258.14 646.318C1259.34 646.318 1260.36 646.617 1261.2 647.216C1262.04 647.807 1262.6 648.61 1262.88 649.625H1263.07C1263.42 648.625 1264.07 647.826 1265 647.227C1265.94 646.621 1267.05 646.318 1268.33 646.318C1269.96 646.318 1271.28 646.837 1272.29 647.875C1273.32 648.905 1273.83 650.367 1273.83 652.261V664H1269V653.216C1269 652.246 1268.74 651.519 1268.22 651.034C1267.71 650.549 1267.07 650.307 1266.29 650.307C1265.41 650.307 1264.73 650.587 1264.24 651.148C1263.74 651.701 1263.5 652.432 1263.5 653.341V664H1258.8V653.114C1258.8 652.258 1258.56 651.576 1258.07 651.068C1257.58 650.561 1256.94 650.307 1256.14 650.307C1255.61 650.307 1255.12 650.443 1254.69 650.716C1254.27 650.981 1253.93 651.356 1253.68 651.841C1253.43 652.318 1253.3 652.879 1253.3 653.523V664H1248.46ZM1285.61 664.341C1283.81 664.341 1282.26 663.977 1280.97 663.25C1279.68 662.515 1278.69 661.477 1277.99 660.136C1277.29 658.788 1276.95 657.193 1276.95 655.352C1276.95 653.557 1277.29 651.981 1277.99 650.625C1278.69 649.269 1279.67 648.212 1280.93 647.455C1282.21 646.697 1283.7 646.318 1285.41 646.318C1286.56 646.318 1287.64 646.504 1288.63 646.875C1289.63 647.239 1290.5 647.788 1291.24 648.523C1291.99 649.258 1292.57 650.182 1292.99 651.295C1293.41 652.402 1293.62 653.697 1293.62 655.182V656.511H1278.88V653.511H1289.06C1289.06 652.814 1288.91 652.197 1288.61 651.659C1288.3 651.121 1287.88 650.701 1287.34 650.398C1286.81 650.087 1286.2 649.932 1285.49 649.932C1284.76 649.932 1284.11 650.102 1283.54 650.443C1282.98 650.777 1282.54 651.227 1282.22 651.795C1281.9 652.356 1281.74 652.981 1281.73 653.67V656.523C1281.73 657.386 1281.89 658.133 1282.21 658.761C1282.53 659.39 1282.99 659.875 1283.58 660.216C1284.17 660.557 1284.87 660.727 1285.68 660.727C1286.22 660.727 1286.71 660.652 1287.16 660.5C1287.61 660.348 1287.99 660.121 1288.31 659.818C1288.63 659.515 1288.87 659.144 1289.04 658.705L1293.51 659C1293.29 660.076 1292.82 661.015 1292.12 661.818C1291.42 662.614 1290.52 663.235 1289.41 663.682C1288.31 664.121 1287.04 664.341 1285.61 664.341ZM1302.04 660.818L1301.91 662.068C1301.81 663.068 1301.62 664.064 1301.34 665.057C1301.07 666.057 1300.78 666.962 1300.48 667.773C1300.18 668.583 1299.95 669.22 1299.76 669.682H1296.63C1296.74 669.235 1296.9 668.61 1297.09 667.807C1297.29 667.011 1297.48 666.117 1297.65 665.125C1297.82 664.133 1297.93 663.121 1297.98 662.091L1298.04 660.818H1302.04ZM1333.4 648.875H1328.42C1328.33 648.231 1328.15 647.659 1327.87 647.159C1327.59 646.652 1327.23 646.22 1326.79 645.864C1326.35 645.508 1325.84 645.235 1325.26 645.045C1324.7 644.856 1324.08 644.761 1323.41 644.761C1322.21 644.761 1321.16 645.061 1320.26 645.659C1319.37 646.25 1318.68 647.114 1318.18 648.25C1317.69 649.379 1317.45 650.75 1317.45 652.364C1317.45 654.023 1317.69 655.417 1318.18 656.545C1318.68 657.674 1319.38 658.527 1320.28 659.102C1321.17 659.678 1322.2 659.966 1323.38 659.966C1324.04 659.966 1324.65 659.879 1325.21 659.705C1325.78 659.53 1326.28 659.277 1326.72 658.943C1327.16 658.602 1327.52 658.189 1327.81 657.705C1328.11 657.22 1328.31 656.667 1328.42 656.045L1333.4 656.068C1333.27 657.136 1332.95 658.167 1332.43 659.159C1331.93 660.144 1331.24 661.027 1330.38 661.807C1329.52 662.58 1328.5 663.193 1327.31 663.648C1326.13 664.095 1324.79 664.318 1323.3 664.318C1321.22 664.318 1319.37 663.848 1317.73 662.909C1316.1 661.97 1314.81 660.61 1313.87 658.83C1312.93 657.049 1312.46 654.894 1312.46 652.364C1312.46 649.826 1312.93 647.667 1313.89 645.886C1314.84 644.106 1316.14 642.75 1317.78 641.818C1319.41 640.879 1321.25 640.409 1323.3 640.409C1324.65 640.409 1325.9 640.598 1327.05 640.977C1328.21 641.356 1329.23 641.909 1330.13 642.636C1331.02 643.356 1331.75 644.239 1332.31 645.284C1332.88 646.33 1333.24 647.527 1333.4 648.875ZM1345.18 664H1336.93V640.727H1345.25C1347.59 640.727 1349.6 641.193 1351.29 642.125C1352.98 643.049 1354.28 644.379 1355.19 646.114C1356.11 647.848 1356.57 649.924 1356.57 652.341C1356.57 654.765 1356.11 656.848 1355.19 658.591C1354.28 660.333 1352.97 661.67 1351.27 662.602C1349.57 663.534 1347.54 664 1345.18 664ZM1341.85 659.784H1344.97C1346.43 659.784 1347.65 659.527 1348.64 659.011C1349.64 658.489 1350.39 657.682 1350.89 656.591C1351.4 655.492 1351.66 654.076 1351.66 652.341C1351.66 650.621 1351.4 649.216 1350.89 648.125C1350.39 647.034 1349.65 646.231 1348.66 645.716C1347.66 645.201 1346.44 644.943 1344.99 644.943H1341.85V659.784ZM1367.53 670.545V646.545H1372.3V649.477H1372.51C1372.73 649.008 1373.03 648.53 1373.43 648.045C1373.84 647.553 1374.37 647.144 1375.03 646.818C1375.68 646.485 1376.5 646.318 1377.48 646.318C1378.75 646.318 1379.93 646.652 1381 647.318C1382.08 647.977 1382.94 648.973 1383.58 650.307C1384.23 651.633 1384.55 653.295 1384.55 655.295C1384.55 657.242 1384.23 658.886 1383.61 660.227C1382.98 661.561 1382.14 662.572 1381.06 663.261C1379.99 663.943 1378.79 664.284 1377.47 664.284C1376.53 664.284 1375.73 664.129 1375.07 663.818C1374.42 663.508 1373.89 663.117 1373.47 662.648C1373.05 662.17 1372.73 661.689 1372.51 661.205H1372.37V670.545H1367.53ZM1372.26 655.273C1372.26 656.311 1372.41 657.216 1372.7 657.989C1372.98 658.761 1373.4 659.364 1373.95 659.795C1374.49 660.22 1375.15 660.432 1375.93 660.432C1376.72 660.432 1377.39 660.216 1377.93 659.784C1378.48 659.345 1378.89 658.739 1379.17 657.966C1379.46 657.186 1379.61 656.288 1379.61 655.273C1379.61 654.265 1379.46 653.379 1379.18 652.614C1378.9 651.848 1378.49 651.25 1377.95 650.818C1377.4 650.386 1376.73 650.17 1375.93 650.17C1375.15 650.17 1374.48 650.379 1373.93 650.795C1373.4 651.212 1372.98 651.803 1372.7 652.568C1372.41 653.333 1372.26 654.235 1372.26 655.273ZM1387.78 664V646.545H1392.47V649.591H1392.65C1392.97 648.508 1393.5 647.689 1394.25 647.136C1395 646.576 1395.87 646.295 1396.84 646.295C1397.09 646.295 1397.35 646.311 1397.63 646.341C1397.91 646.371 1398.15 646.413 1398.37 646.466V650.761C1398.14 650.693 1397.82 650.633 1397.42 650.58C1397.02 650.527 1396.65 650.5 1396.32 650.5C1395.61 650.5 1394.97 650.655 1394.41 650.966C1393.86 651.269 1393.42 651.693 1393.09 652.239C1392.78 652.784 1392.62 653.413 1392.62 654.125V664H1387.78ZM1407.94 664.341C1406.18 664.341 1404.65 663.966 1403.36 663.216C1402.08 662.458 1401.09 661.405 1400.4 660.057C1399.7 658.701 1399.35 657.129 1399.35 655.341C1399.35 653.538 1399.7 651.962 1400.4 650.614C1401.09 649.258 1402.08 648.205 1403.36 647.455C1404.65 646.697 1406.18 646.318 1407.94 646.318C1409.71 646.318 1411.23 646.697 1412.51 647.455C1413.8 648.205 1414.79 649.258 1415.49 650.614C1416.19 651.962 1416.53 653.538 1416.53 655.341C1416.53 657.129 1416.19 658.701 1415.49 660.057C1414.79 661.405 1413.8 662.458 1412.51 663.216C1411.23 663.966 1409.71 664.341 1407.94 664.341ZM1407.97 660.591C1408.77 660.591 1409.44 660.364 1409.98 659.909C1410.52 659.447 1410.92 658.818 1411.19 658.023C1411.47 657.227 1411.61 656.322 1411.61 655.307C1411.61 654.292 1411.47 653.386 1411.19 652.591C1410.92 651.795 1410.52 651.167 1409.98 650.705C1409.44 650.242 1408.77 650.011 1407.97 650.011C1407.16 650.011 1406.47 650.242 1405.92 650.705C1405.38 651.167 1404.96 651.795 1404.68 652.591C1404.41 653.386 1404.27 654.292 1404.27 655.307C1404.27 656.322 1404.41 657.227 1404.68 658.023C1404.96 658.818 1405.38 659.447 1405.92 659.909C1406.47 660.364 1407.16 660.591 1407.97 660.591ZM1419.68 670.545V646.545H1424.45V649.477H1424.67C1424.88 649.008 1425.19 648.53 1425.59 648.045C1426 647.553 1426.53 647.144 1427.18 646.818C1427.84 646.485 1428.66 646.318 1429.64 646.318C1430.91 646.318 1432.08 646.652 1433.16 647.318C1434.23 647.977 1435.09 648.973 1435.74 650.307C1436.38 651.633 1436.7 653.295 1436.7 655.295C1436.7 657.242 1436.39 658.886 1435.76 660.227C1435.14 661.561 1434.29 662.572 1433.22 663.261C1432.15 663.943 1430.95 664.284 1429.62 664.284C1428.69 664.284 1427.89 664.129 1427.23 663.818C1426.58 663.508 1426.04 663.117 1425.62 662.648C1425.21 662.17 1424.89 661.689 1424.67 661.205H1424.52V670.545H1419.68ZM1424.42 655.273C1424.42 656.311 1424.56 657.216 1424.85 657.989C1425.14 658.761 1425.56 659.364 1426.1 659.795C1426.65 660.22 1427.31 660.432 1428.09 660.432C1428.88 660.432 1429.55 660.216 1430.09 659.784C1430.64 659.345 1431.05 658.739 1431.33 657.966C1431.62 657.186 1431.76 656.288 1431.76 655.273C1431.76 654.265 1431.62 653.379 1431.34 652.614C1431.06 651.848 1430.65 651.25 1430.1 650.818C1429.56 650.386 1428.89 650.17 1428.09 650.17C1427.3 650.17 1426.64 650.379 1426.09 650.795C1425.55 651.212 1425.14 651.803 1424.85 652.568C1424.56 653.333 1424.42 654.235 1424.42 655.273ZM1444.91 664.33C1443.8 664.33 1442.8 664.136 1441.93 663.75C1441.06 663.356 1440.37 662.777 1439.86 662.011C1439.36 661.239 1439.11 660.277 1439.11 659.125C1439.11 658.155 1439.29 657.341 1439.65 656.682C1440 656.023 1440.49 655.492 1441.1 655.091C1441.72 654.689 1442.41 654.386 1443.19 654.182C1443.98 653.977 1444.81 653.833 1445.67 653.75C1446.69 653.644 1447.5 653.545 1448.12 653.455C1448.75 653.356 1449.2 653.212 1449.48 653.023C1449.76 652.833 1449.9 652.553 1449.9 652.182V652.114C1449.9 651.394 1449.67 650.837 1449.22 650.443C1448.77 650.049 1448.13 649.852 1447.31 649.852C1446.44 649.852 1445.74 650.045 1445.23 650.432C1444.71 650.811 1444.37 651.288 1444.2 651.864L1439.73 651.5C1439.95 650.439 1440.4 649.523 1441.07 648.75C1441.73 647.97 1442.59 647.371 1443.65 646.955C1444.71 646.53 1445.94 646.318 1447.33 646.318C1448.3 646.318 1449.23 646.432 1450.11 646.659C1451.01 646.886 1451.8 647.239 1452.49 647.716C1453.19 648.193 1453.73 648.807 1454.14 649.557C1454.54 650.299 1454.74 651.189 1454.74 652.227V664H1450.15V661.58H1450.01C1449.73 662.125 1449.36 662.606 1448.89 663.023C1448.42 663.432 1447.85 663.754 1447.19 663.989C1446.53 664.216 1445.77 664.33 1444.91 664.33ZM1446.3 660.989C1447.01 660.989 1447.64 660.848 1448.18 660.568C1448.73 660.28 1449.16 659.894 1449.47 659.409C1449.78 658.924 1449.93 658.375 1449.93 657.761V655.909C1449.78 656.008 1449.57 656.098 1449.31 656.182C1449.05 656.258 1448.76 656.33 1448.43 656.398C1448.11 656.458 1447.78 656.515 1447.45 656.568C1447.13 656.614 1446.83 656.655 1446.57 656.693C1446 656.777 1445.5 656.909 1445.08 657.091C1444.66 657.273 1444.33 657.519 1444.09 657.83C1443.86 658.133 1443.74 658.511 1443.74 658.966C1443.74 659.625 1443.98 660.129 1444.45 660.477C1444.94 660.818 1445.55 660.989 1446.3 660.989ZM1466.36 670.909C1464.79 670.909 1463.45 670.693 1462.32 670.261C1461.21 669.837 1460.32 669.258 1459.66 668.523C1459.01 667.788 1458.58 666.962 1458.38 666.045L1462.86 665.443C1462.99 665.792 1463.21 666.117 1463.51 666.42C1463.8 666.723 1464.19 666.966 1464.68 667.148C1465.17 667.337 1465.77 667.432 1466.47 667.432C1467.52 667.432 1468.39 667.174 1469.07 666.659C1469.76 666.152 1470.11 665.299 1470.11 664.102V660.909H1469.9C1469.69 661.394 1469.37 661.852 1468.95 662.284C1468.52 662.716 1467.98 663.068 1467.31 663.341C1466.65 663.614 1465.85 663.75 1464.93 663.75C1463.62 663.75 1462.42 663.447 1461.35 662.841C1460.28 662.227 1459.43 661.292 1458.79 660.034C1458.16 658.769 1457.85 657.17 1457.85 655.239C1457.85 653.261 1458.17 651.61 1458.81 650.284C1459.46 648.958 1460.31 647.966 1461.38 647.307C1462.46 646.648 1463.63 646.318 1464.91 646.318C1465.89 646.318 1466.71 646.485 1467.37 646.818C1468.03 647.144 1468.56 647.553 1468.96 648.045C1469.37 648.53 1469.68 649.008 1469.9 649.477H1470.09V646.545H1474.89V664.17C1474.89 665.655 1474.53 666.898 1473.8 667.898C1473.07 668.898 1472.07 669.648 1470.78 670.148C1469.5 670.655 1468.02 670.909 1466.36 670.909ZM1466.46 660.114C1467.24 660.114 1467.9 659.92 1468.44 659.534C1468.98 659.14 1469.4 658.58 1469.69 657.852C1469.98 657.117 1470.13 656.239 1470.13 655.216C1470.13 654.193 1469.99 653.307 1469.7 652.557C1469.41 651.799 1468.99 651.212 1468.45 650.795C1467.9 650.379 1467.24 650.17 1466.46 650.17C1465.66 650.17 1464.99 650.386 1464.45 650.818C1463.9 651.242 1463.49 651.833 1463.21 652.591C1462.93 653.348 1462.79 654.223 1462.79 655.216C1462.79 656.223 1462.93 657.095 1463.21 657.83C1463.5 658.557 1463.91 659.121 1464.45 659.523C1464.99 659.917 1465.66 660.114 1466.46 660.114ZM1483.72 664.33C1482.61 664.33 1481.62 664.136 1480.74 663.75C1479.87 663.356 1479.18 662.777 1478.68 662.011C1478.18 661.239 1477.93 660.277 1477.93 659.125C1477.93 658.155 1478.1 657.341 1478.46 656.682C1478.82 656.023 1479.3 655.492 1479.91 655.091C1480.53 654.689 1481.23 654.386 1482.01 654.182C1482.79 653.977 1483.62 653.833 1484.48 653.75C1485.5 653.644 1486.32 653.545 1486.94 653.455C1487.56 653.356 1488.01 653.212 1488.29 653.023C1488.57 652.833 1488.71 652.553 1488.71 652.182V652.114C1488.71 651.394 1488.48 650.837 1488.03 650.443C1487.58 650.049 1486.95 649.852 1486.12 649.852C1485.25 649.852 1484.55 650.045 1484.04 650.432C1483.52 650.811 1483.18 651.288 1483.02 651.864L1478.54 651.5C1478.77 650.439 1479.21 649.523 1479.88 648.75C1480.55 647.97 1481.41 647.371 1482.46 646.955C1483.52 646.53 1484.75 646.318 1486.14 646.318C1487.11 646.318 1488.04 646.432 1488.93 646.659C1489.82 646.886 1490.61 647.239 1491.3 647.716C1492 648.193 1492.55 648.807 1492.95 649.557C1493.35 650.299 1493.55 651.189 1493.55 652.227V664H1488.96V661.58H1488.82C1488.54 662.125 1488.17 662.606 1487.7 663.023C1487.23 663.432 1486.66 663.754 1486.01 663.989C1485.35 664.216 1484.59 664.33 1483.72 664.33ZM1485.11 660.989C1485.82 660.989 1486.45 660.848 1486.99 660.568C1487.54 660.28 1487.97 659.894 1488.28 659.409C1488.59 658.924 1488.74 658.375 1488.74 657.761V655.909C1488.59 656.008 1488.38 656.098 1488.12 656.182C1487.86 656.258 1487.57 656.33 1487.24 656.398C1486.92 656.458 1486.59 656.515 1486.27 656.568C1485.94 656.614 1485.65 656.655 1485.38 656.693C1484.81 656.777 1484.32 656.909 1483.89 657.091C1483.47 657.273 1483.14 657.519 1482.9 657.83C1482.67 658.133 1482.55 658.511 1482.55 658.966C1482.55 659.625 1482.79 660.129 1483.27 660.477C1483.75 660.818 1484.37 660.989 1485.11 660.989ZM1506.59 646.545V650.182H1496.08V646.545H1506.59ZM1498.47 642.364H1503.31V658.636C1503.31 659.083 1503.38 659.432 1503.51 659.682C1503.65 659.924 1503.84 660.095 1504.08 660.193C1504.33 660.292 1504.62 660.341 1504.94 660.341C1505.17 660.341 1505.4 660.322 1505.62 660.284C1505.85 660.239 1506.03 660.205 1506.15 660.182L1506.91 663.784C1506.67 663.86 1506.33 663.947 1505.89 664.045C1505.45 664.152 1504.91 664.216 1504.28 664.239C1503.12 664.284 1502.09 664.129 1501.22 663.773C1500.34 663.417 1499.67 662.864 1499.18 662.114C1498.7 661.364 1498.46 660.417 1498.47 659.273V642.364ZM1509.74 664V646.545H1514.59V664H1509.74ZM1512.18 644.295C1511.46 644.295 1510.84 644.057 1510.32 643.58C1509.82 643.095 1509.56 642.515 1509.56 641.841C1509.56 641.174 1509.82 640.602 1510.32 640.125C1510.84 639.64 1511.46 639.398 1512.18 639.398C1512.9 639.398 1513.51 639.64 1514.02 640.125C1514.53 640.602 1514.79 641.174 1514.79 641.841C1514.79 642.515 1514.53 643.095 1514.02 643.58C1513.51 644.057 1512.9 644.295 1512.18 644.295ZM1526.35 664.341C1524.58 664.341 1523.06 663.966 1521.77 663.216C1520.49 662.458 1519.5 661.405 1518.8 660.057C1518.11 658.701 1517.76 657.129 1517.76 655.341C1517.76 653.538 1518.11 651.962 1518.8 650.614C1519.5 649.258 1520.49 648.205 1521.77 647.455C1523.06 646.697 1524.58 646.318 1526.35 646.318C1528.11 646.318 1529.64 646.697 1530.92 647.455C1532.21 648.205 1533.2 649.258 1533.89 650.614C1534.59 651.962 1534.94 653.538 1534.94 655.341C1534.94 657.129 1534.59 658.701 1533.89 660.057C1533.2 661.405 1532.21 662.458 1530.92 663.216C1529.64 663.966 1528.11 664.341 1526.35 664.341ZM1526.37 660.591C1527.18 660.591 1527.85 660.364 1528.38 659.909C1528.92 659.447 1529.33 658.818 1529.6 658.023C1529.88 657.227 1530.02 656.322 1530.02 655.307C1530.02 654.292 1529.88 653.386 1529.6 652.591C1529.33 651.795 1528.92 651.167 1528.38 650.705C1527.85 650.242 1527.18 650.011 1526.37 650.011C1525.56 650.011 1524.88 650.242 1524.33 650.705C1523.78 651.167 1523.37 651.795 1523.09 652.591C1522.82 653.386 1522.68 654.292 1522.68 655.307C1522.68 656.322 1522.82 657.227 1523.09 658.023C1523.37 658.818 1523.78 659.447 1524.33 659.909C1524.88 660.364 1525.56 660.591 1526.37 660.591ZM1542.93 653.909V664H1538.09V646.545H1542.7V649.625H1542.91C1543.29 648.61 1543.94 647.807 1544.85 647.216C1545.76 646.617 1546.86 646.318 1548.16 646.318C1549.37 646.318 1550.43 646.583 1551.33 647.114C1552.23 647.644 1552.93 648.402 1553.43 649.386C1553.93 650.364 1554.18 651.53 1554.18 652.886V664H1549.34V653.75C1549.35 652.682 1549.07 651.848 1548.52 651.25C1547.97 650.644 1547.21 650.341 1546.24 650.341C1545.58 650.341 1545.01 650.481 1544.51 650.761C1544.02 651.042 1543.63 651.451 1543.35 651.989C1543.08 652.519 1542.94 653.159 1542.93 653.909ZM1579.92 651.523L1575.49 651.795C1575.42 651.417 1575.25 651.076 1575 650.773C1574.75 650.462 1574.42 650.216 1574.01 650.034C1573.61 649.845 1573.13 649.75 1572.57 649.75C1571.82 649.75 1571.19 649.909 1570.67 650.227C1570.16 650.538 1569.9 650.955 1569.9 651.477C1569.9 651.894 1570.07 652.246 1570.4 652.534C1570.73 652.822 1571.31 653.053 1572.12 653.227L1575.28 653.864C1576.97 654.212 1578.24 654.773 1579.07 655.545C1579.9 656.318 1580.32 657.333 1580.32 658.591C1580.32 659.735 1579.98 660.739 1579.31 661.602C1578.64 662.466 1577.73 663.14 1576.56 663.625C1575.4 664.102 1574.06 664.341 1572.55 664.341C1570.24 664.341 1568.4 663.86 1567.03 662.898C1565.66 661.928 1564.86 660.61 1564.63 658.943L1569.39 658.693C1569.53 659.398 1569.88 659.936 1570.43 660.307C1570.99 660.67 1571.7 660.852 1572.56 660.852C1573.41 660.852 1574.09 660.689 1574.61 660.364C1575.13 660.03 1575.39 659.602 1575.4 659.08C1575.39 658.64 1575.21 658.28 1574.84 658C1574.48 657.712 1573.92 657.492 1573.16 657.341L1570.14 656.739C1568.43 656.398 1567.17 655.807 1566.33 654.966C1565.51 654.125 1565.09 653.053 1565.09 651.75C1565.09 650.629 1565.4 649.663 1566 648.852C1566.62 648.042 1567.48 647.417 1568.58 646.977C1569.7 646.538 1571 646.318 1572.49 646.318C1574.7 646.318 1576.43 646.784 1577.7 647.716C1578.97 648.648 1579.71 649.917 1579.92 651.523ZM1592.65 646.545V650.182H1582.14V646.545H1592.65ZM1584.53 642.364H1589.37V658.636C1589.37 659.083 1589.44 659.432 1589.57 659.682C1589.71 659.924 1589.9 660.095 1590.14 660.193C1590.39 660.292 1590.68 660.341 1591.01 660.341C1591.23 660.341 1591.46 660.322 1591.69 660.284C1591.91 660.239 1592.09 660.205 1592.21 660.182L1592.97 663.784C1592.73 663.86 1592.39 663.947 1591.95 664.045C1591.51 664.152 1590.98 664.216 1590.35 664.239C1589.18 664.284 1588.16 664.129 1587.28 663.773C1586.41 663.417 1585.73 662.864 1585.24 662.114C1584.76 661.364 1584.52 660.417 1584.53 659.273V642.364ZM1603.51 664.341C1601.74 664.341 1600.21 663.966 1598.93 663.216C1597.65 662.458 1596.66 661.405 1595.96 660.057C1595.26 658.701 1594.91 657.129 1594.91 655.341C1594.91 653.538 1595.26 651.962 1595.96 650.614C1596.66 649.258 1597.65 648.205 1598.93 647.455C1600.21 646.697 1601.74 646.318 1603.51 646.318C1605.27 646.318 1606.79 646.697 1608.07 647.455C1609.36 648.205 1610.35 649.258 1611.05 650.614C1611.75 651.962 1612.1 653.538 1612.1 655.341C1612.1 657.129 1611.75 658.701 1611.05 660.057C1610.35 661.405 1609.36 662.458 1608.07 663.216C1606.79 663.966 1605.27 664.341 1603.51 664.341ZM1603.53 660.591C1604.33 660.591 1605 660.364 1605.54 659.909C1606.08 659.447 1606.48 658.818 1606.76 658.023C1607.04 657.227 1607.18 656.322 1607.18 655.307C1607.18 654.292 1607.04 653.386 1606.76 652.591C1606.48 651.795 1606.08 651.167 1605.54 650.705C1605 650.242 1604.33 650.011 1603.53 650.011C1602.72 650.011 1602.04 650.242 1601.48 650.705C1600.94 651.167 1600.52 651.795 1600.24 652.591C1599.97 653.386 1599.84 654.292 1599.84 655.307C1599.84 656.322 1599.97 657.227 1600.24 658.023C1600.52 658.818 1600.94 659.447 1601.48 659.909C1602.04 660.364 1602.72 660.591 1603.53 660.591ZM1615.24 670.545V646.545H1620.02V649.477H1620.23C1620.45 649.008 1620.75 648.53 1621.15 648.045C1621.56 647.553 1622.09 647.144 1622.74 646.818C1623.4 646.485 1624.22 646.318 1625.2 646.318C1626.47 646.318 1627.65 646.652 1628.72 647.318C1629.8 647.977 1630.66 648.973 1631.3 650.307C1631.95 651.633 1632.27 653.295 1632.27 655.295C1632.27 657.242 1631.95 658.886 1631.32 660.227C1630.7 661.561 1629.85 662.572 1628.78 663.261C1627.71 663.943 1626.51 664.284 1625.19 664.284C1624.25 664.284 1623.45 664.129 1622.79 663.818C1622.14 663.508 1621.6 663.117 1621.19 662.648C1620.77 662.17 1620.45 661.689 1620.23 661.205H1620.09V670.545H1615.24ZM1619.98 655.273C1619.98 656.311 1620.13 657.216 1620.41 657.989C1620.7 658.761 1621.12 659.364 1621.66 659.795C1622.21 660.22 1622.87 660.432 1623.65 660.432C1624.44 660.432 1625.11 660.216 1625.65 659.784C1626.2 659.345 1626.61 658.739 1626.89 657.966C1627.18 657.186 1627.32 656.288 1627.32 655.273C1627.32 654.265 1627.18 653.379 1626.9 652.614C1626.62 651.848 1626.21 651.25 1625.66 650.818C1625.12 650.386 1624.45 650.17 1623.65 650.17C1622.87 650.17 1622.2 650.379 1621.65 650.795C1621.12 651.212 1620.7 651.803 1620.41 652.568C1620.13 653.333 1619.98 654.235 1619.98 655.273ZM1650.02 651.523L1645.59 651.795C1645.51 651.417 1645.35 651.076 1645.1 650.773C1644.85 650.462 1644.52 650.216 1644.11 650.034C1643.71 649.845 1643.23 649.75 1642.66 649.75C1641.91 649.75 1641.28 649.909 1640.77 650.227C1640.25 650.538 1639.99 650.955 1639.99 651.477C1639.99 651.894 1640.16 652.246 1640.49 652.534C1640.83 652.822 1641.4 653.053 1642.21 653.227L1645.37 653.864C1647.07 654.212 1648.33 654.773 1649.16 655.545C1650 656.318 1650.41 657.333 1650.41 658.591C1650.41 659.735 1650.08 660.739 1649.4 661.602C1648.74 662.466 1647.82 663.14 1646.65 663.625C1645.49 664.102 1644.16 664.341 1642.64 664.341C1640.33 664.341 1638.49 663.86 1637.12 662.898C1635.76 661.928 1634.96 660.61 1634.72 658.943L1639.48 658.693C1639.63 659.398 1639.98 659.936 1640.53 660.307C1641.08 660.67 1641.79 660.852 1642.65 660.852C1643.5 660.852 1644.18 660.689 1644.7 660.364C1645.22 660.03 1645.49 659.602 1645.49 659.08C1645.49 658.64 1645.3 658.28 1644.94 658C1644.57 657.712 1644.01 657.492 1643.26 657.341L1640.23 656.739C1638.53 656.398 1637.26 655.807 1636.43 654.966C1635.6 654.125 1635.19 653.053 1635.19 651.75C1635.19 650.629 1635.49 649.663 1636.1 648.852C1636.71 648.042 1637.57 647.417 1638.68 646.977C1639.79 646.538 1641.09 646.318 1642.59 646.318C1644.79 646.318 1646.52 646.784 1647.79 647.716C1649.06 648.648 1649.8 649.917 1650.02 651.523Z" fill="white"/>
</g>
<defs>
<clipPath id="clip0_701_997">
<rect width="1920" height="1080" fill="white"/>
</clipPath>
</defs>
</svg>
