<svg width="1920" height="1080" viewBox="0 0 1920 1080" fill="none" xmlns="http://www.w3.org/2000/svg">
<g clip-path="url(#clip0_701_936)">
<rect x="789" y="220" width="333" height="153" rx="23" fill="white"/>
<path d="M880.227 284.727L885.852 302.409H886.068L891.705 284.727H897.159L889.136 308H882.795L874.761 284.727H880.227ZM919.182 292.875H914.205C914.114 292.231 913.928 291.659 913.648 291.159C913.367 290.652 913.008 290.22 912.568 289.864C912.129 289.508 911.621 289.235 911.045 289.045C910.477 288.856 909.86 288.761 909.193 288.761C907.989 288.761 906.939 289.061 906.045 289.659C905.152 290.25 904.458 291.114 903.966 292.25C903.473 293.379 903.227 294.75 903.227 296.364C903.227 298.023 903.473 299.417 903.966 300.545C904.466 301.674 905.163 302.527 906.057 303.102C906.951 303.678 907.985 303.966 909.159 303.966C909.818 303.966 910.428 303.879 910.989 303.705C911.557 303.53 912.061 303.277 912.5 302.943C912.939 302.602 913.303 302.189 913.591 301.705C913.886 301.22 914.091 300.667 914.205 300.045L919.182 300.068C919.053 301.136 918.731 302.167 918.216 303.159C917.708 304.144 917.023 305.027 916.159 305.807C915.303 306.58 914.28 307.193 913.091 307.648C911.909 308.095 910.572 308.318 909.08 308.318C907.004 308.318 905.148 307.848 903.511 306.909C901.883 305.97 900.595 304.61 899.648 302.83C898.708 301.049 898.239 298.894 898.239 296.364C898.239 293.826 898.716 291.667 899.67 289.886C900.625 288.106 901.92 286.75 903.557 285.818C905.193 284.879 907.034 284.409 909.08 284.409C910.428 284.409 911.678 284.598 912.83 284.977C913.989 285.356 915.015 285.909 915.909 286.636C916.803 287.356 917.53 288.239 918.091 289.284C918.659 290.33 919.023 291.527 919.182 292.875ZM927.597 308.33C926.483 308.33 925.491 308.136 924.619 307.75C923.748 307.356 923.059 306.777 922.551 306.011C922.051 305.239 921.801 304.277 921.801 303.125C921.801 302.155 921.979 301.341 922.335 300.682C922.691 300.023 923.176 299.492 923.79 299.091C924.403 298.689 925.1 298.386 925.881 298.182C926.669 297.977 927.494 297.833 928.358 297.75C929.373 297.644 930.191 297.545 930.812 297.455C931.434 297.356 931.884 297.212 932.165 297.023C932.445 296.833 932.585 296.553 932.585 296.182V296.114C932.585 295.394 932.358 294.837 931.903 294.443C931.456 294.049 930.82 293.852 929.994 293.852C929.123 293.852 928.43 294.045 927.915 294.432C927.4 294.811 927.059 295.288 926.892 295.864L922.415 295.5C922.642 294.439 923.089 293.523 923.756 292.75C924.422 291.97 925.282 291.371 926.335 290.955C927.396 290.53 928.623 290.318 930.017 290.318C930.987 290.318 931.915 290.432 932.801 290.659C933.695 290.886 934.487 291.239 935.176 291.716C935.873 292.193 936.422 292.807 936.824 293.557C937.225 294.299 937.426 295.189 937.426 296.227V308H932.835V305.58H932.699C932.419 306.125 932.044 306.606 931.574 307.023C931.104 307.432 930.54 307.754 929.881 307.989C929.222 308.216 928.46 308.33 927.597 308.33ZM928.983 304.989C929.695 304.989 930.324 304.848 930.869 304.568C931.415 304.28 931.843 303.894 932.153 303.409C932.464 302.924 932.619 302.375 932.619 301.761V299.909C932.468 300.008 932.259 300.098 931.994 300.182C931.737 300.258 931.445 300.33 931.119 300.398C930.794 300.458 930.468 300.515 930.142 300.568C929.816 300.614 929.521 300.655 929.256 300.693C928.688 300.777 928.191 300.909 927.767 301.091C927.343 301.273 927.013 301.519 926.778 301.83C926.544 302.133 926.426 302.511 926.426 302.966C926.426 303.625 926.665 304.129 927.142 304.477C927.627 304.818 928.241 304.989 928.983 304.989ZM941.182 308V290.545H945.875V293.591H946.057C946.375 292.508 946.909 291.689 947.659 291.136C948.409 290.576 949.273 290.295 950.25 290.295C950.492 290.295 950.754 290.311 951.034 290.341C951.314 290.371 951.561 290.413 951.773 290.466V294.761C951.545 294.693 951.231 294.633 950.83 294.58C950.428 294.527 950.061 294.5 949.727 294.5C949.015 294.5 948.379 294.655 947.818 294.966C947.265 295.269 946.826 295.693 946.5 296.239C946.182 296.784 946.023 297.413 946.023 298.125V308H941.182ZM959.895 308.284C958.569 308.284 957.368 307.943 956.293 307.261C955.224 306.572 954.376 305.561 953.747 304.227C953.126 302.886 952.815 301.242 952.815 299.295C952.815 297.295 953.137 295.633 953.781 294.307C954.425 292.973 955.281 291.977 956.349 291.318C957.425 290.652 958.603 290.318 959.884 290.318C960.861 290.318 961.675 290.485 962.327 290.818C962.986 291.144 963.516 291.553 963.918 292.045C964.327 292.53 964.637 293.008 964.849 293.477H964.997V284.727H969.827V308H965.054V305.205H964.849C964.622 305.689 964.3 306.17 963.884 306.648C963.474 307.117 962.94 307.508 962.281 307.818C961.63 308.129 960.834 308.284 959.895 308.284ZM961.429 304.432C962.209 304.432 962.868 304.22 963.406 303.795C963.952 303.364 964.368 302.761 964.656 301.989C964.952 301.216 965.099 300.311 965.099 299.273C965.099 298.235 964.955 297.333 964.668 296.568C964.38 295.803 963.963 295.212 963.418 294.795C962.872 294.379 962.209 294.17 961.429 294.17C960.634 294.17 959.963 294.386 959.418 294.818C958.872 295.25 958.459 295.848 958.179 296.614C957.899 297.379 957.759 298.265 957.759 299.273C957.759 300.288 957.899 301.186 958.179 301.966C958.467 302.739 958.88 303.345 959.418 303.784C959.963 304.216 960.634 304.432 961.429 304.432ZM977.909 308H972.636L980.67 284.727H987.011L995.034 308H989.761L983.932 290.045H983.75L977.909 308ZM977.58 298.852H990.034V302.693H977.58V298.852ZM997.744 314.545V290.545H1002.52V293.477H1002.73C1002.95 293.008 1003.25 292.53 1003.65 292.045C1004.06 291.553 1004.59 291.144 1005.24 290.818C1005.9 290.485 1006.72 290.318 1007.7 290.318C1008.97 290.318 1010.15 290.652 1011.22 291.318C1012.3 291.977 1013.16 292.973 1013.8 294.307C1014.45 295.633 1014.77 297.295 1014.77 299.295C1014.77 301.242 1014.45 302.886 1013.82 304.227C1013.2 305.561 1012.35 306.572 1011.28 307.261C1010.21 307.943 1009.01 308.284 1007.69 308.284C1006.75 308.284 1005.95 308.129 1005.29 307.818C1004.64 307.508 1004.1 307.117 1003.69 306.648C1003.27 306.17 1002.95 305.689 1002.73 305.205H1002.59V314.545H997.744ZM1002.48 299.273C1002.48 300.311 1002.63 301.216 1002.91 301.989C1003.2 302.761 1003.62 303.364 1004.16 303.795C1004.71 304.22 1005.37 304.432 1006.15 304.432C1006.94 304.432 1007.61 304.216 1008.15 303.784C1008.7 303.345 1009.11 302.739 1009.39 301.966C1009.68 301.186 1009.82 300.288 1009.82 299.273C1009.82 298.265 1009.68 297.379 1009.4 296.614C1009.12 295.848 1008.71 295.25 1008.16 294.818C1007.62 294.386 1006.95 294.17 1006.15 294.17C1005.37 294.17 1004.7 294.379 1004.15 294.795C1003.62 295.212 1003.2 295.803 1002.91 296.568C1002.63 297.333 1002.48 298.235 1002.48 299.273ZM1017.99 314.545V290.545H1022.77V293.477H1022.98C1023.2 293.008 1023.5 292.53 1023.9 292.045C1024.31 291.553 1024.84 291.144 1025.49 290.818C1026.15 290.485 1026.97 290.318 1027.95 290.318C1029.22 290.318 1030.4 290.652 1031.47 291.318C1032.55 291.977 1033.41 292.973 1034.05 294.307C1034.7 295.633 1035.02 297.295 1035.02 299.295C1035.02 301.242 1034.7 302.886 1034.07 304.227C1033.45 305.561 1032.6 306.572 1031.53 307.261C1030.46 307.943 1029.26 308.284 1027.94 308.284C1027 308.284 1026.2 308.129 1025.54 307.818C1024.89 307.508 1024.35 307.117 1023.94 306.648C1023.52 306.17 1023.2 305.689 1022.98 305.205H1022.84V314.545H1017.99ZM1022.73 299.273C1022.73 300.311 1022.88 301.216 1023.16 301.989C1023.45 302.761 1023.87 303.364 1024.41 303.795C1024.96 304.22 1025.62 304.432 1026.4 304.432C1027.19 304.432 1027.86 304.216 1028.4 303.784C1028.95 303.345 1029.36 302.739 1029.64 301.966C1029.93 301.186 1030.07 300.288 1030.07 299.273C1030.07 298.265 1029.93 297.379 1029.65 296.614C1029.37 295.848 1028.96 295.25 1028.41 294.818C1027.87 294.386 1027.2 294.17 1026.4 294.17C1025.62 294.17 1024.95 294.379 1024.4 294.795C1023.87 295.212 1023.45 295.803 1023.16 296.568C1022.88 297.333 1022.73 298.235 1022.73 299.273Z" fill="black"/>
<rect x="789" y="706" width="342" height="153" rx="23" fill="white"/>
<path d="M880.227 770.727L885.852 788.409H886.068L891.705 770.727H897.159L889.136 794H882.795L874.761 770.727H880.227ZM919.182 778.875H914.205C914.114 778.231 913.928 777.659 913.648 777.159C913.367 776.652 913.008 776.22 912.568 775.864C912.129 775.508 911.621 775.235 911.045 775.045C910.477 774.856 909.86 774.761 909.193 774.761C907.989 774.761 906.939 775.061 906.045 775.659C905.152 776.25 904.458 777.114 903.966 778.25C903.473 779.379 903.227 780.75 903.227 782.364C903.227 784.023 903.473 785.417 903.966 786.545C904.466 787.674 905.163 788.527 906.057 789.102C906.951 789.678 907.985 789.966 909.159 789.966C909.818 789.966 910.428 789.879 910.989 789.705C911.557 789.53 912.061 789.277 912.5 788.943C912.939 788.602 913.303 788.189 913.591 787.705C913.886 787.22 914.091 786.667 914.205 786.045L919.182 786.068C919.053 787.136 918.731 788.167 918.216 789.159C917.708 790.144 917.023 791.027 916.159 791.807C915.303 792.58 914.28 793.193 913.091 793.648C911.909 794.095 910.572 794.318 909.08 794.318C907.004 794.318 905.148 793.848 903.511 792.909C901.883 791.97 900.595 790.61 899.648 788.83C898.708 787.049 898.239 784.894 898.239 782.364C898.239 779.826 898.716 777.667 899.67 775.886C900.625 774.106 901.92 772.75 903.557 771.818C905.193 770.879 907.034 770.409 909.08 770.409C910.428 770.409 911.678 770.598 912.83 770.977C913.989 771.356 915.015 771.909 915.909 772.636C916.803 773.356 917.53 774.239 918.091 775.284C918.659 776.33 919.023 777.527 919.182 778.875ZM927.597 794.33C926.483 794.33 925.491 794.136 924.619 793.75C923.748 793.356 923.059 792.777 922.551 792.011C922.051 791.239 921.801 790.277 921.801 789.125C921.801 788.155 921.979 787.341 922.335 786.682C922.691 786.023 923.176 785.492 923.79 785.091C924.403 784.689 925.1 784.386 925.881 784.182C926.669 783.977 927.494 783.833 928.358 783.75C929.373 783.644 930.191 783.545 930.812 783.455C931.434 783.356 931.884 783.212 932.165 783.023C932.445 782.833 932.585 782.553 932.585 782.182V782.114C932.585 781.394 932.358 780.837 931.903 780.443C931.456 780.049 930.82 779.852 929.994 779.852C929.123 779.852 928.43 780.045 927.915 780.432C927.4 780.811 927.059 781.288 926.892 781.864L922.415 781.5C922.642 780.439 923.089 779.523 923.756 778.75C924.422 777.97 925.282 777.371 926.335 776.955C927.396 776.53 928.623 776.318 930.017 776.318C930.987 776.318 931.915 776.432 932.801 776.659C933.695 776.886 934.487 777.239 935.176 777.716C935.873 778.193 936.422 778.807 936.824 779.557C937.225 780.299 937.426 781.189 937.426 782.227V794H932.835V791.58H932.699C932.419 792.125 932.044 792.606 931.574 793.023C931.104 793.432 930.54 793.754 929.881 793.989C929.222 794.216 928.46 794.33 927.597 794.33ZM928.983 790.989C929.695 790.989 930.324 790.848 930.869 790.568C931.415 790.28 931.843 789.894 932.153 789.409C932.464 788.924 932.619 788.375 932.619 787.761V785.909C932.468 786.008 932.259 786.098 931.994 786.182C931.737 786.258 931.445 786.33 931.119 786.398C930.794 786.458 930.468 786.515 930.142 786.568C929.816 786.614 929.521 786.655 929.256 786.693C928.688 786.777 928.191 786.909 927.767 787.091C927.343 787.273 927.013 787.519 926.778 787.83C926.544 788.133 926.426 788.511 926.426 788.966C926.426 789.625 926.665 790.129 927.142 790.477C927.627 790.818 928.241 790.989 928.983 790.989ZM941.182 794V776.545H945.875V779.591H946.057C946.375 778.508 946.909 777.689 947.659 777.136C948.409 776.576 949.273 776.295 950.25 776.295C950.492 776.295 950.754 776.311 951.034 776.341C951.314 776.371 951.561 776.413 951.773 776.466V780.761C951.545 780.693 951.231 780.633 950.83 780.58C950.428 780.527 950.061 780.5 949.727 780.5C949.015 780.5 948.379 780.655 947.818 780.966C947.265 781.269 946.826 781.693 946.5 782.239C946.182 782.784 946.023 783.413 946.023 784.125V794H941.182ZM959.895 794.284C958.569 794.284 957.368 793.943 956.293 793.261C955.224 792.572 954.376 791.561 953.747 790.227C953.126 788.886 952.815 787.242 952.815 785.295C952.815 783.295 953.137 781.633 953.781 780.307C954.425 778.973 955.281 777.977 956.349 777.318C957.425 776.652 958.603 776.318 959.884 776.318C960.861 776.318 961.675 776.485 962.327 776.818C962.986 777.144 963.516 777.553 963.918 778.045C964.327 778.53 964.637 779.008 964.849 779.477H964.997V770.727H969.827V794H965.054V791.205H964.849C964.622 791.689 964.3 792.17 963.884 792.648C963.474 793.117 962.94 793.508 962.281 793.818C961.63 794.129 960.834 794.284 959.895 794.284ZM961.429 790.432C962.209 790.432 962.868 790.22 963.406 789.795C963.952 789.364 964.368 788.761 964.656 787.989C964.952 787.216 965.099 786.311 965.099 785.273C965.099 784.235 964.955 783.333 964.668 782.568C964.38 781.803 963.963 781.212 963.418 780.795C962.872 780.379 962.209 780.17 961.429 780.17C960.634 780.17 959.963 780.386 959.418 780.818C958.872 781.25 958.459 781.848 958.179 782.614C957.899 783.379 957.759 784.265 957.759 785.273C957.759 786.288 957.899 787.186 958.179 787.966C958.467 788.739 958.88 789.345 959.418 789.784C959.963 790.216 960.634 790.432 961.429 790.432ZM994.432 778.875H989.455C989.364 778.231 989.178 777.659 988.898 777.159C988.617 776.652 988.258 776.22 987.818 775.864C987.379 775.508 986.871 775.235 986.295 775.045C985.727 774.856 985.11 774.761 984.443 774.761C983.239 774.761 982.189 775.061 981.295 775.659C980.402 776.25 979.708 777.114 979.216 778.25C978.723 779.379 978.477 780.75 978.477 782.364C978.477 784.023 978.723 785.417 979.216 786.545C979.716 787.674 980.413 788.527 981.307 789.102C982.201 789.678 983.235 789.966 984.409 789.966C985.068 789.966 985.678 789.879 986.239 789.705C986.807 789.53 987.311 789.277 987.75 788.943C988.189 788.602 988.553 788.189 988.841 787.705C989.136 787.22 989.341 786.667 989.455 786.045L994.432 786.068C994.303 787.136 993.981 788.167 993.466 789.159C992.958 790.144 992.273 791.027 991.409 791.807C990.553 792.58 989.53 793.193 988.341 793.648C987.159 794.095 985.822 794.318 984.33 794.318C982.254 794.318 980.398 793.848 978.761 792.909C977.133 791.97 975.845 790.61 974.898 788.83C973.958 787.049 973.489 784.894 973.489 782.364C973.489 779.826 973.966 777.667 974.92 775.886C975.875 774.106 977.17 772.75 978.807 771.818C980.443 770.879 982.284 770.409 984.33 770.409C985.678 770.409 986.928 770.598 988.08 770.977C989.239 771.356 990.265 771.909 991.159 772.636C992.053 773.356 992.78 774.239 993.341 775.284C993.909 776.33 994.273 777.527 994.432 778.875ZM997.869 794V776.545H1002.48V779.625H1002.69C1003.05 778.602 1003.66 777.795 1004.51 777.205C1005.35 776.614 1006.37 776.318 1007.55 776.318C1008.75 776.318 1009.77 776.617 1010.61 777.216C1011.45 777.807 1012.01 778.61 1012.29 779.625H1012.47C1012.83 778.625 1013.47 777.826 1014.4 777.227C1015.34 776.621 1016.45 776.318 1017.73 776.318C1019.36 776.318 1020.68 776.837 1021.7 777.875C1022.72 778.905 1023.23 780.367 1023.23 782.261V794H1018.4V783.216C1018.4 782.246 1018.15 781.519 1017.63 781.034C1017.12 780.549 1016.47 780.307 1015.7 780.307C1014.82 780.307 1014.13 780.587 1013.64 781.148C1013.15 781.701 1012.9 782.432 1012.9 783.341V794H1008.21V783.114C1008.21 782.258 1007.96 781.576 1007.47 781.068C1006.99 780.561 1006.35 780.307 1005.55 780.307C1005.01 780.307 1004.53 780.443 1004.1 780.716C1003.67 780.981 1003.34 781.356 1003.09 781.841C1002.84 782.318 1002.71 782.879 1002.71 783.523V794H997.869ZM1027.06 800.545V776.545H1031.83V779.477H1032.05C1032.26 779.008 1032.56 778.53 1032.97 778.045C1033.38 777.553 1033.91 777.144 1034.56 776.818C1035.22 776.485 1036.03 776.318 1037.01 776.318C1038.28 776.318 1039.46 776.652 1040.53 777.318C1041.61 777.977 1042.47 778.973 1043.11 780.307C1043.76 781.633 1044.08 783.295 1044.08 785.295C1044.08 787.242 1043.77 788.886 1043.14 790.227C1042.52 791.561 1041.67 792.572 1040.59 793.261C1039.52 793.943 1038.33 794.284 1037 794.284C1036.06 794.284 1035.26 794.129 1034.6 793.818C1033.95 793.508 1033.42 793.117 1033 792.648C1032.58 792.17 1032.27 791.689 1032.05 791.205H1031.9V800.545H1027.06ZM1031.8 785.273C1031.8 786.311 1031.94 787.216 1032.23 787.989C1032.52 788.761 1032.93 789.364 1033.48 789.795C1034.02 790.22 1034.69 790.432 1035.47 790.432C1036.25 790.432 1036.92 790.216 1037.47 789.784C1038.01 789.345 1038.42 788.739 1038.7 787.966C1038.99 787.186 1039.14 786.288 1039.14 785.273C1039.14 784.265 1039 783.379 1038.72 782.614C1038.44 781.848 1038.02 781.25 1037.48 780.818C1036.93 780.386 1036.26 780.17 1035.47 780.17C1034.68 780.17 1034.01 780.379 1033.47 780.795C1032.93 781.212 1032.52 781.803 1032.23 782.568C1031.94 783.333 1031.8 784.235 1031.8 785.273Z" fill="black"/>
<line x1="962" y1="373" x2="962" y2="706" stroke="white" stroke-width="4"/>
</g>
<defs>
<clipPath id="clip0_701_936">
<rect width="1920" height="1080" fill="white"/>
</clipPath>
</defs>
</svg>
