<svg width="960" height="1080" viewBox="0 0 960 1080" fill="none" xmlns="http://www.w3.org/2000/svg">
<g clip-path="url(#clip0_926_188)">
<path opacity="0.64" d="M1018.31 942.032L813.732 615.471V353.875H826.031C848.983 353.875 866.045 335.251 866.045 312.297L866.045 284.578C866.045 261.624 847.423 243 826.03 243H468.845C445.979 243 427.288 261.624 427.288 284.578L427.288 312.297C427.288 335.251 445.91 353.875 467.303 353.875H479.601L482.702 615.471L279.685 942.032C228.965 1023.63 287.428 1130 383.775 1130H914.184C1010.51 1130 1069.06 1023.46 1018.31 942.032ZM498.466 797.375L581.873 662.887C589.754 654.104 593.392 642.843 593.392 631.062L593.505 353.875H704.35L704.246 631.062C704.246 642.973 708.144 654.017 714.423 662.904L797.795 797.375H498.466Z" fill="url(#paint0_linear_926_188)"/>
</g>
<defs>
<linearGradient id="paint0_linear_926_188" x1="261" y1="243" x2="1218.19" y2="839.242" gradientUnits="userSpaceOnUse">
<stop stop-color="#D9304C"/>
<stop offset="1" stop-color="#BE82FA"/>
</linearGradient>
<clipPath id="clip0_926_188">
<rect width="960" height="1080" fill="white"/>
</clipPath>
</defs>
</svg>
